solid ascii
  facet normal 1.000000e+000 0.000000e+000 -0.000000e+000
    outer loop
      vertex   1.500000e+002 1.500000e+002 -2.000000e+002
      vertex   1.500000e+002 1.500000e+002 0.000000e+000
      vertex   1.500000e+002 -1.500000e+002 -2.000000e+002
    endloop
  endfacet
  facet normal 1.000000e+000 0.000000e+000 -0.000000e+000
    outer loop
      vertex   1.500000e+002 -1.500000e+002 -2.000000e+002
      vertex   1.500000e+002 1.500000e+002 0.000000e+000
      vertex   1.500000e+002 -1.500000e+002 0.000000e+000
    endloop
  endfacet
  facet normal -0.000000e+000 1.000000e+000 0.000000e+000
    outer loop
      vertex   -1.500000e+002 1.500000e+002 -2.000000e+002
      vertex   -1.500000e+002 1.500000e+002 0.000000e+000
      vertex   1.500000e+002 1.500000e+002 -2.000000e+002
    endloop
  endfacet
  facet normal 0.000000e+000 1.000000e+000 -0.000000e+000
    outer loop
      vertex   1.500000e+002 1.500000e+002 -2.000000e+002
      vertex   -1.500000e+002 1.500000e+002 0.000000e+000
      vertex   1.500000e+002 1.500000e+002 0.000000e+000
    endloop
  endfacet
  facet normal -1.000000e+000 0.000000e+000 0.000000e+000
    outer loop
      vertex   -1.500000e+002 -1.500000e+002 -2.000000e+002
      vertex   -1.500000e+002 -1.500000e+002 0.000000e+000
      vertex   -1.500000e+002 1.500000e+002 -2.000000e+002
    endloop
  endfacet
  facet normal -1.000000e+000 0.000000e+000 0.000000e+000
    outer loop
      vertex   -1.500000e+002 1.500000e+002 -2.000000e+002
      vertex   -1.500000e+002 -1.500000e+002 0.000000e+000
      vertex   -1.500000e+002 1.500000e+002 0.000000e+000
    endloop
  endfacet
  facet normal -0.000000e+000 -1.000000e+000 0.000000e+000
    outer loop
      vertex   1.500000e+002 -1.500000e+002 -2.000000e+002
      vertex   1.500000e+002 -1.500000e+002 0.000000e+000
      vertex   -1.500000e+002 -1.500000e+002 -2.000000e+002
    endloop
  endfacet
  facet normal 0.000000e+000 -1.000000e+000 0.000000e+000
    outer loop
      vertex   -1.500000e+002 -1.500000e+002 -2.000000e+002
      vertex   1.500000e+002 -1.500000e+002 0.000000e+000
      vertex   -1.500000e+002 -1.500000e+002 0.000000e+000
    endloop
  endfacet
  facet normal 0.000000e+000 -0.000000e+000 1.000000e+000
    outer loop
      vertex   -1.500000e+002 -1.500000e+002 0.000000e+000
      vertex   1.500000e+002 -1.500000e+002 0.000000e+000
      vertex   -1.500000e+002 1.500000e+002 0.000000e+000
    endloop
  endfacet
  facet normal -0.000000e+000 0.000000e+000 1.000000e+000
    outer loop
      vertex   -1.500000e+002 1.500000e+002 0.000000e+000
      vertex   1.500000e+002 -1.500000e+002 0.000000e+000
      vertex   1.500000e+002 1.500000e+002 0.000000e+000
    endloop
  endfacet
  facet normal 0.000000e+000 0.000000e+000 -1.000000e+000
    outer loop
      vertex   1.500000e+002 -1.500000e+002 -2.000000e+002
      vertex   -1.500000e+002 -1.500000e+002 -2.000000e+002
      vertex   1.500000e+002 1.500000e+002 -2.000000e+002
    endloop
  endfacet
  facet normal -0.000000e+000 0.000000e+000 -1.000000e+000
    outer loop
      vertex   1.500000e+002 1.500000e+002 -2.000000e+002
      vertex   -1.500000e+002 -1.500000e+002 -2.000000e+002
      vertex   -1.500000e+002 1.500000e+002 -2.000000e+002
    endloop
  endfacet
endsolid
