solid ascii
  facet normal 0.000000e+000 0.000000e+000 -1.000000e+000
    outer loop
      vertex   1.233813e+001 -2.005141e+000 -5.000000e+001
      vertex   -1.245947e+001 -1.005832e+000 -5.000000e+001
      vertex   1.250000e+001 1.530808e-015 -5.000000e+001
    endloop
  endfacet
  facet normal -0.000000e+000 0.000000e+000 -1.000000e+000
    outer loop
      vertex   1.233813e+001 -2.005141e+000 -5.000000e+001
      vertex   -1.213677e+001 -2.991446e+000 -5.000000e+001
      vertex   -1.245947e+001 -1.005832e+000 -5.000000e+001
    endloop
  endfacet
  facet normal -0.000000e+000 0.000000e+000 -1.000000e+000
    outer loop
      vertex   1.233813e+001 -2.005141e+000 -5.000000e+001
      vertex   1.185671e+001 -3.958350e+000 -5.000000e+001
      vertex   -1.213677e+001 -2.991446e+000 -5.000000e+001
    endloop
  endfacet
  facet normal 0.000000e+000 -0.000000e+000 -1.000000e+000
    outer loop
      vertex   -1.213677e+001 -2.991446e+000 -5.000000e+001
      vertex   1.185671e+001 -3.958350e+000 -5.000000e+001
      vertex   -1.149974e+001 -4.899583e+000 -5.000000e+001
    endloop
  endfacet
  facet normal 0.000000e+000 -0.000000e+000 -1.000000e+000
    outer loop
      vertex   -1.149974e+001 -4.899583e+000 -5.000000e+001
      vertex   1.185671e+001 -3.958350e+000 -5.000000e+001
      vertex   1.106820e+001 -5.809040e+000 -5.000000e+001
    endloop
  endfacet
  facet normal 0.000000e+000 -0.000000e+000 -1.000000e+000
    outer loop
      vertex   -1.056488e+001 -6.680823e+000 -5.000000e+001
      vertex   1.106820e+001 -5.809040e+000 -5.000000e+001
      vertex   9.993035e+000 -7.509278e+000 -5.000000e+001
    endloop
  endfacet
  facet normal 0.000000e+000 -0.000000e+000 -1.000000e+000
    outer loop
      vertex   -9.356384e+000 -8.289033e+000 -5.000000e+001
      vertex   9.993035e+000 -7.509278e+000 -5.000000e+001
      vertex   8.659054e+000 -9.015031e+000 -5.000000e+001
    endloop
  endfacet
  facet normal 0.000000e+000 -0.000000e+000 -1.000000e+000
    outer loop
      vertex   -7.905567e+000 -9.682562e+000 -5.000000e+001
      vertex   8.659054e+000 -9.015031e+000 -5.000000e+001
      vertex   7.100809e+000 -1.028730e+001 -5.000000e+001
    endloop
  endfacet
  facet normal 0.000000e+000 -0.000000e+000 -1.000000e+000
    outer loop
      vertex   -6.250000e+000 -1.082532e+001 -5.000000e+001
      vertex   7.100809e+000 -1.028730e+001 -5.000000e+001
      vertex   5.358657e+000 -1.129313e+001 -5.000000e+001
    endloop
  endfacet
  facet normal 0.000000e+000 -0.000000e+000 -1.000000e+000
    outer loop
      vertex   -4.432561e+000 -1.168770e+001 -5.000000e+001
      vertex   5.358657e+000 -1.129313e+001 -5.000000e+001
      vertex   3.477718e+000 -1.200648e+001 -5.000000e+001
    endloop
  endfacet
  facet normal 0.000000e+000 -0.000000e+000 -1.000000e+000
    outer loop
      vertex   -2.500321e+000 -1.224738e+001 -5.000000e+001
      vertex   3.477718e+000 -1.200648e+001 -5.000000e+001
      vertex   1.506709e+000 -1.240886e+001 -5.000000e+001
    endloop
  endfacet
  facet normal 0.000000e+000 0.000000e+000 -1.000000e+000
    outer loop
      vertex   -5.033243e-001 -1.248986e+001 -5.000000e+001
      vertex   -2.500321e+000 -1.224738e+001 -5.000000e+001
      vertex   1.506709e+000 -1.240886e+001 -5.000000e+001
    endloop
  endfacet
  facet normal 0.000000e+000 -0.000000e+000 -1.000000e+000
    outer loop
      vertex   -1.149974e+001 -4.899583e+000 -5.000000e+001
      vertex   1.106820e+001 -5.809040e+000 -5.000000e+001
      vertex   -1.056488e+001 -6.680823e+000 -5.000000e+001
    endloop
  endfacet
  facet normal 0.000000e+000 -0.000000e+000 -1.000000e+000
    outer loop
      vertex   -1.056488e+001 -6.680823e+000 -5.000000e+001
      vertex   9.993035e+000 -7.509278e+000 -5.000000e+001
      vertex   -9.356384e+000 -8.289033e+000 -5.000000e+001
    endloop
  endfacet
  facet normal 0.000000e+000 -0.000000e+000 -1.000000e+000
    outer loop
      vertex   -9.356384e+000 -8.289033e+000 -5.000000e+001
      vertex   8.659054e+000 -9.015031e+000 -5.000000e+001
      vertex   -7.905567e+000 -9.682562e+000 -5.000000e+001
    endloop
  endfacet
  facet normal 0.000000e+000 -0.000000e+000 -1.000000e+000
    outer loop
      vertex   -7.905567e+000 -9.682562e+000 -5.000000e+001
      vertex   7.100809e+000 -1.028730e+001 -5.000000e+001
      vertex   -6.250000e+000 -1.082532e+001 -5.000000e+001
    endloop
  endfacet
  facet normal 0.000000e+000 -0.000000e+000 -1.000000e+000
    outer loop
      vertex   -6.250000e+000 -1.082532e+001 -5.000000e+001
      vertex   5.358657e+000 -1.129313e+001 -5.000000e+001
      vertex   -4.432561e+000 -1.168770e+001 -5.000000e+001
    endloop
  endfacet
  facet normal 0.000000e+000 -0.000000e+000 -1.000000e+000
    outer loop
      vertex   -4.432561e+000 -1.168770e+001 -5.000000e+001
      vertex   3.477718e+000 -1.200648e+001 -5.000000e+001
      vertex   -2.500321e+000 -1.224738e+001 -5.000000e+001
    endloop
  endfacet
  facet normal 0.000000e+000 0.000000e+000 -1.000000e+000
    outer loop
      vertex   -1.245947e+001 -1.005832e+000 -5.000000e+001
      vertex   -1.245947e+001 1.005832e+000 -5.000000e+001
      vertex   1.250000e+001 1.530808e-015 -5.000000e+001
    endloop
  endfacet
  facet normal 0.000000e+000 0.000000e+000 -1.000000e+000
    outer loop
      vertex   1.250000e+001 1.530808e-015 -5.000000e+001
      vertex   -1.245947e+001 1.005832e+000 -5.000000e+001
      vertex   1.233813e+001 2.005141e+000 -5.000000e+001
    endloop
  endfacet
  facet normal -0.000000e+000 0.000000e+000 -1.000000e+000
    outer loop
      vertex   1.233813e+001 2.005141e+000 -5.000000e+001
      vertex   -1.245947e+001 1.005832e+000 -5.000000e+001
      vertex   -1.213677e+001 2.991446e+000 -5.000000e+001
    endloop
  endfacet
  facet normal -0.000000e+000 0.000000e+000 -1.000000e+000
    outer loop
      vertex   1.185671e+001 3.958350e+000 -5.000000e+001
      vertex   -1.213677e+001 2.991446e+000 -5.000000e+001
      vertex   -1.149974e+001 4.899583e+000 -5.000000e+001
    endloop
  endfacet
  facet normal -0.000000e+000 0.000000e+000 -1.000000e+000
    outer loop
      vertex   1.106820e+001 5.809040e+000 -5.000000e+001
      vertex   -1.149974e+001 4.899583e+000 -5.000000e+001
      vertex   -1.056488e+001 6.680823e+000 -5.000000e+001
    endloop
  endfacet
  facet normal -0.000000e+000 0.000000e+000 -1.000000e+000
    outer loop
      vertex   9.993035e+000 7.509278e+000 -5.000000e+001
      vertex   -1.056488e+001 6.680823e+000 -5.000000e+001
      vertex   -9.356384e+000 8.289033e+000 -5.000000e+001
    endloop
  endfacet
  facet normal -0.000000e+000 0.000000e+000 -1.000000e+000
    outer loop
      vertex   8.659054e+000 9.015031e+000 -5.000000e+001
      vertex   -9.356384e+000 8.289033e+000 -5.000000e+001
      vertex   -7.905567e+000 9.682562e+000 -5.000000e+001
    endloop
  endfacet
  facet normal -0.000000e+000 0.000000e+000 -1.000000e+000
    outer loop
      vertex   7.100809e+000 1.028730e+001 -5.000000e+001
      vertex   -7.905567e+000 9.682562e+000 -5.000000e+001
      vertex   -6.250000e+000 1.082532e+001 -5.000000e+001
    endloop
  endfacet
  facet normal -0.000000e+000 0.000000e+000 -1.000000e+000
    outer loop
      vertex   5.358657e+000 1.129313e+001 -5.000000e+001
      vertex   -6.250000e+000 1.082532e+001 -5.000000e+001
      vertex   -4.432561e+000 1.168770e+001 -5.000000e+001
    endloop
  endfacet
  facet normal -0.000000e+000 0.000000e+000 -1.000000e+000
    outer loop
      vertex   3.477718e+000 1.200648e+001 -5.000000e+001
      vertex   -4.432561e+000 1.168770e+001 -5.000000e+001
      vertex   -2.500321e+000 1.224738e+001 -5.000000e+001
    endloop
  endfacet
  facet normal -0.000000e+000 0.000000e+000 -1.000000e+000
    outer loop
      vertex   1.506709e+000 1.240886e+001 -5.000000e+001
      vertex   -2.500321e+000 1.224738e+001 -5.000000e+001
      vertex   -5.033243e-001 1.248986e+001 -5.000000e+001
    endloop
  endfacet
  facet normal -0.000000e+000 -0.000000e+000 -1.000000e+000
    outer loop
      vertex   1.506709e+000 1.240886e+001 -5.000000e+001
      vertex   3.477718e+000 1.200648e+001 -5.000000e+001
      vertex   -2.500321e+000 1.224738e+001 -5.000000e+001
    endloop
  endfacet
  facet normal 0.000000e+000 0.000000e+000 -1.000000e+000
    outer loop
      vertex   1.233813e+001 2.005141e+000 -5.000000e+001
      vertex   -1.213677e+001 2.991446e+000 -5.000000e+001
      vertex   1.185671e+001 3.958350e+000 -5.000000e+001
    endloop
  endfacet
  facet normal 0.000000e+000 0.000000e+000 -1.000000e+000
    outer loop
      vertex   1.185671e+001 3.958350e+000 -5.000000e+001
      vertex   -1.149974e+001 4.899583e+000 -5.000000e+001
      vertex   1.106820e+001 5.809040e+000 -5.000000e+001
    endloop
  endfacet
  facet normal 0.000000e+000 0.000000e+000 -1.000000e+000
    outer loop
      vertex   1.106820e+001 5.809040e+000 -5.000000e+001
      vertex   -1.056488e+001 6.680823e+000 -5.000000e+001
      vertex   9.993035e+000 7.509278e+000 -5.000000e+001
    endloop
  endfacet
  facet normal 0.000000e+000 0.000000e+000 -1.000000e+000
    outer loop
      vertex   9.993035e+000 7.509278e+000 -5.000000e+001
      vertex   -9.356384e+000 8.289033e+000 -5.000000e+001
      vertex   8.659054e+000 9.015031e+000 -5.000000e+001
    endloop
  endfacet
  facet normal 0.000000e+000 0.000000e+000 -1.000000e+000
    outer loop
      vertex   8.659054e+000 9.015031e+000 -5.000000e+001
      vertex   -7.905567e+000 9.682562e+000 -5.000000e+001
      vertex   7.100809e+000 1.028730e+001 -5.000000e+001
    endloop
  endfacet
  facet normal 0.000000e+000 0.000000e+000 -1.000000e+000
    outer loop
      vertex   7.100809e+000 1.028730e+001 -5.000000e+001
      vertex   -6.250000e+000 1.082532e+001 -5.000000e+001
      vertex   5.358657e+000 1.129313e+001 -5.000000e+001
    endloop
  endfacet
  facet normal 0.000000e+000 0.000000e+000 -1.000000e+000
    outer loop
      vertex   5.358657e+000 1.129313e+001 -5.000000e+001
      vertex   -4.432561e+000 1.168770e+001 -5.000000e+001
      vertex   3.477718e+000 1.200648e+001 -5.000000e+001
    endloop
  endfacet
  facet normal 9.967573e-001 8.046657e-002 -0.000000e+000
    outer loop
      vertex   1.233813e+001 2.005141e+000 -5.000000e+001
      vertex   1.233813e+001 2.005141e+000 -1.666667e+001
      vertex   1.250000e+001 1.530808e-015 -5.000000e+001
    endloop
  endfacet
  facet normal 9.709418e-001 2.393157e-001 0.000000e+000
    outer loop
      vertex   1.233813e+001 2.005141e+000 -5.000000e+001
      vertex   1.185671e+001 3.958350e+000 -1.666667e+001
      vertex   1.233813e+001 2.005141e+000 -1.666667e+001
    endloop
  endfacet
  facet normal 9.709418e-001 2.393157e-001 -0.000000e+000
    outer loop
      vertex   1.233813e+001 2.005141e+000 -5.000000e+001
      vertex   1.185671e+001 3.958350e+000 -5.000000e+001
      vertex   1.185671e+001 3.958350e+000 -1.666667e+001
    endloop
  endfacet
  facet normal 9.199794e-001 3.919666e-001 0.000000e+000
    outer loop
      vertex   1.185671e+001 3.958350e+000 -1.666667e+001
      vertex   1.185671e+001 3.958350e+000 -5.000000e+001
      vertex   1.106820e+001 5.809040e+000 -1.666667e+001
    endloop
  endfacet
  facet normal 8.451901e-001 5.344658e-001 -2.616438e-017
    outer loop
      vertex   1.106820e+001 5.809040e+000 1.666667e+001
      vertex   1.106820e+001 5.809040e+000 -1.666667e+001
      vertex   9.993035e+000 7.509278e+000 1.666667e+001
    endloop
  endfacet
  facet normal 7.485107e-001 6.631227e-001 0.000000e+000
    outer loop
      vertex   9.993035e+000 7.509278e+000 5.000000e+001
      vertex   9.993035e+000 7.509278e+000 1.666667e+001
      vertex   8.659054e+000 9.015031e+000 5.000000e+001
    endloop
  endfacet
  facet normal 8.451901e-001 5.344658e-001 0.000000e+000
    outer loop
      vertex   9.993035e+000 7.509278e+000 5.000000e+001
      vertex   1.106820e+001 5.809040e+000 1.666667e+001
      vertex   9.993035e+000 7.509278e+000 1.666667e+001
    endloop
  endfacet
  facet normal 8.451901e-001 5.344658e-001 0.000000e+000
    outer loop
      vertex   9.993035e+000 7.509278e+000 5.000000e+001
      vertex   1.106820e+001 5.809040e+000 5.000000e+001
      vertex   1.106820e+001 5.809040e+000 1.666667e+001
    endloop
  endfacet
  facet normal 9.199794e-001 3.919666e-001 -0.000000e+000
    outer loop
      vertex   1.106820e+001 5.809040e+000 1.666667e+001
      vertex   1.106820e+001 5.809040e+000 5.000000e+001
      vertex   1.185671e+001 3.958350e+000 1.666667e+001
    endloop
  endfacet
  facet normal 9.709418e-001 2.393157e-001 1.029395e-017
    outer loop
      vertex   1.185671e+001 3.958350e+000 -1.666667e+001
      vertex   1.185671e+001 3.958350e+000 1.666667e+001
      vertex   1.233813e+001 2.005141e+000 -1.666667e+001
    endloop
  endfacet
  facet normal 9.199794e-001 3.919666e-001 -1.655678e-017
    outer loop
      vertex   1.185671e+001 3.958350e+000 -1.666667e+001
      vertex   1.106820e+001 5.809040e+000 1.666667e+001
      vertex   1.185671e+001 3.958350e+000 1.666667e+001
    endloop
  endfacet
  facet normal 9.199794e-001 3.919666e-001 -3.194089e-018
    outer loop
      vertex   1.185671e+001 3.958350e+000 -1.666667e+001
      vertex   1.106820e+001 5.809040e+000 -1.666667e+001
      vertex   1.106820e+001 5.809040e+000 1.666667e+001
    endloop
  endfacet
  facet normal 9.199794e-001 3.919666e-001 -0.000000e+000
    outer loop
      vertex   1.185671e+001 3.958350e+000 -5.000000e+001
      vertex   1.106820e+001 5.809040e+000 -5.000000e+001
      vertex   1.106820e+001 5.809040e+000 -1.666667e+001
    endloop
  endfacet
  facet normal 8.451901e-001 5.344658e-001 0.000000e+000
    outer loop
      vertex   1.106820e+001 5.809040e+000 -1.666667e+001
      vertex   1.106820e+001 5.809040e+000 -5.000000e+001
      vertex   9.993035e+000 7.509278e+000 -1.666667e+001
    endloop
  endfacet
  facet normal 7.485107e-001 6.631227e-001 -1.311875e-017
    outer loop
      vertex   9.993035e+000 7.509278e+000 1.666667e+001
      vertex   9.993035e+000 7.509278e+000 -1.666667e+001
      vertex   8.659054e+000 9.015031e+000 1.666667e+001
    endloop
  endfacet
  facet normal 6.324454e-001 7.746050e-001 0.000000e+000
    outer loop
      vertex   8.659054e+000 9.015031e+000 5.000000e+001
      vertex   8.659054e+000 9.015031e+000 1.666667e+001
      vertex   7.100809e+000 1.028730e+001 5.000000e+001
    endloop
  endfacet
  facet normal 7.485107e-001 6.631227e-001 0.000000e+000
    outer loop
      vertex   8.659054e+000 9.015031e+000 5.000000e+001
      vertex   9.993035e+000 7.509278e+000 1.666667e+001
      vertex   8.659054e+000 9.015031e+000 1.666667e+001
    endloop
  endfacet
  facet normal 8.451901e-001 5.344658e-001 4.967614e-017
    outer loop
      vertex   1.106820e+001 5.809040e+000 -5.000000e+001
      vertex   9.993035e+000 7.509278e+000 -5.000000e+001
      vertex   9.993035e+000 7.509278e+000 -1.666667e+001
    endloop
  endfacet
  facet normal 7.485107e-001 6.631227e-001 1.365117e-017
    outer loop
      vertex   9.993035e+000 7.509278e+000 -1.666667e+001
      vertex   9.993035e+000 7.509278e+000 -5.000000e+001
      vertex   8.659054e+000 9.015031e+000 -1.666667e+001
    endloop
  endfacet
  facet normal 6.324454e-001 7.746050e-001 0.000000e+000
    outer loop
      vertex   8.659054e+000 9.015031e+000 1.666667e+001
      vertex   8.659054e+000 9.015031e+000 -1.666667e+001
      vertex   7.100809e+000 1.028730e+001 1.666667e+001
    endloop
  endfacet
  facet normal 5.000000e-001 8.660254e-001 0.000000e+000
    outer loop
      vertex   7.100809e+000 1.028730e+001 5.000000e+001
      vertex   7.100809e+000 1.028730e+001 1.666667e+001
      vertex   5.358657e+000 1.129313e+001 5.000000e+001
    endloop
  endfacet
  facet normal 6.324454e-001 7.746050e-001 0.000000e+000
    outer loop
      vertex   7.100809e+000 1.028730e+001 5.000000e+001
      vertex   8.659054e+000 9.015031e+000 1.666667e+001
      vertex   7.100809e+000 1.028730e+001 1.666667e+001
    endloop
  endfacet
  facet normal 7.485107e-001 6.631227e-001 -0.000000e+000
    outer loop
      vertex   9.993035e+000 7.509278e+000 -5.000000e+001
      vertex   8.659054e+000 9.015031e+000 -5.000000e+001
      vertex   8.659054e+000 9.015031e+000 -1.666667e+001
    endloop
  endfacet
  facet normal 6.324454e-001 7.746050e-001 0.000000e+000
    outer loop
      vertex   8.659054e+000 9.015031e+000 -1.666667e+001
      vertex   8.659054e+000 9.015031e+000 -5.000000e+001
      vertex   7.100809e+000 1.028730e+001 -1.666667e+001
    endloop
  endfacet
  facet normal 5.000000e-001 8.660254e-001 0.000000e+000
    outer loop
      vertex   7.100809e+000 1.028730e+001 1.666667e+001
      vertex   7.100809e+000 1.028730e+001 -1.666667e+001
      vertex   5.358657e+000 1.129313e+001 1.666667e+001
    endloop
  endfacet
  facet normal 3.546049e-001 9.350162e-001 0.000000e+000
    outer loop
      vertex   5.358657e+000 1.129313e+001 5.000000e+001
      vertex   5.358657e+000 1.129313e+001 1.666667e+001
      vertex   3.477718e+000 1.200648e+001 5.000000e+001
    endloop
  endfacet
  facet normal 5.000000e-001 8.660254e-001 0.000000e+000
    outer loop
      vertex   5.358657e+000 1.129313e+001 5.000000e+001
      vertex   7.100809e+000 1.028730e+001 1.666667e+001
      vertex   5.358657e+000 1.129313e+001 1.666667e+001
    endloop
  endfacet
  facet normal 6.324454e-001 7.746050e-001 -0.000000e+000
    outer loop
      vertex   8.659054e+000 9.015031e+000 -5.000000e+001
      vertex   7.100809e+000 1.028730e+001 -5.000000e+001
      vertex   7.100809e+000 1.028730e+001 -1.666667e+001
    endloop
  endfacet
  facet normal 5.000000e-001 8.660254e-001 0.000000e+000
    outer loop
      vertex   7.100809e+000 1.028730e+001 -1.666667e+001
      vertex   7.100809e+000 1.028730e+001 -5.000000e+001
      vertex   5.358657e+000 1.129313e+001 -1.666667e+001
    endloop
  endfacet
  facet normal 3.546049e-001 9.350162e-001 0.000000e+000
    outer loop
      vertex   5.358657e+000 1.129313e+001 1.666667e+001
      vertex   5.358657e+000 1.129313e+001 -1.666667e+001
      vertex   3.477718e+000 1.200648e+001 1.666667e+001
    endloop
  endfacet
  facet normal 2.000257e-001 9.797907e-001 0.000000e+000
    outer loop
      vertex   3.477718e+000 1.200648e+001 5.000000e+001
      vertex   3.477718e+000 1.200648e+001 1.666667e+001
      vertex   1.506709e+000 1.240886e+001 5.000000e+001
    endloop
  endfacet
  facet normal 3.546049e-001 9.350162e-001 0.000000e+000
    outer loop
      vertex   3.477718e+000 1.200648e+001 5.000000e+001
      vertex   5.358657e+000 1.129313e+001 1.666667e+001
      vertex   3.477718e+000 1.200648e+001 1.666667e+001
    endloop
  endfacet
  facet normal 5.000000e-001 8.660254e-001 -0.000000e+000
    outer loop
      vertex   7.100809e+000 1.028730e+001 -5.000000e+001
      vertex   5.358657e+000 1.129313e+001 -5.000000e+001
      vertex   5.358657e+000 1.129313e+001 -1.666667e+001
    endloop
  endfacet
  facet normal 3.546049e-001 9.350162e-001 0.000000e+000
    outer loop
      vertex   5.358657e+000 1.129313e+001 -1.666667e+001
      vertex   5.358657e+000 1.129313e+001 -5.000000e+001
      vertex   3.477718e+000 1.200648e+001 -1.666667e+001
    endloop
  endfacet
  facet normal 2.000257e-001 9.797907e-001 -3.355959e-017
    outer loop
      vertex   3.477718e+000 1.200648e+001 1.666667e+001
      vertex   3.477718e+000 1.200648e+001 -1.666667e+001
      vertex   1.506709e+000 1.240886e+001 1.666667e+001
    endloop
  endfacet
  facet normal 4.026594e-002 9.991890e-001 3.486926e-018
    outer loop
      vertex   1.506709e+000 1.240886e+001 5.000000e+001
      vertex   1.506709e+000 1.240886e+001 1.666667e+001
      vertex   -5.033243e-001 1.248986e+001 5.000000e+001
    endloop
  endfacet
  facet normal 2.000257e-001 9.797907e-001 1.655678e-017
    outer loop
      vertex   1.506709e+000 1.240886e+001 5.000000e+001
      vertex   3.477718e+000 1.200648e+001 1.666667e+001
      vertex   1.506709e+000 1.240886e+001 1.666667e+001
    endloop
  endfacet
  facet normal 3.546049e-001 9.350162e-001 2.834572e-017
    outer loop
      vertex   5.358657e+000 1.129313e+001 -5.000000e+001
      vertex   3.477718e+000 1.200648e+001 -5.000000e+001
      vertex   3.477718e+000 1.200648e+001 -1.666667e+001
    endloop
  endfacet
  facet normal 2.000257e-001 9.797907e-001 1.598927e-017
    outer loop
      vertex   3.477718e+000 1.200648e+001 -1.666667e+001
      vertex   3.477718e+000 1.200648e+001 -5.000000e+001
      vertex   1.506709e+000 1.240886e+001 -1.666667e+001
    endloop
  endfacet
  facet normal 4.026594e-002 9.991890e-001 3.218701e-018
    outer loop
      vertex   1.506709e+000 1.240886e+001 1.666667e+001
      vertex   1.506709e+000 1.240886e+001 -1.666667e+001
      vertex   -5.033243e-001 1.248986e+001 1.666667e+001
    endloop
  endfacet
  facet normal -1.205367e-001 9.927089e-001 0.000000e+000
    outer loop
      vertex   -5.033243e-001 1.248986e+001 5.000000e+001
      vertex   -5.033243e-001 1.248986e+001 1.666667e+001
      vertex   -2.500321e+000 1.224738e+001 5.000000e+001
    endloop
  endfacet
  facet normal 4.026594e-002 9.991890e-001 0.000000e+000
    outer loop
      vertex   -5.033243e-001 1.248986e+001 5.000000e+001
      vertex   1.506709e+000 1.240886e+001 1.666667e+001
      vertex   -5.033243e-001 1.248986e+001 1.666667e+001
    endloop
  endfacet
  facet normal 2.000257e-001 9.797907e-001 1.598927e-017
    outer loop
      vertex   3.477718e+000 1.200648e+001 -5.000000e+001
      vertex   1.506709e+000 1.240886e+001 -5.000000e+001
      vertex   1.506709e+000 1.240886e+001 -1.666667e+001
    endloop
  endfacet
  facet normal 4.026594e-002 9.991890e-001 3.218701e-018
    outer loop
      vertex   1.506709e+000 1.240886e+001 -1.666667e+001
      vertex   1.506709e+000 1.240886e+001 -5.000000e+001
      vertex   -5.033243e-001 1.248986e+001 -1.666667e+001
    endloop
  endfacet
  facet normal -1.205367e-001 9.927089e-001 0.000000e+000
    outer loop
      vertex   -5.033243e-001 1.248986e+001 1.666667e+001
      vertex   -5.033243e-001 1.248986e+001 -1.666667e+001
      vertex   -2.500321e+000 1.224738e+001 1.666667e+001
    endloop
  endfacet
  facet normal -2.782175e-001 9.605181e-001 0.000000e+000
    outer loop
      vertex   -2.500321e+000 1.224738e+001 5.000000e+001
      vertex   -2.500321e+000 1.224738e+001 1.666667e+001
      vertex   -4.432561e+000 1.168770e+001 5.000000e+001
    endloop
  endfacet
  facet normal -1.205367e-001 9.927089e-001 0.000000e+000
    outer loop
      vertex   -2.500321e+000 1.224738e+001 5.000000e+001
      vertex   -5.033243e-001 1.248986e+001 1.666667e+001
      vertex   -2.500321e+000 1.224738e+001 1.666667e+001
    endloop
  endfacet
  facet normal 4.026594e-002 9.991890e-001 -0.000000e+000
    outer loop
      vertex   1.506709e+000 1.240886e+001 -5.000000e+001
      vertex   -5.033243e-001 1.248986e+001 -5.000000e+001
      vertex   -5.033243e-001 1.248986e+001 -1.666667e+001
    endloop
  endfacet
  facet normal -1.205367e-001 9.927089e-001 0.000000e+000
    outer loop
      vertex   -5.033243e-001 1.248986e+001 -1.666667e+001
      vertex   -5.033243e-001 1.248986e+001 -5.000000e+001
      vertex   -2.500321e+000 1.224738e+001 -1.666667e+001
    endloop
  endfacet
  facet normal -2.782175e-001 9.605181e-001 0.000000e+000
    outer loop
      vertex   -2.500321e+000 1.224738e+001 1.666667e+001
      vertex   -2.500321e+000 1.224738e+001 -1.666667e+001
      vertex   -4.432561e+000 1.168770e+001 1.666667e+001
    endloop
  endfacet
  facet normal -4.286926e-001 9.034504e-001 0.000000e+000
    outer loop
      vertex   -4.432561e+000 1.168770e+001 5.000000e+001
      vertex   -4.432561e+000 1.168770e+001 1.666667e+001
      vertex   -6.250000e+000 1.082532e+001 5.000000e+001
    endloop
  endfacet
  facet normal -2.782175e-001 9.605181e-001 0.000000e+000
    outer loop
      vertex   -4.432561e+000 1.168770e+001 5.000000e+001
      vertex   -2.500321e+000 1.224738e+001 1.666667e+001
      vertex   -4.432561e+000 1.168770e+001 1.666667e+001
    endloop
  endfacet
  facet normal -1.205367e-001 9.927089e-001 0.000000e+000
    outer loop
      vertex   -5.033243e-001 1.248986e+001 -5.000000e+001
      vertex   -2.500321e+000 1.224738e+001 -5.000000e+001
      vertex   -2.500321e+000 1.224738e+001 -1.666667e+001
    endloop
  endfacet
  facet normal -2.782175e-001 9.605181e-001 0.000000e+000
    outer loop
      vertex   -2.500321e+000 1.224738e+001 -1.666667e+001
      vertex   -2.500321e+000 1.224738e+001 -5.000000e+001
      vertex   -4.432561e+000 1.168770e+001 -1.666667e+001
    endloop
  endfacet
  facet normal -4.286926e-001 9.034504e-001 -3.426799e-017
    outer loop
      vertex   -4.432561e+000 1.168770e+001 1.666667e+001
      vertex   -4.432561e+000 1.168770e+001 -1.666667e+001
      vertex   -6.250000e+000 1.082532e+001 1.666667e+001
    endloop
  endfacet
  facet normal -5.680647e-001 8.229839e-001 0.000000e+000
    outer loop
      vertex   -6.250000e+000 1.082532e+001 5.000000e+001
      vertex   -6.250000e+000 1.082532e+001 1.666667e+001
      vertex   -7.905567e+000 9.682562e+000 5.000000e+001
    endloop
  endfacet
  facet normal -4.286926e-001 9.034504e-001 0.000000e+000
    outer loop
      vertex   -6.250000e+000 1.082532e+001 5.000000e+001
      vertex   -4.432561e+000 1.168770e+001 1.666667e+001
      vertex   -6.250000e+000 1.082532e+001 1.666667e+001
    endloop
  endfacet
  facet normal -2.782175e-001 9.605181e-001 0.000000e+000
    outer loop
      vertex   -2.500321e+000 1.224738e+001 -5.000000e+001
      vertex   -4.432561e+000 1.168770e+001 -5.000000e+001
      vertex   -4.432561e+000 1.168770e+001 -1.666667e+001
    endloop
  endfacet
  facet normal -4.286926e-001 9.034504e-001 0.000000e+000
    outer loop
      vertex   -4.432561e+000 1.168770e+001 -1.666667e+001
      vertex   -4.432561e+000 1.168770e+001 -5.000000e+001
      vertex   -6.250000e+000 1.082532e+001 -1.666667e+001
    endloop
  endfacet
  facet normal -5.680647e-001 8.229839e-001 -6.054514e-017
    outer loop
      vertex   -6.250000e+000 1.082532e+001 1.666667e+001
      vertex   -6.250000e+000 1.082532e+001 -1.666667e+001
      vertex   -7.905567e+000 9.682562e+000 1.666667e+001
    endloop
  endfacet
  facet normal -6.927244e-001 7.212024e-001 1.517618e-018
    outer loop
      vertex   -7.905567e+000 9.682562e+000 5.000000e+001
      vertex   -7.905567e+000 9.682562e+000 1.666667e+001
      vertex   -9.356384e+000 8.289033e+000 5.000000e+001
    endloop
  endfacet
  facet normal -5.680647e-001 8.229839e-001 1.324543e-017
    outer loop
      vertex   -7.905567e+000 9.682562e+000 5.000000e+001
      vertex   -6.250000e+000 1.082532e+001 1.666667e+001
      vertex   -7.905567e+000 9.682562e+000 1.666667e+001
    endloop
  endfacet
  facet normal -4.286926e-001 9.034504e-001 7.344569e-017
    outer loop
      vertex   -4.432561e+000 1.168770e+001 -5.000000e+001
      vertex   -6.250000e+000 1.082532e+001 -5.000000e+001
      vertex   -6.250000e+000 1.082532e+001 -1.666667e+001
    endloop
  endfacet
  facet normal -5.680647e-001 8.229839e-001 5.744221e-017
    outer loop
      vertex   -6.250000e+000 1.082532e+001 -1.666667e+001
      vertex   -6.250000e+000 1.082532e+001 -5.000000e+001
      vertex   -7.905567e+000 9.682562e+000 -1.666667e+001
    endloop
  endfacet
  facet normal -6.927244e-001 7.212024e-001 3.843339e-017
    outer loop
      vertex   -7.905567e+000 9.682562e+000 1.666667e+001
      vertex   -7.905567e+000 9.682562e+000 -1.666667e+001
      vertex   -9.356384e+000 8.289033e+000 1.666667e+001
    endloop
  endfacet
  facet normal -7.994428e-001 6.007423e-001 -1.058889e-017
    outer loop
      vertex   -9.356384e+000 8.289033e+000 5.000000e+001
      vertex   -9.356384e+000 8.289033e+000 1.666667e+001
      vertex   -1.056488e+001 6.680823e+000 5.000000e+001
    endloop
  endfacet
  facet normal -6.927244e-001 7.212024e-001 6.622714e-018
    outer loop
      vertex   -9.356384e+000 8.289033e+000 5.000000e+001
      vertex   -7.905567e+000 9.682562e+000 1.666667e+001
      vertex   -9.356384e+000 8.289033e+000 1.666667e+001
    endloop
  endfacet
  facet normal -5.680647e-001 8.229839e-001 -4.540886e-017
    outer loop
      vertex   -6.250000e+000 1.082532e+001 -5.000000e+001
      vertex   -7.905567e+000 9.682562e+000 -5.000000e+001
      vertex   -7.905567e+000 9.682562e+000 -1.666667e+001
    endloop
  endfacet
  facet normal -6.927244e-001 7.212024e-001 -5.537365e-017
    outer loop
      vertex   -7.905567e+000 9.682562e+000 -1.666667e+001
      vertex   -7.905567e+000 9.682562e+000 -5.000000e+001
      vertex   -9.356384e+000 8.289033e+000 -1.666667e+001
    endloop
  endfacet
  facet normal -7.994428e-001 6.007423e-001 3.201398e-017
    outer loop
      vertex   -9.356384e+000 8.289033e+000 1.666667e+001
      vertex   -9.356384e+000 8.289033e+000 -1.666667e+001
      vertex   -1.056488e+001 6.680823e+000 1.666667e+001
    endloop
  endfacet
  facet normal -8.854560e-001 4.647232e-001 -1.003844e-017
    outer loop
      vertex   -1.056488e+001 6.680823e+000 5.000000e+001
      vertex   -1.056488e+001 6.680823e+000 1.666667e+001
      vertex   -1.149974e+001 4.899583e+000 5.000000e+001
    endloop
  endfacet
  facet normal -7.994428e-001 6.007423e-001 3.311357e-018
    outer loop
      vertex   -1.056488e+001 6.680823e+000 5.000000e+001
      vertex   -9.356384e+000 8.289033e+000 1.666667e+001
      vertex   -1.056488e+001 6.680823e+000 1.666667e+001
    endloop
  endfacet
  facet normal -6.927244e-001 7.212024e-001 3.843339e-017
    outer loop
      vertex   -7.905567e+000 9.682562e+000 -5.000000e+001
      vertex   -9.356384e+000 8.289033e+000 -5.000000e+001
      vertex   -9.356384e+000 8.289033e+000 -1.666667e+001
    endloop
  endfacet
  facet normal -7.994428e-001 6.007423e-001 3.201398e-017
    outer loop
      vertex   -9.356384e+000 8.289033e+000 -1.666667e+001
      vertex   -9.356384e+000 8.289033e+000 -5.000000e+001
      vertex   -1.056488e+001 6.680823e+000 -1.666667e+001
    endloop
  endfacet
  facet normal -8.854560e-001 4.647232e-001 -4.718658e-017
    outer loop
      vertex   -1.056488e+001 6.680823e+000 1.666667e+001
      vertex   -1.056488e+001 6.680823e+000 -1.666667e+001
      vertex   -1.149974e+001 4.899583e+000 1.666667e+001
    endloop
  endfacet
  facet normal -9.485364e-001 3.166680e-001 0.000000e+000
    outer loop
      vertex   -1.149974e+001 4.899583e+000 5.000000e+001
      vertex   -1.149974e+001 4.899583e+000 1.666667e+001
      vertex   -1.213677e+001 2.991446e+000 5.000000e+001
    endloop
  endfacet
  facet normal -8.854560e-001 4.647232e-001 0.000000e+000
    outer loop
      vertex   -1.149974e+001 4.899583e+000 5.000000e+001
      vertex   -1.056488e+001 6.680823e+000 1.666667e+001
      vertex   -1.149974e+001 4.899583e+000 1.666667e+001
    endloop
  endfacet
  facet normal -7.994428e-001 6.007423e-001 4.802097e-017
    outer loop
      vertex   -9.356384e+000 8.289033e+000 -5.000000e+001
      vertex   -1.056488e+001 6.680823e+000 -5.000000e+001
      vertex   -1.056488e+001 6.680823e+000 -1.666667e+001
    endloop
  endfacet
  facet normal -8.854560e-001 4.647232e-001 3.714814e-017
    outer loop
      vertex   -1.056488e+001 6.680823e+000 -1.666667e+001
      vertex   -1.056488e+001 6.680823e+000 -5.000000e+001
      vertex   -1.149974e+001 4.899583e+000 -1.666667e+001
    endloop
  endfacet
  facet normal -9.485364e-001 3.166680e-001 0.000000e+000
    outer loop
      vertex   -1.149974e+001 4.899583e+000 1.666667e+001
      vertex   -1.149974e+001 4.899583e+000 -1.666667e+001
      vertex   -1.213677e+001 2.991446e+000 1.666667e+001
    endloop
  endfacet
  facet normal -9.870503e-001 1.604113e-001 -4.405217e-017
    outer loop
      vertex   -1.213677e+001 2.991446e+000 5.000000e+001
      vertex   -1.213677e+001 2.991446e+000 1.666667e+001
      vertex   -1.245947e+001 1.005832e+000 5.000000e+001
    endloop
  endfacet
  facet normal -9.485364e-001 3.166680e-001 -3.642493e-017
    outer loop
      vertex   -1.213677e+001 2.991446e+000 5.000000e+001
      vertex   -1.149974e+001 4.899583e+000 1.666667e+001
      vertex   -1.213677e+001 2.991446e+000 1.666667e+001
    endloop
  endfacet
  facet normal -8.854560e-001 4.647232e-001 0.000000e+000
    outer loop
      vertex   -1.056488e+001 6.680823e+000 -5.000000e+001
      vertex   -1.149974e+001 4.899583e+000 -5.000000e+001
      vertex   -1.149974e+001 4.899583e+000 -1.666667e+001
    endloop
  endfacet
  facet normal -9.485364e-001 3.166680e-001 0.000000e+000
    outer loop
      vertex   -1.149974e+001 4.899583e+000 -1.666667e+001
      vertex   -1.149974e+001 4.899583e+000 -5.000000e+001
      vertex   -1.213677e+001 2.991446e+000 -1.666667e+001
    endloop
  endfacet
  facet normal -9.870503e-001 1.604113e-001 6.411323e-018
    outer loop
      vertex   -1.213677e+001 2.991446e+000 1.666667e+001
      vertex   -1.213677e+001 2.991446e+000 -1.666667e+001
      vertex   -1.245947e+001 1.005832e+000 1.666667e+001
    endloop
  endfacet
  facet normal -1.000000e+000 -1.766057e-015 -9.411442e-032
    outer loop
      vertex   -1.245947e+001 1.005832e+000 5.000000e+001
      vertex   -1.245947e+001 1.005832e+000 1.666667e+001
      vertex   -1.245947e+001 -1.005832e+000 5.000000e+001
    endloop
  endfacet
  facet normal -9.870503e-001 1.604113e-001 9.934071e-018
    outer loop
      vertex   -1.245947e+001 1.005832e+000 5.000000e+001
      vertex   -1.213677e+001 2.991446e+000 1.666667e+001
      vertex   -1.245947e+001 1.005832e+000 1.666667e+001
    endloop
  endfacet
  facet normal -9.485364e-001 3.166680e-001 1.687546e-017
    outer loop
      vertex   -1.149974e+001 4.899583e+000 -5.000000e+001
      vertex   -1.213677e+001 2.991446e+000 -5.000000e+001
      vertex   -1.213677e+001 2.991446e+000 -1.666667e+001
    endloop
  endfacet
  facet normal -9.870503e-001 1.604113e-001 8.548430e-018
    outer loop
      vertex   -1.213677e+001 2.991446e+000 -1.666667e+001
      vertex   -1.213677e+001 2.991446e+000 -5.000000e+001
      vertex   -1.245947e+001 1.005832e+000 -1.666667e+001
    endloop
  endfacet
  facet normal -1.000000e+000 -0.000000e+000 -0.000000e+000
    outer loop
      vertex   -1.245947e+001 1.005832e+000 1.666667e+001
      vertex   -1.245947e+001 1.005832e+000 -1.666667e+001
      vertex   -1.245947e+001 -1.005832e+000 1.666667e+001
    endloop
  endfacet
  facet normal -9.870503e-001 -1.604113e-001 9.665278e-017
    outer loop
      vertex   -1.245947e+001 -1.005832e+000 5.000000e+001
      vertex   -1.245947e+001 -1.005832e+000 1.666667e+001
      vertex   -1.213677e+001 -2.991446e+000 5.000000e+001
    endloop
  endfacet
  facet normal -1.000000e+000 0.000000e+000 1.065814e-016
    outer loop
      vertex   -1.245947e+001 -1.005832e+000 5.000000e+001
      vertex   -1.245947e+001 1.005832e+000 1.666667e+001
      vertex   -1.245947e+001 -1.005832e+000 1.666667e+001
    endloop
  endfacet
  facet normal -9.870503e-001 1.604113e-001 -9.665278e-017
    outer loop
      vertex   -1.213677e+001 2.991446e+000 -5.000000e+001
      vertex   -1.245947e+001 1.005832e+000 -5.000000e+001
      vertex   -1.245947e+001 1.005832e+000 -1.666667e+001
    endloop
  endfacet
  facet normal -1.000000e+000 0.000000e+000 -1.065814e-016
    outer loop
      vertex   -1.245947e+001 1.005832e+000 -1.666667e+001
      vertex   -1.245947e+001 1.005832e+000 -5.000000e+001
      vertex   -1.245947e+001 -1.005832e+000 -1.666667e+001
    endloop
  endfacet
  facet normal -9.870503e-001 -1.604113e-001 -9.616984e-018
    outer loop
      vertex   -1.245947e+001 -1.005832e+000 1.666667e+001
      vertex   -1.245947e+001 -1.005832e+000 -1.666667e+001
      vertex   -1.213677e+001 -2.991446e+000 1.666667e+001
    endloop
  endfacet
  facet normal -9.485364e-001 -3.166680e-001 -1.687546e-017
    outer loop
      vertex   -1.213677e+001 -2.991446e+000 5.000000e+001
      vertex   -1.213677e+001 -2.991446e+000 1.666667e+001
      vertex   -1.149974e+001 -4.899583e+000 5.000000e+001
    endloop
  endfacet
  facet normal -9.870503e-001 -1.604113e-001 -9.934071e-018
    outer loop
      vertex   -1.213677e+001 -2.991446e+000 5.000000e+001
      vertex   -1.245947e+001 -1.005832e+000 1.666667e+001
      vertex   -1.213677e+001 -2.991446e+000 1.666667e+001
    endloop
  endfacet
  facet normal -1.000000e+000 1.766057e-015 9.411442e-032
    outer loop
      vertex   -1.245947e+001 1.005832e+000 -5.000000e+001
      vertex   -1.245947e+001 -1.005832e+000 -5.000000e+001
      vertex   -1.245947e+001 -1.005832e+000 -1.666667e+001
    endloop
  endfacet
  facet normal -9.870503e-001 -1.604113e-001 -8.548430e-018
    outer loop
      vertex   -1.245947e+001 -1.005832e+000 -1.666667e+001
      vertex   -1.245947e+001 -1.005832e+000 -5.000000e+001
      vertex   -1.213677e+001 -2.991446e+000 -1.666667e+001
    endloop
  endfacet
  facet normal -9.485364e-001 -3.166680e-001 -1.265660e-017
    outer loop
      vertex   -1.213677e+001 -2.991446e+000 1.666667e+001
      vertex   -1.213677e+001 -2.991446e+000 -1.666667e+001
      vertex   -1.149974e+001 -4.899583e+000 1.666667e+001
    endloop
  endfacet
  facet normal -8.854560e-001 -4.647232e-001 -0.000000e+000
    outer loop
      vertex   -1.149974e+001 -4.899583e+000 5.000000e+001
      vertex   -1.149974e+001 -4.899583e+000 1.666667e+001
      vertex   -1.056488e+001 -6.680823e+000 5.000000e+001
    endloop
  endfacet
  facet normal -9.485364e-001 -3.166680e-001 0.000000e+000
    outer loop
      vertex   -1.149974e+001 -4.899583e+000 5.000000e+001
      vertex   -1.213677e+001 -2.991446e+000 1.666667e+001
      vertex   -1.149974e+001 -4.899583e+000 1.666667e+001
    endloop
  endfacet
  facet normal -9.870503e-001 -1.604113e-001 4.405217e-017
    outer loop
      vertex   -1.245947e+001 -1.005832e+000 -5.000000e+001
      vertex   -1.213677e+001 -2.991446e+000 -5.000000e+001
      vertex   -1.213677e+001 -2.991446e+000 -1.666667e+001
    endloop
  endfacet
  facet normal -9.485364e-001 -3.166680e-001 3.367272e-017
    outer loop
      vertex   -1.213677e+001 -2.991446e+000 -1.666667e+001
      vertex   -1.213677e+001 -2.991446e+000 -5.000000e+001
      vertex   -1.149974e+001 -4.899583e+000 -1.666667e+001
    endloop
  endfacet
  facet normal -8.854560e-001 -4.647232e-001 -0.000000e+000
    outer loop
      vertex   -1.149974e+001 -4.899583e+000 1.666667e+001
      vertex   -1.149974e+001 -4.899583e+000 -1.666667e+001
      vertex   -1.056488e+001 -6.680823e+000 1.666667e+001
    endloop
  endfacet
  facet normal -7.994428e-001 -6.007423e-001 -5.418100e-018
    outer loop
      vertex   -1.056488e+001 -6.680823e+000 5.000000e+001
      vertex   -1.056488e+001 -6.680823e+000 1.666667e+001
      vertex   -9.356384e+000 -8.289033e+000 5.000000e+001
    endloop
  endfacet
  facet normal -8.854560e-001 -4.647232e-001 9.934071e-018
    outer loop
      vertex   -1.056488e+001 -6.680823e+000 5.000000e+001
      vertex   -1.149974e+001 -4.899583e+000 1.666667e+001
      vertex   -1.056488e+001 -6.680823e+000 1.666667e+001
    endloop
  endfacet
  facet normal -9.485364e-001 -3.166680e-001 0.000000e+000
    outer loop
      vertex   -1.213677e+001 -2.991446e+000 -5.000000e+001
      vertex   -1.149974e+001 -4.899583e+000 -5.000000e+001
      vertex   -1.149974e+001 -4.899583e+000 -1.666667e+001
    endloop
  endfacet
  facet normal -8.854560e-001 -4.647232e-001 -0.000000e+000
    outer loop
      vertex   -1.149974e+001 -4.899583e+000 -1.666667e+001
      vertex   -1.149974e+001 -4.899583e+000 -5.000000e+001
      vertex   -1.056488e+001 -6.680823e+000 -1.666667e+001
    endloop
  endfacet
  facet normal -7.994428e-001 -6.007423e-001 2.659588e-017
    outer loop
      vertex   -1.056488e+001 -6.680823e+000 1.666667e+001
      vertex   -1.056488e+001 -6.680823e+000 -1.666667e+001
      vertex   -9.356384e+000 -8.289033e+000 1.666667e+001
    endloop
  endfacet
  facet normal -6.927244e-001 -7.212024e-001 -3.843339e-017
    outer loop
      vertex   -9.356384e+000 -8.289033e+000 5.000000e+001
      vertex   -9.356384e+000 -8.289033e+000 1.666667e+001
      vertex   -7.905567e+000 -9.682562e+000 5.000000e+001
    endloop
  endfacet
  facet normal -7.994428e-001 -6.007423e-001 -3.311357e-017
    outer loop
      vertex   -9.356384e+000 -8.289033e+000 5.000000e+001
      vertex   -1.056488e+001 -6.680823e+000 1.666667e+001
      vertex   -9.356384e+000 -8.289033e+000 1.666667e+001
    endloop
  endfacet
  facet normal -8.854560e-001 -4.647232e-001 -2.476543e-017
    outer loop
      vertex   -1.149974e+001 -4.899583e+000 -5.000000e+001
      vertex   -1.056488e+001 -6.680823e+000 -5.000000e+001
      vertex   -1.056488e+001 -6.680823e+000 -1.666667e+001
    endloop
  endfacet
  facet normal -7.994428e-001 -6.007423e-001 -3.201398e-017
    outer loop
      vertex   -1.056488e+001 -6.680823e+000 -1.666667e+001
      vertex   -1.056488e+001 -6.680823e+000 -5.000000e+001
      vertex   -9.356384e+000 -8.289033e+000 -1.666667e+001
    endloop
  endfacet
  facet normal -6.927244e-001 -7.212024e-001 -3.843339e-017
    outer loop
      vertex   -9.356384e+000 -8.289033e+000 1.666667e+001
      vertex   -9.356384e+000 -8.289033e+000 -1.666667e+001
      vertex   -7.905567e+000 -9.682562e+000 1.666667e+001
    endloop
  endfacet
  facet normal -5.680647e-001 -8.229839e-001 1.551466e-018
    outer loop
      vertex   -7.905567e+000 -9.682562e+000 5.000000e+001
      vertex   -7.905567e+000 -9.682562e+000 1.666667e+001
      vertex   -6.250000e+000 -1.082532e+001 5.000000e+001
    endloop
  endfacet
  facet normal -6.927244e-001 -7.212024e-001 1.324543e-017
    outer loop
      vertex   -7.905567e+000 -9.682562e+000 5.000000e+001
      vertex   -9.356384e+000 -8.289033e+000 1.666667e+001
      vertex   -7.905567e+000 -9.682562e+000 1.666667e+001
    endloop
  endfacet
  facet normal -7.994428e-001 -6.007423e-001 1.058889e-017
    outer loop
      vertex   -1.056488e+001 -6.680823e+000 -5.000000e+001
      vertex   -9.356384e+000 -8.289033e+000 -5.000000e+001
      vertex   -9.356384e+000 -8.289033e+000 -1.666667e+001
    endloop
  endfacet
  facet normal -6.927244e-001 -7.212024e-001 -1.517618e-018
    outer loop
      vertex   -9.356384e+000 -8.289033e+000 -1.666667e+001
      vertex   -9.356384e+000 -8.289033e+000 -5.000000e+001
      vertex   -7.905567e+000 -9.682562e+000 -1.666667e+001
    endloop
  endfacet
  facet normal -5.680647e-001 -8.229839e-001 1.513629e-017
    outer loop
      vertex   -7.905567e+000 -9.682562e+000 1.666667e+001
      vertex   -7.905567e+000 -9.682562e+000 -1.666667e+001
      vertex   -6.250000e+000 -1.082532e+001 1.666667e+001
    endloop
  endfacet
  facet normal -4.286926e-001 -9.034504e-001 -0.000000e+000
    outer loop
      vertex   -6.250000e+000 -1.082532e+001 5.000000e+001
      vertex   -6.250000e+000 -1.082532e+001 1.666667e+001
      vertex   -4.432561e+000 -1.168770e+001 5.000000e+001
    endloop
  endfacet
  facet normal -5.680647e-001 -8.229839e-001 0.000000e+000
    outer loop
      vertex   -6.250000e+000 -1.082532e+001 5.000000e+001
      vertex   -7.905567e+000 -9.682562e+000 1.666667e+001
      vertex   -6.250000e+000 -1.082532e+001 1.666667e+001
    endloop
  endfacet
  facet normal -6.927244e-001 -7.212024e-001 -1.997550e-017
    outer loop
      vertex   -9.356384e+000 -8.289033e+000 -5.000000e+001
      vertex   -7.905567e+000 -9.682562e+000 -5.000000e+001
      vertex   -7.905567e+000 -9.682562e+000 -1.666667e+001
    endloop
  endfacet
  facet normal -5.680647e-001 -8.229839e-001 -2.872111e-017
    outer loop
      vertex   -7.905567e+000 -9.682562e+000 -1.666667e+001
      vertex   -7.905567e+000 -9.682562e+000 -5.000000e+001
      vertex   -6.250000e+000 -1.082532e+001 -1.666667e+001
    endloop
  endfacet
  facet normal -4.286926e-001 -9.034504e-001 -7.344569e-017
    outer loop
      vertex   -6.250000e+000 -1.082532e+001 1.666667e+001
      vertex   -6.250000e+000 -1.082532e+001 -1.666667e+001
      vertex   -4.432561e+000 -1.168770e+001 1.666667e+001
    endloop
  endfacet
  facet normal -2.782175e-001 -9.605181e-001 2.223961e-017
    outer loop
      vertex   -4.432561e+000 -1.168770e+001 5.000000e+001
      vertex   -4.432561e+000 -1.168770e+001 1.666667e+001
      vertex   -2.500321e+000 -1.224738e+001 5.000000e+001
    endloop
  endfacet
  facet normal -4.286926e-001 -9.034504e-001 3.311357e-017
    outer loop
      vertex   -4.432561e+000 -1.168770e+001 5.000000e+001
      vertex   -6.250000e+000 -1.082532e+001 1.666667e+001
      vertex   -4.432561e+000 -1.168770e+001 1.666667e+001
    endloop
  endfacet
  facet normal -5.680647e-001 -8.229839e-001 6.054514e-017
    outer loop
      vertex   -7.905567e+000 -9.682562e+000 -5.000000e+001
      vertex   -6.250000e+000 -1.082532e+001 -5.000000e+001
      vertex   -6.250000e+000 -1.082532e+001 -1.666667e+001
    endloop
  endfacet
  facet normal -4.286926e-001 -9.034504e-001 4.569066e-017
    outer loop
      vertex   -6.250000e+000 -1.082532e+001 -1.666667e+001
      vertex   -6.250000e+000 -1.082532e+001 -5.000000e+001
      vertex   -4.432561e+000 -1.168770e+001 -1.666667e+001
    endloop
  endfacet
  facet normal -2.782175e-001 -9.605181e-001 -0.000000e+000
    outer loop
      vertex   -4.432561e+000 -1.168770e+001 1.666667e+001
      vertex   -4.432561e+000 -1.168770e+001 -1.666667e+001
      vertex   -2.500321e+000 -1.224738e+001 1.666667e+001
    endloop
  endfacet
  facet normal -1.205367e-001 -9.927089e-001 -0.000000e+000
    outer loop
      vertex   -2.500321e+000 -1.224738e+001 5.000000e+001
      vertex   -2.500321e+000 -1.224738e+001 1.666667e+001
      vertex   -5.033243e-001 -1.248986e+001 5.000000e+001
    endloop
  endfacet
  facet normal -2.782175e-001 -9.605181e-001 0.000000e+000
    outer loop
      vertex   -2.500321e+000 -1.224738e+001 5.000000e+001
      vertex   -4.432561e+000 -1.168770e+001 1.666667e+001
      vertex   -2.500321e+000 -1.224738e+001 1.666667e+001
    endloop
  endfacet
  facet normal -4.286926e-001 -9.034504e-001 0.000000e+000
    outer loop
      vertex   -6.250000e+000 -1.082532e+001 -5.000000e+001
      vertex   -4.432561e+000 -1.168770e+001 -5.000000e+001
      vertex   -4.432561e+000 -1.168770e+001 -1.666667e+001
    endloop
  endfacet
  facet normal -2.782175e-001 -9.605181e-001 -0.000000e+000
    outer loop
      vertex   -4.432561e+000 -1.168770e+001 -1.666667e+001
      vertex   -4.432561e+000 -1.168770e+001 -5.000000e+001
      vertex   -2.500321e+000 -1.224738e+001 -1.666667e+001
    endloop
  endfacet
  facet normal -1.205367e-001 -9.927089e-001 -0.000000e+000
    outer loop
      vertex   -2.500321e+000 -1.224738e+001 1.666667e+001
      vertex   -2.500321e+000 -1.224738e+001 -1.666667e+001
      vertex   -5.033243e-001 -1.248986e+001 1.666667e+001
    endloop
  endfacet
  facet normal 4.026594e-002 -9.991890e-001 0.000000e+000
    outer loop
      vertex   -5.033243e-001 -1.248986e+001 5.000000e+001
      vertex   -5.033243e-001 -1.248986e+001 1.666667e+001
      vertex   1.506709e+000 -1.240886e+001 5.000000e+001
    endloop
  endfacet
  facet normal -1.205367e-001 -9.927089e-001 0.000000e+000
    outer loop
      vertex   -5.033243e-001 -1.248986e+001 5.000000e+001
      vertex   -2.500321e+000 -1.224738e+001 1.666667e+001
      vertex   -5.033243e-001 -1.248986e+001 1.666667e+001
    endloop
  endfacet
  facet normal -2.782175e-001 -9.605181e-001 0.000000e+000
    outer loop
      vertex   -4.432561e+000 -1.168770e+001 -5.000000e+001
      vertex   -2.500321e+000 -1.224738e+001 -5.000000e+001
      vertex   -2.500321e+000 -1.224738e+001 -1.666667e+001
    endloop
  endfacet
  facet normal -1.205367e-001 -9.927089e-001 -0.000000e+000
    outer loop
      vertex   -2.500321e+000 -1.224738e+001 -1.666667e+001
      vertex   -2.500321e+000 -1.224738e+001 -5.000000e+001
      vertex   -5.033243e-001 -1.248986e+001 -1.666667e+001
    endloop
  endfacet
  facet normal 4.026594e-002 -9.991890e-001 0.000000e+000
    outer loop
      vertex   -5.033243e-001 -1.248986e+001 1.666667e+001
      vertex   -5.033243e-001 -1.248986e+001 -1.666667e+001
      vertex   1.506709e+000 -1.240886e+001 1.666667e+001
    endloop
  endfacet
  facet normal 2.000257e-001 -9.797907e-001 -1.598927e-017
    outer loop
      vertex   1.506709e+000 -1.240886e+001 5.000000e+001
      vertex   1.506709e+000 -1.240886e+001 1.666667e+001
      vertex   3.477718e+000 -1.200648e+001 5.000000e+001
    endloop
  endfacet
  facet normal 4.026594e-002 -9.991890e-001 -3.311357e-018
    outer loop
      vertex   1.506709e+000 -1.240886e+001 5.000000e+001
      vertex   -5.033243e-001 -1.248986e+001 1.666667e+001
      vertex   1.506709e+000 -1.240886e+001 1.666667e+001
    endloop
  endfacet
  facet normal -1.205367e-001 -9.927089e-001 0.000000e+000
    outer loop
      vertex   -2.500321e+000 -1.224738e+001 -5.000000e+001
      vertex   -5.033243e-001 -1.248986e+001 -5.000000e+001
      vertex   -5.033243e-001 -1.248986e+001 -1.666667e+001
    endloop
  endfacet
  facet normal 4.026594e-002 -9.991890e-001 0.000000e+000
    outer loop
      vertex   -5.033243e-001 -1.248986e+001 -1.666667e+001
      vertex   -5.033243e-001 -1.248986e+001 -5.000000e+001
      vertex   1.506709e+000 -1.240886e+001 -1.666667e+001
    endloop
  endfacet
  facet normal 2.000257e-001 -9.797907e-001 -1.598927e-017
    outer loop
      vertex   1.506709e+000 -1.240886e+001 1.666667e+001
      vertex   1.506709e+000 -1.240886e+001 -1.666667e+001
      vertex   3.477718e+000 -1.200648e+001 1.666667e+001
    endloop
  endfacet
  facet normal 3.546049e-001 -9.350162e-001 0.000000e+000
    outer loop
      vertex   3.477718e+000 -1.200648e+001 5.000000e+001
      vertex   3.477718e+000 -1.200648e+001 1.666667e+001
      vertex   5.358657e+000 -1.129313e+001 5.000000e+001
    endloop
  endfacet
  facet normal 2.000257e-001 -9.797907e-001 0.000000e+000
    outer loop
      vertex   3.477718e+000 -1.200648e+001 5.000000e+001
      vertex   1.506709e+000 -1.240886e+001 1.666667e+001
      vertex   3.477718e+000 -1.200648e+001 1.666667e+001
    endloop
  endfacet
  facet normal 4.026594e-002 -9.991890e-001 -3.486926e-018
    outer loop
      vertex   -5.033243e-001 -1.248986e+001 -5.000000e+001
      vertex   1.506709e+000 -1.240886e+001 -5.000000e+001
      vertex   1.506709e+000 -1.240886e+001 -1.666667e+001
    endloop
  endfacet
  facet normal 2.000257e-001 -9.797907e-001 -1.732170e-017
    outer loop
      vertex   1.506709e+000 -1.240886e+001 -1.666667e+001
      vertex   1.506709e+000 -1.240886e+001 -5.000000e+001
      vertex   3.477718e+000 -1.200648e+001 -1.666667e+001
    endloop
  endfacet
  facet normal 3.546049e-001 -9.350162e-001 -2.834572e-017
    outer loop
      vertex   3.477718e+000 -1.200648e+001 1.666667e+001
      vertex   3.477718e+000 -1.200648e+001 -1.666667e+001
      vertex   5.358657e+000 -1.129313e+001 1.666667e+001
    endloop
  endfacet
  facet normal 5.000000e-001 -8.660254e-001 0.000000e+000
    outer loop
      vertex   5.358657e+000 -1.129313e+001 5.000000e+001
      vertex   5.358657e+000 -1.129313e+001 1.666667e+001
      vertex   7.100809e+000 -1.028730e+001 5.000000e+001
    endloop
  endfacet
  facet normal 3.546049e-001 -9.350162e-001 0.000000e+000
    outer loop
      vertex   5.358657e+000 -1.129313e+001 5.000000e+001
      vertex   3.477718e+000 -1.200648e+001 1.666667e+001
      vertex   5.358657e+000 -1.129313e+001 1.666667e+001
    endloop
  endfacet
  facet normal 2.000257e-001 -9.797907e-001 3.355959e-017
    outer loop
      vertex   1.506709e+000 -1.240886e+001 -5.000000e+001
      vertex   3.477718e+000 -1.200648e+001 -5.000000e+001
      vertex   3.477718e+000 -1.200648e+001 -1.666667e+001
    endloop
  endfacet
  facet normal 3.546049e-001 -9.350162e-001 1.675767e-017
    outer loop
      vertex   3.477718e+000 -1.200648e+001 -1.666667e+001
      vertex   3.477718e+000 -1.200648e+001 -5.000000e+001
      vertex   5.358657e+000 -1.129313e+001 -1.666667e+001
    endloop
  endfacet
  facet normal 5.000000e-001 -8.660254e-001 0.000000e+000
    outer loop
      vertex   5.358657e+000 -1.129313e+001 1.666667e+001
      vertex   5.358657e+000 -1.129313e+001 -1.666667e+001
      vertex   7.100809e+000 -1.028730e+001 1.666667e+001
    endloop
  endfacet
  facet normal 6.324454e-001 -7.746050e-001 0.000000e+000
    outer loop
      vertex   7.100809e+000 -1.028730e+001 5.000000e+001
      vertex   7.100809e+000 -1.028730e+001 1.666667e+001
      vertex   8.659054e+000 -9.015031e+000 5.000000e+001
    endloop
  endfacet
  facet normal 5.000000e-001 -8.660254e-001 0.000000e+000
    outer loop
      vertex   7.100809e+000 -1.028730e+001 5.000000e+001
      vertex   5.358657e+000 -1.129313e+001 1.666667e+001
      vertex   7.100809e+000 -1.028730e+001 1.666667e+001
    endloop
  endfacet
  facet normal 3.546049e-001 -9.350162e-001 0.000000e+000
    outer loop
      vertex   3.477718e+000 -1.200648e+001 -5.000000e+001
      vertex   5.358657e+000 -1.129313e+001 -5.000000e+001
      vertex   5.358657e+000 -1.129313e+001 -1.666667e+001
    endloop
  endfacet
  facet normal 5.000000e-001 -8.660254e-001 0.000000e+000
    outer loop
      vertex   5.358657e+000 -1.129313e+001 -1.666667e+001
      vertex   5.358657e+000 -1.129313e+001 -5.000000e+001
      vertex   7.100809e+000 -1.028730e+001 -1.666667e+001
    endloop
  endfacet
  facet normal 6.324454e-001 -7.746050e-001 0.000000e+000
    outer loop
      vertex   7.100809e+000 -1.028730e+001 1.666667e+001
      vertex   7.100809e+000 -1.028730e+001 -1.666667e+001
      vertex   8.659054e+000 -9.015031e+000 1.666667e+001
    endloop
  endfacet
  facet normal 7.485107e-001 -6.631227e-001 0.000000e+000
    outer loop
      vertex   8.659054e+000 -9.015031e+000 5.000000e+001
      vertex   8.659054e+000 -9.015031e+000 1.666667e+001
      vertex   9.993035e+000 -7.509278e+000 5.000000e+001
    endloop
  endfacet
  facet normal 6.324454e-001 -7.746050e-001 0.000000e+000
    outer loop
      vertex   8.659054e+000 -9.015031e+000 5.000000e+001
      vertex   7.100809e+000 -1.028730e+001 1.666667e+001
      vertex   8.659054e+000 -9.015031e+000 1.666667e+001
    endloop
  endfacet
  facet normal 5.000000e-001 -8.660254e-001 0.000000e+000
    outer loop
      vertex   5.358657e+000 -1.129313e+001 -5.000000e+001
      vertex   7.100809e+000 -1.028730e+001 -5.000000e+001
      vertex   7.100809e+000 -1.028730e+001 -1.666667e+001
    endloop
  endfacet
  facet normal 6.324454e-001 -7.746050e-001 0.000000e+000
    outer loop
      vertex   7.100809e+000 -1.028730e+001 -1.666667e+001
      vertex   7.100809e+000 -1.028730e+001 -5.000000e+001
      vertex   8.659054e+000 -9.015031e+000 -1.666667e+001
    endloop
  endfacet
  facet normal 7.485107e-001 -6.631227e-001 0.000000e+000
    outer loop
      vertex   8.659054e+000 -9.015031e+000 1.666667e+001
      vertex   8.659054e+000 -9.015031e+000 -1.666667e+001
      vertex   9.993035e+000 -7.509278e+000 1.666667e+001
    endloop
  endfacet
  facet normal 8.451901e-001 -5.344658e-001 0.000000e+000
    outer loop
      vertex   9.993035e+000 -7.509278e+000 5.000000e+001
      vertex   9.993035e+000 -7.509278e+000 1.666667e+001
      vertex   1.106820e+001 -5.809040e+000 5.000000e+001
    endloop
  endfacet
  facet normal 7.485107e-001 -6.631227e-001 0.000000e+000
    outer loop
      vertex   9.993035e+000 -7.509278e+000 5.000000e+001
      vertex   8.659054e+000 -9.015031e+000 1.666667e+001
      vertex   9.993035e+000 -7.509278e+000 1.666667e+001
    endloop
  endfacet
  facet normal 6.324454e-001 -7.746050e-001 0.000000e+000
    outer loop
      vertex   7.100809e+000 -1.028730e+001 -5.000000e+001
      vertex   8.659054e+000 -9.015031e+000 -5.000000e+001
      vertex   8.659054e+000 -9.015031e+000 -1.666667e+001
    endloop
  endfacet
  facet normal 7.485107e-001 -6.631227e-001 0.000000e+000
    outer loop
      vertex   8.659054e+000 -9.015031e+000 -1.666667e+001
      vertex   8.659054e+000 -9.015031e+000 -5.000000e+001
      vertex   9.993035e+000 -7.509278e+000 -1.666667e+001
    endloop
  endfacet
  facet normal 8.451901e-001 -5.344658e-001 -4.967614e-017
    outer loop
      vertex   9.993035e+000 -7.509278e+000 1.666667e+001
      vertex   9.993035e+000 -7.509278e+000 -1.666667e+001
      vertex   1.106820e+001 -5.809040e+000 1.666667e+001
    endloop
  endfacet
  facet normal 9.199794e-001 -3.919666e-001 3.194089e-018
    outer loop
      vertex   1.106820e+001 -5.809040e+000 5.000000e+001
      vertex   1.106820e+001 -5.809040e+000 1.666667e+001
      vertex   1.185671e+001 -3.958350e+000 5.000000e+001
    endloop
  endfacet
  facet normal 8.451901e-001 -5.344658e-001 2.649086e-017
    outer loop
      vertex   1.106820e+001 -5.809040e+000 5.000000e+001
      vertex   9.993035e+000 -7.509278e+000 1.666667e+001
      vertex   1.106820e+001 -5.809040e+000 1.666667e+001
    endloop
  endfacet
  facet normal 7.485107e-001 -6.631227e-001 1.311875e-017
    outer loop
      vertex   8.659054e+000 -9.015031e+000 -5.000000e+001
      vertex   9.993035e+000 -7.509278e+000 -5.000000e+001
      vertex   9.993035e+000 -7.509278e+000 -1.666667e+001
    endloop
  endfacet
  facet normal 8.451901e-001 -5.344658e-001 -2.317685e-018
    outer loop
      vertex   9.993035e+000 -7.509278e+000 -1.666667e+001
      vertex   9.993035e+000 -7.509278e+000 -5.000000e+001
      vertex   1.106820e+001 -5.809040e+000 -1.666667e+001
    endloop
  endfacet
  facet normal 9.199794e-001 -3.919666e-001 0.000000e+000
    outer loop
      vertex   1.106820e+001 -5.809040e+000 1.666667e+001
      vertex   1.106820e+001 -5.809040e+000 -1.666667e+001
      vertex   1.185671e+001 -3.958350e+000 1.666667e+001
    endloop
  endfacet
  facet normal 9.709418e-001 -2.393157e-001 -1.029395e-017
    outer loop
      vertex   1.185671e+001 -3.958350e+000 5.000000e+001
      vertex   1.185671e+001 -3.958350e+000 1.666667e+001
      vertex   1.233813e+001 -2.005141e+000 5.000000e+001
    endloop
  endfacet
  facet normal 9.199794e-001 -3.919666e-001 1.655678e-017
    outer loop
      vertex   1.185671e+001 -3.958350e+000 5.000000e+001
      vertex   1.106820e+001 -5.809040e+000 1.666667e+001
      vertex   1.185671e+001 -3.958350e+000 1.666667e+001
    endloop
  endfacet
  facet normal 8.451901e-001 -5.344658e-001 0.000000e+000
    outer loop
      vertex   9.993035e+000 -7.509278e+000 -5.000000e+001
      vertex   1.106820e+001 -5.809040e+000 -5.000000e+001
      vertex   1.106820e+001 -5.809040e+000 -1.666667e+001
    endloop
  endfacet
  facet normal 9.199794e-001 -3.919666e-001 0.000000e+000
    outer loop
      vertex   1.106820e+001 -5.809040e+000 -1.666667e+001
      vertex   1.106820e+001 -5.809040e+000 -5.000000e+001
      vertex   1.185671e+001 -3.958350e+000 -1.666667e+001
    endloop
  endfacet
  facet normal 9.709418e-001 -2.393157e-001 0.000000e+000
    outer loop
      vertex   1.185671e+001 -3.958350e+000 1.666667e+001
      vertex   1.185671e+001 -3.958350e+000 -1.666667e+001
      vertex   1.233813e+001 -2.005141e+000 1.666667e+001
    endloop
  endfacet
  facet normal 9.967573e-001 -8.046657e-002 0.000000e+000
    outer loop
      vertex   1.233813e+001 -2.005141e+000 5.000000e+001
      vertex   1.233813e+001 -2.005141e+000 1.666667e+001
      vertex   1.250000e+001 1.530808e-015 5.000000e+001
    endloop
  endfacet
  facet normal 9.709418e-001 -2.393157e-001 0.000000e+000
    outer loop
      vertex   1.233813e+001 -2.005141e+000 5.000000e+001
      vertex   1.185671e+001 -3.958350e+000 1.666667e+001
      vertex   1.233813e+001 -2.005141e+000 1.666667e+001
    endloop
  endfacet
  facet normal 9.199794e-001 -3.919666e-001 0.000000e+000
    outer loop
      vertex   1.106820e+001 -5.809040e+000 -5.000000e+001
      vertex   1.185671e+001 -3.958350e+000 -5.000000e+001
      vertex   1.185671e+001 -3.958350e+000 -1.666667e+001
    endloop
  endfacet
  facet normal 9.709418e-001 -2.393157e-001 0.000000e+000
    outer loop
      vertex   1.185671e+001 -3.958350e+000 -1.666667e+001
      vertex   1.185671e+001 -3.958350e+000 -5.000000e+001
      vertex   1.233813e+001 -2.005141e+000 -1.666667e+001
    endloop
  endfacet
  facet normal 9.967573e-001 -8.046657e-002 0.000000e+000
    outer loop
      vertex   1.233813e+001 -2.005141e+000 1.666667e+001
      vertex   1.233813e+001 -2.005141e+000 -1.666667e+001
      vertex   1.250000e+001 -1.530758e-015 1.666667e+001
    endloop
  endfacet
  facet normal 9.967573e-001 8.046657e-002 -7.390612e-018
    outer loop
      vertex   1.250000e+001 1.530808e-015 5.000000e+001
      vertex   1.250000e+001 -1.530758e-015 1.666667e+001
      vertex   1.233813e+001 2.005141e+000 5.000000e+001
    endloop
  endfacet
  facet normal 9.967573e-001 -8.046657e-002 6.622714e-018
    outer loop
      vertex   1.250000e+001 1.530808e-015 5.000000e+001
      vertex   1.233813e+001 -2.005141e+000 1.666667e+001
      vertex   1.250000e+001 -1.530758e-015 1.666667e+001
    endloop
  endfacet
  facet normal 9.709418e-001 -2.393157e-001 0.000000e+000
    outer loop
      vertex   1.185671e+001 -3.958350e+000 -5.000000e+001
      vertex   1.233813e+001 -2.005141e+000 -5.000000e+001
      vertex   1.233813e+001 -2.005141e+000 -1.666667e+001
    endloop
  endfacet
  facet normal 9.967573e-001 -8.046657e-002 0.000000e+000
    outer loop
      vertex   1.233813e+001 -2.005141e+000 -1.666667e+001
      vertex   1.233813e+001 -2.005141e+000 -5.000000e+001
      vertex   1.250000e+001 -1.530758e-015 -1.666667e+001
    endloop
  endfacet
  facet normal 9.967573e-001 8.046657e-002 0.000000e+000
    outer loop
      vertex   1.250000e+001 -1.530758e-015 1.666667e+001
      vertex   1.250000e+001 -1.530758e-015 -1.666667e+001
      vertex   1.233813e+001 2.005141e+000 1.666667e+001
    endloop
  endfacet
  facet normal 9.709418e-001 2.393157e-001 0.000000e+000
    outer loop
      vertex   1.233813e+001 2.005141e+000 5.000000e+001
      vertex   1.233813e+001 2.005141e+000 1.666667e+001
      vertex   1.185671e+001 3.958350e+000 5.000000e+001
    endloop
  endfacet
  facet normal 9.967573e-001 8.046657e-002 0.000000e+000
    outer loop
      vertex   1.233813e+001 2.005141e+000 5.000000e+001
      vertex   1.250000e+001 -1.530758e-015 1.666667e+001
      vertex   1.233813e+001 2.005141e+000 1.666667e+001
    endloop
  endfacet
  facet normal 9.967573e-001 -8.046657e-002 -7.390612e-018
    outer loop
      vertex   1.233813e+001 -2.005141e+000 -5.000000e+001
      vertex   1.250000e+001 1.530808e-015 -5.000000e+001
      vertex   1.250000e+001 -1.530758e-015 -1.666667e+001
    endloop
  endfacet
  facet normal 9.967573e-001 8.046657e-002 7.390612e-018
    outer loop
      vertex   1.250000e+001 -1.530758e-015 -1.666667e+001
      vertex   1.250000e+001 1.530808e-015 -5.000000e+001
      vertex   1.233813e+001 2.005141e+000 -1.666667e+001
    endloop
  endfacet
  facet normal 9.709418e-001 2.393157e-001 0.000000e+000
    outer loop
      vertex   1.233813e+001 2.005141e+000 1.666667e+001
      vertex   1.233813e+001 2.005141e+000 -1.666667e+001
      vertex   1.185671e+001 3.958350e+000 1.666667e+001
    endloop
  endfacet
  facet normal 9.199794e-001 3.919666e-001 0.000000e+000
    outer loop
      vertex   1.185671e+001 3.958350e+000 5.000000e+001
      vertex   1.185671e+001 3.958350e+000 1.666667e+001
      vertex   1.106820e+001 5.809040e+000 5.000000e+001
    endloop
  endfacet
  facet normal 9.709418e-001 2.393157e-001 0.000000e+000
    outer loop
      vertex   1.185671e+001 3.958350e+000 5.000000e+001
      vertex   1.233813e+001 2.005141e+000 1.666667e+001
      vertex   1.185671e+001 3.958350e+000 1.666667e+001
    endloop
  endfacet
  facet normal 9.967573e-001 -8.046657e-002 0.000000e+000
    outer loop
      vertex   1.250000e+001 -1.530758e-015 -1.666667e+001
      vertex   1.250000e+001 -1.530758e-015 1.666667e+001
      vertex   1.233813e+001 -2.005141e+000 -1.666667e+001
    endloop
  endfacet
  facet normal 9.967573e-001 8.046657e-002 0.000000e+000
    outer loop
      vertex   1.233813e+001 2.005141e+000 1.666667e+001
      vertex   1.250000e+001 -1.530758e-015 -1.666667e+001
      vertex   1.233813e+001 2.005141e+000 -1.666667e+001
    endloop
  endfacet
  facet normal 8.451901e-001 5.344658e-001 3.311357e-018
    outer loop
      vertex   9.993035e+000 7.509278e+000 1.666667e+001
      vertex   1.106820e+001 5.809040e+000 -1.666667e+001
      vertex   9.993035e+000 7.509278e+000 -1.666667e+001
    endloop
  endfacet
  facet normal 7.485107e-001 6.631227e-001 0.000000e+000
    outer loop
      vertex   8.659054e+000 9.015031e+000 1.666667e+001
      vertex   9.993035e+000 7.509278e+000 -1.666667e+001
      vertex   8.659054e+000 9.015031e+000 -1.666667e+001
    endloop
  endfacet
  facet normal 6.324454e-001 7.746050e-001 0.000000e+000
    outer loop
      vertex   7.100809e+000 1.028730e+001 1.666667e+001
      vertex   8.659054e+000 9.015031e+000 -1.666667e+001
      vertex   7.100809e+000 1.028730e+001 -1.666667e+001
    endloop
  endfacet
  facet normal 5.000000e-001 8.660254e-001 0.000000e+000
    outer loop
      vertex   5.358657e+000 1.129313e+001 1.666667e+001
      vertex   7.100809e+000 1.028730e+001 -1.666667e+001
      vertex   5.358657e+000 1.129313e+001 -1.666667e+001
    endloop
  endfacet
  facet normal 3.546049e-001 9.350162e-001 -1.655678e-017
    outer loop
      vertex   3.477718e+000 1.200648e+001 1.666667e+001
      vertex   5.358657e+000 1.129313e+001 -1.666667e+001
      vertex   3.477718e+000 1.200648e+001 -1.666667e+001
    endloop
  endfacet
  facet normal 2.000257e-001 9.797907e-001 1.655678e-017
    outer loop
      vertex   1.506709e+000 1.240886e+001 1.666667e+001
      vertex   3.477718e+000 1.200648e+001 -1.666667e+001
      vertex   1.506709e+000 1.240886e+001 -1.666667e+001
    endloop
  endfacet
  facet normal 4.026594e-002 9.991890e-001 0.000000e+000
    outer loop
      vertex   -5.033243e-001 1.248986e+001 1.666667e+001
      vertex   1.506709e+000 1.240886e+001 -1.666667e+001
      vertex   -5.033243e-001 1.248986e+001 -1.666667e+001
    endloop
  endfacet
  facet normal -1.205367e-001 9.927089e-001 0.000000e+000
    outer loop
      vertex   -2.500321e+000 1.224738e+001 1.666667e+001
      vertex   -5.033243e-001 1.248986e+001 -1.666667e+001
      vertex   -2.500321e+000 1.224738e+001 -1.666667e+001
    endloop
  endfacet
  facet normal -2.782175e-001 9.605181e-001 -2.317950e-017
    outer loop
      vertex   -4.432561e+000 1.168770e+001 1.666667e+001
      vertex   -2.500321e+000 1.224738e+001 -1.666667e+001
      vertex   -4.432561e+000 1.168770e+001 -1.666667e+001
    endloop
  endfacet
  facet normal -4.286926e-001 9.034504e-001 -4.635900e-017
    outer loop
      vertex   -6.250000e+000 1.082532e+001 1.666667e+001
      vertex   -4.432561e+000 1.168770e+001 -1.666667e+001
      vertex   -6.250000e+000 1.082532e+001 -1.666667e+001
    endloop
  endfacet
  facet normal -5.680647e-001 8.229839e-001 4.304764e-017
    outer loop
      vertex   -7.905567e+000 9.682562e+000 1.666667e+001
      vertex   -6.250000e+000 1.082532e+001 -1.666667e+001
      vertex   -7.905567e+000 9.682562e+000 -1.666667e+001
    endloop
  endfacet
  facet normal -6.927244e-001 7.212024e-001 3.973628e-017
    outer loop
      vertex   -9.356384e+000 8.289033e+000 1.666667e+001
      vertex   -7.905567e+000 9.682562e+000 -1.666667e+001
      vertex   -9.356384e+000 8.289033e+000 -1.666667e+001
    endloop
  endfacet
  facet normal -7.994428e-001 6.007423e-001 -3.973628e-017
    outer loop
      vertex   -1.056488e+001 6.680823e+000 1.666667e+001
      vertex   -9.356384e+000 8.289033e+000 -1.666667e+001
      vertex   -1.056488e+001 6.680823e+000 -1.666667e+001
    endloop
  endfacet
  facet normal -8.854560e-001 4.647232e-001 0.000000e+000
    outer loop
      vertex   -1.149974e+001 4.899583e+000 1.666667e+001
      vertex   -1.056488e+001 6.680823e+000 -1.666667e+001
      vertex   -1.149974e+001 4.899583e+000 -1.666667e+001
    endloop
  endfacet
  facet normal -9.485364e-001 3.166680e-001 1.324543e-017
    outer loop
      vertex   -1.213677e+001 2.991446e+000 1.666667e+001
      vertex   -1.149974e+001 4.899583e+000 -1.666667e+001
      vertex   -1.213677e+001 2.991446e+000 -1.666667e+001
    endloop
  endfacet
  facet normal -9.870503e-001 1.604113e-001 9.934071e-018
    outer loop
      vertex   -1.245947e+001 1.005832e+000 1.666667e+001
      vertex   -1.213677e+001 2.991446e+000 -1.666667e+001
      vertex   -1.245947e+001 1.005832e+000 -1.666667e+001
    endloop
  endfacet
  facet normal -1.000000e+000 -0.000000e+000 -0.000000e+000
    outer loop
      vertex   -1.245947e+001 -1.005832e+000 1.666667e+001
      vertex   -1.245947e+001 1.005832e+000 -1.666667e+001
      vertex   -1.245947e+001 -1.005832e+000 -1.666667e+001
    endloop
  endfacet
  facet normal -9.870503e-001 -1.604113e-001 -6.622714e-018
    outer loop
      vertex   -1.213677e+001 -2.991446e+000 1.666667e+001
      vertex   -1.245947e+001 -1.005832e+000 -1.666667e+001
      vertex   -1.213677e+001 -2.991446e+000 -1.666667e+001
    endloop
  endfacet
  facet normal -9.485364e-001 -3.166680e-001 0.000000e+000
    outer loop
      vertex   -1.149974e+001 -4.899583e+000 1.666667e+001
      vertex   -1.213677e+001 -2.991446e+000 -1.666667e+001
      vertex   -1.149974e+001 -4.899583e+000 -1.666667e+001
    endloop
  endfacet
  facet normal -8.854560e-001 -4.647232e-001 3.642493e-017
    outer loop
      vertex   -1.056488e+001 -6.680823e+000 1.666667e+001
      vertex   -1.149974e+001 -4.899583e+000 -1.666667e+001
      vertex   -1.056488e+001 -6.680823e+000 -1.666667e+001
    endloop
  endfacet
  facet normal -7.994428e-001 -6.007423e-001 -3.311357e-017
    outer loop
      vertex   -9.356384e+000 -8.289033e+000 1.666667e+001
      vertex   -1.056488e+001 -6.680823e+000 -1.666667e+001
      vertex   -9.356384e+000 -8.289033e+000 -1.666667e+001
    endloop
  endfacet
  facet normal -6.927244e-001 -7.212024e-001 1.986814e-017
    outer loop
      vertex   -7.905567e+000 -9.682562e+000 1.666667e+001
      vertex   -9.356384e+000 -8.289033e+000 -1.666667e+001
      vertex   -7.905567e+000 -9.682562e+000 -1.666667e+001
    endloop
  endfacet
  facet normal -5.680647e-001 -8.229839e-001 -5.629307e-017
    outer loop
      vertex   -6.250000e+000 -1.082532e+001 1.666667e+001
      vertex   -7.905567e+000 -9.682562e+000 -1.666667e+001
      vertex   -6.250000e+000 -1.082532e+001 -1.666667e+001
    endloop
  endfacet
  facet normal -4.286926e-001 -9.034504e-001 0.000000e+000
    outer loop
      vertex   -4.432561e+000 -1.168770e+001 1.666667e+001
      vertex   -6.250000e+000 -1.082532e+001 -1.666667e+001
      vertex   -4.432561e+000 -1.168770e+001 -1.666667e+001
    endloop
  endfacet
  facet normal -2.782175e-001 -9.605181e-001 0.000000e+000
    outer loop
      vertex   -2.500321e+000 -1.224738e+001 1.666667e+001
      vertex   -4.432561e+000 -1.168770e+001 -1.666667e+001
      vertex   -2.500321e+000 -1.224738e+001 -1.666667e+001
    endloop
  endfacet
  facet normal -1.205367e-001 -9.927089e-001 0.000000e+000
    outer loop
      vertex   -5.033243e-001 -1.248986e+001 1.666667e+001
      vertex   -2.500321e+000 -1.224738e+001 -1.666667e+001
      vertex   -5.033243e-001 -1.248986e+001 -1.666667e+001
    endloop
  endfacet
  facet normal 4.026594e-002 -9.991890e-001 -3.311357e-018
    outer loop
      vertex   1.506709e+000 -1.240886e+001 1.666667e+001
      vertex   -5.033243e-001 -1.248986e+001 -1.666667e+001
      vertex   1.506709e+000 -1.240886e+001 -1.666667e+001
    endloop
  endfacet
  facet normal 2.000257e-001 -9.797907e-001 -1.490111e-017
    outer loop
      vertex   3.477718e+000 -1.200648e+001 1.666667e+001
      vertex   1.506709e+000 -1.240886e+001 -1.666667e+001
      vertex   3.477718e+000 -1.200648e+001 -1.666667e+001
    endloop
  endfacet
  facet normal 3.546049e-001 -9.350162e-001 0.000000e+000
    outer loop
      vertex   5.358657e+000 -1.129313e+001 1.666667e+001
      vertex   3.477718e+000 -1.200648e+001 -1.666667e+001
      vertex   5.358657e+000 -1.129313e+001 -1.666667e+001
    endloop
  endfacet
  facet normal 5.000000e-001 -8.660254e-001 0.000000e+000
    outer loop
      vertex   7.100809e+000 -1.028730e+001 1.666667e+001
      vertex   5.358657e+000 -1.129313e+001 -1.666667e+001
      vertex   7.100809e+000 -1.028730e+001 -1.666667e+001
    endloop
  endfacet
  facet normal 6.324454e-001 -7.746050e-001 0.000000e+000
    outer loop
      vertex   8.659054e+000 -9.015031e+000 1.666667e+001
      vertex   7.100809e+000 -1.028730e+001 -1.666667e+001
      vertex   8.659054e+000 -9.015031e+000 -1.666667e+001
    endloop
  endfacet
  facet normal 7.485107e-001 -6.631227e-001 -1.324543e-017
    outer loop
      vertex   9.993035e+000 -7.509278e+000 1.666667e+001
      vertex   8.659054e+000 -9.015031e+000 -1.666667e+001
      vertex   9.993035e+000 -7.509278e+000 -1.666667e+001
    endloop
  endfacet
  facet normal 8.451901e-001 -5.344658e-001 0.000000e+000
    outer loop
      vertex   1.106820e+001 -5.809040e+000 1.666667e+001
      vertex   9.993035e+000 -7.509278e+000 -1.666667e+001
      vertex   1.106820e+001 -5.809040e+000 -1.666667e+001
    endloop
  endfacet
  facet normal 9.199794e-001 -3.919666e-001 0.000000e+000
    outer loop
      vertex   1.185671e+001 -3.958350e+000 1.666667e+001
      vertex   1.106820e+001 -5.809040e+000 -1.666667e+001
      vertex   1.185671e+001 -3.958350e+000 -1.666667e+001
    endloop
  endfacet
  facet normal 9.709418e-001 -2.393157e-001 0.000000e+000
    outer loop
      vertex   1.233813e+001 -2.005141e+000 1.666667e+001
      vertex   1.185671e+001 -3.958350e+000 -1.666667e+001
      vertex   1.233813e+001 -2.005141e+000 -1.666667e+001
    endloop
  endfacet
  facet normal 0.000000e+000 0.000000e+000 1.000000e+000
    outer loop
      vertex   1.233813e+001 2.005141e+000 5.000000e+001
      vertex   -1.245947e+001 1.005832e+000 5.000000e+001
      vertex   1.250000e+001 1.530808e-015 5.000000e+001
    endloop
  endfacet
  facet normal 0.000000e+000 0.000000e+000 1.000000e+000
    outer loop
      vertex   1.233813e+001 2.005141e+000 5.000000e+001
      vertex   -1.213677e+001 2.991446e+000 5.000000e+001
      vertex   -1.245947e+001 1.005832e+000 5.000000e+001
    endloop
  endfacet
  facet normal 0.000000e+000 0.000000e+000 1.000000e+000
    outer loop
      vertex   1.233813e+001 2.005141e+000 5.000000e+001
      vertex   1.185671e+001 3.958350e+000 5.000000e+001
      vertex   -1.213677e+001 2.991446e+000 5.000000e+001
    endloop
  endfacet
  facet normal 0.000000e+000 -0.000000e+000 1.000000e+000
    outer loop
      vertex   -1.213677e+001 2.991446e+000 5.000000e+001
      vertex   1.185671e+001 3.958350e+000 5.000000e+001
      vertex   -1.149974e+001 4.899583e+000 5.000000e+001
    endloop
  endfacet
  facet normal -0.000000e+000 -0.000000e+000 1.000000e+000
    outer loop
      vertex   -1.149974e+001 4.899583e+000 5.000000e+001
      vertex   1.185671e+001 3.958350e+000 5.000000e+001
      vertex   1.106820e+001 5.809040e+000 5.000000e+001
    endloop
  endfacet
  facet normal -0.000000e+000 -0.000000e+000 1.000000e+000
    outer loop
      vertex   -1.056488e+001 6.680823e+000 5.000000e+001
      vertex   1.106820e+001 5.809040e+000 5.000000e+001
      vertex   9.993035e+000 7.509278e+000 5.000000e+001
    endloop
  endfacet
  facet normal -0.000000e+000 -0.000000e+000 1.000000e+000
    outer loop
      vertex   -9.356384e+000 8.289033e+000 5.000000e+001
      vertex   9.993035e+000 7.509278e+000 5.000000e+001
      vertex   8.659054e+000 9.015031e+000 5.000000e+001
    endloop
  endfacet
  facet normal -0.000000e+000 -0.000000e+000 1.000000e+000
    outer loop
      vertex   -7.905567e+000 9.682562e+000 5.000000e+001
      vertex   8.659054e+000 9.015031e+000 5.000000e+001
      vertex   7.100809e+000 1.028730e+001 5.000000e+001
    endloop
  endfacet
  facet normal -0.000000e+000 -0.000000e+000 1.000000e+000
    outer loop
      vertex   -6.250000e+000 1.082532e+001 5.000000e+001
      vertex   7.100809e+000 1.028730e+001 5.000000e+001
      vertex   5.358657e+000 1.129313e+001 5.000000e+001
    endloop
  endfacet
  facet normal -0.000000e+000 -0.000000e+000 1.000000e+000
    outer loop
      vertex   -4.432561e+000 1.168770e+001 5.000000e+001
      vertex   5.358657e+000 1.129313e+001 5.000000e+001
      vertex   3.477718e+000 1.200648e+001 5.000000e+001
    endloop
  endfacet
  facet normal -0.000000e+000 -0.000000e+000 1.000000e+000
    outer loop
      vertex   -2.500321e+000 1.224738e+001 5.000000e+001
      vertex   3.477718e+000 1.200648e+001 5.000000e+001
      vertex   1.506709e+000 1.240886e+001 5.000000e+001
    endloop
  endfacet
  facet normal -0.000000e+000 0.000000e+000 1.000000e+000
    outer loop
      vertex   -5.033243e-001 1.248986e+001 5.000000e+001
      vertex   -2.500321e+000 1.224738e+001 5.000000e+001
      vertex   1.506709e+000 1.240886e+001 5.000000e+001
    endloop
  endfacet
  facet normal 0.000000e+000 -0.000000e+000 1.000000e+000
    outer loop
      vertex   -1.149974e+001 4.899583e+000 5.000000e+001
      vertex   1.106820e+001 5.809040e+000 5.000000e+001
      vertex   -1.056488e+001 6.680823e+000 5.000000e+001
    endloop
  endfacet
  facet normal 0.000000e+000 -0.000000e+000 1.000000e+000
    outer loop
      vertex   -1.056488e+001 6.680823e+000 5.000000e+001
      vertex   9.993035e+000 7.509278e+000 5.000000e+001
      vertex   -9.356384e+000 8.289033e+000 5.000000e+001
    endloop
  endfacet
  facet normal 0.000000e+000 -0.000000e+000 1.000000e+000
    outer loop
      vertex   -9.356384e+000 8.289033e+000 5.000000e+001
      vertex   8.659054e+000 9.015031e+000 5.000000e+001
      vertex   -7.905567e+000 9.682562e+000 5.000000e+001
    endloop
  endfacet
  facet normal 0.000000e+000 -0.000000e+000 1.000000e+000
    outer loop
      vertex   -7.905567e+000 9.682562e+000 5.000000e+001
      vertex   7.100809e+000 1.028730e+001 5.000000e+001
      vertex   -6.250000e+000 1.082532e+001 5.000000e+001
    endloop
  endfacet
  facet normal 0.000000e+000 -0.000000e+000 1.000000e+000
    outer loop
      vertex   -6.250000e+000 1.082532e+001 5.000000e+001
      vertex   5.358657e+000 1.129313e+001 5.000000e+001
      vertex   -4.432561e+000 1.168770e+001 5.000000e+001
    endloop
  endfacet
  facet normal 0.000000e+000 -0.000000e+000 1.000000e+000
    outer loop
      vertex   -4.432561e+000 1.168770e+001 5.000000e+001
      vertex   3.477718e+000 1.200648e+001 5.000000e+001
      vertex   -2.500321e+000 1.224738e+001 5.000000e+001
    endloop
  endfacet
  facet normal -0.000000e+000 0.000000e+000 1.000000e+000
    outer loop
      vertex   -1.245947e+001 1.005832e+000 5.000000e+001
      vertex   -1.245947e+001 -1.005832e+000 5.000000e+001
      vertex   1.250000e+001 1.530808e-015 5.000000e+001
    endloop
  endfacet
  facet normal 0.000000e+000 0.000000e+000 1.000000e+000
    outer loop
      vertex   1.250000e+001 1.530808e-015 5.000000e+001
      vertex   -1.245947e+001 -1.005832e+000 5.000000e+001
      vertex   1.233813e+001 -2.005141e+000 5.000000e+001
    endloop
  endfacet
  facet normal 0.000000e+000 0.000000e+000 1.000000e+000
    outer loop
      vertex   1.233813e+001 -2.005141e+000 5.000000e+001
      vertex   -1.245947e+001 -1.005832e+000 5.000000e+001
      vertex   -1.213677e+001 -2.991446e+000 5.000000e+001
    endloop
  endfacet
  facet normal 0.000000e+000 0.000000e+000 1.000000e+000
    outer loop
      vertex   1.185671e+001 -3.958350e+000 5.000000e+001
      vertex   -1.213677e+001 -2.991446e+000 5.000000e+001
      vertex   -1.149974e+001 -4.899583e+000 5.000000e+001
    endloop
  endfacet
  facet normal 0.000000e+000 0.000000e+000 1.000000e+000
    outer loop
      vertex   1.106820e+001 -5.809040e+000 5.000000e+001
      vertex   -1.149974e+001 -4.899583e+000 5.000000e+001
      vertex   -1.056488e+001 -6.680823e+000 5.000000e+001
    endloop
  endfacet
  facet normal 0.000000e+000 0.000000e+000 1.000000e+000
    outer loop
      vertex   9.993035e+000 -7.509278e+000 5.000000e+001
      vertex   -1.056488e+001 -6.680823e+000 5.000000e+001
      vertex   -9.356384e+000 -8.289033e+000 5.000000e+001
    endloop
  endfacet
  facet normal 0.000000e+000 0.000000e+000 1.000000e+000
    outer loop
      vertex   8.659054e+000 -9.015031e+000 5.000000e+001
      vertex   -9.356384e+000 -8.289033e+000 5.000000e+001
      vertex   -7.905567e+000 -9.682562e+000 5.000000e+001
    endloop
  endfacet
  facet normal 0.000000e+000 0.000000e+000 1.000000e+000
    outer loop
      vertex   7.100809e+000 -1.028730e+001 5.000000e+001
      vertex   -7.905567e+000 -9.682562e+000 5.000000e+001
      vertex   -6.250000e+000 -1.082532e+001 5.000000e+001
    endloop
  endfacet
  facet normal 0.000000e+000 0.000000e+000 1.000000e+000
    outer loop
      vertex   5.358657e+000 -1.129313e+001 5.000000e+001
      vertex   -6.250000e+000 -1.082532e+001 5.000000e+001
      vertex   -4.432561e+000 -1.168770e+001 5.000000e+001
    endloop
  endfacet
  facet normal 0.000000e+000 0.000000e+000 1.000000e+000
    outer loop
      vertex   3.477718e+000 -1.200648e+001 5.000000e+001
      vertex   -4.432561e+000 -1.168770e+001 5.000000e+001
      vertex   -2.500321e+000 -1.224738e+001 5.000000e+001
    endloop
  endfacet
  facet normal 0.000000e+000 0.000000e+000 1.000000e+000
    outer loop
      vertex   1.506709e+000 -1.240886e+001 5.000000e+001
      vertex   -2.500321e+000 -1.224738e+001 5.000000e+001
      vertex   -5.033243e-001 -1.248986e+001 5.000000e+001
    endloop
  endfacet
  facet normal 0.000000e+000 -0.000000e+000 1.000000e+000
    outer loop
      vertex   1.506709e+000 -1.240886e+001 5.000000e+001
      vertex   3.477718e+000 -1.200648e+001 5.000000e+001
      vertex   -2.500321e+000 -1.224738e+001 5.000000e+001
    endloop
  endfacet
  facet normal 0.000000e+000 0.000000e+000 1.000000e+000
    outer loop
      vertex   1.233813e+001 -2.005141e+000 5.000000e+001
      vertex   -1.213677e+001 -2.991446e+000 5.000000e+001
      vertex   1.185671e+001 -3.958350e+000 5.000000e+001
    endloop
  endfacet
  facet normal 0.000000e+000 0.000000e+000 1.000000e+000
    outer loop
      vertex   1.185671e+001 -3.958350e+000 5.000000e+001
      vertex   -1.149974e+001 -4.899583e+000 5.000000e+001
      vertex   1.106820e+001 -5.809040e+000 5.000000e+001
    endloop
  endfacet
  facet normal 0.000000e+000 0.000000e+000 1.000000e+000
    outer loop
      vertex   1.106820e+001 -5.809040e+000 5.000000e+001
      vertex   -1.056488e+001 -6.680823e+000 5.000000e+001
      vertex   9.993035e+000 -7.509278e+000 5.000000e+001
    endloop
  endfacet
  facet normal 0.000000e+000 0.000000e+000 1.000000e+000
    outer loop
      vertex   9.993035e+000 -7.509278e+000 5.000000e+001
      vertex   -9.356384e+000 -8.289033e+000 5.000000e+001
      vertex   8.659054e+000 -9.015031e+000 5.000000e+001
    endloop
  endfacet
  facet normal 0.000000e+000 0.000000e+000 1.000000e+000
    outer loop
      vertex   8.659054e+000 -9.015031e+000 5.000000e+001
      vertex   -7.905567e+000 -9.682562e+000 5.000000e+001
      vertex   7.100809e+000 -1.028730e+001 5.000000e+001
    endloop
  endfacet
  facet normal 0.000000e+000 0.000000e+000 1.000000e+000
    outer loop
      vertex   7.100809e+000 -1.028730e+001 5.000000e+001
      vertex   -6.250000e+000 -1.082532e+001 5.000000e+001
      vertex   5.358657e+000 -1.129313e+001 5.000000e+001
    endloop
  endfacet
  facet normal 0.000000e+000 0.000000e+000 1.000000e+000
    outer loop
      vertex   5.358657e+000 -1.129313e+001 5.000000e+001
      vertex   -4.432561e+000 -1.168770e+001 5.000000e+001
      vertex   3.477718e+000 -1.200648e+001 5.000000e+001
    endloop
  endfacet
endsolid
