solid ascii
  facet normal -9.807853e-001 1.950903e-001 7.578638e-017
    outer loop
      vertex   1.173273e+001 -4.859959e+000 -4.065991e+002
      vertex   1.173273e+001 -4.859959e+000 -3.811991e+002
      vertex   1.269946e+001 1.206608e-004 -4.065991e+002
    endloop
  endfacet
  facet normal -8.314696e-001 5.555702e-001 -5.645300e-017
    outer loop
      vertex   1.173273e+001 -4.859959e+000 -4.065991e+002
      vertex   8.979717e+000 -8.980135e+000 -3.811991e+002
      vertex   1.173273e+001 -4.859959e+000 -3.811991e+002
    endloop
  endfacet
  facet normal -8.314696e-001 5.555702e-001 1.355933e-016
    outer loop
      vertex   1.173273e+001 -4.859959e+000 -4.065991e+002
      vertex   8.979717e+000 -8.980135e+000 -4.065991e+002
      vertex   8.979717e+000 -8.980135e+000 -3.811991e+002
    endloop
  endfacet
  facet normal -5.555702e-001 8.314696e-001 5.841284e-017
    outer loop
      vertex   8.979717e+000 -8.980135e+000 -3.811991e+002
      vertex   8.979717e+000 -8.980135e+000 -4.065991e+002
      vertex   4.859540e+000 -1.173315e+001 -3.811991e+002
    endloop
  endfacet
  facet normal -5.555702e-001 8.314696e-001 4.233975e-017
    outer loop
      vertex   4.859540e+000 -1.173315e+001 -3.811991e+002
      vertex   8.979717e+000 -8.980135e+000 -4.065991e+002
      vertex   4.859540e+000 -1.173315e+001 -4.065991e+002
    endloop
  endfacet
  facet normal -1.950903e-001 9.807853e-001 3.528313e-017
    outer loop
      vertex   -5.395611e-004 -1.269988e+001 -3.811991e+002
      vertex   4.859540e+000 -1.173315e+001 -4.065991e+002
      vertex   -5.395611e-004 -1.269988e+001 -4.065991e+002
    endloop
  endfacet
  facet normal 1.950903e-001 9.807853e-001 0.000000e+000
    outer loop
      vertex   -4.860619e+000 -1.173315e+001 -3.811991e+002
      vertex   -5.395611e-004 -1.269988e+001 -4.065991e+002
      vertex   -4.860619e+000 -1.173315e+001 -4.065991e+002
    endloop
  endfacet
  facet normal 5.555702e-001 8.314696e-001 -5.645300e-017
    outer loop
      vertex   -8.980796e+000 -8.980135e+000 -3.811991e+002
      vertex   -4.860619e+000 -1.173315e+001 -4.065991e+002
      vertex   -8.980796e+000 -8.980135e+000 -4.065991e+002
    endloop
  endfacet
  facet normal 8.314696e-001 5.555702e-001 1.411325e-017
    outer loop
      vertex   -1.173381e+001 -4.859959e+000 -3.811991e+002
      vertex   -8.980796e+000 -8.980135e+000 -4.065991e+002
      vertex   -1.173381e+001 -4.859959e+000 -4.065991e+002
    endloop
  endfacet
  facet normal 9.807853e-001 1.950903e-001 2.822650e-017
    outer loop
      vertex   -1.270054e+001 1.206608e-004 -3.811991e+002
      vertex   -1.173381e+001 -4.859959e+000 -4.065991e+002
      vertex   -1.270054e+001 1.206608e-004 -4.065991e+002
    endloop
  endfacet
  facet normal 9.807853e-001 -1.950903e-001 3.528313e-017
    outer loop
      vertex   -1.173381e+001 4.860200e+000 -3.811991e+002
      vertex   -1.270054e+001 1.206608e-004 -4.065991e+002
      vertex   -1.173381e+001 4.860200e+000 -4.065991e+002
    endloop
  endfacet
  facet normal 8.314696e-001 -5.555702e-001 0.000000e+000
    outer loop
      vertex   -8.980796e+000 8.980377e+000 -3.811991e+002
      vertex   -1.173381e+001 4.860200e+000 -4.065991e+002
      vertex   -8.980796e+000 8.980377e+000 -4.065991e+002
    endloop
  endfacet
  facet normal 5.555702e-001 -8.314696e-001 2.822650e-017
    outer loop
      vertex   -4.860619e+000 1.173339e+001 -3.811991e+002
      vertex   -8.980796e+000 8.980377e+000 -4.065991e+002
      vertex   -4.860619e+000 1.173339e+001 -4.065991e+002
    endloop
  endfacet
  facet normal 1.950903e-001 -9.807853e-001 1.411325e-017
    outer loop
      vertex   -5.395611e-004 1.270012e+001 -3.811991e+002
      vertex   -4.860619e+000 1.173339e+001 -4.065991e+002
      vertex   -5.395611e-004 1.270012e+001 -4.065991e+002
    endloop
  endfacet
  facet normal -1.950903e-001 -9.807853e-001 -1.199626e-016
    outer loop
      vertex   4.859540e+000 1.173339e+001 -3.811991e+002
      vertex   -5.395611e-004 1.270012e+001 -4.065991e+002
      vertex   4.859540e+000 1.173339e+001 -4.065991e+002
    endloop
  endfacet
  facet normal -5.555702e-001 -8.314696e-001 1.411325e-017
    outer loop
      vertex   8.979717e+000 8.980377e+000 -3.811991e+002
      vertex   4.859540e+000 1.173339e+001 -4.065991e+002
      vertex   8.979717e+000 8.980377e+000 -4.065991e+002
    endloop
  endfacet
  facet normal -8.314696e-001 -5.555702e-001 5.645300e-017
    outer loop
      vertex   1.173273e+001 4.860200e+000 -3.811991e+002
      vertex   8.979717e+000 8.980377e+000 -4.065991e+002
      vertex   1.173273e+001 4.860200e+000 -4.065991e+002
    endloop
  endfacet
  facet normal -9.807853e-001 -1.950903e-001 3.528313e-017
    outer loop
      vertex   1.269946e+001 1.206608e-004 -3.811991e+002
      vertex   1.173273e+001 4.860200e+000 -4.065991e+002
      vertex   1.269946e+001 1.206608e-004 -4.065991e+002
    endloop
  endfacet
  facet normal -9.807853e-001 1.950903e-001 -3.410925e-017
    outer loop
      vertex   1.173273e+001 -4.859959e+000 -3.811991e+002
      vertex   1.269946e+001 1.206608e-004 -3.811991e+002
      vertex   1.269946e+001 1.206608e-004 -4.065991e+002
    endloop
  endfacet
  facet normal -1.950903e-001 9.807853e-001 6.176967e-017
    outer loop
      vertex   4.859540e+000 -1.173315e+001 -3.811991e+002
      vertex   4.859540e+000 -1.173315e+001 -4.065991e+002
      vertex   -5.395611e-004 -1.269988e+001 -3.811991e+002
    endloop
  endfacet
  facet normal 1.950903e-001 9.807853e-001 -3.583720e-017
    outer loop
      vertex   -5.395611e-004 -1.269988e+001 -3.811991e+002
      vertex   -5.395611e-004 -1.269988e+001 -4.065991e+002
      vertex   -4.860619e+000 -1.173315e+001 -3.811991e+002
    endloop
  endfacet
  facet normal 5.555702e-001 8.314696e-001 -1.361208e-016
    outer loop
      vertex   -4.860619e+000 -1.173315e+001 -3.811991e+002
      vertex   -4.860619e+000 -1.173315e+001 -4.065991e+002
      vertex   -8.980796e+000 -8.980135e+000 -3.811991e+002
    endloop
  endfacet
  facet normal 8.314696e-001 5.555702e-001 -1.355933e-016
    outer loop
      vertex   -8.980796e+000 -8.980135e+000 -3.811991e+002
      vertex   -8.980796e+000 -8.980135e+000 -4.065991e+002
      vertex   -1.173381e+001 -4.859959e+000 -3.811991e+002
    endloop
  endfacet
  facet normal 9.807853e-001 1.950903e-001 -4.130412e-017
    outer loop
      vertex   -1.173381e+001 -4.859959e+000 -3.811991e+002
      vertex   -1.173381e+001 -4.859959e+000 -4.065991e+002
      vertex   -1.270054e+001 1.206608e-004 -3.811991e+002
    endloop
  endfacet
  facet normal 9.807853e-001 -1.950903e-001 -2.389168e-017
    outer loop
      vertex   -1.270054e+001 1.206608e-004 -3.811991e+002
      vertex   -1.270054e+001 1.206608e-004 -4.065991e+002
      vertex   -1.173381e+001 4.860200e+000 -3.811991e+002
    endloop
  endfacet
  facet normal 8.314696e-001 -5.555702e-001 -1.955887e-017
    outer loop
      vertex   -1.173381e+001 4.860200e+000 -3.811991e+002
      vertex   -1.173381e+001 4.860200e+000 -4.065991e+002
      vertex   -8.980796e+000 8.980377e+000 -3.811991e+002
    endloop
  endfacet
  facet normal 5.555702e-001 -8.314696e-001 0.000000e+000
    outer loop
      vertex   -8.980796e+000 8.980377e+000 -3.811991e+002
      vertex   -8.980796e+000 8.980377e+000 -4.065991e+002
      vertex   -4.860619e+000 1.173339e+001 -3.811991e+002
    endloop
  endfacet
  facet normal 1.950903e-001 -9.807853e-001 -8.260824e-017
    outer loop
      vertex   -4.860619e+000 1.173339e+001 -3.811991e+002
      vertex   -4.860619e+000 1.173339e+001 -4.065991e+002
      vertex   -5.395611e-004 1.270012e+001 -3.811991e+002
    endloop
  endfacet
  facet normal -1.950903e-001 -9.807853e-001 -1.194573e-017
    outer loop
      vertex   -5.395611e-004 1.270012e+001 -3.811991e+002
      vertex   -5.395611e-004 1.270012e+001 -4.065991e+002
      vertex   4.859540e+000 1.173339e+001 -3.811991e+002
    endloop
  endfacet
  facet normal -5.555702e-001 -8.314696e-001 -5.801720e-017
    outer loop
      vertex   4.859540e+000 1.173339e+001 -3.811991e+002
      vertex   4.859540e+000 1.173339e+001 -4.065991e+002
      vertex   8.979717e+000 8.980377e+000 -3.811991e+002
    endloop
  endfacet
  facet normal -8.314696e-001 -5.555702e-001 -1.929511e-017
    outer loop
      vertex   8.979717e+000 8.980377e+000 -3.811991e+002
      vertex   8.979717e+000 8.980377e+000 -4.065991e+002
      vertex   1.173273e+001 4.860200e+000 -3.811991e+002
    endloop
  endfacet
  facet normal -9.807853e-001 -1.950903e-001 -7.578638e-017
    outer loop
      vertex   1.173273e+001 4.860200e+000 -3.811991e+002
      vertex   1.173273e+001 4.860200e+000 -4.065991e+002
      vertex   1.269946e+001 1.206608e-004 -3.811991e+002
    endloop
  endfacet
  facet normal -0.000000e+000 0.000000e+000 -1.000000e+000
    outer loop
      vertex   1.173273e+001 -4.859959e+000 -3.811991e+002
      vertex   -1.173381e+001 -4.859959e+000 -3.811991e+002
      vertex   1.269946e+001 1.206608e-004 -3.811991e+002
    endloop
  endfacet
  facet normal -0.000000e+000 0.000000e+000 -1.000000e+000
    outer loop
      vertex   1.173273e+001 -4.859959e+000 -3.811991e+002
      vertex   -8.980796e+000 -8.980135e+000 -3.811991e+002
      vertex   -1.173381e+001 -4.859959e+000 -3.811991e+002
    endloop
  endfacet
  facet normal 0.000000e+000 0.000000e+000 -1.000000e+000
    outer loop
      vertex   1.173273e+001 -4.859959e+000 -3.811991e+002
      vertex   8.979717e+000 -8.980135e+000 -3.811991e+002
      vertex   -8.980796e+000 -8.980135e+000 -3.811991e+002
    endloop
  endfacet
  facet normal 0.000000e+000 -0.000000e+000 -1.000000e+000
    outer loop
      vertex   -8.980796e+000 -8.980135e+000 -3.811991e+002
      vertex   8.979717e+000 -8.980135e+000 -3.811991e+002
      vertex   -4.860619e+000 -1.173315e+001 -3.811991e+002
    endloop
  endfacet
  facet normal 0.000000e+000 -0.000000e+000 -1.000000e+000
    outer loop
      vertex   -4.860619e+000 -1.173315e+001 -3.811991e+002
      vertex   8.979717e+000 -8.980135e+000 -3.811991e+002
      vertex   4.859540e+000 -1.173315e+001 -3.811991e+002
    endloop
  endfacet
  facet normal 0.000000e+000 0.000000e+000 -1.000000e+000
    outer loop
      vertex   -5.395611e-004 -1.269988e+001 -3.811991e+002
      vertex   -4.860619e+000 -1.173315e+001 -3.811991e+002
      vertex   4.859540e+000 -1.173315e+001 -3.811991e+002
    endloop
  endfacet
  facet normal 0.000000e+000 0.000000e+000 -1.000000e+000
    outer loop
      vertex   -1.173381e+001 -4.859959e+000 -3.811991e+002
      vertex   -1.270054e+001 1.206608e-004 -3.811991e+002
      vertex   1.269946e+001 1.206608e-004 -3.811991e+002
    endloop
  endfacet
  facet normal -0.000000e+000 0.000000e+000 -1.000000e+000
    outer loop
      vertex   1.269946e+001 1.206608e-004 -3.811991e+002
      vertex   -1.270054e+001 1.206608e-004 -3.811991e+002
      vertex   1.173273e+001 4.860200e+000 -3.811991e+002
    endloop
  endfacet
  facet normal -0.000000e+000 0.000000e+000 -1.000000e+000
    outer loop
      vertex   1.173273e+001 4.860200e+000 -3.811991e+002
      vertex   -1.270054e+001 1.206608e-004 -3.811991e+002
      vertex   -1.173381e+001 4.860200e+000 -3.811991e+002
    endloop
  endfacet
  facet normal -0.000000e+000 0.000000e+000 -1.000000e+000
    outer loop
      vertex   8.979717e+000 8.980377e+000 -3.811991e+002
      vertex   -1.173381e+001 4.860200e+000 -3.811991e+002
      vertex   -8.980796e+000 8.980377e+000 -3.811991e+002
    endloop
  endfacet
  facet normal -0.000000e+000 0.000000e+000 -1.000000e+000
    outer loop
      vertex   4.859540e+000 1.173339e+001 -3.811991e+002
      vertex   -8.980796e+000 8.980377e+000 -3.811991e+002
      vertex   -4.860619e+000 1.173339e+001 -3.811991e+002
    endloop
  endfacet
  facet normal -0.000000e+000 -0.000000e+000 -1.000000e+000
    outer loop
      vertex   -5.395611e-004 1.270012e+001 -3.811991e+002
      vertex   4.859540e+000 1.173339e+001 -3.811991e+002
      vertex   -4.860619e+000 1.173339e+001 -3.811991e+002
    endloop
  endfacet
  facet normal -0.000000e+000 0.000000e+000 -1.000000e+000
    outer loop
      vertex   1.173273e+001 4.860200e+000 -3.811991e+002
      vertex   -1.173381e+001 4.860200e+000 -3.811991e+002
      vertex   8.979717e+000 8.980377e+000 -3.811991e+002
    endloop
  endfacet
  facet normal -0.000000e+000 0.000000e+000 -1.000000e+000
    outer loop
      vertex   8.979717e+000 8.980377e+000 -3.811991e+002
      vertex   -8.980796e+000 8.980377e+000 -3.811991e+002
      vertex   4.859540e+000 1.173339e+001 -3.811991e+002
    endloop
  endfacet
  facet normal -1.361666e-001 9.906859e-001 -6.214178e-017
    outer loop
      vertex   -6.650610e+000 2.373453e+001 -4.065991e+002
      vertex   -6.650610e+000 2.373453e+001 -3.557991e+002
      vertex   -5.395611e-004 2.464856e+001 -4.065991e+002
    endloop
  endfacet
  facet normal -3.984011e-001 9.172113e-001 -4.167410e-017
    outer loop
      vertex   -6.650610e+000 2.373453e+001 -4.065991e+002
      vertex   -1.280747e+001 2.106023e+001 -4.065991e+002
      vertex   -6.650610e+000 2.373453e+001 -3.557991e+002
    endloop
  endfacet
  facet normal -3.984011e-001 9.172113e-001 -1.004286e-016
    outer loop
      vertex   -6.650610e+000 2.373453e+001 -3.557991e+002
      vertex   -1.280747e+001 2.106023e+001 -4.065991e+002
      vertex   -1.280747e+001 2.106023e+001 -3.557991e+002
    endloop
  endfacet
  facet normal -6.310879e-001 7.757113e-001 -6.436389e-017
    outer loop
      vertex   -1.280747e+001 2.106023e+001 -3.557991e+002
      vertex   -1.280747e+001 2.106023e+001 -4.065991e+002
      vertex   -1.801451e+001 1.682399e+001 -4.065991e+002
    endloop
  endfacet
  facet normal -8.169699e-001 5.766803e-001 -2.352559e-017
    outer loop
      vertex   -1.801451e+001 1.682399e+001 -3.557991e+002
      vertex   -1.801451e+001 1.682399e+001 -4.065991e+002
      vertex   -2.188553e+001 1.134001e+001 -4.065991e+002
    endloop
  endfacet
  facet normal -9.422609e-001 3.348796e-001 -2.341991e-017
    outer loop
      vertex   -2.188553e+001 1.134001e+001 -3.557991e+002
      vertex   -2.188553e+001 1.134001e+001 -4.065991e+002
      vertex   -2.413344e+001 5.014994e+000 -4.065991e+002
    endloop
  endfacet
  facet normal -9.976688e-001 6.824241e-002 -5.965693e-018
    outer loop
      vertex   -2.413344e+001 5.014994e+000 -3.557991e+002
      vertex   -2.413344e+001 5.014994e+000 -4.065991e+002
      vertex   -2.459152e+001 -1.681949e+000 -4.065991e+002
    endloop
  endfacet
  facet normal -9.790841e-001 -2.034560e-001 8.625850e-017
    outer loop
      vertex   -2.459152e+001 -1.681949e+000 -3.557991e+002
      vertex   -2.459152e+001 -1.681949e+000 -4.065991e+002
      vertex   -2.322580e+001 -8.254140e+000 -4.065991e+002
    endloop
  endfacet
  facet normal -8.878852e-001 -4.600650e-001 9.426932e-017
    outer loop
      vertex   -2.322580e+001 -8.254140e+000 -3.557991e+002
      vertex   -2.322580e+001 -8.254140e+000 -4.065991e+002
      vertex   -2.013757e+001 -1.421415e+001 -4.065991e+002
    endloop
  endfacet
  facet normal -7.308360e-001 -6.825531e-001 1.499570e-016
    outer loop
      vertex   -2.013757e+001 -1.421415e+001 -3.557991e+002
      vertex   -2.013757e+001 -1.421415e+001 -4.065991e+002
      vertex   -1.555587e+001 -1.911995e+001 -4.065991e+002
    endloop
  endfacet
  facet normal -5.195840e-001 -8.544194e-001 1.376768e-016
    outer loop
      vertex   -1.555587e+001 -1.911995e+001 -3.557991e+002
      vertex   -1.555587e+001 -1.911995e+001 -4.065991e+002
      vertex   -9.820506e+000 -2.260771e+001 -4.065991e+002
    endloop
  endfacet
  facet normal -2.697968e-001 -9.629173e-001 8.621024e-017
    outer loop
      vertex   -9.820506e+000 -2.260771e+001 -3.557991e+002
      vertex   -9.820506e+000 -2.260771e+001 -4.065991e+002
      vertex   -3.356835e+000 -2.441874e+001 -4.065991e+002
    endloop
  endfacet
  facet normal 0.000000e+000 -1.000000e+000 1.398706e-016
    outer loop
      vertex   -3.356835e+000 -2.441874e+001 -3.557991e+002
      vertex   -3.356835e+000 -2.441874e+001 -4.065991e+002
      vertex   3.355756e+000 -2.441874e+001 -4.065991e+002
    endloop
  endfacet
  facet normal 2.697968e-001 -9.629173e-001 1.181741e-016
    outer loop
      vertex   3.355756e+000 -2.441874e+001 -3.557991e+002
      vertex   3.355756e+000 -2.441874e+001 -4.065991e+002
      vertex   9.819427e+000 -2.260771e+001 -4.065991e+002
    endloop
  endfacet
  facet normal 5.195840e-001 -8.544194e-001 2.341682e-017
    outer loop
      vertex   9.819427e+000 -2.260771e+001 -3.557991e+002
      vertex   9.819427e+000 -2.260771e+001 -4.065991e+002
      vertex   1.555479e+001 -1.911995e+001 -4.065991e+002
    endloop
  endfacet
  facet normal 7.308360e-001 -6.825531e-001 2.217895e-017
    outer loop
      vertex   1.555479e+001 -1.911995e+001 -3.557991e+002
      vertex   1.555479e+001 -1.911995e+001 -4.065991e+002
      vertex   2.013650e+001 -1.421415e+001 -4.065991e+002
    endloop
  endfacet
  facet normal 8.878852e-001 -4.600650e-001 -7.592687e-017
    outer loop
      vertex   2.013650e+001 -1.421415e+001 -3.557991e+002
      vertex   2.013650e+001 -1.421415e+001 -4.065991e+002
      vertex   2.322472e+001 -8.254140e+000 -4.065991e+002
    endloop
  endfacet
  facet normal 9.790841e-001 -2.034560e-001 -5.424379e-017
    outer loop
      vertex   2.322472e+001 -8.254140e+000 -3.557991e+002
      vertex   2.322472e+001 -8.254140e+000 -4.065991e+002
      vertex   2.459044e+001 -1.681949e+000 -4.065991e+002
    endloop
  endfacet
  facet normal 9.976688e-001 6.824241e-002 -1.455102e-016
    outer loop
      vertex   2.459044e+001 -1.681949e+000 -3.557991e+002
      vertex   2.459044e+001 -1.681949e+000 -4.065991e+002
      vertex   2.413236e+001 5.014994e+000 -4.065991e+002
    endloop
  endfacet
  facet normal 9.422609e-001 3.348796e-001 -2.927489e-017
    outer loop
      vertex   2.413236e+001 5.014994e+000 -3.557991e+002
      vertex   2.413236e+001 5.014994e+000 -4.065991e+002
      vertex   2.188445e+001 1.134001e+001 -4.065991e+002
    endloop
  endfacet
  facet normal 8.169699e-001 5.766803e-001 -4.033032e-017
    outer loop
      vertex   2.188445e+001 1.134001e+001 -3.557991e+002
      vertex   2.188445e+001 1.134001e+001 -4.065991e+002
      vertex   1.801343e+001 1.682399e+001 -4.065991e+002
    endloop
  endfacet
  facet normal 6.310879e-001 7.757113e-001 -9.838494e-017
    outer loop
      vertex   1.801343e+001 1.682399e+001 -3.557991e+002
      vertex   1.801343e+001 1.682399e+001 -4.065991e+002
      vertex   1.280640e+001 2.106023e+001 -4.065991e+002
    endloop
  endfacet
  facet normal 3.984011e-001 9.172113e-001 -1.700844e-016
    outer loop
      vertex   1.280640e+001 2.106023e+001 -3.557991e+002
      vertex   1.280640e+001 2.106023e+001 -4.065991e+002
      vertex   6.649530e+000 2.373453e+001 -4.065991e+002
    endloop
  endfacet
  facet normal 1.361666e-001 9.906859e-001 -7.642607e-017
    outer loop
      vertex   6.649530e+000 2.373453e+001 -3.557991e+002
      vertex   6.649530e+000 2.373453e+001 -4.065991e+002
      vertex   -5.395611e-004 2.464856e+001 -3.557991e+002
    endloop
  endfacet
  facet normal 3.984011e-001 9.172113e-001 -8.334821e-017
    outer loop
      vertex   6.649530e+000 2.373453e+001 -3.557991e+002
      vertex   1.280640e+001 2.106023e+001 -3.557991e+002
      vertex   6.649530e+000 2.373453e+001 -4.065991e+002
    endloop
  endfacet
  facet normal -6.310879e-001 7.757113e-001 -6.436389e-017
    outer loop
      vertex   -1.280747e+001 2.106023e+001 -3.557991e+002
      vertex   -1.801451e+001 1.682399e+001 -4.065991e+002
      vertex   -1.801451e+001 1.682399e+001 -3.557991e+002
    endloop
  endfacet
  facet normal -8.169699e-001 5.766803e-001 -4.033032e-017
    outer loop
      vertex   -1.801451e+001 1.682399e+001 -3.557991e+002
      vertex   -2.188553e+001 1.134001e+001 -4.065991e+002
      vertex   -2.188553e+001 1.134001e+001 -3.557991e+002
    endloop
  endfacet
  facet normal -9.422609e-001 3.348796e-001 -2.927489e-017
    outer loop
      vertex   -2.188553e+001 1.134001e+001 -3.557991e+002
      vertex   -2.413344e+001 5.014994e+000 -4.065991e+002
      vertex   -2.413344e+001 5.014994e+000 -3.557991e+002
    endloop
  endfacet
  facet normal -9.976688e-001 6.824241e-002 6.380658e-017
    outer loop
      vertex   -2.413344e+001 5.014994e+000 -3.557991e+002
      vertex   -2.459152e+001 -1.681949e+000 -4.065991e+002
      vertex   -2.459152e+001 -1.681949e+000 -3.557991e+002
    endloop
  endfacet
  facet normal -9.790841e-001 -2.034560e-001 8.270131e-017
    outer loop
      vertex   -2.459152e+001 -1.681949e+000 -3.557991e+002
      vertex   -2.322580e+001 -8.254140e+000 -4.065991e+002
      vertex   -2.322580e+001 -8.254140e+000 -3.557991e+002
    endloop
  endfacet
  facet normal -8.878852e-001 -4.600650e-001 1.563638e-016
    outer loop
      vertex   -2.322580e+001 -8.254140e+000 -3.557991e+002
      vertex   -2.013757e+001 -1.421415e+001 -4.065991e+002
      vertex   -2.013757e+001 -1.421415e+001 -3.557991e+002
    endloop
  endfacet
  facet normal -7.308360e-001 -6.825531e-001 1.210247e-016
    outer loop
      vertex   -2.013757e+001 -1.421415e+001 -3.557991e+002
      vertex   -1.555587e+001 -1.911995e+001 -4.065991e+002
      vertex   -1.555587e+001 -1.911995e+001 -3.557991e+002
    endloop
  endfacet
  facet normal -5.195840e-001 -8.544194e-001 9.609135e-017
    outer loop
      vertex   -1.555587e+001 -1.911995e+001 -3.557991e+002
      vertex   -9.820506e+000 -2.260771e+001 -4.065991e+002
      vertex   -9.820506e+000 -2.260771e+001 -3.557991e+002
    endloop
  endfacet
  facet normal -2.697968e-001 -9.629173e-001 1.535522e-016
    outer loop
      vertex   -9.820506e+000 -2.260771e+001 -3.557991e+002
      vertex   -3.356835e+000 -2.441874e+001 -4.065991e+002
      vertex   -3.356835e+000 -2.441874e+001 -3.557991e+002
    endloop
  endfacet
  facet normal 0.000000e+000 -1.000000e+000 1.398706e-016
    outer loop
      vertex   -3.356835e+000 -2.441874e+001 -3.557991e+002
      vertex   3.355756e+000 -2.441874e+001 -4.065991e+002
      vertex   3.355756e+000 -2.441874e+001 -3.557991e+002
    endloop
  endfacet
  facet normal 2.697968e-001 -9.629173e-001 4.847360e-017
    outer loop
      vertex   3.355756e+000 -2.441874e+001 -3.557991e+002
      vertex   9.819427e+000 -2.260771e+001 -4.065991e+002
      vertex   9.819427e+000 -2.260771e+001 -3.557991e+002
    endloop
  endfacet
  facet normal 5.195840e-001 -8.544194e-001 4.158545e-017
    outer loop
      vertex   9.819427e+000 -2.260771e+001 -3.557991e+002
      vertex   1.555479e+001 -1.911995e+001 -4.065991e+002
      vertex   1.555479e+001 -1.911995e+001 -3.557991e+002
    endloop
  endfacet
  facet normal 7.308360e-001 -6.825531e-001 -3.062063e-017
    outer loop
      vertex   1.555479e+001 -1.911995e+001 -3.557991e+002
      vertex   2.013650e+001 -1.421415e+001 -4.065991e+002
      vertex   2.013650e+001 -1.421415e+001 -3.557991e+002
    endloop
  endfacet
  facet normal 8.878852e-001 -4.600650e-001 -2.991974e-017
    outer loop
      vertex   2.013650e+001 -1.421415e+001 -3.557991e+002
      vertex   2.322472e+001 -8.254140e+000 -4.065991e+002
      vertex   2.322472e+001 -8.254140e+000 -3.557991e+002
    endloop
  endfacet
  facet normal 9.790841e-001 -2.034560e-001 -1.191591e-016
    outer loop
      vertex   2.322472e+001 -8.254140e+000 -3.557991e+002
      vertex   2.459044e+001 -1.681949e+000 -4.065991e+002
      vertex   2.459044e+001 -1.681949e+000 -3.557991e+002
    endloop
  endfacet
  facet normal 9.976688e-001 6.824241e-002 -5.965693e-018
    outer loop
      vertex   2.459044e+001 -1.681949e+000 -3.557991e+002
      vertex   2.413236e+001 5.014994e+000 -4.065991e+002
      vertex   2.413236e+001 5.014994e+000 -3.557991e+002
    endloop
  endfacet
  facet normal 9.422609e-001 3.348796e-001 -2.341991e-017
    outer loop
      vertex   2.413236e+001 5.014994e+000 -3.557991e+002
      vertex   2.188445e+001 1.134001e+001 -4.065991e+002
      vertex   2.188445e+001 1.134001e+001 -3.557991e+002
    endloop
  endfacet
  facet normal 8.169699e-001 5.766803e-001 -9.746536e-017
    outer loop
      vertex   2.188445e+001 1.134001e+001 -3.557991e+002
      vertex   1.801343e+001 1.682399e+001 -4.065991e+002
      vertex   1.801343e+001 1.682399e+001 -3.557991e+002
    endloop
  endfacet
  facet normal 6.310879e-001 7.757113e-001 -1.747022e-016
    outer loop
      vertex   1.801343e+001 1.682399e+001 -3.557991e+002
      vertex   1.280640e+001 2.106023e+001 -4.065991e+002
      vertex   1.280640e+001 2.106023e+001 -3.557991e+002
    endloop
  endfacet
  facet normal 1.361666e-001 9.906859e-001 -7.762166e-017
    outer loop
      vertex   6.649530e+000 2.373453e+001 -4.065991e+002
      vertex   -5.395611e-004 2.464856e+001 -4.065991e+002
      vertex   -5.395611e-004 2.464856e+001 -3.557991e+002
    endloop
  endfacet
  facet normal -1.361666e-001 9.906859e-001 -6.094620e-017
    outer loop
      vertex   -5.395611e-004 2.464856e+001 -3.557991e+002
      vertex   -5.395611e-004 2.464856e+001 -4.065991e+002
      vertex   -6.650610e+000 2.373453e+001 -3.557991e+002
    endloop
  endfacet
  facet normal 0.000000e+000 -0.000000e+000 -1.000000e+000
    outer loop
      vertex   1.173273e+001 4.860200e+000 -4.065991e+002
      vertex   2.413236e+001 5.014994e+000 -4.065991e+002
      vertex   1.269946e+001 1.206608e-004 -4.065991e+002
    endloop
  endfacet
  facet normal 0.000000e+000 0.000000e+000 -1.000000e+000
    outer loop
      vertex   1.173273e+001 4.860200e+000 -4.065991e+002
      vertex   2.188445e+001 1.134001e+001 -4.065991e+002
      vertex   2.413236e+001 5.014994e+000 -4.065991e+002
    endloop
  endfacet
  facet normal 0.000000e+000 0.000000e+000 -1.000000e+000
    outer loop
      vertex   1.173273e+001 4.860200e+000 -4.065991e+002
      vertex   8.979717e+000 8.980377e+000 -4.065991e+002
      vertex   2.188445e+001 1.134001e+001 -4.065991e+002
    endloop
  endfacet
  facet normal -0.000000e+000 0.000000e+000 -1.000000e+000
    outer loop
      vertex   2.188445e+001 1.134001e+001 -4.065991e+002
      vertex   8.979717e+000 8.980377e+000 -4.065991e+002
      vertex   1.801343e+001 1.682399e+001 -4.065991e+002
    endloop
  endfacet
  facet normal -0.000000e+000 0.000000e+000 -1.000000e+000
    outer loop
      vertex   1.801343e+001 1.682399e+001 -4.065991e+002
      vertex   8.979717e+000 8.980377e+000 -4.065991e+002
      vertex   1.280640e+001 2.106023e+001 -4.065991e+002
    endloop
  endfacet
  facet normal -0.000000e+000 0.000000e+000 -1.000000e+000
    outer loop
      vertex   1.280640e+001 2.106023e+001 -4.065991e+002
      vertex   8.979717e+000 8.980377e+000 -4.065991e+002
      vertex   4.859540e+000 1.173339e+001 -4.065991e+002
    endloop
  endfacet
  facet normal -0.000000e+000 0.000000e+000 -1.000000e+000
    outer loop
      vertex   6.649530e+000 2.373453e+001 -4.065991e+002
      vertex   4.859540e+000 1.173339e+001 -4.065991e+002
      vertex   -5.395611e-004 1.270012e+001 -4.065991e+002
    endloop
  endfacet
  facet normal -0.000000e+000 0.000000e+000 -1.000000e+000
    outer loop
      vertex   -5.395611e-004 2.464856e+001 -4.065991e+002
      vertex   -5.395611e-004 1.270012e+001 -4.065991e+002
      vertex   -6.650610e+000 2.373453e+001 -4.065991e+002
    endloop
  endfacet
  facet normal 0.000000e+000 -0.000000e+000 -1.000000e+000
    outer loop
      vertex   -5.395611e-004 2.464856e+001 -4.065991e+002
      vertex   6.649530e+000 2.373453e+001 -4.065991e+002
      vertex   -5.395611e-004 1.270012e+001 -4.065991e+002
    endloop
  endfacet
  facet normal -0.000000e+000 0.000000e+000 -1.000000e+000
    outer loop
      vertex   1.280640e+001 2.106023e+001 -4.065991e+002
      vertex   4.859540e+000 1.173339e+001 -4.065991e+002
      vertex   6.649530e+000 2.373453e+001 -4.065991e+002
    endloop
  endfacet
  facet normal -0.000000e+000 0.000000e+000 -1.000000e+000
    outer loop
      vertex   -5.395611e-004 1.270012e+001 -4.065991e+002
      vertex   -4.860619e+000 1.173339e+001 -4.065991e+002
      vertex   -6.650610e+000 2.373453e+001 -4.065991e+002
    endloop
  endfacet
  facet normal -0.000000e+000 -0.000000e+000 -1.000000e+000
    outer loop
      vertex   -6.650610e+000 2.373453e+001 -4.065991e+002
      vertex   -4.860619e+000 1.173339e+001 -4.065991e+002
      vertex   -1.280747e+001 2.106023e+001 -4.065991e+002
    endloop
  endfacet
  facet normal 0.000000e+000 -0.000000e+000 -1.000000e+000
    outer loop
      vertex   -1.280747e+001 2.106023e+001 -4.065991e+002
      vertex   -4.860619e+000 1.173339e+001 -4.065991e+002
      vertex   -8.980796e+000 8.980377e+000 -4.065991e+002
    endloop
  endfacet
  facet normal -0.000000e+000 -0.000000e+000 -1.000000e+000
    outer loop
      vertex   -1.801451e+001 1.682399e+001 -4.065991e+002
      vertex   -8.980796e+000 8.980377e+000 -4.065991e+002
      vertex   -2.188553e+001 1.134001e+001 -4.065991e+002
    endloop
  endfacet
  facet normal 0.000000e+000 0.000000e+000 -1.000000e+000
    outer loop
      vertex   -1.801451e+001 1.682399e+001 -4.065991e+002
      vertex   -1.280747e+001 2.106023e+001 -4.065991e+002
      vertex   -8.980796e+000 8.980377e+000 -4.065991e+002
    endloop
  endfacet
  facet normal -0.000000e+000 0.000000e+000 -1.000000e+000
    outer loop
      vertex   -8.980796e+000 8.980377e+000 -4.065991e+002
      vertex   -1.173381e+001 4.860200e+000 -4.065991e+002
      vertex   -2.188553e+001 1.134001e+001 -4.065991e+002
    endloop
  endfacet
  facet normal -0.000000e+000 -0.000000e+000 -1.000000e+000
    outer loop
      vertex   -2.188553e+001 1.134001e+001 -4.065991e+002
      vertex   -1.173381e+001 4.860200e+000 -4.065991e+002
      vertex   -2.413344e+001 5.014994e+000 -4.065991e+002
    endloop
  endfacet
  facet normal 0.000000e+000 -0.000000e+000 -1.000000e+000
    outer loop
      vertex   -2.413344e+001 5.014994e+000 -4.065991e+002
      vertex   -1.173381e+001 4.860200e+000 -4.065991e+002
      vertex   -1.270054e+001 1.206608e-004 -4.065991e+002
    endloop
  endfacet
  facet normal 0.000000e+000 0.000000e+000 -1.000000e+000
    outer loop
      vertex   -2.459152e+001 -1.681949e+000 -4.065991e+002
      vertex   -1.270054e+001 1.206608e-004 -4.065991e+002
      vertex   -1.173381e+001 -4.859959e+000 -4.065991e+002
    endloop
  endfacet
  facet normal 0.000000e+000 -0.000000e+000 -1.000000e+000
    outer loop
      vertex   -2.322580e+001 -8.254140e+000 -4.065991e+002
      vertex   -1.173381e+001 -4.859959e+000 -4.065991e+002
      vertex   -2.013757e+001 -1.421415e+001 -4.065991e+002
    endloop
  endfacet
  facet normal 0.000000e+000 0.000000e+000 -1.000000e+000
    outer loop
      vertex   -2.322580e+001 -8.254140e+000 -4.065991e+002
      vertex   -2.459152e+001 -1.681949e+000 -4.065991e+002
      vertex   -1.173381e+001 -4.859959e+000 -4.065991e+002
    endloop
  endfacet
  facet normal 0.000000e+000 -0.000000e+000 -1.000000e+000
    outer loop
      vertex   -2.413344e+001 5.014994e+000 -4.065991e+002
      vertex   -1.270054e+001 1.206608e-004 -4.065991e+002
      vertex   -2.459152e+001 -1.681949e+000 -4.065991e+002
    endloop
  endfacet
  facet normal 0.000000e+000 -0.000000e+000 -1.000000e+000
    outer loop
      vertex   -1.173381e+001 -4.859959e+000 -4.065991e+002
      vertex   -8.980796e+000 -8.980135e+000 -4.065991e+002
      vertex   -2.013757e+001 -1.421415e+001 -4.065991e+002
    endloop
  endfacet
  facet normal 0.000000e+000 -0.000000e+000 -1.000000e+000
    outer loop
      vertex   -2.013757e+001 -1.421415e+001 -4.065991e+002
      vertex   -8.980796e+000 -8.980135e+000 -4.065991e+002
      vertex   -1.555587e+001 -1.911995e+001 -4.065991e+002
    endloop
  endfacet
  facet normal 0.000000e+000 0.000000e+000 -1.000000e+000
    outer loop
      vertex   -1.555587e+001 -1.911995e+001 -4.065991e+002
      vertex   -8.980796e+000 -8.980135e+000 -4.065991e+002
      vertex   -4.860619e+000 -1.173315e+001 -4.065991e+002
    endloop
  endfacet
  facet normal 0.000000e+000 0.000000e+000 -1.000000e+000
    outer loop
      vertex   -9.820506e+000 -2.260771e+001 -4.065991e+002
      vertex   -4.860619e+000 -1.173315e+001 -4.065991e+002
      vertex   -3.356835e+000 -2.441874e+001 -4.065991e+002
    endloop
  endfacet
  facet normal 0.000000e+000 0.000000e+000 -1.000000e+000
    outer loop
      vertex   -9.820506e+000 -2.260771e+001 -4.065991e+002
      vertex   -1.555587e+001 -1.911995e+001 -4.065991e+002
      vertex   -4.860619e+000 -1.173315e+001 -4.065991e+002
    endloop
  endfacet
  facet normal 0.000000e+000 -0.000000e+000 -1.000000e+000
    outer loop
      vertex   -4.860619e+000 -1.173315e+001 -4.065991e+002
      vertex   -5.395611e-004 -1.269988e+001 -4.065991e+002
      vertex   -3.356835e+000 -2.441874e+001 -4.065991e+002
    endloop
  endfacet
  facet normal 0.000000e+000 0.000000e+000 -1.000000e+000
    outer loop
      vertex   -3.356835e+000 -2.441874e+001 -4.065991e+002
      vertex   -5.395611e-004 -1.269988e+001 -4.065991e+002
      vertex   3.355756e+000 -2.441874e+001 -4.065991e+002
    endloop
  endfacet
  facet normal 0.000000e+000 0.000000e+000 -1.000000e+000
    outer loop
      vertex   3.355756e+000 -2.441874e+001 -4.065991e+002
      vertex   -5.395611e-004 -1.269988e+001 -4.065991e+002
      vertex   4.859540e+000 -1.173315e+001 -4.065991e+002
    endloop
  endfacet
  facet normal 0.000000e+000 0.000000e+000 -1.000000e+000
    outer loop
      vertex   9.819427e+000 -2.260771e+001 -4.065991e+002
      vertex   4.859540e+000 -1.173315e+001 -4.065991e+002
      vertex   1.555479e+001 -1.911995e+001 -4.065991e+002
    endloop
  endfacet
  facet normal -0.000000e+000 0.000000e+000 -1.000000e+000
    outer loop
      vertex   9.819427e+000 -2.260771e+001 -4.065991e+002
      vertex   3.355756e+000 -2.441874e+001 -4.065991e+002
      vertex   4.859540e+000 -1.173315e+001 -4.065991e+002
    endloop
  endfacet
  facet normal 0.000000e+000 0.000000e+000 -1.000000e+000
    outer loop
      vertex   4.859540e+000 -1.173315e+001 -4.065991e+002
      vertex   8.979717e+000 -8.980135e+000 -4.065991e+002
      vertex   1.555479e+001 -1.911995e+001 -4.065991e+002
    endloop
  endfacet
  facet normal 0.000000e+000 0.000000e+000 -1.000000e+000
    outer loop
      vertex   1.555479e+001 -1.911995e+001 -4.065991e+002
      vertex   8.979717e+000 -8.980135e+000 -4.065991e+002
      vertex   2.013650e+001 -1.421415e+001 -4.065991e+002
    endloop
  endfacet
  facet normal 0.000000e+000 0.000000e+000 -1.000000e+000
    outer loop
      vertex   2.013650e+001 -1.421415e+001 -4.065991e+002
      vertex   8.979717e+000 -8.980135e+000 -4.065991e+002
      vertex   1.173273e+001 -4.859959e+000 -4.065991e+002
    endloop
  endfacet
  facet normal 0.000000e+000 0.000000e+000 -1.000000e+000
    outer loop
      vertex   2.322472e+001 -8.254140e+000 -4.065991e+002
      vertex   1.173273e+001 -4.859959e+000 -4.065991e+002
      vertex   2.459044e+001 -1.681949e+000 -4.065991e+002
    endloop
  endfacet
  facet normal -0.000000e+000 0.000000e+000 -1.000000e+000
    outer loop
      vertex   2.322472e+001 -8.254140e+000 -4.065991e+002
      vertex   2.013650e+001 -1.421415e+001 -4.065991e+002
      vertex   1.173273e+001 -4.859959e+000 -4.065991e+002
    endloop
  endfacet
  facet normal 0.000000e+000 0.000000e+000 -1.000000e+000
    outer loop
      vertex   1.173273e+001 -4.859959e+000 -4.065991e+002
      vertex   1.269946e+001 1.206608e-004 -4.065991e+002
      vertex   2.459044e+001 -1.681949e+000 -4.065991e+002
    endloop
  endfacet
  facet normal 0.000000e+000 0.000000e+000 -1.000000e+000
    outer loop
      vertex   2.459044e+001 -1.681949e+000 -4.065991e+002
      vertex   1.269946e+001 1.206608e-004 -4.065991e+002
      vertex   2.413236e+001 5.014994e+000 -4.065991e+002
    endloop
  endfacet
  facet normal -1.361666e-001 -1.667575e-017 9.906859e-001
    outer loop
      vertex   6.852298e+000 -3.809988e+001 -2.445724e+001
      vertex   -5.395611e-004 1.270012e+001 -2.539914e+001
      vertex   -5.395611e-004 -3.809988e+001 -2.539914e+001
    endloop
  endfacet
  facet normal -1.361666e-001 4.547679e-017 9.906859e-001
    outer loop
      vertex   6.852298e+000 -3.809988e+001 -2.445724e+001
      vertex   6.852298e+000 1.270012e+001 -2.445724e+001
      vertex   -5.395611e-004 1.270012e+001 -2.539914e+001
    endloop
  endfacet
  facet normal -3.984011e-001 0.000000e+000 9.172113e-001
    outer loop
      vertex   6.852298e+000 -3.809988e+001 -2.445724e+001
      vertex   1.319689e+001 -3.809988e+001 -2.170139e+001
      vertex   6.852298e+000 1.270012e+001 -2.445724e+001
    endloop
  endfacet
  facet normal -3.984011e-001 -2.786230e-017 9.172113e-001
    outer loop
      vertex   6.852298e+000 1.270012e+001 -2.445724e+001
      vertex   1.319689e+001 -3.809988e+001 -2.170139e+001
      vertex   1.319689e+001 1.270012e+001 -2.170139e+001
    endloop
  endfacet
  facet normal -6.310879e-001 -4.413533e-017 7.757113e-001
    outer loop
      vertex   1.319689e+001 1.270012e+001 -2.170139e+001
      vertex   1.319689e+001 -3.809988e+001 -2.170139e+001
      vertex   1.856269e+001 -3.809988e+001 -1.733599e+001
    endloop
  endfacet
  facet normal -8.169699e-001 -1.243539e-016 5.766803e-001
    outer loop
      vertex   1.856269e+001 1.270012e+001 -1.733599e+001
      vertex   1.856269e+001 -3.809988e+001 -1.733599e+001
      vertex   2.255174e+001 -3.809988e+001 -1.168479e+001
    endloop
  endfacet
  facet normal -9.422609e-001 -1.581996e-016 3.348796e-001
    outer loop
      vertex   2.255174e+001 1.270012e+001 -1.168479e+001
      vertex   2.255174e+001 -3.809988e+001 -1.168479e+001
      vertex   2.486820e+001 -3.809988e+001 -5.166924e+000
    endloop
  endfacet
  facet normal -9.976688e-001 -1.866472e-016 6.824241e-002
    outer loop
      vertex   2.486820e+001 1.270012e+001 -5.166924e+000
      vertex   2.486820e+001 -3.809988e+001 -5.166924e+000
      vertex   2.534025e+001 -3.809988e+001 1.734216e+000
    endloop
  endfacet
  facet normal -9.790841e-001 -2.525504e-016 -2.034560e-001
    outer loop
      vertex   2.534025e+001 1.270012e+001 1.734216e+000
      vertex   2.534025e+001 -3.809988e+001 1.734216e+000
      vertex   2.393289e+001 -3.809988e+001 8.506801e+000
    endloop
  endfacet
  facet normal -8.878852e-001 -1.724512e-016 -4.600650e-001
    outer loop
      vertex   2.393289e+001 1.270012e+001 8.506801e+000
      vertex   2.393289e+001 -3.809988e+001 8.506801e+000
      vertex   2.075050e+001 -3.809988e+001 1.464854e+001
    endloop
  endfacet
  facet normal -7.308360e-001 -1.260898e-016 -6.825531e-001
    outer loop
      vertex   2.075050e+001 1.270012e+001 1.464854e+001
      vertex   2.075050e+001 -3.809988e+001 1.464854e+001
      vertex   1.602909e+001 -3.809988e+001 1.970393e+001
    endloop
  endfacet
  facet normal -5.195840e-001 -0.000000e+000 -8.544194e-001
    outer loop
      vertex   1.602909e+001 1.270012e+001 1.970393e+001
      vertex   1.602909e+001 -3.809988e+001 1.970393e+001
      vertex   1.011885e+001 -3.809988e+001 2.329803e+001
    endloop
  endfacet
  facet normal -2.697968e-001 -1.548550e-016 -9.629173e-001
    outer loop
      vertex   1.011885e+001 1.270012e+001 2.329803e+001
      vertex   1.011885e+001 -3.809988e+001 2.329803e+001
      vertex   3.458093e+000 -3.809988e+001 2.516428e+001
    endloop
  endfacet
  facet normal -0.000000e+000 -0.000000e+000 -1.000000e+000
    outer loop
      vertex   3.458093e+000 1.270012e+001 2.516428e+001
      vertex   3.458093e+000 -3.809988e+001 2.516428e+001
      vertex   -3.459172e+000 -3.809988e+001 2.516428e+001
    endloop
  endfacet
  facet normal 2.697968e-001 2.358540e-018 -9.629173e-001
    outer loop
      vertex   -3.459172e+000 1.270012e+001 2.516428e+001
      vertex   -3.459172e+000 -3.809988e+001 2.516428e+001
      vertex   -1.011993e+001 -3.809988e+001 2.329803e+001
    endloop
  endfacet
  facet normal 5.195840e-001 8.841909e-017 -8.544194e-001
    outer loop
      vertex   -1.011993e+001 1.270012e+001 2.329803e+001
      vertex   -1.011993e+001 -3.809988e+001 2.329803e+001
      vertex   -1.603017e+001 -3.809988e+001 1.970393e+001
    endloop
  endfacet
  facet normal 7.308360e-001 0.000000e+000 -6.825531e-001
    outer loop
      vertex   -1.603017e+001 1.270012e+001 1.970393e+001
      vertex   -1.603017e+001 -3.809988e+001 1.970393e+001
      vertex   -2.075157e+001 -3.809988e+001 1.464854e+001
    endloop
  endfacet
  facet normal 8.878852e-001 2.184584e-016 -4.600650e-001
    outer loop
      vertex   -2.075157e+001 1.270012e+001 1.464854e+001
      vertex   -2.075157e+001 -3.809988e+001 1.464854e+001
      vertex   -2.393397e+001 -3.809988e+001 8.506801e+000
    endloop
  endfacet
  facet normal 9.790841e-001 9.693007e-017 -2.034560e-001
    outer loop
      vertex   -2.393397e+001 1.270012e+001 8.506801e+000
      vertex   -2.393397e+001 -3.809988e+001 8.506801e+000
      vertex   -2.534133e+001 -3.809988e+001 1.734216e+000
    endloop
  endfacet
  facet normal 9.976688e-001 1.234372e-016 6.824241e-002
    outer loop
      vertex   -2.534133e+001 1.270012e+001 1.734216e+000
      vertex   -2.534133e+001 -3.809988e+001 1.734216e+000
      vertex   -2.486928e+001 -3.809988e+001 -5.166924e+000
    endloop
  endfacet
  facet normal 9.422609e-001 8.644736e-017 3.348796e-001
    outer loop
      vertex   -2.486928e+001 1.270012e+001 -5.166924e+000
      vertex   -2.486928e+001 -3.809988e+001 -5.166924e+000
      vertex   -2.255282e+001 -3.809988e+001 -1.168479e+001
    endloop
  endfacet
  facet normal 8.169699e-001 6.721890e-017 5.766803e-001
    outer loop
      vertex   -2.255282e+001 1.270012e+001 -1.168479e+001
      vertex   -2.255282e+001 -3.809988e+001 -1.168479e+001
      vertex   -1.856377e+001 -3.809988e+001 -1.733599e+001
    endloop
  endfacet
  facet normal 6.310879e-001 3.678217e-018 7.757113e-001
    outer loop
      vertex   -1.856377e+001 1.270012e+001 -1.733599e+001
      vertex   -1.856377e+001 -3.809988e+001 -1.733599e+001
      vertex   -1.319797e+001 -3.809988e+001 -2.170139e+001
    endloop
  endfacet
  facet normal 3.984011e-001 4.179345e-017 9.172113e-001
    outer loop
      vertex   -1.319797e+001 1.270012e+001 -2.170139e+001
      vertex   -1.319797e+001 -3.809988e+001 -2.170139e+001
      vertex   -6.853378e+000 -3.809988e+001 -2.445724e+001
    endloop
  endfacet
  facet normal 1.361666e-001 -4.547679e-017 9.906859e-001
    outer loop
      vertex   -6.853378e+000 1.270012e+001 -2.445724e+001
      vertex   -6.853378e+000 -3.809988e+001 -2.445724e+001
      vertex   -5.395611e-004 -3.809988e+001 -2.539914e+001
    endloop
  endfacet
  facet normal 1.361666e-001 1.769294e-017 9.906859e-001
    outer loop
      vertex   -5.395611e-004 1.270012e+001 -2.539914e+001
      vertex   -6.853378e+000 1.270012e+001 -2.445724e+001
      vertex   -5.395611e-004 -3.809988e+001 -2.539914e+001
    endloop
  endfacet
  facet normal -6.310879e-001 -3.678217e-018 7.757113e-001
    outer loop
      vertex   1.319689e+001 1.270012e+001 -2.170139e+001
      vertex   1.856269e+001 -3.809988e+001 -1.733599e+001
      vertex   1.856269e+001 1.270012e+001 -1.733599e+001
    endloop
  endfacet
  facet normal -8.169699e-001 -4.705374e-017 5.766803e-001
    outer loop
      vertex   1.856269e+001 1.270012e+001 -1.733599e+001
      vertex   2.255174e+001 -3.809988e+001 -1.168479e+001
      vertex   2.255174e+001 1.270012e+001 -1.168479e+001
    endloop
  endfacet
  facet normal -9.422609e-001 -8.644736e-017 3.348796e-001
    outer loop
      vertex   2.255174e+001 1.270012e+001 -1.168479e+001
      vertex   2.486820e+001 -3.809988e+001 -5.166924e+000
      vertex   2.486820e+001 1.270012e+001 -5.166924e+000
    endloop
  endfacet
  facet normal -9.976688e-001 -1.935077e-016 6.824241e-002
    outer loop
      vertex   2.486820e+001 1.270012e+001 -5.166924e+000
      vertex   2.534025e+001 -3.809988e+001 1.734216e+000
      vertex   2.534025e+001 1.270012e+001 1.734216e+000
    endloop
  endfacet
  facet normal -9.790841e-001 -1.582882e-016 -2.034560e-001
    outer loop
      vertex   2.534025e+001 1.270012e+001 1.734216e+000
      vertex   2.393289e+001 -3.809988e+001 8.506801e+000
      vertex   2.393289e+001 1.270012e+001 8.506801e+000
    endloop
  endfacet
  facet normal -8.878852e-001 -1.402764e-016 -4.600650e-001
    outer loop
      vertex   2.393289e+001 1.270012e+001 8.506801e+000
      vertex   2.075050e+001 -3.809988e+001 1.464854e+001
      vertex   2.075050e+001 1.270012e+001 1.464854e+001
    endloop
  endfacet
  facet normal -7.308360e-001 0.000000e+000 -6.825531e-001
    outer loop
      vertex   2.075050e+001 1.270012e+001 1.464854e+001
      vertex   1.602909e+001 -3.809988e+001 1.970393e+001
      vertex   1.602909e+001 1.270012e+001 1.970393e+001
    endloop
  endfacet
  facet normal -5.195840e-001 -8.841909e-017 -8.544194e-001
    outer loop
      vertex   1.602909e+001 1.270012e+001 1.970393e+001
      vertex   1.011885e+001 -3.809988e+001 2.329803e+001
      vertex   1.011885e+001 1.270012e+001 2.329803e+001
    endloop
  endfacet
  facet normal -2.697968e-001 -2.358540e-018 -9.629173e-001
    outer loop
      vertex   1.011885e+001 1.270012e+001 2.329803e+001
      vertex   3.458093e+000 -3.809988e+001 2.516428e+001
      vertex   3.458093e+000 1.270012e+001 2.516428e+001
    endloop
  endfacet
  facet normal -0.000000e+000 0.000000e+000 -1.000000e+000
    outer loop
      vertex   3.458093e+000 1.270012e+001 2.516428e+001
      vertex   -3.459172e+000 -3.809988e+001 2.516428e+001
      vertex   -3.459172e+000 1.270012e+001 2.516428e+001
    endloop
  endfacet
  facet normal 2.697968e-001 1.548550e-016 -9.629173e-001
    outer loop
      vertex   -3.459172e+000 1.270012e+001 2.516428e+001
      vertex   -1.011993e+001 -3.809988e+001 2.329803e+001
      vertex   -1.011993e+001 1.270012e+001 2.329803e+001
    endloop
  endfacet
  facet normal 5.195840e-001 0.000000e+000 -8.544194e-001
    outer loop
      vertex   -1.011993e+001 1.270012e+001 2.329803e+001
      vertex   -1.603017e+001 -3.809988e+001 1.970393e+001
      vertex   -1.603017e+001 1.270012e+001 1.970393e+001
    endloop
  endfacet
  facet normal 7.308360e-001 2.010683e-016 -6.825531e-001
    outer loop
      vertex   -1.603017e+001 1.270012e+001 1.970393e+001
      vertex   -2.075157e+001 -3.809988e+001 1.464854e+001
      vertex   -2.075157e+001 1.270012e+001 1.464854e+001
    endloop
  endfacet
  facet normal 8.878852e-001 1.264441e-016 -4.600650e-001
    outer loop
      vertex   -2.075157e+001 1.270012e+001 1.464854e+001
      vertex   -2.393397e+001 -3.809988e+001 8.506801e+000
      vertex   -2.393397e+001 1.270012e+001 8.506801e+000
    endloop
  endfacet
  facet normal 9.790841e-001 1.849672e-016 -2.034560e-001
    outer loop
      vertex   -2.393397e+001 1.270012e+001 8.506801e+000
      vertex   -2.534133e+001 -3.809988e+001 1.734216e+000
      vertex   -2.534133e+001 1.270012e+001 1.734216e+000
    endloop
  endfacet
  facet normal 9.976688e-001 1.866472e-016 6.824241e-002
    outer loop
      vertex   -2.534133e+001 1.270012e+001 1.734216e+000
      vertex   -2.486928e+001 -3.809988e+001 -5.166924e+000
      vertex   -2.486928e+001 1.270012e+001 -5.166924e+000
    endloop
  endfacet
  facet normal 9.422609e-001 1.699096e-016 3.348796e-001
    outer loop
      vertex   -2.486928e+001 1.270012e+001 -5.166924e+000
      vertex   -2.255282e+001 -3.809988e+001 -1.168479e+001
      vertex   -2.255282e+001 1.270012e+001 -1.168479e+001
    endloop
  endfacet
  facet normal 8.169699e-001 1.243539e-016 5.766803e-001
    outer loop
      vertex   -2.255282e+001 1.270012e+001 -1.168479e+001
      vertex   -1.856377e+001 -3.809988e+001 -1.733599e+001
      vertex   -1.856377e+001 1.270012e+001 -1.733599e+001
    endloop
  endfacet
  facet normal 6.310879e-001 6.620300e-017 7.757113e-001
    outer loop
      vertex   -1.856377e+001 1.270012e+001 -1.733599e+001
      vertex   -1.319797e+001 -3.809988e+001 -2.170139e+001
      vertex   -1.319797e+001 1.270012e+001 -2.170139e+001
    endloop
  endfacet
  facet normal 3.984011e-001 5.510302e-018 9.172113e-001
    outer loop
      vertex   -1.319797e+001 1.270012e+001 -2.170139e+001
      vertex   -6.853378e+000 -3.809988e+001 -2.445724e+001
      vertex   -6.853378e+000 1.270012e+001 -2.445724e+001
    endloop
  endfacet
  facet normal 2.421769e-016 -1.000000e+000 1.239597e-016
    outer loop
      vertex   6.852298e+000 1.270012e+001 -2.445724e+001
      vertex   3.458093e+000 1.270012e+001 2.516428e+001
      vertex   -5.395611e-004 1.270012e+001 -2.539914e+001
    endloop
  endfacet
  facet normal 3.025795e-016 -1.000000e+000 1.280913e-016
    outer loop
      vertex   6.852298e+000 1.270012e+001 -2.445724e+001
      vertex   1.011885e+001 1.270012e+001 2.329803e+001
      vertex   3.458093e+000 1.270012e+001 2.516428e+001
    endloop
  endfacet
  facet normal 2.219459e-016 -1.000000e+000 1.336068e-016
    outer loop
      vertex   6.852298e+000 1.270012e+001 -2.445724e+001
      vertex   1.319689e+001 1.270012e+001 -2.170139e+001
      vertex   1.011885e+001 1.270012e+001 2.329803e+001
    endloop
  endfacet
  facet normal 7.514163e-017 -1.000000e+000 1.235651e-016
    outer loop
      vertex   1.011885e+001 1.270012e+001 2.329803e+001
      vertex   1.319689e+001 1.270012e+001 -2.170139e+001
      vertex   1.602909e+001 1.270012e+001 1.970393e+001
    endloop
  endfacet
  facet normal -1.108796e-016 -1.000000e+000 1.362893e-016
    outer loop
      vertex   1.602909e+001 1.270012e+001 1.970393e+001
      vertex   1.319689e+001 1.270012e+001 -2.170139e+001
      vertex   1.856269e+001 1.270012e+001 -1.733599e+001
    endloop
  endfacet
  facet normal -2.613655e-016 -1.000000e+000 1.844919e-016
    outer loop
      vertex   2.075050e+001 1.270012e+001 1.464854e+001
      vertex   1.856269e+001 1.270012e+001 -1.733599e+001
      vertex   2.255174e+001 1.270012e+001 -1.168479e+001
    endloop
  endfacet
  facet normal 1.286150e-015 -1.000000e+000 8.797507e-017
    outer loop
      vertex   2.393289e+001 1.270012e+001 8.506801e+000
      vertex   2.255174e+001 1.270012e+001 -1.168479e+001
      vertex   2.486820e+001 1.270012e+001 -5.166924e+000
    endloop
  endfacet
  facet normal -0.000000e+000 -1.000000e+000 -0.000000e+000
    outer loop
      vertex   2.534025e+001 1.270012e+001 1.734216e+000
      vertex   2.393289e+001 1.270012e+001 8.506801e+000
      vertex   2.486820e+001 1.270012e+001 -5.166924e+000
    endloop
  endfacet
  facet normal 1.662256e-016 -1.000000e+000 1.552439e-016
    outer loop
      vertex   1.602909e+001 1.270012e+001 1.970393e+001
      vertex   1.856269e+001 1.270012e+001 -1.733599e+001
      vertex   2.075050e+001 1.270012e+001 1.464854e+001
    endloop
  endfacet
  facet normal -1.931207e-016 -1.000000e+000 1.891600e-016
    outer loop
      vertex   2.075050e+001 1.270012e+001 1.464854e+001
      vertex   2.255174e+001 1.270012e+001 -1.168479e+001
      vertex   2.393289e+001 1.270012e+001 8.506801e+000
    endloop
  endfacet
  facet normal 0.000000e+000 -1.000000e+000 1.405250e-016
    outer loop
      vertex   3.458093e+000 1.270012e+001 2.516428e+001
      vertex   -3.459172e+000 1.270012e+001 2.516428e+001
      vertex   -5.395611e-004 1.270012e+001 -2.539914e+001
    endloop
  endfacet
  facet normal -2.421769e-016 -1.000000e+000 1.239597e-016
    outer loop
      vertex   -5.395611e-004 1.270012e+001 -2.539914e+001
      vertex   -3.459172e+000 1.270012e+001 2.516428e+001
      vertex   -6.853378e+000 1.270012e+001 -2.445724e+001
    endloop
  endfacet
  facet normal 5.131237e-016 -1.000000e+000 7.229571e-017
    outer loop
      vertex   -6.853378e+000 1.270012e+001 -2.445724e+001
      vertex   -3.459172e+000 1.270012e+001 2.516428e+001
      vertex   -1.011993e+001 1.270012e+001 2.329803e+001
    endloop
  endfacet
  facet normal -5.009442e-017 -1.000000e+000 8.237676e-017
    outer loop
      vertex   -1.319797e+001 1.270012e+001 -2.170139e+001
      vertex   -1.011993e+001 1.270012e+001 2.329803e+001
      vertex   -1.603017e+001 1.270012e+001 1.970393e+001
    endloop
  endfacet
  facet normal -1.108171e-016 -1.000000e+000 1.034959e-016
    outer loop
      vertex   -1.856377e+001 1.270012e+001 -1.733599e+001
      vertex   -1.603017e+001 1.270012e+001 1.970393e+001
      vertex   -2.075157e+001 1.270012e+001 1.464854e+001
    endloop
  endfacet
  facet normal 3.431055e-016 -1.000000e+000 1.114441e-016
    outer loop
      vertex   -2.255282e+001 1.270012e+001 -1.168479e+001
      vertex   -2.075157e+001 1.270012e+001 1.464854e+001
      vertex   -2.393397e+001 1.270012e+001 8.506801e+000
    endloop
  endfacet
  facet normal -0.000000e+000 -1.000000e+000 0.000000e+000
    outer loop
      vertex   -2.486928e+001 1.270012e+001 -5.166924e+000
      vertex   -2.393397e+001 1.270012e+001 8.506801e+000
      vertex   -2.534133e+001 1.270012e+001 1.734216e+000
    endloop
  endfacet
  facet normal -6.430750e-016 -1.000000e+000 4.398753e-017
    outer loop
      vertex   -2.486928e+001 1.270012e+001 -5.166924e+000
      vertex   -2.255282e+001 1.270012e+001 -1.168479e+001
      vertex   -2.393397e+001 1.270012e+001 8.506801e+000
    endloop
  endfacet
  facet normal 3.052045e-016 -1.000000e+000 5.807365e-017
    outer loop
      vertex   -6.853378e+000 1.270012e+001 -2.445724e+001
      vertex   -1.011993e+001 1.270012e+001 2.329803e+001
      vertex   -1.319797e+001 1.270012e+001 -2.170139e+001
    endloop
  endfacet
  facet normal 7.391974e-017 -1.000000e+000 9.085956e-017
    outer loop
      vertex   -1.319797e+001 1.270012e+001 -2.170139e+001
      vertex   -1.603017e+001 1.270012e+001 1.970393e+001
      vertex   -1.856377e+001 1.270012e+001 -1.733599e+001
    endloop
  endfacet
  facet normal 1.742436e-016 -1.000000e+000 1.229946e-016
    outer loop
      vertex   -1.856377e+001 1.270012e+001 -1.733599e+001
      vertex   -2.075157e+001 1.270012e+001 1.464854e+001
      vertex   -2.255282e+001 1.270012e+001 -1.168479e+001
    endloop
  endfacet
  facet normal 1.000000e+000 1.864942e-016 -1.493112e-016
    outer loop
      vertex   8.801909e+001 -3.809988e+001 8.584734e-004
      vertex   8.801909e+001 3.810012e+001 8.584734e-004
      vertex   8.801909e+001 -3.809988e+001 1.903530e+002
    endloop
  endfacet
  facet normal 1.000000e+000 3.729883e-016 -7.465561e-017
    outer loop
      vertex   8.801909e+001 -3.809988e+001 1.903530e+002
      vertex   8.801909e+001 3.810012e+001 8.584734e-004
      vertex   8.801909e+001 3.810012e+001 1.903530e+002
    endloop
  endfacet
  facet normal 9.942027e-001 9.270649e-017 -1.075224e-001
    outer loop
      vertex   4.953955e+001 -3.809988e+001 -3.557991e+002
      vertex   4.953955e+001 3.810012e+001 -3.557991e+002
      vertex   8.801909e+001 -3.809988e+001 8.584734e-004
    endloop
  endfacet
  facet normal 9.942027e-001 2.001085e-016 -1.075224e-001
    outer loop
      vertex   8.801909e+001 -3.809988e+001 8.584734e-004
      vertex   4.953955e+001 3.810012e+001 -3.557991e+002
      vertex   8.801909e+001 3.810012e+001 8.584734e-004
    endloop
  endfacet
  facet normal 0.000000e+000 0.000000e+000 -1.000000e+000
    outer loop
      vertex   -6.650610e+000 2.373453e+001 -3.557991e+002
      vertex   -4.954063e+001 3.810012e+001 -3.557991e+002
      vertex   -5.395611e-004 2.464856e+001 -3.557991e+002
    endloop
  endfacet
  facet normal -0.000000e+000 0.000000e+000 -1.000000e+000
    outer loop
      vertex   -6.650610e+000 2.373453e+001 -3.557991e+002
      vertex   -1.280747e+001 2.106023e+001 -3.557991e+002
      vertex   -4.954063e+001 3.810012e+001 -3.557991e+002
    endloop
  endfacet
  facet normal 0.000000e+000 -0.000000e+000 -1.000000e+000
    outer loop
      vertex   -4.954063e+001 3.810012e+001 -3.557991e+002
      vertex   -1.280747e+001 2.106023e+001 -3.557991e+002
      vertex   -1.801451e+001 1.682399e+001 -3.557991e+002
    endloop
  endfacet
  facet normal 0.000000e+000 0.000000e+000 -1.000000e+000
    outer loop
      vertex   -2.188553e+001 1.134001e+001 -3.557991e+002
      vertex   -4.954063e+001 3.810012e+001 -3.557991e+002
      vertex   -1.801451e+001 1.682399e+001 -3.557991e+002
    endloop
  endfacet
  facet normal -0.000000e+000 0.000000e+000 -1.000000e+000
    outer loop
      vertex   -2.188553e+001 1.134001e+001 -3.557991e+002
      vertex   -2.413344e+001 5.014994e+000 -3.557991e+002
      vertex   -4.954063e+001 3.810012e+001 -3.557991e+002
    endloop
  endfacet
  facet normal 0.000000e+000 -0.000000e+000 -1.000000e+000
    outer loop
      vertex   -4.954063e+001 3.810012e+001 -3.557991e+002
      vertex   -2.413344e+001 5.014994e+000 -3.557991e+002
      vertex   -2.459152e+001 -1.681949e+000 -3.557991e+002
    endloop
  endfacet
  facet normal 0.000000e+000 0.000000e+000 -1.000000e+000
    outer loop
      vertex   -4.954063e+001 -3.809988e+001 -3.557991e+002
      vertex   -2.459152e+001 -1.681949e+000 -3.557991e+002
      vertex   -2.322580e+001 -8.254140e+000 -3.557991e+002
    endloop
  endfacet
  facet normal -0.000000e+000 0.000000e+000 -1.000000e+000
    outer loop
      vertex   -2.013757e+001 -1.421415e+001 -3.557991e+002
      vertex   -4.954063e+001 -3.809988e+001 -3.557991e+002
      vertex   -2.322580e+001 -8.254140e+000 -3.557991e+002
    endloop
  endfacet
  facet normal 0.000000e+000 -0.000000e+000 -1.000000e+000
    outer loop
      vertex   -2.013757e+001 -1.421415e+001 -3.557991e+002
      vertex   -1.555587e+001 -1.911995e+001 -3.557991e+002
      vertex   -4.954063e+001 -3.809988e+001 -3.557991e+002
    endloop
  endfacet
  facet normal 0.000000e+000 0.000000e+000 -1.000000e+000
    outer loop
      vertex   -4.954063e+001 -3.809988e+001 -3.557991e+002
      vertex   -1.555587e+001 -1.911995e+001 -3.557991e+002
      vertex   -9.820506e+000 -2.260771e+001 -3.557991e+002
    endloop
  endfacet
  facet normal -0.000000e+000 0.000000e+000 -1.000000e+000
    outer loop
      vertex   -3.356835e+000 -2.441874e+001 -3.557991e+002
      vertex   -4.954063e+001 -3.809988e+001 -3.557991e+002
      vertex   -9.820506e+000 -2.260771e+001 -3.557991e+002
    endloop
  endfacet
  facet normal 0.000000e+000 -0.000000e+000 -1.000000e+000
    outer loop
      vertex   -3.356835e+000 -2.441874e+001 -3.557991e+002
      vertex   3.355756e+000 -2.441874e+001 -3.557991e+002
      vertex   -4.954063e+001 -3.809988e+001 -3.557991e+002
    endloop
  endfacet
  facet normal 0.000000e+000 0.000000e+000 -1.000000e+000
    outer loop
      vertex   -4.954063e+001 -3.809988e+001 -3.557991e+002
      vertex   3.355756e+000 -2.441874e+001 -3.557991e+002
      vertex   4.953955e+001 -3.809988e+001 -3.557991e+002
    endloop
  endfacet
  facet normal 0.000000e+000 0.000000e+000 -1.000000e+000
    outer loop
      vertex   4.953955e+001 -3.809988e+001 -3.557991e+002
      vertex   3.355756e+000 -2.441874e+001 -3.557991e+002
      vertex   9.819427e+000 -2.260771e+001 -3.557991e+002
    endloop
  endfacet
  facet normal -0.000000e+000 -0.000000e+000 -1.000000e+000
    outer loop
      vertex   1.555479e+001 -1.911995e+001 -3.557991e+002
      vertex   4.953955e+001 -3.809988e+001 -3.557991e+002
      vertex   9.819427e+000 -2.260771e+001 -3.557991e+002
    endloop
  endfacet
  facet normal 0.000000e+000 0.000000e+000 -1.000000e+000
    outer loop
      vertex   1.555479e+001 -1.911995e+001 -3.557991e+002
      vertex   2.013650e+001 -1.421415e+001 -3.557991e+002
      vertex   4.953955e+001 -3.809988e+001 -3.557991e+002
    endloop
  endfacet
  facet normal 0.000000e+000 0.000000e+000 -1.000000e+000
    outer loop
      vertex   4.953955e+001 -3.809988e+001 -3.557991e+002
      vertex   2.013650e+001 -1.421415e+001 -3.557991e+002
      vertex   2.322472e+001 -8.254140e+000 -3.557991e+002
    endloop
  endfacet
  facet normal -0.000000e+000 -0.000000e+000 -1.000000e+000
    outer loop
      vertex   2.459044e+001 -1.681949e+000 -3.557991e+002
      vertex   4.953955e+001 -3.809988e+001 -3.557991e+002
      vertex   2.322472e+001 -8.254140e+000 -3.557991e+002
    endloop
  endfacet
  facet normal 0.000000e+000 0.000000e+000 -1.000000e+000
    outer loop
      vertex   2.459044e+001 -1.681949e+000 -3.557991e+002
      vertex   4.953955e+001 3.810012e+001 -3.557991e+002
      vertex   4.953955e+001 -3.809988e+001 -3.557991e+002
    endloop
  endfacet
  facet normal 0.000000e+000 0.000000e+000 -1.000000e+000
    outer loop
      vertex   2.459044e+001 -1.681949e+000 -3.557991e+002
      vertex   2.413236e+001 5.014994e+000 -3.557991e+002
      vertex   4.953955e+001 3.810012e+001 -3.557991e+002
    endloop
  endfacet
  facet normal -0.000000e+000 0.000000e+000 -1.000000e+000
    outer loop
      vertex   4.953955e+001 3.810012e+001 -3.557991e+002
      vertex   2.413236e+001 5.014994e+000 -3.557991e+002
      vertex   2.188445e+001 1.134001e+001 -3.557991e+002
    endloop
  endfacet
  facet normal 0.000000e+000 -0.000000e+000 -1.000000e+000
    outer loop
      vertex   1.801343e+001 1.682399e+001 -3.557991e+002
      vertex   4.953955e+001 3.810012e+001 -3.557991e+002
      vertex   2.188445e+001 1.134001e+001 -3.557991e+002
    endloop
  endfacet
  facet normal 0.000000e+000 0.000000e+000 -1.000000e+000
    outer loop
      vertex   1.801343e+001 1.682399e+001 -3.557991e+002
      vertex   1.280640e+001 2.106023e+001 -3.557991e+002
      vertex   4.953955e+001 3.810012e+001 -3.557991e+002
    endloop
  endfacet
  facet normal -0.000000e+000 0.000000e+000 -1.000000e+000
    outer loop
      vertex   4.953955e+001 3.810012e+001 -3.557991e+002
      vertex   1.280640e+001 2.106023e+001 -3.557991e+002
      vertex   6.649530e+000 2.373453e+001 -3.557991e+002
    endloop
  endfacet
  facet normal 0.000000e+000 -0.000000e+000 -1.000000e+000
    outer loop
      vertex   -5.395611e-004 2.464856e+001 -3.557991e+002
      vertex   4.953955e+001 3.810012e+001 -3.557991e+002
      vertex   6.649530e+000 2.373453e+001 -3.557991e+002
    endloop
  endfacet
  facet normal 0.000000e+000 0.000000e+000 -1.000000e+000
    outer loop
      vertex   -5.395611e-004 2.464856e+001 -3.557991e+002
      vertex   -4.954063e+001 3.810012e+001 -3.557991e+002
      vertex   4.953955e+001 3.810012e+001 -3.557991e+002
    endloop
  endfacet
  facet normal 0.000000e+000 -0.000000e+000 -1.000000e+000
    outer loop
      vertex   -4.954063e+001 3.810012e+001 -3.557991e+002
      vertex   -2.459152e+001 -1.681949e+000 -3.557991e+002
      vertex   -4.954063e+001 -3.809988e+001 -3.557991e+002
    endloop
  endfacet
  facet normal -9.942027e-001 -3.708260e-016 -1.075224e-001
    outer loop
      vertex   -8.802017e+001 -3.809988e+001 8.584734e-004
      vertex   -8.802017e+001 3.810012e+001 8.584734e-004
      vertex   -4.954063e+001 -3.809988e+001 -3.557991e+002
    endloop
  endfacet
  facet normal -9.942027e-001 -2.001085e-016 -1.075224e-001
    outer loop
      vertex   -4.954063e+001 -3.809988e+001 -3.557991e+002
      vertex   -8.802017e+001 3.810012e+001 8.584734e-004
      vertex   -4.954063e+001 3.810012e+001 -3.557991e+002
    endloop
  endfacet
  facet normal -1.000000e+000 -1.864942e-016 7.465561e-017
    outer loop
      vertex   -8.802017e+001 -3.809988e+001 1.903530e+002
      vertex   -8.802017e+001 3.810012e+001 1.903530e+002
      vertex   -8.802017e+001 -3.809988e+001 8.584734e-004
    endloop
  endfacet
  facet normal -1.000000e+000 -3.729883e-016 1.493112e-016
    outer loop
      vertex   -8.802017e+001 -3.809988e+001 8.584734e-004
      vertex   -8.802017e+001 3.810012e+001 1.903530e+002
      vertex   -8.802017e+001 3.810012e+001 8.584734e-004
    endloop
  endfacet
  facet normal 0.000000e+000 0.000000e+000 1.000000e+000
    outer loop
      vertex   8.801909e+001 -3.809988e+001 1.903530e+002
      vertex   8.801909e+001 3.810012e+001 1.903530e+002
      vertex   -8.802017e+001 -3.809988e+001 1.903530e+002
    endloop
  endfacet
  facet normal 0.000000e+000 -0.000000e+000 1.000000e+000
    outer loop
      vertex   -8.802017e+001 -3.809988e+001 1.903530e+002
      vertex   8.801909e+001 3.810012e+001 1.903530e+002
      vertex   -8.802017e+001 3.810012e+001 1.903530e+002
    endloop
  endfacet
  facet normal 1.036195e-015 -1.000000e+000 -4.828156e-018
    outer loop
      vertex   -6.853378e+000 -3.809988e+001 -2.445724e+001
      vertex   -4.954063e+001 -3.809988e+001 -3.557991e+002
      vertex   -5.395611e-004 -3.809988e+001 -2.539914e+001
    endloop
  endfacet
  facet normal 5.292599e-017 -1.000000e+000 1.218479e-016
    outer loop
      vertex   -6.853378e+000 -3.809988e+001 -2.445724e+001
      vertex   -1.319797e+001 -3.809988e+001 -2.170139e+001
      vertex   -4.954063e+001 -3.809988e+001 -3.557991e+002
    endloop
  endfacet
  facet normal 9.537402e-017 -1.000000e+000 1.172304e-016
    outer loop
      vertex   -4.954063e+001 -3.809988e+001 -3.557991e+002
      vertex   -1.319797e+001 -3.809988e+001 -2.170139e+001
      vertex   -1.856377e+001 -3.809988e+001 -1.733599e+001
    endloop
  endfacet
  facet normal 1.579626e-016 -1.000000e+000 1.115022e-016
    outer loop
      vertex   -2.255282e+001 -3.809988e+001 -1.168479e+001
      vertex   -4.954063e+001 -3.809988e+001 -3.557991e+002
      vertex   -1.856377e+001 -3.809988e+001 -1.733599e+001
    endloop
  endfacet
  facet normal 1.288442e-016 -1.000000e+000 1.137858e-016
    outer loop
      vertex   -2.255282e+001 -3.809988e+001 -1.168479e+001
      vertex   -8.802017e+001 -3.809988e+001 8.584734e-004
      vertex   -4.954063e+001 -3.809988e+001 -3.557991e+002
    endloop
  endfacet
  facet normal 1.158854e-016 -1.000000e+000 4.118568e-017
    outer loop
      vertex   -2.255282e+001 -3.809988e+001 -1.168479e+001
      vertex   -2.486928e+001 -3.809988e+001 -5.166924e+000
      vertex   -8.802017e+001 -3.809988e+001 8.584734e-004
    endloop
  endfacet
  facet normal 1.131484e-016 -1.000000e+000 7.739564e-018
    outer loop
      vertex   -8.802017e+001 -3.809988e+001 8.584734e-004
      vertex   -2.486928e+001 -3.809988e+001 -5.166924e+000
      vertex   -2.534133e+001 -3.809988e+001 1.734216e+000
    endloop
  endfacet
  facet normal 1.140177e-016 -1.000000e+000 -2.369314e-017
    outer loop
      vertex   -2.393397e+001 -3.809988e+001 8.506801e+000
      vertex   -8.802017e+001 -3.809988e+001 8.584734e-004
      vertex   -2.534133e+001 -3.809988e+001 1.734216e+000
    endloop
  endfacet
  facet normal 9.105540e-017 -1.000000e+000 1.493112e-016
    outer loop
      vertex   -2.393397e+001 -3.809988e+001 8.506801e+000
      vertex   -8.802017e+001 -3.809988e+001 1.903530e+002
      vertex   -8.802017e+001 -3.809988e+001 8.584734e-004
    endloop
  endfacet
  facet normal -1.346479e-016 -1.000000e+000 6.976891e-017
    outer loop
      vertex   -2.393397e+001 -3.809988e+001 8.506801e+000
      vertex   -2.075157e+001 -3.809988e+001 1.464854e+001
      vertex   -8.802017e+001 -3.809988e+001 1.903530e+002
    endloop
  endfacet
  facet normal 9.752515e-016 -1.000000e+000 4.946948e-016
    outer loop
      vertex   -8.802017e+001 -3.809988e+001 1.903530e+002
      vertex   -2.075157e+001 -3.809988e+001 1.464854e+001
      vertex   -1.603017e+001 -3.809988e+001 1.970393e+001
    endloop
  endfacet
  facet normal -4.030185e-017 -1.000000e+000 6.627358e-017
    outer loop
      vertex   -1.011993e+001 -3.809988e+001 2.329803e+001
      vertex   -8.802017e+001 -3.809988e+001 1.903530e+002
      vertex   -1.603017e+001 -3.809988e+001 1.970393e+001
    endloop
  endfacet
  facet normal -2.108037e-017 -1.000000e+000 7.523684e-017
    outer loop
      vertex   -1.011993e+001 -3.809988e+001 2.329803e+001
      vertex   -3.459172e+000 -3.809988e+001 2.516428e+001
      vertex   -8.802017e+001 -3.809988e+001 1.903530e+002
    endloop
  endfacet
  facet normal 0.000000e+000 -1.000000e+000 8.602800e-017
    outer loop
      vertex   -8.802017e+001 -3.809988e+001 1.903530e+002
      vertex   -3.459172e+000 -3.809988e+001 2.516428e+001
      vertex   3.458093e+000 -3.809988e+001 2.516428e+001
    endloop
  endfacet
  facet normal 4.216075e-017 -1.000000e+000 1.504737e-016
    outer loop
      vertex   8.801909e+001 -3.809988e+001 1.903530e+002
      vertex   3.458093e+000 -3.809988e+001 2.516428e+001
      vertex   1.011885e+001 -3.809988e+001 2.329803e+001
    endloop
  endfacet
  facet normal 8.060371e-017 -1.000000e+000 1.325472e-016
    outer loop
      vertex   1.602909e+001 -3.809988e+001 1.970393e+001
      vertex   8.801909e+001 -3.809988e+001 1.903530e+002
      vertex   1.011885e+001 -3.809988e+001 2.329803e+001
    endloop
  endfacet
  facet normal 1.228435e-016 -1.000000e+000 1.147279e-016
    outer loop
      vertex   1.602909e+001 -3.809988e+001 1.970393e+001
      vertex   2.075050e+001 -3.809988e+001 1.464854e+001
      vertex   8.801909e+001 -3.809988e+001 1.903530e+002
    endloop
  endfacet
  facet normal 1.795305e-016 -1.000000e+000 9.302521e-017
    outer loop
      vertex   8.801909e+001 -3.809988e+001 1.903530e+002
      vertex   2.075050e+001 -3.809988e+001 1.464854e+001
      vertex   2.393289e+001 -3.809988e+001 8.506801e+000
    endloop
  endfacet
  facet normal 2.280353e-016 -1.000000e+000 4.738629e-017
    outer loop
      vertex   8.801909e+001 -3.809988e+001 8.584734e-004
      vertex   2.393289e+001 -3.809988e+001 8.506801e+000
      vertex   2.534025e+001 -3.809988e+001 1.734216e+000
    endloop
  endfacet
  facet normal 2.262968e-016 -1.000000e+000 -1.547913e-017
    outer loop
      vertex   2.486820e+001 -3.809988e+001 -5.166924e+000
      vertex   8.801909e+001 -3.809988e+001 8.584734e-004
      vertex   2.534025e+001 -3.809988e+001 1.734216e+000
    endloop
  endfacet
  facet normal 2.317708e-016 -1.000000e+000 -8.237135e-017
    outer loop
      vertex   2.486820e+001 -3.809988e+001 -5.166924e+000
      vertex   2.255174e+001 -3.809988e+001 -1.168479e+001
      vertex   8.801909e+001 -3.809988e+001 8.584734e-004
    endloop
  endfacet
  facet normal 1.922624e-016 -1.000000e+000 1.389692e-016
    outer loop
      vertex   8.801909e+001 -3.809988e+001 8.584734e-004
      vertex   2.255174e+001 -3.809988e+001 -1.168479e+001
      vertex   4.953955e+001 -3.809988e+001 -3.557991e+002
    endloop
  endfacet
  facet normal -1.579626e-016 -1.000000e+000 1.115022e-016
    outer loop
      vertex   4.953955e+001 -3.809988e+001 -3.557991e+002
      vertex   2.255174e+001 -3.809988e+001 -1.168479e+001
      vertex   1.856269e+001 -3.809988e+001 -1.733599e+001
    endloop
  endfacet
  facet normal 1.137066e-015 -1.000000e+000 2.300259e-016
    outer loop
      vertex   1.319689e+001 -3.809988e+001 -2.170139e+001
      vertex   4.953955e+001 -3.809988e+001 -3.557991e+002
      vertex   1.856269e+001 -3.809988e+001 -1.733599e+001
    endloop
  endfacet
  facet normal -4.410499e-017 -1.000000e+000 1.015399e-016
    outer loop
      vertex   1.319689e+001 -3.809988e+001 -2.170139e+001
      vertex   6.852298e+000 -3.809988e+001 -2.445724e+001
      vertex   4.953955e+001 -3.809988e+001 -3.557991e+002
    endloop
  endfacet
  facet normal -1.033299e-015 -1.000000e+000 -2.589943e-017
    outer loop
      vertex   4.953955e+001 -3.809988e+001 -3.557991e+002
      vertex   6.852298e+000 -3.809988e+001 -2.445724e+001
      vertex   -5.395611e-004 -3.809988e+001 -2.539914e+001
    endloop
  endfacet
  facet normal 7.171392e-017 -1.000000e+000 1.397859e-016
    outer loop
      vertex   -4.954063e+001 -3.809988e+001 -3.557991e+002
      vertex   4.953955e+001 -3.809988e+001 -3.557991e+002
      vertex   -5.395611e-004 -3.809988e+001 -2.539914e+001
    endloop
  endfacet
  facet normal 8.072548e-017 -1.000000e+000 1.307322e-016
    outer loop
      vertex   -8.802017e+001 -3.809988e+001 1.903530e+002
      vertex   3.458093e+000 -3.809988e+001 2.516428e+001
      vertex   8.801909e+001 -3.809988e+001 1.903530e+002
    endloop
  endfacet
  facet normal 2.316547e-016 -1.000000e+000 7.465561e-017
    outer loop
      vertex   8.801909e+001 -3.809988e+001 1.903530e+002
      vertex   2.393289e+001 -3.809988e+001 8.506801e+000
      vertex   8.801909e+001 -3.809988e+001 8.584734e-004
    endloop
  endfacet
  facet normal -8.072548e-017 1.000000e+000 -1.119834e-016
    outer loop
      vertex   8.801909e+001 3.810012e+001 1.903530e+002
      vertex   8.801909e+001 3.810012e+001 8.584734e-004
      vertex   -8.802017e+001 3.810012e+001 1.903530e+002
    endloop
  endfacet
  facet normal -1.210882e-016 1.000000e+000 -1.493112e-016
    outer loop
      vertex   -8.802017e+001 3.810012e+001 1.903530e+002
      vertex   8.801909e+001 3.810012e+001 8.584734e-004
      vertex   -8.802017e+001 3.810012e+001 8.584734e-004
    endloop
  endfacet
  facet normal -1.210882e-016 1.000000e+000 -1.129470e-016
    outer loop
      vertex   -8.802017e+001 3.810012e+001 8.584734e-004
      vertex   8.801909e+001 3.810012e+001 8.584734e-004
      vertex   -4.954063e+001 3.810012e+001 -3.557991e+002
    endloop
  endfacet
  facet normal -7.171392e-017 1.000000e+000 -1.320362e-016
    outer loop
      vertex   -4.954063e+001 3.810012e+001 -3.557991e+002
      vertex   8.801909e+001 3.810012e+001 8.584734e-004
      vertex   4.953955e+001 3.810012e+001 -3.557991e+002
    endloop
  endfacet
endsolid
