solid ascii
  facet normal 4.196119e-016 -1.000000e+000 -3.353792e-032
    outer loop
      vertex   -5.080714e+001 6.428740e+001 0.000000e+000
      vertex   -5.080714e+001 6.428740e+001 -8.890000e+001
      vertex   5.079286e+001 6.428740e+001 0.000000e+000
    endloop
  endfacet
  facet normal 4.196119e-016 -1.000000e+000 -1.788689e-031
    outer loop
      vertex   5.079286e+001 6.428740e+001 0.000000e+000
      vertex   -5.080714e+001 6.428740e+001 -8.890000e+001
      vertex   5.079286e+001 6.428740e+001 -8.890000e+001
    endloop
  endfacet
  facet normal 0.000000e+000 0.000000e+000 1.000000e+000
    outer loop
      vertex   5.079286e+001 6.428740e+001 0.000000e+000
      vertex   5.079286e+001 1.023874e+002 0.000000e+000
      vertex   -5.080714e+001 6.428740e+001 0.000000e+000
    endloop
  endfacet
  facet normal 0.000000e+000 -0.000000e+000 1.000000e+000
    outer loop
      vertex   -5.080714e+001 6.428740e+001 0.000000e+000
      vertex   5.079286e+001 1.023874e+002 0.000000e+000
      vertex   -5.080714e+001 1.023874e+002 0.000000e+000
    endloop
  endfacet
  facet normal -2.098059e-016 1.000000e+000 1.676896e-032
    outer loop
      vertex   5.079286e+001 -6.271260e+001 3.552714e-014
      vertex   5.079286e+001 -6.271260e+001 -8.890000e+001
      vertex   -5.080714e+001 -6.271260e+001 3.552714e-014
    endloop
  endfacet
  facet normal -2.098059e-016 1.000000e+000 0.000000e+000
    outer loop
      vertex   -5.080714e+001 -6.271260e+001 3.552714e-014
      vertex   5.079286e+001 -6.271260e+001 -8.890000e+001
      vertex   -5.080714e+001 -6.271260e+001 -8.890000e+001
    endloop
  endfacet
  facet normal 0.000000e+000 0.000000e+000 1.000000e+000
    outer loop
      vertex   5.079286e+001 -1.008126e+002 3.552714e-014
      vertex   5.079286e+001 -6.271260e+001 3.552714e-014
      vertex   -5.080714e+001 -1.008126e+002 3.552714e-014
    endloop
  endfacet
  facet normal 0.000000e+000 -0.000000e+000 1.000000e+000
    outer loop
      vertex   -5.080714e+001 -1.008126e+002 3.552714e-014
      vertex   5.079286e+001 -6.271260e+001 3.552714e-014
      vertex   -5.080714e+001 -6.271260e+001 3.552714e-014
    endloop
  endfacet
  facet normal 0.000000e+000 0.000000e+000 -1.000000e+000
    outer loop
      vertex   -5.080714e+001 5.079226e+001 -1.270000e+002
      vertex   -5.080714e+001 1.023874e+002 -1.270000e+002
      vertex   5.079286e+001 5.079226e+001 -1.270000e+002
    endloop
  endfacet
  facet normal 0.000000e+000 0.000000e+000 -1.000000e+000
    outer loop
      vertex   5.079286e+001 5.079226e+001 -1.270000e+002
      vertex   -5.080714e+001 1.023874e+002 -1.270000e+002
      vertex   5.079286e+001 1.023874e+002 -1.270000e+002
    endloop
  endfacet
  facet normal -0.000000e+000 -0.000000e+000 -1.000000e+000
    outer loop
      vertex   5.079286e+001 -5.080774e+001 -1.270000e+002
      vertex   5.079286e+001 -1.008126e+002 -1.270000e+002
      vertex   -5.080714e+001 -5.080774e+001 -1.270000e+002
    endloop
  endfacet
  facet normal 0.000000e+000 -0.000000e+000 -1.000000e+000
    outer loop
      vertex   -5.080714e+001 -5.080774e+001 -1.270000e+002
      vertex   5.079286e+001 -1.008126e+002 -1.270000e+002
      vertex   -5.080714e+001 -1.008126e+002 -1.270000e+002
    endloop
  endfacet
  facet normal 2.797412e-016 -1.000000e+000 -4.695309e-032
    outer loop
      vertex   -5.080714e+001 -1.008126e+002 3.552714e-014
      vertex   -5.080714e+001 -1.008126e+002 -1.270000e+002
      vertex   5.079286e+001 -1.008126e+002 3.552714e-014
    endloop
  endfacet
  facet normal 2.797412e-016 -1.000000e+000 -6.260413e-032
    outer loop
      vertex   5.079286e+001 -1.008126e+002 3.552714e-014
      vertex   -5.080714e+001 -1.008126e+002 -1.270000e+002
      vertex   5.079286e+001 -1.008126e+002 -1.270000e+002
    endloop
  endfacet
  facet normal -2.797412e-016 1.000000e+000 3.130206e-032
    outer loop
      vertex   5.079286e+001 1.023874e+002 0.000000e+000
      vertex   5.079286e+001 1.023874e+002 -1.270000e+002
      vertex   -5.080714e+001 1.023874e+002 0.000000e+000
    endloop
  endfacet
  facet normal -2.797412e-016 1.000000e+000 0.000000e+000
    outer loop
      vertex   -5.080714e+001 1.023874e+002 0.000000e+000
      vertex   5.079286e+001 1.023874e+002 -1.270000e+002
      vertex   -5.080714e+001 1.023874e+002 -1.270000e+002
    endloop
  endfacet
  facet normal -0.000000e+000 0.000000e+000 1.000000e+000
    outer loop
      vertex   -5.080714e+001 6.428740e+001 -8.890000e+001
      vertex   -5.080714e+001 -6.271260e+001 -8.890000e+001
      vertex   5.079286e+001 6.428740e+001 -8.890000e+001
    endloop
  endfacet
  facet normal -0.000000e+000 0.000000e+000 1.000000e+000
    outer loop
      vertex   5.079286e+001 6.428740e+001 -8.890000e+001
      vertex   -5.080714e+001 -6.271260e+001 -8.890000e+001
      vertex   5.079286e+001 -6.271260e+001 -8.890000e+001
    endloop
  endfacet
  facet normal 0.000000e+000 0.000000e+000 -1.000000e+000
    outer loop
      vertex   -5.080714e+001 -5.080774e+001 -2.286000e+002
      vertex   -7.137494e-003 -2.540774e+001 -2.286000e+002
      vertex   5.079286e+001 -5.080774e+001 -2.286000e+002
    endloop
  endfacet
  facet normal 0.000000e+000 0.000000e+000 -1.000000e+000
    outer loop
      vertex   -5.080714e+001 -5.080774e+001 -2.286000e+002
      vertex   -3.465770e+000 -2.517116e+001 -2.286000e+002
      vertex   -7.137494e-003 -2.540774e+001 -2.286000e+002
    endloop
  endfacet
  facet normal 0.000000e+000 0.000000e+000 -1.000000e+000
    outer loop
      vertex   -5.080714e+001 -5.080774e+001 -2.286000e+002
      vertex   -6.859975e+000 -2.446583e+001 -2.286000e+002
      vertex   -3.465770e+000 -2.517116e+001 -2.286000e+002
    endloop
  endfacet
  facet normal 0.000000e+000 0.000000e+000 -1.000000e+000
    outer loop
      vertex   -5.080714e+001 -5.080774e+001 -2.286000e+002
      vertex   -1.012653e+001 -2.330490e+001 -2.286000e+002
      vertex   -6.859975e+000 -2.446583e+001 -2.286000e+002
    endloop
  endfacet
  facet normal 0.000000e+000 0.000000e+000 -1.000000e+000
    outer loop
      vertex   -5.080714e+001 -5.080774e+001 -2.286000e+002
      vertex   -1.320457e+001 -2.170999e+001 -2.286000e+002
      vertex   -1.012653e+001 -2.330490e+001 -2.286000e+002
    endloop
  endfacet
  facet normal 0.000000e+000 0.000000e+000 -1.000000e+000
    outer loop
      vertex   -5.080714e+001 -5.080774e+001 -2.286000e+002
      vertex   -1.603677e+001 -1.971080e+001 -2.286000e+002
      vertex   -1.320457e+001 -2.170999e+001 -2.286000e+002
    endloop
  endfacet
  facet normal 0.000000e+000 0.000000e+000 -1.000000e+000
    outer loop
      vertex   -5.080714e+001 -5.080774e+001 -2.286000e+002
      vertex   -1.857037e+001 -1.734459e+001 -2.286000e+002
      vertex   -1.603677e+001 -1.971080e+001 -2.286000e+002
    endloop
  endfacet
  facet normal 0.000000e+000 0.000000e+000 -1.000000e+000
    outer loop
      vertex   -5.080714e+001 -5.080774e+001 -2.286000e+002
      vertex   -2.075817e+001 -1.465542e+001 -2.286000e+002
      vertex   -1.857037e+001 -1.734459e+001 -2.286000e+002
    endloop
  endfacet
  facet normal 0.000000e+000 0.000000e+000 -1.000000e+000
    outer loop
      vertex   -5.080714e+001 -5.080774e+001 -2.286000e+002
      vertex   -2.255942e+001 -1.169339e+001 -2.286000e+002
      vertex   -2.075817e+001 -1.465542e+001 -2.286000e+002
    endloop
  endfacet
  facet normal 0.000000e+000 0.000000e+000 -1.000000e+000
    outer loop
      vertex   -5.080714e+001 -5.080774e+001 -2.286000e+002
      vertex   -2.394056e+001 -8.513678e+000 -2.286000e+002
      vertex   -2.255942e+001 -1.169339e+001 -2.286000e+002
    endloop
  endfacet
  facet normal 0.000000e+000 0.000000e+000 -1.000000e+000
    outer loop
      vertex   -5.080714e+001 -5.080774e+001 -2.286000e+002
      vertex   -2.487587e+001 -5.175518e+000 -2.286000e+002
      vertex   -2.394056e+001 -8.513678e+000 -2.286000e+002
    endloop
  endfacet
  facet normal 0.000000e+000 0.000000e+000 -1.000000e+000
    outer loop
      vertex   -5.080714e+001 -5.080774e+001 -2.286000e+002
      vertex   -2.534792e+001 -1.741093e+000 -2.286000e+002
      vertex   -2.487587e+001 -5.175518e+000 -2.286000e+002
    endloop
  endfacet
  facet normal 0.000000e+000 0.000000e+000 -1.000000e+000
    outer loop
      vertex   -5.080714e+001 -5.080774e+001 -2.286000e+002
      vertex   -5.080714e+001 5.079226e+001 -2.286000e+002
      vertex   -2.534792e+001 -1.741093e+000 -2.286000e+002
    endloop
  endfacet
  facet normal 0.000000e+000 0.000000e+000 -1.000000e+000
    outer loop
      vertex   -2.534792e+001 -1.741093e+000 -2.286000e+002
      vertex   -5.080714e+001 5.079226e+001 -2.286000e+002
      vertex   -2.534792e+001 1.725622e+000 -2.286000e+002
    endloop
  endfacet
  facet normal 0.000000e+000 0.000000e+000 -1.000000e+000
    outer loop
      vertex   -2.534792e+001 1.725622e+000 -2.286000e+002
      vertex   -5.080714e+001 5.079226e+001 -2.286000e+002
      vertex   -2.487587e+001 5.160047e+000 -2.286000e+002
    endloop
  endfacet
  facet normal 0.000000e+000 0.000000e+000 -1.000000e+000
    outer loop
      vertex   -2.487587e+001 5.160047e+000 -2.286000e+002
      vertex   -5.080714e+001 5.079226e+001 -2.286000e+002
      vertex   -2.394056e+001 8.498207e+000 -2.286000e+002
    endloop
  endfacet
  facet normal 0.000000e+000 0.000000e+000 -1.000000e+000
    outer loop
      vertex   -2.394056e+001 8.498207e+000 -2.286000e+002
      vertex   -5.080714e+001 5.079226e+001 -2.286000e+002
      vertex   -2.255942e+001 1.167792e+001 -2.286000e+002
    endloop
  endfacet
  facet normal 0.000000e+000 0.000000e+000 -1.000000e+000
    outer loop
      vertex   -2.255942e+001 1.167792e+001 -2.286000e+002
      vertex   -5.080714e+001 5.079226e+001 -2.286000e+002
      vertex   -2.075817e+001 1.463994e+001 -2.286000e+002
    endloop
  endfacet
  facet normal 0.000000e+000 0.000000e+000 -1.000000e+000
    outer loop
      vertex   -2.075817e+001 1.463994e+001 -2.286000e+002
      vertex   -5.080714e+001 5.079226e+001 -2.286000e+002
      vertex   -1.857037e+001 1.732911e+001 -2.286000e+002
    endloop
  endfacet
  facet normal 0.000000e+000 0.000000e+000 -1.000000e+000
    outer loop
      vertex   -1.857037e+001 1.732911e+001 -2.286000e+002
      vertex   -5.080714e+001 5.079226e+001 -2.286000e+002
      vertex   -1.603677e+001 1.969533e+001 -2.286000e+002
    endloop
  endfacet
  facet normal 0.000000e+000 0.000000e+000 -1.000000e+000
    outer loop
      vertex   -1.603677e+001 1.969533e+001 -2.286000e+002
      vertex   -5.080714e+001 5.079226e+001 -2.286000e+002
      vertex   -1.320457e+001 2.169452e+001 -2.286000e+002
    endloop
  endfacet
  facet normal 0.000000e+000 0.000000e+000 -1.000000e+000
    outer loop
      vertex   -1.320457e+001 2.169452e+001 -2.286000e+002
      vertex   -5.080714e+001 5.079226e+001 -2.286000e+002
      vertex   -1.012653e+001 2.328943e+001 -2.286000e+002
    endloop
  endfacet
  facet normal 0.000000e+000 0.000000e+000 -1.000000e+000
    outer loop
      vertex   -1.012653e+001 2.328943e+001 -2.286000e+002
      vertex   -5.080714e+001 5.079226e+001 -2.286000e+002
      vertex   -6.859975e+000 2.445036e+001 -2.286000e+002
    endloop
  endfacet
  facet normal 0.000000e+000 0.000000e+000 -1.000000e+000
    outer loop
      vertex   -6.859975e+000 2.445036e+001 -2.286000e+002
      vertex   -5.080714e+001 5.079226e+001 -2.286000e+002
      vertex   -3.465770e+000 2.515569e+001 -2.286000e+002
    endloop
  endfacet
  facet normal 0.000000e+000 0.000000e+000 -1.000000e+000
    outer loop
      vertex   -3.465770e+000 2.515569e+001 -2.286000e+002
      vertex   -5.080714e+001 5.079226e+001 -2.286000e+002
      vertex   -7.137494e-003 2.539226e+001 -2.286000e+002
    endloop
  endfacet
  facet normal 0.000000e+000 0.000000e+000 -1.000000e+000
    outer loop
      vertex   -7.137494e-003 2.539226e+001 -2.286000e+002
      vertex   -5.080714e+001 5.079226e+001 -2.286000e+002
      vertex   5.079286e+001 5.079226e+001 -2.286000e+002
    endloop
  endfacet
  facet normal 0.000000e+000 -0.000000e+000 -1.000000e+000
    outer loop
      vertex   3.451495e+000 2.515569e+001 -2.286000e+002
      vertex   5.079286e+001 5.079226e+001 -2.286000e+002
      vertex   6.845700e+000 2.445036e+001 -2.286000e+002
    endloop
  endfacet
  facet normal 0.000000e+000 0.000000e+000 -1.000000e+000
    outer loop
      vertex   3.451495e+000 2.515569e+001 -2.286000e+002
      vertex   -7.137494e-003 2.539226e+001 -2.286000e+002
      vertex   5.079286e+001 5.079226e+001 -2.286000e+002
    endloop
  endfacet
  facet normal 0.000000e+000 0.000000e+000 -1.000000e+000
    outer loop
      vertex   5.079286e+001 -5.080774e+001 -2.286000e+002
      vertex   2.533365e+001 1.725622e+000 -2.286000e+002
      vertex   5.079286e+001 5.079226e+001 -2.286000e+002
    endloop
  endfacet
  facet normal 0.000000e+000 0.000000e+000 -1.000000e+000
    outer loop
      vertex   5.079286e+001 -5.080774e+001 -2.286000e+002
      vertex   2.533365e+001 -1.741093e+000 -2.286000e+002
      vertex   2.533365e+001 1.725622e+000 -2.286000e+002
    endloop
  endfacet
  facet normal 0.000000e+000 0.000000e+000 -1.000000e+000
    outer loop
      vertex   5.079286e+001 -5.080774e+001 -2.286000e+002
      vertex   2.486160e+001 -5.175518e+000 -2.286000e+002
      vertex   2.533365e+001 -1.741093e+000 -2.286000e+002
    endloop
  endfacet
  facet normal 0.000000e+000 0.000000e+000 -1.000000e+000
    outer loop
      vertex   5.079286e+001 -5.080774e+001 -2.286000e+002
      vertex   2.392629e+001 -8.513678e+000 -2.286000e+002
      vertex   2.486160e+001 -5.175518e+000 -2.286000e+002
    endloop
  endfacet
  facet normal 0.000000e+000 0.000000e+000 -1.000000e+000
    outer loop
      vertex   5.079286e+001 -5.080774e+001 -2.286000e+002
      vertex   2.254515e+001 -1.169339e+001 -2.286000e+002
      vertex   2.392629e+001 -8.513678e+000 -2.286000e+002
    endloop
  endfacet
  facet normal 0.000000e+000 0.000000e+000 -1.000000e+000
    outer loop
      vertex   5.079286e+001 -5.080774e+001 -2.286000e+002
      vertex   2.074390e+001 -1.465542e+001 -2.286000e+002
      vertex   2.254515e+001 -1.169339e+001 -2.286000e+002
    endloop
  endfacet
  facet normal 0.000000e+000 0.000000e+000 -1.000000e+000
    outer loop
      vertex   5.079286e+001 -5.080774e+001 -2.286000e+002
      vertex   1.855610e+001 -1.734459e+001 -2.286000e+002
      vertex   2.074390e+001 -1.465542e+001 -2.286000e+002
    endloop
  endfacet
  facet normal 0.000000e+000 0.000000e+000 -1.000000e+000
    outer loop
      vertex   5.079286e+001 -5.080774e+001 -2.286000e+002
      vertex   1.602250e+001 -1.971080e+001 -2.286000e+002
      vertex   1.855610e+001 -1.734459e+001 -2.286000e+002
    endloop
  endfacet
  facet normal 0.000000e+000 0.000000e+000 -1.000000e+000
    outer loop
      vertex   5.079286e+001 -5.080774e+001 -2.286000e+002
      vertex   1.319029e+001 -2.170999e+001 -2.286000e+002
      vertex   1.602250e+001 -1.971080e+001 -2.286000e+002
    endloop
  endfacet
  facet normal 0.000000e+000 0.000000e+000 -1.000000e+000
    outer loop
      vertex   5.079286e+001 -5.080774e+001 -2.286000e+002
      vertex   1.011225e+001 -2.330490e+001 -2.286000e+002
      vertex   1.319029e+001 -2.170999e+001 -2.286000e+002
    endloop
  endfacet
  facet normal 0.000000e+000 0.000000e+000 -1.000000e+000
    outer loop
      vertex   5.079286e+001 -5.080774e+001 -2.286000e+002
      vertex   6.845700e+000 -2.446583e+001 -2.286000e+002
      vertex   1.011225e+001 -2.330490e+001 -2.286000e+002
    endloop
  endfacet
  facet normal 0.000000e+000 0.000000e+000 -1.000000e+000
    outer loop
      vertex   5.079286e+001 -5.080774e+001 -2.286000e+002
      vertex   3.451495e+000 -2.517116e+001 -2.286000e+002
      vertex   6.845700e+000 -2.446583e+001 -2.286000e+002
    endloop
  endfacet
  facet normal 0.000000e+000 0.000000e+000 -1.000000e+000
    outer loop
      vertex   5.079286e+001 -5.080774e+001 -2.286000e+002
      vertex   -7.137494e-003 -2.540774e+001 -2.286000e+002
      vertex   3.451495e+000 -2.517116e+001 -2.286000e+002
    endloop
  endfacet
  facet normal 0.000000e+000 0.000000e+000 -1.000000e+000
    outer loop
      vertex   2.533365e+001 1.725622e+000 -2.286000e+002
      vertex   2.486160e+001 5.160047e+000 -2.286000e+002
      vertex   5.079286e+001 5.079226e+001 -2.286000e+002
    endloop
  endfacet
  facet normal -0.000000e+000 0.000000e+000 -1.000000e+000
    outer loop
      vertex   5.079286e+001 5.079226e+001 -2.286000e+002
      vertex   2.486160e+001 5.160047e+000 -2.286000e+002
      vertex   2.392629e+001 8.498207e+000 -2.286000e+002
    endloop
  endfacet
  facet normal 0.000000e+000 -0.000000e+000 -1.000000e+000
    outer loop
      vertex   2.254515e+001 1.167792e+001 -2.286000e+002
      vertex   5.079286e+001 5.079226e+001 -2.286000e+002
      vertex   2.392629e+001 8.498207e+000 -2.286000e+002
    endloop
  endfacet
  facet normal 0.000000e+000 0.000000e+000 -1.000000e+000
    outer loop
      vertex   2.254515e+001 1.167792e+001 -2.286000e+002
      vertex   2.074390e+001 1.463994e+001 -2.286000e+002
      vertex   5.079286e+001 5.079226e+001 -2.286000e+002
    endloop
  endfacet
  facet normal -0.000000e+000 0.000000e+000 -1.000000e+000
    outer loop
      vertex   5.079286e+001 5.079226e+001 -2.286000e+002
      vertex   2.074390e+001 1.463994e+001 -2.286000e+002
      vertex   1.855610e+001 1.732911e+001 -2.286000e+002
    endloop
  endfacet
  facet normal 0.000000e+000 -0.000000e+000 -1.000000e+000
    outer loop
      vertex   1.602250e+001 1.969533e+001 -2.286000e+002
      vertex   5.079286e+001 5.079226e+001 -2.286000e+002
      vertex   1.855610e+001 1.732911e+001 -2.286000e+002
    endloop
  endfacet
  facet normal 0.000000e+000 0.000000e+000 -1.000000e+000
    outer loop
      vertex   1.602250e+001 1.969533e+001 -2.286000e+002
      vertex   1.319029e+001 2.169452e+001 -2.286000e+002
      vertex   5.079286e+001 5.079226e+001 -2.286000e+002
    endloop
  endfacet
  facet normal -0.000000e+000 0.000000e+000 -1.000000e+000
    outer loop
      vertex   5.079286e+001 5.079226e+001 -2.286000e+002
      vertex   1.319029e+001 2.169452e+001 -2.286000e+002
      vertex   1.011225e+001 2.328943e+001 -2.286000e+002
    endloop
  endfacet
  facet normal 0.000000e+000 -0.000000e+000 -1.000000e+000
    outer loop
      vertex   6.845700e+000 2.445036e+001 -2.286000e+002
      vertex   5.079286e+001 5.079226e+001 -2.286000e+002
      vertex   1.011225e+001 2.328943e+001 -2.286000e+002
    endloop
  endfacet
  facet normal 1.398706e-016 -1.000000e+000 -9.781895e-033
    outer loop
      vertex   -5.080714e+001 -5.080774e+001 -1.270000e+002
      vertex   -5.080714e+001 -5.080774e+001 -2.286000e+002
      vertex   5.079286e+001 -5.080774e+001 -1.270000e+002
    endloop
  endfacet
  facet normal 1.398706e-016 -1.000000e+000 -1.956379e-032
    outer loop
      vertex   5.079286e+001 -5.080774e+001 -1.270000e+002
      vertex   -5.080714e+001 -5.080774e+001 -2.286000e+002
      vertex   5.079286e+001 -5.080774e+001 -2.286000e+002
    endloop
  endfacet
  facet normal -1.000000e+000 -2.098059e-016 6.993531e-017
    outer loop
      vertex   -5.080714e+001 5.079226e+001 -2.286000e+002
      vertex   -5.080714e+001 -5.080774e+001 -1.270000e+002
      vertex   -5.080714e+001 5.079226e+001 -1.270000e+002
    endloop
  endfacet
  facet normal -1.000000e+000 -2.098059e-016 6.993531e-017
    outer loop
      vertex   -5.080714e+001 5.079226e+001 -2.286000e+002
      vertex   -5.080714e+001 -5.080774e+001 -2.286000e+002
      vertex   -5.080714e+001 -5.080774e+001 -1.270000e+002
    endloop
  endfacet
  facet normal -1.000000e+000 -2.098059e-016 1.239902e-015
    outer loop
      vertex   -5.080714e+001 5.079226e+001 -1.270000e+002
      vertex   -5.080714e+001 -5.080774e+001 -1.270000e+002
      vertex   -5.080714e+001 -6.271260e+001 -8.890000e+001
    endloop
  endfacet
  facet normal -1.000000e+000 -2.797412e-016 1.031556e-015
    outer loop
      vertex   -5.080714e+001 6.428740e+001 -8.890000e+001
      vertex   -5.080714e+001 5.079226e+001 -1.270000e+002
      vertex   -5.080714e+001 -6.271260e+001 -8.890000e+001
    endloop
  endfacet
  facet normal -1.000000e+000 4.131452e-016 7.861335e-016
    outer loop
      vertex   -5.080714e+001 6.428740e+001 -8.890000e+001
      vertex   -5.080714e+001 1.023874e+002 -1.270000e+002
      vertex   -5.080714e+001 5.079226e+001 -1.270000e+002
    endloop
  endfacet
  facet normal -1.000000e+000 -2.610918e-016 1.118965e-016
    outer loop
      vertex   -5.080714e+001 6.428740e+001 -8.890000e+001
      vertex   -5.080714e+001 1.023874e+002 0.000000e+000
      vertex   -5.080714e+001 1.023874e+002 -1.270000e+002
    endloop
  endfacet
  facet normal -1.000000e+000 -1.864942e-016 7.992607e-017
    outer loop
      vertex   -5.080714e+001 6.428740e+001 -8.890000e+001
      vertex   -5.080714e+001 6.428740e+001 0.000000e+000
      vertex   -5.080714e+001 1.023874e+002 0.000000e+000
    endloop
  endfacet
  facet normal -1.000000e+000 -9.946631e-016 9.946631e-016
    outer loop
      vertex   -5.080714e+001 -5.080774e+001 -1.270000e+002
      vertex   -5.080714e+001 -1.008126e+002 -1.270000e+002
      vertex   -5.080714e+001 -6.271260e+001 -8.890000e+001
    endloop
  endfacet
  facet normal -1.000000e+000 -1.678447e-016 1.678447e-016
    outer loop
      vertex   -5.080714e+001 -6.271260e+001 -8.890000e+001
      vertex   -5.080714e+001 -1.008126e+002 -1.270000e+002
      vertex   -5.080714e+001 -1.008126e+002 3.552714e-014
    endloop
  endfacet
  facet normal -1.000000e+000 -1.864942e-016 1.598521e-016
    outer loop
      vertex   -5.080714e+001 -6.271260e+001 3.552714e-014
      vertex   -5.080714e+001 -6.271260e+001 -8.890000e+001
      vertex   -5.080714e+001 -1.008126e+002 3.552714e-014
    endloop
  endfacet
  facet normal -1.398706e-016 1.000000e+000 9.781895e-033
    outer loop
      vertex   5.079286e+001 5.079226e+001 -1.270000e+002
      vertex   5.079286e+001 5.079226e+001 -2.286000e+002
      vertex   -5.080714e+001 5.079226e+001 -1.270000e+002
    endloop
  endfacet
  facet normal -1.398706e-016 1.000000e+000 1.956379e-032
    outer loop
      vertex   -5.080714e+001 5.079226e+001 -1.270000e+002
      vertex   5.079286e+001 5.079226e+001 -2.286000e+002
      vertex   -5.080714e+001 5.079226e+001 -2.286000e+002
    endloop
  endfacet
  facet normal 1.000000e+000 2.098059e-016 -6.993531e-017
    outer loop
      vertex   5.079286e+001 -5.080774e+001 -2.286000e+002
      vertex   5.079286e+001 5.079226e+001 -1.270000e+002
      vertex   5.079286e+001 -5.080774e+001 -1.270000e+002
    endloop
  endfacet
  facet normal 1.000000e+000 2.098059e-016 -6.993531e-017
    outer loop
      vertex   5.079286e+001 -5.080774e+001 -2.286000e+002
      vertex   5.079286e+001 5.079226e+001 -2.286000e+002
      vertex   5.079286e+001 5.079226e+001 -1.270000e+002
    endloop
  endfacet
  facet normal 1.000000e+000 2.754301e-016 -9.755819e-017
    outer loop
      vertex   5.079286e+001 1.023874e+002 -1.270000e+002
      vertex   5.079286e+001 6.428740e+001 -8.890000e+001
      vertex   5.079286e+001 5.079226e+001 -1.270000e+002
    endloop
  endfacet
  facet normal 1.000000e+000 2.610918e-016 -1.118965e-016
    outer loop
      vertex   5.079286e+001 1.023874e+002 -1.270000e+002
      vertex   5.079286e+001 1.023874e+002 0.000000e+000
      vertex   5.079286e+001 6.428740e+001 -8.890000e+001
    endloop
  endfacet
  facet normal 1.000000e+000 3.729883e-016 -1.598521e-016
    outer loop
      vertex   5.079286e+001 6.428740e+001 -8.890000e+001
      vertex   5.079286e+001 1.023874e+002 0.000000e+000
      vertex   5.079286e+001 6.428740e+001 0.000000e+000
    endloop
  endfacet
  facet normal 1.000000e+000 2.797412e-016 -9.908519e-017
    outer loop
      vertex   5.079286e+001 6.428740e+001 -8.890000e+001
      vertex   5.079286e+001 -6.271260e+001 -8.890000e+001
      vertex   5.079286e+001 5.079226e+001 -1.270000e+002
    endloop
  endfacet
  facet normal 1.000000e+000 2.098059e-016 -3.074316e-016
    outer loop
      vertex   5.079286e+001 5.079226e+001 -1.270000e+002
      vertex   5.079286e+001 -6.271260e+001 -8.890000e+001
      vertex   5.079286e+001 -5.080774e+001 -1.270000e+002
    endloop
  endfacet
  facet normal 1.000000e+000 2.841894e-016 -2.841894e-016
    outer loop
      vertex   5.079286e+001 -5.080774e+001 -1.270000e+002
      vertex   5.079286e+001 -6.271260e+001 -8.890000e+001
      vertex   5.079286e+001 -1.008126e+002 -1.270000e+002
    endloop
  endfacet
  facet normal 1.000000e+000 1.678447e-016 -1.678447e-016
    outer loop
      vertex   5.079286e+001 -1.008126e+002 -1.270000e+002
      vertex   5.079286e+001 -6.271260e+001 -8.890000e+001
      vertex   5.079286e+001 -1.008126e+002 3.552714e-014
    endloop
  endfacet
  facet normal 1.000000e+000 3.729883e-016 -7.992607e-017
    outer loop
      vertex   5.079286e+001 -1.008126e+002 3.552714e-014
      vertex   5.079286e+001 -6.271260e+001 -8.890000e+001
      vertex   5.079286e+001 -6.271260e+001 3.552714e-014
    endloop
  endfacet
  facet normal -6.824241e-002 -9.976688e-001 8.351970e-018
    outer loop
      vertex   -3.465770e+000 -2.517116e+001 -2.286000e+002
      vertex   -3.465770e+000 -2.517116e+001 -3.048000e+002
      vertex   -7.137494e-003 -2.540774e+001 -2.286000e+002
    endloop
  endfacet
  facet normal -2.034560e-001 -9.790841e-001 2.521671e-017
    outer loop
      vertex   -3.465770e+000 -2.517116e+001 -2.286000e+002
      vertex   -6.859975e+000 -2.446583e+001 -3.048000e+002
      vertex   -3.465770e+000 -2.517116e+001 -3.048000e+002
    endloop
  endfacet
  facet normal -2.034560e-001 -9.790841e-001 2.608606e-017
    outer loop
      vertex   -3.465770e+000 -2.517116e+001 -2.286000e+002
      vertex   -6.859975e+000 -2.446583e+001 -2.286000e+002
      vertex   -6.859975e+000 -2.446583e+001 -3.048000e+002
    endloop
  endfacet
  facet normal -3.348796e-001 -9.422609e-001 4.293650e-017
    outer loop
      vertex   -6.859975e+000 -2.446583e+001 -3.048000e+002
      vertex   -6.859975e+000 -2.446583e+001 -2.286000e+002
      vertex   -1.012653e+001 -2.330490e+001 -3.048000e+002
    endloop
  endfacet
  facet normal -3.348796e-001 -9.422609e-001 4.539008e-017
    outer loop
      vertex   -1.012653e+001 -2.330490e+001 -3.048000e+002
      vertex   -6.859975e+000 -2.446583e+001 -2.286000e+002
      vertex   -1.012653e+001 -2.330490e+001 -2.286000e+002
    endloop
  endfacet
  facet normal -4.600650e-001 -8.878852e-001 6.388233e-017
    outer loop
      vertex   -1.320457e+001 -2.170999e+001 -3.048000e+002
      vertex   -1.012653e+001 -2.330490e+001 -2.286000e+002
      vertex   -1.320457e+001 -2.170999e+001 -2.286000e+002
    endloop
  endfacet
  facet normal -5.766803e-001 -8.169699e-001 8.069347e-017
    outer loop
      vertex   -1.603677e+001 -1.971080e+001 -3.048000e+002
      vertex   -1.320457e+001 -2.170999e+001 -2.286000e+002
      vertex   -1.603677e+001 -1.971080e+001 -2.286000e+002
    endloop
  endfacet
  facet normal -6.825531e-001 -7.308360e-001 6.388233e-017
    outer loop
      vertex   -1.857037e+001 -1.734459e+001 -3.048000e+002
      vertex   -1.603677e+001 -1.971080e+001 -2.286000e+002
      vertex   -1.857037e+001 -1.734459e+001 -2.286000e+002
    endloop
  endfacet
  facet normal -7.757113e-001 -6.310879e-001 7.060679e-017
    outer loop
      vertex   -2.075817e+001 -1.465542e+001 -3.048000e+002
      vertex   -1.857037e+001 -1.734459e+001 -2.286000e+002
      vertex   -2.075817e+001 -1.465542e+001 -2.286000e+002
    endloop
  endfacet
  facet normal -8.544194e-001 -5.195840e-001 1.210402e-016
    outer loop
      vertex   -2.255942e+001 -1.169339e+001 -3.048000e+002
      vertex   -2.075817e+001 -1.465542e+001 -2.286000e+002
      vertex   -2.255942e+001 -1.169339e+001 -2.286000e+002
    endloop
  endfacet
  facet normal -9.172113e-001 -3.984011e-001 1.277647e-016
    outer loop
      vertex   -2.394056e+001 -8.513678e+000 -3.048000e+002
      vertex   -2.255942e+001 -1.169339e+001 -2.286000e+002
      vertex   -2.394056e+001 -8.513678e+000 -2.286000e+002
    endloop
  endfacet
  facet normal -9.629173e-001 -2.697968e-001 1.344891e-016
    outer loop
      vertex   -2.487587e+001 -5.175518e+000 -3.048000e+002
      vertex   -2.394056e+001 -8.513678e+000 -2.286000e+002
      vertex   -2.487587e+001 -5.175518e+000 -2.286000e+002
    endloop
  endfacet
  facet normal -9.906859e-001 -1.361666e-001 9.246127e-017
    outer loop
      vertex   -2.534792e+001 -1.741093e+000 -3.048000e+002
      vertex   -2.487587e+001 -5.175518e+000 -2.286000e+002
      vertex   -2.534792e+001 -1.741093e+000 -2.286000e+002
    endloop
  endfacet
  facet normal -1.000000e+000 0.000000e+000 9.324708e-017
    outer loop
      vertex   -2.534792e+001 1.725622e+000 -3.048000e+002
      vertex   -2.534792e+001 -1.741093e+000 -2.286000e+002
      vertex   -2.534792e+001 1.725622e+000 -2.286000e+002
    endloop
  endfacet
  facet normal -9.906859e-001 1.361666e-001 1.386919e-016
    outer loop
      vertex   -2.487587e+001 5.160047e+000 -3.048000e+002
      vertex   -2.534792e+001 1.725622e+000 -2.286000e+002
      vertex   -2.487587e+001 5.160047e+000 -2.286000e+002
    endloop
  endfacet
  facet normal -9.629173e-001 2.697968e-001 1.344891e-016
    outer loop
      vertex   -2.394056e+001 8.498207e+000 -3.048000e+002
      vertex   -2.487587e+001 5.160047e+000 -2.286000e+002
      vertex   -2.394056e+001 8.498207e+000 -2.286000e+002
    endloop
  endfacet
  facet normal -9.172113e-001 3.984011e-001 1.277647e-016
    outer loop
      vertex   -2.255942e+001 1.167792e+001 -3.048000e+002
      vertex   -2.394056e+001 8.498207e+000 -2.286000e+002
      vertex   -2.255942e+001 1.167792e+001 -2.286000e+002
    endloop
  endfacet
  facet normal -8.544194e-001 5.195840e-001 7.733124e-017
    outer loop
      vertex   -2.075817e+001 1.463994e+001 -3.048000e+002
      vertex   -2.255942e+001 1.167792e+001 -2.286000e+002
      vertex   -2.075817e+001 1.463994e+001 -2.286000e+002
    endloop
  endfacet
  facet normal -7.757113e-001 6.310879e-001 7.060679e-017
    outer loop
      vertex   -1.857037e+001 1.732911e+001 -3.048000e+002
      vertex   -2.075817e+001 1.463994e+001 -2.286000e+002
      vertex   -1.857037e+001 1.732911e+001 -2.286000e+002
    endloop
  endfacet
  facet normal -6.825531e-001 7.308360e-001 9.414238e-017
    outer loop
      vertex   -1.603677e+001 1.969533e+001 -3.048000e+002
      vertex   -1.857037e+001 1.732911e+001 -2.286000e+002
      vertex   -1.603677e+001 1.969533e+001 -2.286000e+002
    endloop
  endfacet
  facet normal -5.766803e-001 8.169699e-001 6.724456e-017
    outer loop
      vertex   -1.320457e+001 2.169452e+001 -3.048000e+002
      vertex   -1.603677e+001 1.969533e+001 -2.286000e+002
      vertex   -1.320457e+001 2.169452e+001 -2.286000e+002
    endloop
  endfacet
  facet normal -4.600650e-001 8.878852e-001 6.388233e-017
    outer loop
      vertex   -1.012653e+001 2.328943e+001 -3.048000e+002
      vertex   -1.320457e+001 2.169452e+001 -2.286000e+002
      vertex   -1.012653e+001 2.328943e+001 -2.286000e+002
    endloop
  endfacet
  facet normal -3.348796e-001 9.422609e-001 4.202785e-017
    outer loop
      vertex   -6.859975e+000 2.445036e+001 -3.048000e+002
      vertex   -1.012653e+001 2.328943e+001 -2.286000e+002
      vertex   -6.859975e+000 2.445036e+001 -2.286000e+002
    endloop
  endfacet
  facet normal -2.034560e-001 9.790841e-001 2.689782e-017
    outer loop
      vertex   -3.465770e+000 2.515569e+001 -3.048000e+002
      vertex   -6.859975e+000 2.445036e+001 -2.286000e+002
      vertex   -3.465770e+000 2.515569e+001 -2.286000e+002
    endloop
  endfacet
  facet normal -6.824241e-002 9.976688e-001 8.405570e-018
    outer loop
      vertex   -7.137494e-003 2.539226e+001 -3.048000e+002
      vertex   -3.465770e+000 2.515569e+001 -2.286000e+002
      vertex   -7.137494e-003 2.539226e+001 -2.286000e+002
    endloop
  endfacet
  facet normal 6.824241e-002 9.976688e-001 -8.825848e-018
    outer loop
      vertex   3.451495e+000 2.515569e+001 -3.048000e+002
      vertex   -7.137494e-003 2.539226e+001 -2.286000e+002
      vertex   3.451495e+000 2.515569e+001 -2.286000e+002
    endloop
  endfacet
  facet normal 2.034560e-001 9.790841e-001 -2.689782e-017
    outer loop
      vertex   6.845700e+000 2.445036e+001 -3.048000e+002
      vertex   3.451495e+000 2.515569e+001 -2.286000e+002
      vertex   6.845700e+000 2.445036e+001 -2.286000e+002
    endloop
  endfacet
  facet normal 3.348796e-001 9.422609e-001 -4.707119e-017
    outer loop
      vertex   1.011225e+001 2.328943e+001 -3.048000e+002
      vertex   6.845700e+000 2.445036e+001 -2.286000e+002
      vertex   1.011225e+001 2.328943e+001 -2.286000e+002
    endloop
  endfacet
  facet normal 4.600650e-001 8.878852e-001 -5.379565e-017
    outer loop
      vertex   1.319029e+001 2.169452e+001 -3.048000e+002
      vertex   1.011225e+001 2.328943e+001 -2.286000e+002
      vertex   1.319029e+001 2.169452e+001 -2.286000e+002
    endloop
  endfacet
  facet normal 5.766803e-001 8.169699e-001 -8.069347e-017
    outer loop
      vertex   1.602250e+001 1.969533e+001 -3.048000e+002
      vertex   1.319029e+001 2.169452e+001 -2.286000e+002
      vertex   1.602250e+001 1.969533e+001 -2.286000e+002
    endloop
  endfacet
  facet normal 6.825531e-001 7.308360e-001 -6.388233e-017
    outer loop
      vertex   1.855610e+001 1.732911e+001 -3.048000e+002
      vertex   1.602250e+001 1.969533e+001 -2.286000e+002
      vertex   1.855610e+001 1.732911e+001 -2.286000e+002
    endloop
  endfacet
  facet normal 7.757113e-001 6.310879e-001 -7.060679e-017
    outer loop
      vertex   2.074390e+001 1.463994e+001 -3.048000e+002
      vertex   1.855610e+001 1.732911e+001 -2.286000e+002
      vertex   2.074390e+001 1.463994e+001 -2.286000e+002
    endloop
  endfacet
  facet normal 8.544194e-001 5.195840e-001 -1.210402e-016
    outer loop
      vertex   2.254515e+001 1.167792e+001 -3.048000e+002
      vertex   2.074390e+001 1.463994e+001 -2.286000e+002
      vertex   2.254515e+001 1.167792e+001 -2.286000e+002
    endloop
  endfacet
  facet normal 9.172113e-001 3.984011e-001 -1.277647e-016
    outer loop
      vertex   2.392629e+001 8.498207e+000 -3.048000e+002
      vertex   2.254515e+001 1.167792e+001 -2.286000e+002
      vertex   2.392629e+001 8.498207e+000 -2.286000e+002
    endloop
  endfacet
  facet normal 9.629173e-001 2.697968e-001 -1.344891e-016
    outer loop
      vertex   2.486160e+001 5.160047e+000 -3.048000e+002
      vertex   2.392629e+001 8.498207e+000 -2.286000e+002
      vertex   2.486160e+001 5.160047e+000 -2.286000e+002
    endloop
  endfacet
  facet normal 9.906859e-001 1.361666e-001 -9.246127e-017
    outer loop
      vertex   2.533365e+001 1.725622e+000 -3.048000e+002
      vertex   2.486160e+001 5.160047e+000 -2.286000e+002
      vertex   2.533365e+001 1.725622e+000 -2.286000e+002
    endloop
  endfacet
  facet normal 1.000000e+000 0.000000e+000 -9.324708e-017
    outer loop
      vertex   2.533365e+001 -1.741093e+000 -3.048000e+002
      vertex   2.533365e+001 1.725622e+000 -2.286000e+002
      vertex   2.533365e+001 -1.741093e+000 -2.286000e+002
    endloop
  endfacet
  facet normal 9.906859e-001 -1.361666e-001 -1.386919e-016
    outer loop
      vertex   2.486160e+001 -5.175518e+000 -3.048000e+002
      vertex   2.533365e+001 -1.741093e+000 -2.286000e+002
      vertex   2.486160e+001 -5.175518e+000 -2.286000e+002
    endloop
  endfacet
  facet normal 9.629173e-001 -2.697968e-001 -1.344891e-016
    outer loop
      vertex   2.392629e+001 -8.513678e+000 -3.048000e+002
      vertex   2.486160e+001 -5.175518e+000 -2.286000e+002
      vertex   2.392629e+001 -8.513678e+000 -2.286000e+002
    endloop
  endfacet
  facet normal 9.172113e-001 -3.984011e-001 -1.277647e-016
    outer loop
      vertex   2.254515e+001 -1.169339e+001 -3.048000e+002
      vertex   2.392629e+001 -8.513678e+000 -2.286000e+002
      vertex   2.254515e+001 -1.169339e+001 -2.286000e+002
    endloop
  endfacet
  facet normal 8.544194e-001 -5.195840e-001 -7.733124e-017
    outer loop
      vertex   2.074390e+001 -1.465542e+001 -3.048000e+002
      vertex   2.254515e+001 -1.169339e+001 -2.286000e+002
      vertex   2.074390e+001 -1.465542e+001 -2.286000e+002
    endloop
  endfacet
  facet normal 7.757113e-001 -6.310879e-001 -7.060679e-017
    outer loop
      vertex   1.855610e+001 -1.734459e+001 -3.048000e+002
      vertex   2.074390e+001 -1.465542e+001 -2.286000e+002
      vertex   1.855610e+001 -1.734459e+001 -2.286000e+002
    endloop
  endfacet
  facet normal 6.825531e-001 -7.308360e-001 -9.414238e-017
    outer loop
      vertex   1.602250e+001 -1.971080e+001 -3.048000e+002
      vertex   1.855610e+001 -1.734459e+001 -2.286000e+002
      vertex   1.602250e+001 -1.971080e+001 -2.286000e+002
    endloop
  endfacet
  facet normal 5.766803e-001 -8.169699e-001 -8.069347e-017
    outer loop
      vertex   1.319029e+001 -2.170999e+001 -3.048000e+002
      vertex   1.602250e+001 -1.971080e+001 -2.286000e+002
      vertex   1.319029e+001 -2.170999e+001 -2.286000e+002
    endloop
  endfacet
  facet normal 4.600650e-001 -8.878852e-001 -6.724456e-017
    outer loop
      vertex   1.011225e+001 -2.330490e+001 -3.048000e+002
      vertex   1.319029e+001 -2.170999e+001 -2.286000e+002
      vertex   1.011225e+001 -2.330490e+001 -2.286000e+002
    endloop
  endfacet
  facet normal 3.348796e-001 -9.422609e-001 -4.370896e-017
    outer loop
      vertex   6.845700e+000 -2.446583e+001 -3.048000e+002
      vertex   1.011225e+001 -2.330490e+001 -2.286000e+002
      vertex   6.845700e+000 -2.446583e+001 -2.286000e+002
    endloop
  endfacet
  facet normal 2.034560e-001 -9.790841e-001 -2.521671e-017
    outer loop
      vertex   3.451495e+000 -2.517116e+001 -3.048000e+002
      vertex   6.845700e+000 -2.446583e+001 -2.286000e+002
      vertex   3.451495e+000 -2.517116e+001 -2.286000e+002
    endloop
  endfacet
  facet normal 6.824241e-002 -9.976688e-001 -8.825848e-018
    outer loop
      vertex   -7.137494e-003 -2.540774e+001 -3.048000e+002
      vertex   3.451495e+000 -2.517116e+001 -2.286000e+002
      vertex   -7.137494e-003 -2.540774e+001 -2.286000e+002
    endloop
  endfacet
  facet normal -6.824241e-002 -9.976688e-001 8.451398e-018
    outer loop
      vertex   -3.465770e+000 -2.517116e+001 -3.048000e+002
      vertex   -7.137494e-003 -2.540774e+001 -3.048000e+002
      vertex   -7.137494e-003 -2.540774e+001 -2.286000e+002
    endloop
  endfacet
  facet normal -4.600650e-001 -8.878852e-001 6.434958e-017
    outer loop
      vertex   -1.012653e+001 -2.330490e+001 -3.048000e+002
      vertex   -1.012653e+001 -2.330490e+001 -2.286000e+002
      vertex   -1.320457e+001 -2.170999e+001 -3.048000e+002
    endloop
  endfacet
  facet normal -5.766803e-001 -8.169699e-001 8.066063e-017
    outer loop
      vertex   -1.320457e+001 -2.170999e+001 -3.048000e+002
      vertex   -1.320457e+001 -2.170999e+001 -2.286000e+002
      vertex   -1.603677e+001 -1.971080e+001 -3.048000e+002
    endloop
  endfacet
  facet normal -6.825531e-001 -7.308360e-001 9.546913e-017
    outer loop
      vertex   -1.603677e+001 -1.971080e+001 -3.048000e+002
      vertex   -1.603677e+001 -1.971080e+001 -2.286000e+002
      vertex   -1.857037e+001 -1.734459e+001 -3.048000e+002
    endloop
  endfacet
  facet normal -7.757113e-001 -6.310879e-001 7.233281e-017
    outer loop
      vertex   -1.857037e+001 -1.734459e+001 -3.048000e+002
      vertex   -1.857037e+001 -1.734459e+001 -2.286000e+002
      vertex   -2.075817e+001 -1.465542e+001 -3.048000e+002
    endloop
  endfacet
  facet normal -8.544194e-001 -5.195840e-001 7.967211e-017
    outer loop
      vertex   -2.075817e+001 -1.465542e+001 -3.048000e+002
      vertex   -2.075817e+001 -1.465542e+001 -2.286000e+002
      vertex   -2.255942e+001 -1.169339e+001 -3.048000e+002
    endloop
  endfacet
  facet normal -9.172113e-001 -3.984011e-001 1.282909e-016
    outer loop
      vertex   -2.255942e+001 -1.169339e+001 -3.048000e+002
      vertex   -2.255942e+001 -1.169339e+001 -2.286000e+002
      vertex   -2.394056e+001 -8.513678e+000 -3.048000e+002
    endloop
  endfacet
  facet normal -9.629173e-001 -2.697968e-001 1.346838e-016
    outer loop
      vertex   -2.394056e+001 -8.513678e+000 -3.048000e+002
      vertex   -2.394056e+001 -8.513678e+000 -2.286000e+002
      vertex   -2.487587e+001 -5.175518e+000 -3.048000e+002
    endloop
  endfacet
  facet normal -9.906859e-001 -1.361666e-001 1.385679e-016
    outer loop
      vertex   -2.487587e+001 -5.175518e+000 -3.048000e+002
      vertex   -2.487587e+001 -5.175518e+000 -2.286000e+002
      vertex   -2.534792e+001 -1.741093e+000 -3.048000e+002
    endloop
  endfacet
  facet normal -1.000000e+000 0.000000e+000 9.324708e-017
    outer loop
      vertex   -2.534792e+001 -1.741093e+000 -3.048000e+002
      vertex   -2.534792e+001 -1.741093e+000 -2.286000e+002
      vertex   -2.534792e+001 1.725622e+000 -3.048000e+002
    endloop
  endfacet
  facet normal -9.906859e-001 1.361666e-001 9.237857e-017
    outer loop
      vertex   -2.534792e+001 1.725622e+000 -3.048000e+002
      vertex   -2.534792e+001 1.725622e+000 -2.286000e+002
      vertex   -2.487587e+001 5.160047e+000 -3.048000e+002
    endloop
  endfacet
  facet normal -9.629173e-001 2.697968e-001 1.346838e-016
    outer loop
      vertex   -2.487587e+001 5.160047e+000 -3.048000e+002
      vertex   -2.487587e+001 5.160047e+000 -2.286000e+002
      vertex   -2.394056e+001 8.498207e+000 -3.048000e+002
    endloop
  endfacet
  facet normal -9.172113e-001 3.984011e-001 1.282909e-016
    outer loop
      vertex   -2.394056e+001 8.498207e+000 -3.048000e+002
      vertex   -2.394056e+001 8.498207e+000 -2.286000e+002
      vertex   -2.255942e+001 1.167792e+001 -3.048000e+002
    endloop
  endfacet
  facet normal -8.544194e-001 5.195840e-001 1.195082e-016
    outer loop
      vertex   -2.255942e+001 1.167792e+001 -3.048000e+002
      vertex   -2.255942e+001 1.167792e+001 -2.286000e+002
      vertex   -2.075817e+001 1.463994e+001 -3.048000e+002
    endloop
  endfacet
  facet normal -7.757113e-001 6.310879e-001 7.233281e-017
    outer loop
      vertex   -2.075817e+001 1.463994e+001 -3.048000e+002
      vertex   -2.075817e+001 1.463994e+001 -2.286000e+002
      vertex   -1.857037e+001 1.732911e+001 -3.048000e+002
    endloop
  endfacet
  facet normal -6.825531e-001 7.308360e-001 6.364609e-017
    outer loop
      vertex   -1.857037e+001 1.732911e+001 -3.048000e+002
      vertex   -1.857037e+001 1.732911e+001 -2.286000e+002
      vertex   -1.603677e+001 1.969533e+001 -3.048000e+002
    endloop
  endfacet
  facet normal -5.766803e-001 8.169699e-001 8.066063e-017
    outer loop
      vertex   -1.603677e+001 1.969533e+001 -3.048000e+002
      vertex   -1.603677e+001 1.969533e+001 -2.286000e+002
      vertex   -1.320457e+001 2.169452e+001 -3.048000e+002
    endloop
  endfacet
  facet normal -4.600650e-001 8.878852e-001 5.362465e-017
    outer loop
      vertex   -1.320457e+001 2.169452e+001 -3.048000e+002
      vertex   -1.320457e+001 2.169452e+001 -2.286000e+002
      vertex   -1.012653e+001 2.328943e+001 -3.048000e+002
    endloop
  endfacet
  facet normal -3.348796e-001 9.422609e-001 4.683982e-017
    outer loop
      vertex   -1.012653e+001 2.328943e+001 -3.048000e+002
      vertex   -1.012653e+001 2.328943e+001 -2.286000e+002
      vertex   -6.859975e+000 2.445036e+001 -3.048000e+002
    endloop
  endfacet
  facet normal -2.034560e-001 9.790841e-001 2.608606e-017
    outer loop
      vertex   -6.859975e+000 2.445036e+001 -3.048000e+002
      vertex   -6.859975e+000 2.445036e+001 -2.286000e+002
      vertex   -3.465770e+000 2.515569e+001 -3.048000e+002
    endloop
  endfacet
  facet normal -6.824241e-002 9.976688e-001 8.749683e-018
    outer loop
      vertex   -3.465770e+000 2.515569e+001 -3.048000e+002
      vertex   -3.465770e+000 2.515569e+001 -2.286000e+002
      vertex   -7.137494e-003 2.539226e+001 -3.048000e+002
    endloop
  endfacet
  facet normal 6.824241e-002 9.976688e-001 -8.451398e-018
    outer loop
      vertex   -7.137494e-003 2.539226e+001 -3.048000e+002
      vertex   -7.137494e-003 2.539226e+001 -2.286000e+002
      vertex   3.451495e+000 2.515569e+001 -3.048000e+002
    endloop
  endfacet
  facet normal 2.034560e-001 9.790841e-001 -2.608606e-017
    outer loop
      vertex   3.451495e+000 2.515569e+001 -3.048000e+002
      vertex   3.451495e+000 2.515569e+001 -2.286000e+002
      vertex   6.845700e+000 2.445036e+001 -3.048000e+002
    endloop
  endfacet
  facet normal 3.348796e-001 9.422609e-001 -4.293650e-017
    outer loop
      vertex   6.845700e+000 2.445036e+001 -3.048000e+002
      vertex   6.845700e+000 2.445036e+001 -2.286000e+002
      vertex   1.011225e+001 2.328943e+001 -3.048000e+002
    endloop
  endfacet
  facet normal 4.600650e-001 8.878852e-001 -6.434958e-017
    outer loop
      vertex   1.011225e+001 2.328943e+001 -3.048000e+002
      vertex   1.011225e+001 2.328943e+001 -2.286000e+002
      vertex   1.319029e+001 2.169452e+001 -3.048000e+002
    endloop
  endfacet
  facet normal 5.766803e-001 8.169699e-001 -6.721719e-017
    outer loop
      vertex   1.319029e+001 2.169452e+001 -3.048000e+002
      vertex   1.319029e+001 2.169452e+001 -2.286000e+002
      vertex   1.602250e+001 1.969533e+001 -3.048000e+002
    endloop
  endfacet
  facet normal 6.825531e-001 7.308360e-001 -9.546913e-017
    outer loop
      vertex   1.602250e+001 1.969533e+001 -3.048000e+002
      vertex   1.602250e+001 1.969533e+001 -2.286000e+002
      vertex   1.855610e+001 1.732911e+001 -3.048000e+002
    endloop
  endfacet
  facet normal 7.757113e-001 6.310879e-001 -7.233281e-017
    outer loop
      vertex   1.855610e+001 1.732911e+001 -3.048000e+002
      vertex   1.855610e+001 1.732911e+001 -2.286000e+002
      vertex   2.074390e+001 1.463994e+001 -3.048000e+002
    endloop
  endfacet
  facet normal 8.544194e-001 5.195840e-001 -7.967211e-017
    outer loop
      vertex   2.074390e+001 1.463994e+001 -3.048000e+002
      vertex   2.074390e+001 1.463994e+001 -2.286000e+002
      vertex   2.254515e+001 1.167792e+001 -3.048000e+002
    endloop
  endfacet
  facet normal 9.172113e-001 3.984011e-001 -1.282909e-016
    outer loop
      vertex   2.254515e+001 1.167792e+001 -3.048000e+002
      vertex   2.254515e+001 1.167792e+001 -2.286000e+002
      vertex   2.392629e+001 8.498207e+000 -3.048000e+002
    endloop
  endfacet
  facet normal 9.629173e-001 2.697968e-001 -1.346838e-016
    outer loop
      vertex   2.392629e+001 8.498207e+000 -3.048000e+002
      vertex   2.392629e+001 8.498207e+000 -2.286000e+002
      vertex   2.486160e+001 5.160047e+000 -3.048000e+002
    endloop
  endfacet
  facet normal 9.906859e-001 1.361666e-001 -1.385679e-016
    outer loop
      vertex   2.486160e+001 5.160047e+000 -3.048000e+002
      vertex   2.486160e+001 5.160047e+000 -2.286000e+002
      vertex   2.533365e+001 1.725622e+000 -3.048000e+002
    endloop
  endfacet
  facet normal 1.000000e+000 0.000000e+000 -9.324708e-017
    outer loop
      vertex   2.533365e+001 1.725622e+000 -3.048000e+002
      vertex   2.533365e+001 1.725622e+000 -2.286000e+002
      vertex   2.533365e+001 -1.741093e+000 -3.048000e+002
    endloop
  endfacet
  facet normal 9.906859e-001 -1.361666e-001 -9.237857e-017
    outer loop
      vertex   2.533365e+001 -1.741093e+000 -3.048000e+002
      vertex   2.533365e+001 -1.741093e+000 -2.286000e+002
      vertex   2.486160e+001 -5.175518e+000 -3.048000e+002
    endloop
  endfacet
  facet normal 9.629173e-001 -2.697968e-001 -1.346838e-016
    outer loop
      vertex   2.486160e+001 -5.175518e+000 -3.048000e+002
      vertex   2.486160e+001 -5.175518e+000 -2.286000e+002
      vertex   2.392629e+001 -8.513678e+000 -3.048000e+002
    endloop
  endfacet
  facet normal 9.172113e-001 -3.984011e-001 -1.282909e-016
    outer loop
      vertex   2.392629e+001 -8.513678e+000 -3.048000e+002
      vertex   2.392629e+001 -8.513678e+000 -2.286000e+002
      vertex   2.254515e+001 -1.169339e+001 -3.048000e+002
    endloop
  endfacet
  facet normal 8.544194e-001 -5.195840e-001 -1.195082e-016
    outer loop
      vertex   2.254515e+001 -1.169339e+001 -3.048000e+002
      vertex   2.254515e+001 -1.169339e+001 -2.286000e+002
      vertex   2.074390e+001 -1.465542e+001 -3.048000e+002
    endloop
  endfacet
  facet normal 7.757113e-001 -6.310879e-001 -7.233281e-017
    outer loop
      vertex   2.074390e+001 -1.465542e+001 -3.048000e+002
      vertex   2.074390e+001 -1.465542e+001 -2.286000e+002
      vertex   1.855610e+001 -1.734459e+001 -3.048000e+002
    endloop
  endfacet
  facet normal 6.825531e-001 -7.308360e-001 -6.364609e-017
    outer loop
      vertex   1.855610e+001 -1.734459e+001 -3.048000e+002
      vertex   1.855610e+001 -1.734459e+001 -2.286000e+002
      vertex   1.602250e+001 -1.971080e+001 -3.048000e+002
    endloop
  endfacet
  facet normal 5.766803e-001 -8.169699e-001 -8.066063e-017
    outer loop
      vertex   1.602250e+001 -1.971080e+001 -3.048000e+002
      vertex   1.602250e+001 -1.971080e+001 -2.286000e+002
      vertex   1.319029e+001 -2.170999e+001 -3.048000e+002
    endloop
  endfacet
  facet normal 4.600650e-001 -8.878852e-001 -6.434958e-017
    outer loop
      vertex   1.319029e+001 -2.170999e+001 -3.048000e+002
      vertex   1.319029e+001 -2.170999e+001 -2.286000e+002
      vertex   1.011225e+001 -2.330490e+001 -3.048000e+002
    endloop
  endfacet
  facet normal 3.348796e-001 -9.422609e-001 -4.683982e-017
    outer loop
      vertex   1.011225e+001 -2.330490e+001 -3.048000e+002
      vertex   1.011225e+001 -2.330490e+001 -2.286000e+002
      vertex   6.845700e+000 -2.446583e+001 -3.048000e+002
    endloop
  endfacet
  facet normal 2.034560e-001 -9.790841e-001 -2.608606e-017
    outer loop
      vertex   6.845700e+000 -2.446583e+001 -3.048000e+002
      vertex   6.845700e+000 -2.446583e+001 -2.286000e+002
      vertex   3.451495e+000 -2.517116e+001 -3.048000e+002
    endloop
  endfacet
  facet normal 6.824241e-002 -9.976688e-001 -8.351970e-018
    outer loop
      vertex   3.451495e+000 -2.517116e+001 -3.048000e+002
      vertex   3.451495e+000 -2.517116e+001 -2.286000e+002
      vertex   -7.137494e-003 -2.540774e+001 -3.048000e+002
    endloop
  endfacet
  facet normal 0.000000e+000 0.000000e+000 -1.000000e+000
    outer loop
      vertex   -3.465770e+000 -2.517116e+001 -3.048000e+002
      vertex   -3.465770e+000 2.515569e+001 -3.048000e+002
      vertex   -7.137494e-003 -2.540774e+001 -3.048000e+002
    endloop
  endfacet
  facet normal 0.000000e+000 0.000000e+000 -1.000000e+000
    outer loop
      vertex   -3.465770e+000 -2.517116e+001 -3.048000e+002
      vertex   -6.859975e+000 2.445036e+001 -3.048000e+002
      vertex   -3.465770e+000 2.515569e+001 -3.048000e+002
    endloop
  endfacet
  facet normal 0.000000e+000 0.000000e+000 -1.000000e+000
    outer loop
      vertex   -3.465770e+000 -2.517116e+001 -3.048000e+002
      vertex   -6.859975e+000 -2.446583e+001 -3.048000e+002
      vertex   -6.859975e+000 2.445036e+001 -3.048000e+002
    endloop
  endfacet
  facet normal -0.000000e+000 -0.000000e+000 -1.000000e+000
    outer loop
      vertex   -6.859975e+000 2.445036e+001 -3.048000e+002
      vertex   -6.859975e+000 -2.446583e+001 -3.048000e+002
      vertex   -1.012653e+001 2.328943e+001 -3.048000e+002
    endloop
  endfacet
  facet normal -0.000000e+000 -0.000000e+000 -1.000000e+000
    outer loop
      vertex   -1.012653e+001 2.328943e+001 -3.048000e+002
      vertex   -6.859975e+000 -2.446583e+001 -3.048000e+002
      vertex   -1.012653e+001 -2.330490e+001 -3.048000e+002
    endloop
  endfacet
  facet normal -0.000000e+000 -0.000000e+000 -1.000000e+000
    outer loop
      vertex   -1.320457e+001 2.169452e+001 -3.048000e+002
      vertex   -1.012653e+001 -2.330490e+001 -3.048000e+002
      vertex   -1.320457e+001 -2.170999e+001 -3.048000e+002
    endloop
  endfacet
  facet normal -0.000000e+000 -0.000000e+000 -1.000000e+000
    outer loop
      vertex   -1.603677e+001 1.969533e+001 -3.048000e+002
      vertex   -1.320457e+001 -2.170999e+001 -3.048000e+002
      vertex   -1.603677e+001 -1.971080e+001 -3.048000e+002
    endloop
  endfacet
  facet normal -0.000000e+000 -0.000000e+000 -1.000000e+000
    outer loop
      vertex   -1.857037e+001 1.732911e+001 -3.048000e+002
      vertex   -1.603677e+001 -1.971080e+001 -3.048000e+002
      vertex   -1.857037e+001 -1.734459e+001 -3.048000e+002
    endloop
  endfacet
  facet normal -0.000000e+000 -0.000000e+000 -1.000000e+000
    outer loop
      vertex   -2.075817e+001 1.463994e+001 -3.048000e+002
      vertex   -1.857037e+001 -1.734459e+001 -3.048000e+002
      vertex   -2.075817e+001 -1.465542e+001 -3.048000e+002
    endloop
  endfacet
  facet normal -0.000000e+000 -0.000000e+000 -1.000000e+000
    outer loop
      vertex   -2.255942e+001 1.167792e+001 -3.048000e+002
      vertex   -2.075817e+001 -1.465542e+001 -3.048000e+002
      vertex   -2.255942e+001 -1.169339e+001 -3.048000e+002
    endloop
  endfacet
  facet normal -0.000000e+000 -0.000000e+000 -1.000000e+000
    outer loop
      vertex   -2.394056e+001 8.498207e+000 -3.048000e+002
      vertex   -2.255942e+001 -1.169339e+001 -3.048000e+002
      vertex   -2.394056e+001 -8.513678e+000 -3.048000e+002
    endloop
  endfacet
  facet normal -0.000000e+000 -0.000000e+000 -1.000000e+000
    outer loop
      vertex   -2.487587e+001 5.160047e+000 -3.048000e+002
      vertex   -2.394056e+001 -8.513678e+000 -3.048000e+002
      vertex   -2.487587e+001 -5.175518e+000 -3.048000e+002
    endloop
  endfacet
  facet normal -0.000000e+000 -0.000000e+000 -1.000000e+000
    outer loop
      vertex   -2.534792e+001 1.725622e+000 -3.048000e+002
      vertex   -2.487587e+001 -5.175518e+000 -3.048000e+002
      vertex   -2.534792e+001 -1.741093e+000 -3.048000e+002
    endloop
  endfacet
  facet normal 0.000000e+000 0.000000e+000 -1.000000e+000
    outer loop
      vertex   -2.534792e+001 1.725622e+000 -3.048000e+002
      vertex   -2.487587e+001 5.160047e+000 -3.048000e+002
      vertex   -2.487587e+001 -5.175518e+000 -3.048000e+002
    endloop
  endfacet
  facet normal -0.000000e+000 -0.000000e+000 -1.000000e+000
    outer loop
      vertex   -1.012653e+001 2.328943e+001 -3.048000e+002
      vertex   -1.012653e+001 -2.330490e+001 -3.048000e+002
      vertex   -1.320457e+001 2.169452e+001 -3.048000e+002
    endloop
  endfacet
  facet normal -0.000000e+000 -0.000000e+000 -1.000000e+000
    outer loop
      vertex   -1.320457e+001 2.169452e+001 -3.048000e+002
      vertex   -1.320457e+001 -2.170999e+001 -3.048000e+002
      vertex   -1.603677e+001 1.969533e+001 -3.048000e+002
    endloop
  endfacet
  facet normal -0.000000e+000 -0.000000e+000 -1.000000e+000
    outer loop
      vertex   -1.603677e+001 1.969533e+001 -3.048000e+002
      vertex   -1.603677e+001 -1.971080e+001 -3.048000e+002
      vertex   -1.857037e+001 1.732911e+001 -3.048000e+002
    endloop
  endfacet
  facet normal -0.000000e+000 -0.000000e+000 -1.000000e+000
    outer loop
      vertex   -1.857037e+001 1.732911e+001 -3.048000e+002
      vertex   -1.857037e+001 -1.734459e+001 -3.048000e+002
      vertex   -2.075817e+001 1.463994e+001 -3.048000e+002
    endloop
  endfacet
  facet normal -0.000000e+000 -0.000000e+000 -1.000000e+000
    outer loop
      vertex   -2.075817e+001 1.463994e+001 -3.048000e+002
      vertex   -2.075817e+001 -1.465542e+001 -3.048000e+002
      vertex   -2.255942e+001 1.167792e+001 -3.048000e+002
    endloop
  endfacet
  facet normal -0.000000e+000 -0.000000e+000 -1.000000e+000
    outer loop
      vertex   -2.255942e+001 1.167792e+001 -3.048000e+002
      vertex   -2.255942e+001 -1.169339e+001 -3.048000e+002
      vertex   -2.394056e+001 8.498207e+000 -3.048000e+002
    endloop
  endfacet
  facet normal -0.000000e+000 -0.000000e+000 -1.000000e+000
    outer loop
      vertex   -2.394056e+001 8.498207e+000 -3.048000e+002
      vertex   -2.394056e+001 -8.513678e+000 -3.048000e+002
      vertex   -2.487587e+001 5.160047e+000 -3.048000e+002
    endloop
  endfacet
  facet normal 0.000000e+000 0.000000e+000 -1.000000e+000
    outer loop
      vertex   -3.465770e+000 2.515569e+001 -3.048000e+002
      vertex   -7.137494e-003 2.539226e+001 -3.048000e+002
      vertex   -7.137494e-003 -2.540774e+001 -3.048000e+002
    endloop
  endfacet
  facet normal 0.000000e+000 0.000000e+000 -1.000000e+000
    outer loop
      vertex   -7.137494e-003 -2.540774e+001 -3.048000e+002
      vertex   -7.137494e-003 2.539226e+001 -3.048000e+002
      vertex   3.451495e+000 -2.517116e+001 -3.048000e+002
    endloop
  endfacet
  facet normal 0.000000e+000 0.000000e+000 -1.000000e+000
    outer loop
      vertex   3.451495e+000 -2.517116e+001 -3.048000e+002
      vertex   -7.137494e-003 2.539226e+001 -3.048000e+002
      vertex   3.451495e+000 2.515569e+001 -3.048000e+002
    endloop
  endfacet
  facet normal 0.000000e+000 0.000000e+000 -1.000000e+000
    outer loop
      vertex   6.845700e+000 -2.446583e+001 -3.048000e+002
      vertex   3.451495e+000 2.515569e+001 -3.048000e+002
      vertex   6.845700e+000 2.445036e+001 -3.048000e+002
    endloop
  endfacet
  facet normal 0.000000e+000 0.000000e+000 -1.000000e+000
    outer loop
      vertex   1.011225e+001 -2.330490e+001 -3.048000e+002
      vertex   6.845700e+000 2.445036e+001 -3.048000e+002
      vertex   1.011225e+001 2.328943e+001 -3.048000e+002
    endloop
  endfacet
  facet normal 0.000000e+000 0.000000e+000 -1.000000e+000
    outer loop
      vertex   1.319029e+001 -2.170999e+001 -3.048000e+002
      vertex   1.011225e+001 2.328943e+001 -3.048000e+002
      vertex   1.319029e+001 2.169452e+001 -3.048000e+002
    endloop
  endfacet
  facet normal 0.000000e+000 0.000000e+000 -1.000000e+000
    outer loop
      vertex   1.602250e+001 -1.971080e+001 -3.048000e+002
      vertex   1.319029e+001 2.169452e+001 -3.048000e+002
      vertex   1.602250e+001 1.969533e+001 -3.048000e+002
    endloop
  endfacet
  facet normal 0.000000e+000 0.000000e+000 -1.000000e+000
    outer loop
      vertex   1.855610e+001 -1.734459e+001 -3.048000e+002
      vertex   1.602250e+001 1.969533e+001 -3.048000e+002
      vertex   1.855610e+001 1.732911e+001 -3.048000e+002
    endloop
  endfacet
  facet normal 0.000000e+000 0.000000e+000 -1.000000e+000
    outer loop
      vertex   2.074390e+001 -1.465542e+001 -3.048000e+002
      vertex   1.855610e+001 1.732911e+001 -3.048000e+002
      vertex   2.074390e+001 1.463994e+001 -3.048000e+002
    endloop
  endfacet
  facet normal 0.000000e+000 0.000000e+000 -1.000000e+000
    outer loop
      vertex   2.254515e+001 -1.169339e+001 -3.048000e+002
      vertex   2.074390e+001 1.463994e+001 -3.048000e+002
      vertex   2.254515e+001 1.167792e+001 -3.048000e+002
    endloop
  endfacet
  facet normal 0.000000e+000 0.000000e+000 -1.000000e+000
    outer loop
      vertex   2.392629e+001 -8.513678e+000 -3.048000e+002
      vertex   2.254515e+001 1.167792e+001 -3.048000e+002
      vertex   2.392629e+001 8.498207e+000 -3.048000e+002
    endloop
  endfacet
  facet normal 0.000000e+000 0.000000e+000 -1.000000e+000
    outer loop
      vertex   2.486160e+001 -5.175518e+000 -3.048000e+002
      vertex   2.392629e+001 8.498207e+000 -3.048000e+002
      vertex   2.486160e+001 5.160047e+000 -3.048000e+002
    endloop
  endfacet
  facet normal 0.000000e+000 0.000000e+000 -1.000000e+000
    outer loop
      vertex   2.533365e+001 -1.741093e+000 -3.048000e+002
      vertex   2.486160e+001 5.160047e+000 -3.048000e+002
      vertex   2.533365e+001 1.725622e+000 -3.048000e+002
    endloop
  endfacet
  facet normal -0.000000e+000 0.000000e+000 -1.000000e+000
    outer loop
      vertex   2.533365e+001 -1.741093e+000 -3.048000e+002
      vertex   2.486160e+001 -5.175518e+000 -3.048000e+002
      vertex   2.486160e+001 5.160047e+000 -3.048000e+002
    endloop
  endfacet
  facet normal 0.000000e+000 0.000000e+000 -1.000000e+000
    outer loop
      vertex   3.451495e+000 -2.517116e+001 -3.048000e+002
      vertex   3.451495e+000 2.515569e+001 -3.048000e+002
      vertex   6.845700e+000 -2.446583e+001 -3.048000e+002
    endloop
  endfacet
  facet normal 0.000000e+000 0.000000e+000 -1.000000e+000
    outer loop
      vertex   6.845700e+000 -2.446583e+001 -3.048000e+002
      vertex   6.845700e+000 2.445036e+001 -3.048000e+002
      vertex   1.011225e+001 -2.330490e+001 -3.048000e+002
    endloop
  endfacet
  facet normal 0.000000e+000 0.000000e+000 -1.000000e+000
    outer loop
      vertex   1.011225e+001 -2.330490e+001 -3.048000e+002
      vertex   1.011225e+001 2.328943e+001 -3.048000e+002
      vertex   1.319029e+001 -2.170999e+001 -3.048000e+002
    endloop
  endfacet
  facet normal 0.000000e+000 0.000000e+000 -1.000000e+000
    outer loop
      vertex   1.319029e+001 -2.170999e+001 -3.048000e+002
      vertex   1.319029e+001 2.169452e+001 -3.048000e+002
      vertex   1.602250e+001 -1.971080e+001 -3.048000e+002
    endloop
  endfacet
  facet normal 0.000000e+000 0.000000e+000 -1.000000e+000
    outer loop
      vertex   1.602250e+001 -1.971080e+001 -3.048000e+002
      vertex   1.602250e+001 1.969533e+001 -3.048000e+002
      vertex   1.855610e+001 -1.734459e+001 -3.048000e+002
    endloop
  endfacet
  facet normal 0.000000e+000 0.000000e+000 -1.000000e+000
    outer loop
      vertex   1.855610e+001 -1.734459e+001 -3.048000e+002
      vertex   1.855610e+001 1.732911e+001 -3.048000e+002
      vertex   2.074390e+001 -1.465542e+001 -3.048000e+002
    endloop
  endfacet
  facet normal 0.000000e+000 0.000000e+000 -1.000000e+000
    outer loop
      vertex   2.074390e+001 -1.465542e+001 -3.048000e+002
      vertex   2.074390e+001 1.463994e+001 -3.048000e+002
      vertex   2.254515e+001 -1.169339e+001 -3.048000e+002
    endloop
  endfacet
  facet normal 0.000000e+000 0.000000e+000 -1.000000e+000
    outer loop
      vertex   2.254515e+001 -1.169339e+001 -3.048000e+002
      vertex   2.254515e+001 1.167792e+001 -3.048000e+002
      vertex   2.392629e+001 -8.513678e+000 -3.048000e+002
    endloop
  endfacet
  facet normal 0.000000e+000 0.000000e+000 -1.000000e+000
    outer loop
      vertex   2.392629e+001 -8.513678e+000 -3.048000e+002
      vertex   2.392629e+001 8.498207e+000 -3.048000e+002
      vertex   2.486160e+001 -5.175518e+000 -3.048000e+002
    endloop
  endfacet
endsolid