solid ascii
  facet normal -1.678447e-016 1.000000e+000 0.000000e+000
    outer loop
      vertex   -1.270000e+002 1.270000e+002 -2.540000e+001
      vertex   -1.270000e+002 1.270000e+002 3.694822e-012
      vertex   1.270000e+002 1.270000e+002 -2.540000e+001
    endloop
  endfacet
  facet normal -1.678447e-016 1.000000e+000 0.000000e+000
    outer loop
      vertex   1.270000e+002 1.270000e+002 -2.540000e+001
      vertex   -1.270000e+002 1.270000e+002 3.694822e-012
      vertex   1.270000e+002 1.270000e+002 3.694822e-012
    endloop
  endfacet
  facet normal 1.000000e+000 1.678447e-016 -0.000000e+000
    outer loop
      vertex   1.270000e+002 1.270000e+002 -2.540000e+001
      vertex   1.270000e+002 1.270000e+002 3.694822e-012
      vertex   1.270000e+002 -1.270000e+002 -2.540000e+001
    endloop
  endfacet
  facet normal 1.000000e+000 1.678447e-016 0.000000e+000
    outer loop
      vertex   1.270000e+002 -1.270000e+002 -2.540000e+001
      vertex   1.270000e+002 1.270000e+002 3.694822e-012
      vertex   1.270000e+002 -1.270000e+002 3.694822e-012
    endloop
  endfacet
  facet normal 1.678447e-016 -1.000000e+000 0.000000e+000
    outer loop
      vertex   1.270000e+002 -1.270000e+002 -2.540000e+001
      vertex   1.270000e+002 -1.270000e+002 3.694822e-012
      vertex   -1.270000e+002 -1.270000e+002 -2.540000e+001
    endloop
  endfacet
  facet normal 1.678447e-016 -1.000000e+000 0.000000e+000
    outer loop
      vertex   -1.270000e+002 -1.270000e+002 -2.540000e+001
      vertex   1.270000e+002 -1.270000e+002 3.694822e-012
      vertex   -1.270000e+002 -1.270000e+002 3.694822e-012
    endloop
  endfacet
  facet normal -1.000000e+000 -1.678447e-016 0.000000e+000
    outer loop
      vertex   -1.270000e+002 -1.270000e+002 -2.540000e+001
      vertex   -1.270000e+002 -1.270000e+002 3.694822e-012
      vertex   -1.270000e+002 1.270000e+002 -2.540000e+001
    endloop
  endfacet
  facet normal -1.000000e+000 -1.678447e-016 0.000000e+000
    outer loop
      vertex   -1.270000e+002 1.270000e+002 -2.540000e+001
      vertex   -1.270000e+002 -1.270000e+002 3.694822e-012
      vertex   -1.270000e+002 1.270000e+002 3.694822e-012
    endloop
  endfacet
  facet normal 0.000000e+000 0.000000e+000 -1.000000e+000
    outer loop
      vertex   -1.016000e+002 -1.016000e+002 -2.540000e+001
      vertex   1.016000e+002 -1.016000e+002 -2.540000e+001
      vertex   1.270000e+002 -1.270000e+002 -2.540000e+001
    endloop
  endfacet
  facet normal 0.000000e+000 0.000000e+000 -1.000000e+000
    outer loop
      vertex   -1.270000e+002 -1.270000e+002 -2.540000e+001
      vertex   -1.016000e+002 -1.016000e+002 -2.540000e+001
      vertex   1.270000e+002 -1.270000e+002 -2.540000e+001
    endloop
  endfacet
  facet normal 0.000000e+000 0.000000e+000 -1.000000e+000
    outer loop
      vertex   -1.270000e+002 -1.270000e+002 -2.540000e+001
      vertex   -1.270000e+002 1.270000e+002 -2.540000e+001
      vertex   -1.016000e+002 -1.016000e+002 -2.540000e+001
    endloop
  endfacet
  facet normal 0.000000e+000 0.000000e+000 -1.000000e+000
    outer loop
      vertex   -1.016000e+002 -1.016000e+002 -2.540000e+001
      vertex   -1.270000e+002 1.270000e+002 -2.540000e+001
      vertex   -1.016000e+002 1.016000e+002 -2.540000e+001
    endloop
  endfacet
  facet normal 0.000000e+000 0.000000e+000 -1.000000e+000
    outer loop
      vertex   -1.016000e+002 1.016000e+002 -2.540000e+001
      vertex   -1.270000e+002 1.270000e+002 -2.540000e+001
      vertex   1.270000e+002 1.270000e+002 -2.540000e+001
    endloop
  endfacet
  facet normal 0.000000e+000 0.000000e+000 -1.000000e+000
    outer loop
      vertex   1.016000e+002 1.016000e+002 -2.540000e+001
      vertex   1.270000e+002 1.270000e+002 -2.540000e+001
      vertex   1.270000e+002 -1.270000e+002 -2.540000e+001
    endloop
  endfacet
  facet normal 0.000000e+000 0.000000e+000 -1.000000e+000
    outer loop
      vertex   1.016000e+002 -1.016000e+002 -2.540000e+001
      vertex   1.016000e+002 1.016000e+002 -2.540000e+001
      vertex   1.270000e+002 -1.270000e+002 -2.540000e+001
    endloop
  endfacet
  facet normal -0.000000e+000 0.000000e+000 -1.000000e+000
    outer loop
      vertex   1.016000e+002 1.016000e+002 -2.540000e+001
      vertex   -1.016000e+002 1.016000e+002 -2.540000e+001
      vertex   1.270000e+002 1.270000e+002 -2.540000e+001
    endloop
  endfacet
  facet normal 1.398706e-016 -1.000000e+000 -1.793347e-032
    outer loop
      vertex   -1.016000e+002 -1.016000e+002 -2.540000e+001
      vertex   -1.016000e+002 -1.016000e+002 -1.244600e+003
      vertex   1.016000e+002 -1.016000e+002 -2.540000e+001
    endloop
  endfacet
  facet normal 1.398706e-016 -1.000000e+000 -1.630316e-032
    outer loop
      vertex   1.016000e+002 -1.016000e+002 -2.540000e+001
      vertex   -1.016000e+002 -1.016000e+002 -1.244600e+003
      vertex   1.016000e+002 -1.016000e+002 -1.244600e+003
    endloop
  endfacet
  facet normal -1.000000e+000 -1.398706e-016 1.398706e-016
    outer loop
      vertex   -1.016000e+002 1.016000e+002 -2.540000e+001
      vertex   -1.016000e+002 1.016000e+002 -1.244600e+003
      vertex   -1.016000e+002 -1.016000e+002 -2.540000e+001
    endloop
  endfacet
  facet normal -1.000000e+000 -2.098059e-016 1.282147e-016
    outer loop
      vertex   -1.016000e+002 -1.016000e+002 -2.540000e+001
      vertex   -1.016000e+002 1.016000e+002 -1.244600e+003
      vertex   -1.016000e+002 -1.016000e+002 -1.244600e+003
    endloop
  endfacet
  facet normal -1.678447e-016 1.000000e+000 0.000000e+000
    outer loop
      vertex   1.270000e+002 1.270000e+002 -1.244600e+003
      vertex   1.270000e+002 1.270000e+002 -1.270000e+003
      vertex   -1.270000e+002 1.270000e+002 -1.244600e+003
    endloop
  endfacet
  facet normal -1.678447e-016 1.000000e+000 0.000000e+000
    outer loop
      vertex   -1.270000e+002 1.270000e+002 -1.244600e+003
      vertex   1.270000e+002 1.270000e+002 -1.270000e+003
      vertex   -1.270000e+002 1.270000e+002 -1.270000e+003
    endloop
  endfacet
  facet normal 1.000000e+000 1.678447e-016 0.000000e+000
    outer loop
      vertex   1.270000e+002 -1.270000e+002 -1.244600e+003
      vertex   1.270000e+002 -1.270000e+002 -1.270000e+003
      vertex   1.270000e+002 1.270000e+002 -1.244600e+003
    endloop
  endfacet
  facet normal 1.000000e+000 1.678447e-016 0.000000e+000
    outer loop
      vertex   1.270000e+002 1.270000e+002 -1.244600e+003
      vertex   1.270000e+002 -1.270000e+002 -1.270000e+003
      vertex   1.270000e+002 1.270000e+002 -1.270000e+003
    endloop
  endfacet
  facet normal 1.678447e-016 -1.000000e+000 0.000000e+000
    outer loop
      vertex   -1.270000e+002 -1.270000e+002 -1.244600e+003
      vertex   -1.270000e+002 -1.270000e+002 -1.270000e+003
      vertex   1.270000e+002 -1.270000e+002 -1.244600e+003
    endloop
  endfacet
  facet normal 1.678447e-016 -1.000000e+000 0.000000e+000
    outer loop
      vertex   1.270000e+002 -1.270000e+002 -1.244600e+003
      vertex   -1.270000e+002 -1.270000e+002 -1.270000e+003
      vertex   1.270000e+002 -1.270000e+002 -1.270000e+003
    endloop
  endfacet
  facet normal -1.000000e+000 -1.118965e-016 -0.000000e+000
    outer loop
      vertex   -1.270000e+002 1.270000e+002 -1.244600e+003
      vertex   -1.270000e+002 1.270000e+002 -1.270000e+003
      vertex   -1.270000e+002 -1.270000e+002 -1.244600e+003
    endloop
  endfacet
  facet normal -1.000000e+000 -1.118965e-016 0.000000e+000
    outer loop
      vertex   -1.270000e+002 -1.270000e+002 -1.244600e+003
      vertex   -1.270000e+002 1.270000e+002 -1.270000e+003
      vertex   -1.270000e+002 -1.270000e+002 -1.270000e+003
    endloop
  endfacet
  facet normal 1.118965e-015 -1.118965e-015 1.000000e+000
    outer loop
      vertex   -1.016000e+002 1.016000e+002 -1.244600e+003
      vertex   1.016000e+002 1.016000e+002 -1.244600e+003
      vertex   1.270000e+002 1.270000e+002 -1.244600e+003
    endloop
  endfacet
  facet normal 8.951720e-016 8.951720e-016 1.000000e+000
    outer loop
      vertex   -1.270000e+002 1.270000e+002 -1.244600e+003
      vertex   -1.016000e+002 1.016000e+002 -1.244600e+003
      vertex   1.270000e+002 1.270000e+002 -1.244600e+003
    endloop
  endfacet
  facet normal -0.000000e+000 0.000000e+000 1.000000e+000
    outer loop
      vertex   -1.270000e+002 1.270000e+002 -1.244600e+003
      vertex   -1.270000e+002 -1.270000e+002 -1.244600e+003
      vertex   -1.016000e+002 1.016000e+002 -1.244600e+003
    endloop
  endfacet
  facet normal -0.000000e+000 0.000000e+000 1.000000e+000
    outer loop
      vertex   -1.016000e+002 1.016000e+002 -1.244600e+003
      vertex   -1.270000e+002 -1.270000e+002 -1.244600e+003
      vertex   -1.016000e+002 -1.016000e+002 -1.244600e+003
    endloop
  endfacet
  facet normal 8.951720e-016 -8.951720e-016 1.000000e+000
    outer loop
      vertex   -1.016000e+002 -1.016000e+002 -1.244600e+003
      vertex   -1.270000e+002 -1.270000e+002 -1.244600e+003
      vertex   1.270000e+002 -1.270000e+002 -1.244600e+003
    endloop
  endfacet
  facet normal -0.000000e+000 -0.000000e+000 1.000000e+000
    outer loop
      vertex   1.016000e+002 -1.016000e+002 -1.244600e+003
      vertex   1.270000e+002 -1.270000e+002 -1.244600e+003
      vertex   1.270000e+002 1.270000e+002 -1.244600e+003
    endloop
  endfacet
  facet normal -0.000000e+000 0.000000e+000 1.000000e+000
    outer loop
      vertex   1.016000e+002 1.016000e+002 -1.244600e+003
      vertex   1.016000e+002 -1.016000e+002 -1.244600e+003
      vertex   1.270000e+002 1.270000e+002 -1.244600e+003
    endloop
  endfacet
  facet normal 1.118965e-015 1.118965e-015 1.000000e+000
    outer loop
      vertex   1.016000e+002 -1.016000e+002 -1.244600e+003
      vertex   -1.016000e+002 -1.016000e+002 -1.244600e+003
      vertex   1.270000e+002 -1.270000e+002 -1.244600e+003
    endloop
  endfacet
  facet normal 1.000000e+000 1.398706e-016 -1.282147e-016
    outer loop
      vertex   1.016000e+002 -1.016000e+002 -2.540000e+001
      vertex   1.016000e+002 -1.016000e+002 -1.244600e+003
      vertex   1.016000e+002 1.016000e+002 -2.540000e+001
    endloop
  endfacet
  facet normal 1.000000e+000 2.098059e-016 -1.398706e-016
    outer loop
      vertex   1.016000e+002 1.016000e+002 -2.540000e+001
      vertex   1.016000e+002 -1.016000e+002 -1.244600e+003
      vertex   1.016000e+002 1.016000e+002 -1.244600e+003
    endloop
  endfacet
  facet normal -1.398706e-016 1.000000e+000 1.956379e-032
    outer loop
      vertex   1.016000e+002 1.016000e+002 -2.540000e+001
      vertex   1.016000e+002 1.016000e+002 -1.244600e+003
      vertex   -1.016000e+002 1.016000e+002 -2.540000e+001
    endloop
  endfacet
  facet normal -1.398706e-016 1.000000e+000 1.956379e-032
    outer loop
      vertex   -1.016000e+002 1.016000e+002 -2.540000e+001
      vertex   1.016000e+002 1.016000e+002 -1.244600e+003
      vertex   -1.016000e+002 1.016000e+002 -1.244600e+003
    endloop
  endfacet
  facet normal 9.226836e-002 9.957342e-001 -1.161507e-017
    outer loop
      vertex   9.334476e+000 4.993503e+001 1.270000e+002
      vertex   9.334476e+000 4.993503e+001 3.693679e-012
      vertex   3.691876e-015 5.080000e+001 1.270000e+002
    endloop
  endfacet
  facet normal 2.736630e-001 9.618256e-001 -3.282484e-017
    outer loop
      vertex   9.334476e+000 4.993503e+001 1.270000e+002
      vertex   1.835108e+001 4.736959e+001 1.270000e+002
      vertex   9.334476e+000 4.993503e+001 3.693679e-012
    endloop
  endfacet
  facet normal 2.736630e-001 9.618256e-001 -3.062193e-017
    outer loop
      vertex   9.334476e+000 4.993503e+001 3.693679e-012
      vertex   1.835108e+001 4.736959e+001 1.270000e+002
      vertex   1.835108e+001 4.736959e+001 3.692575e-012
    endloop
  endfacet
  facet normal 4.457384e-001 8.951633e-001 -4.987656e-017
    outer loop
      vertex   1.835108e+001 4.736959e+001 3.692575e-012
      vertex   1.835108e+001 4.736959e+001 1.270000e+002
      vertex   2.674275e+001 4.319103e+001 1.270000e+002
    endloop
  endfacet
  facet normal 6.026346e-001 7.980172e-001 -6.743270e-017
    outer loop
      vertex   2.674275e+001 4.319103e+001 3.691547e-012
      vertex   2.674275e+001 4.319103e+001 1.270000e+002
      vertex   3.422374e+001 3.754165e+001 1.270000e+002
    endloop
  endfacet
  facet normal 7.390089e-001 6.736956e-001 -1.240388e-016
    outer loop
      vertex   3.422374e+001 3.754165e+001 3.690631e-012
      vertex   3.422374e+001 3.754165e+001 1.270000e+002
      vertex   4.053928e+001 3.061384e+001 1.270000e+002
    endloop
  endfacet
  facet normal 8.502171e-001 5.264322e-001 -9.513632e-017
    outer loop
      vertex   4.053928e+001 3.061384e+001 3.689858e-012
      vertex   4.053928e+001 3.061384e+001 1.270000e+002
      vertex   4.547430e+001 2.264351e+001 1.270000e+002
    endloop
  endfacet
  facet normal 9.324722e-001 3.612417e-001 -1.043404e-016
    outer loop
      vertex   4.547430e+001 2.264351e+001 3.689253e-012
      vertex   4.547430e+001 2.264351e+001 1.270000e+002
      vertex   4.886074e+001 1.390208e+001 1.270000e+002
    endloop
  endfacet
  facet normal 9.829731e-001 1.837495e-001 -1.099912e-016
    outer loop
      vertex   4.886074e+001 1.390208e+001 3.688839e-012
      vertex   4.886074e+001 1.390208e+001 1.270000e+002
      vertex   5.058330e+001 4.687233e+000 1.270000e+002
    endloop
  endfacet
  facet normal 1.000000e+000 -7.579555e-016 -1.118965e-016
    outer loop
      vertex   5.058330e+001 4.687233e+000 3.688628e-012
      vertex   5.058330e+001 4.687233e+000 1.270000e+002
      vertex   5.058330e+001 -4.687233e+000 1.270000e+002
    endloop
  endfacet
  facet normal 9.829731e-001 -1.837495e-001 -1.099912e-016
    outer loop
      vertex   5.058330e+001 -4.687233e+000 3.688628e-012
      vertex   5.058330e+001 -4.687233e+000 1.270000e+002
      vertex   4.886074e+001 -1.390208e+001 1.270000e+002
    endloop
  endfacet
  facet normal 9.324722e-001 -3.612417e-001 -1.043404e-016
    outer loop
      vertex   4.886074e+001 -1.390208e+001 3.688839e-012
      vertex   4.886074e+001 -1.390208e+001 1.270000e+002
      vertex   4.547430e+001 -2.264351e+001 1.270000e+002
    endloop
  endfacet
  facet normal 8.502171e-001 -5.264322e-001 -1.427045e-016
    outer loop
      vertex   4.547430e+001 -2.264351e+001 3.689253e-012
      vertex   4.547430e+001 -2.264351e+001 1.270000e+002
      vertex   4.053928e+001 -3.061384e+001 1.270000e+002
    endloop
  endfacet
  facet normal 7.390089e-001 -6.736956e-001 -1.240388e-016
    outer loop
      vertex   4.053928e+001 -3.061384e+001 3.689858e-012
      vertex   4.053928e+001 -3.061384e+001 1.270000e+002
      vertex   3.422374e+001 -3.754165e+001 1.270000e+002
    endloop
  endfacet
  facet normal 6.026346e-001 -7.980172e-001 -6.743270e-017
    outer loop
      vertex   3.422374e+001 -3.754165e+001 3.690631e-012
      vertex   3.422374e+001 -3.754165e+001 1.270000e+002
      vertex   2.674275e+001 -4.319103e+001 1.270000e+002
    endloop
  endfacet
  facet normal 4.457384e-001 -8.951633e-001 -6.234570e-017
    outer loop
      vertex   2.674275e+001 -4.319103e+001 3.691547e-012
      vertex   2.674275e+001 -4.319103e+001 1.270000e+002
      vertex   1.835108e+001 -4.736959e+001 1.270000e+002
    endloop
  endfacet
  facet normal 2.736630e-001 -9.618256e-001 -3.827741e-017
    outer loop
      vertex   1.835108e+001 -4.736959e+001 3.692575e-012
      vertex   1.835108e+001 -4.736959e+001 1.270000e+002
      vertex   9.334476e+000 -4.993503e+001 1.270000e+002
    endloop
  endfacet
  facet normal 9.226836e-002 -9.957342e-001 -1.161507e-017
    outer loop
      vertex   9.334476e+000 -4.993503e+001 3.693679e-012
      vertex   9.334476e+000 -4.993503e+001 1.270000e+002
      vertex   2.119295e-014 -5.080000e+001 1.270000e+002
    endloop
  endfacet
  facet normal -9.226836e-002 -9.957342e-001 1.129962e-017
    outer loop
      vertex   5.639933e-015 -5.080000e+001 3.694822e-012
      vertex   2.119295e-014 -5.080000e+001 1.270000e+002
      vertex   -9.334476e+000 -4.993503e+001 1.270000e+002
    endloop
  endfacet
  facet normal -2.736630e-001 -9.618256e-001 3.444967e-017
    outer loop
      vertex   -9.334476e+000 -4.993503e+001 3.695965e-012
      vertex   -9.334476e+000 -4.993503e+001 1.270000e+002
      vertex   -1.835108e+001 -4.736959e+001 1.270000e+002
    endloop
  endfacet
  facet normal -4.457384e-001 -8.951633e-001 6.234570e-017
    outer loop
      vertex   -1.835108e+001 -4.736959e+001 3.697070e-012
      vertex   -1.835108e+001 -4.736959e+001 1.270000e+002
      vertex   -2.674275e+001 -4.319103e+001 1.270000e+002
    endloop
  endfacet
  facet normal -6.026346e-001 -7.980172e-001 8.429088e-017
    outer loop
      vertex   -2.674275e+001 -4.319103e+001 3.698097e-012
      vertex   -2.674275e+001 -4.319103e+001 1.270000e+002
      vertex   -3.422374e+001 -3.754165e+001 1.270000e+002
    endloop
  endfacet
  facet normal -7.390089e-001 -6.736956e-001 8.269251e-017
    outer loop
      vertex   -3.422374e+001 -3.754165e+001 3.699013e-012
      vertex   -3.422374e+001 -3.754165e+001 1.270000e+002
      vertex   -4.053928e+001 -3.061384e+001 1.270000e+002
    endloop
  endfacet
  facet normal -8.502171e-001 -5.264322e-001 1.427045e-016
    outer loop
      vertex   -4.053928e+001 -3.061384e+001 3.699787e-012
      vertex   -4.053928e+001 -3.061384e+001 1.270000e+002
      vertex   -4.547430e+001 -2.264351e+001 1.270000e+002
    endloop
  endfacet
  facet normal -9.324722e-001 -3.612417e-001 1.565106e-016
    outer loop
      vertex   -4.547430e+001 -2.264351e+001 3.700391e-012
      vertex   -4.547430e+001 -2.264351e+001 1.270000e+002
      vertex   -4.886074e+001 -1.390208e+001 1.270000e+002
    endloop
  endfacet
  facet normal -9.829731e-001 -1.837495e-001 1.099912e-016
    outer loop
      vertex   -4.886074e+001 -1.390208e+001 3.700806e-012
      vertex   -4.886074e+001 -1.390208e+001 1.270000e+002
      vertex   -5.058330e+001 -4.687233e+000 1.270000e+002
    endloop
  endfacet
  facet normal -1.000000e+000 0.000000e+000 1.118965e-016
    outer loop
      vertex   -5.058330e+001 -4.687233e+000 3.701017e-012
      vertex   -5.058330e+001 -4.687233e+000 1.270000e+002
      vertex   -5.058330e+001 4.687233e+000 1.270000e+002
    endloop
  endfacet
  facet normal -9.829731e-001 1.837495e-001 1.099912e-016
    outer loop
      vertex   -5.058330e+001 4.687233e+000 3.701017e-012
      vertex   -5.058330e+001 4.687233e+000 1.270000e+002
      vertex   -4.886074e+001 1.390208e+001 1.270000e+002
    endloop
  endfacet
  facet normal -9.324722e-001 3.612417e-001 1.043404e-016
    outer loop
      vertex   -4.886074e+001 1.390208e+001 3.700806e-012
      vertex   -4.886074e+001 1.390208e+001 1.270000e+002
      vertex   -4.547430e+001 2.264351e+001 1.270000e+002
    endloop
  endfacet
  facet normal -8.502171e-001 5.264322e-001 9.513632e-017
    outer loop
      vertex   -4.547430e+001 2.264351e+001 3.700391e-012
      vertex   -4.547430e+001 2.264351e+001 1.270000e+002
      vertex   -4.053928e+001 3.061384e+001 1.270000e+002
    endloop
  endfacet
  facet normal -7.390089e-001 6.736956e-001 8.269251e-017
    outer loop
      vertex   -4.053928e+001 3.061384e+001 3.699787e-012
      vertex   -4.053928e+001 3.061384e+001 1.270000e+002
      vertex   -3.422374e+001 3.754165e+001 1.270000e+002
    endloop
  endfacet
  facet normal -6.026346e-001 7.980172e-001 1.011491e-016
    outer loop
      vertex   -3.422374e+001 3.754165e+001 3.699013e-012
      vertex   -3.422374e+001 3.754165e+001 1.270000e+002
      vertex   -2.674275e+001 4.319103e+001 1.270000e+002
    endloop
  endfacet
  facet normal -4.457384e-001 8.951633e-001 4.987656e-017
    outer loop
      vertex   -2.674275e+001 4.319103e+001 3.698097e-012
      vertex   -2.674275e+001 4.319103e+001 1.270000e+002
      vertex   -1.835108e+001 4.736959e+001 1.270000e+002
    endloop
  endfacet
  facet normal -2.736630e-001 9.618256e-001 3.062193e-017
    outer loop
      vertex   -1.835108e+001 4.736959e+001 3.697070e-012
      vertex   -1.835108e+001 4.736959e+001 1.270000e+002
      vertex   -9.334476e+000 4.993503e+001 1.270000e+002
    endloop
  endfacet
  facet normal -9.226836e-002 9.957342e-001 1.161507e-017
    outer loop
      vertex   -9.334476e+000 4.993503e+001 3.695965e-012
      vertex   -9.334476e+000 4.993503e+001 1.270000e+002
      vertex   -1.186114e-014 5.080000e+001 3.694822e-012
    endloop
  endfacet
  facet normal -2.736630e-001 9.618256e-001 3.580892e-017
    outer loop
      vertex   -9.334476e+000 4.993503e+001 3.695965e-012
      vertex   -1.835108e+001 4.736959e+001 3.697070e-012
      vertex   -9.334476e+000 4.993503e+001 1.270000e+002
    endloop
  endfacet
  facet normal 4.457384e-001 8.951633e-001 -4.987656e-017
    outer loop
      vertex   1.835108e+001 4.736959e+001 3.692575e-012
      vertex   2.674275e+001 4.319103e+001 1.270000e+002
      vertex   2.674275e+001 4.319103e+001 3.691547e-012
    endloop
  endfacet
  facet normal 6.026346e-001 7.980172e-001 -1.011491e-016
    outer loop
      vertex   2.674275e+001 4.319103e+001 3.691547e-012
      vertex   3.422374e+001 3.754165e+001 1.270000e+002
      vertex   3.422374e+001 3.754165e+001 3.690631e-012
    endloop
  endfacet
  facet normal 7.390089e-001 6.736956e-001 -8.269251e-017
    outer loop
      vertex   3.422374e+001 3.754165e+001 3.690631e-012
      vertex   4.053928e+001 3.061384e+001 1.270000e+002
      vertex   4.053928e+001 3.061384e+001 3.689858e-012
    endloop
  endfacet
  facet normal 8.502171e-001 5.264322e-001 -9.513632e-017
    outer loop
      vertex   4.053928e+001 3.061384e+001 3.689858e-012
      vertex   4.547430e+001 2.264351e+001 1.270000e+002
      vertex   4.547430e+001 2.264351e+001 3.689253e-012
    endloop
  endfacet
  facet normal 9.324722e-001 3.612417e-001 -1.043404e-016
    outer loop
      vertex   4.547430e+001 2.264351e+001 3.689253e-012
      vertex   4.886074e+001 1.390208e+001 1.270000e+002
      vertex   4.886074e+001 1.390208e+001 3.688839e-012
    endloop
  endfacet
  facet normal 9.829731e-001 1.837495e-001 -1.099912e-016
    outer loop
      vertex   4.886074e+001 1.390208e+001 3.688839e-012
      vertex   5.058330e+001 4.687233e+000 1.270000e+002
      vertex   5.058330e+001 4.687233e+000 3.688628e-012
    endloop
  endfacet
  facet normal 1.000000e+000 -7.579555e-016 -1.118965e-016
    outer loop
      vertex   5.058330e+001 4.687233e+000 3.688628e-012
      vertex   5.058330e+001 -4.687233e+000 1.270000e+002
      vertex   5.058330e+001 -4.687233e+000 3.688628e-012
    endloop
  endfacet
  facet normal 9.829731e-001 -1.837495e-001 -1.099912e-016
    outer loop
      vertex   5.058330e+001 -4.687233e+000 3.688628e-012
      vertex   4.886074e+001 -1.390208e+001 1.270000e+002
      vertex   4.886074e+001 -1.390208e+001 3.688839e-012
    endloop
  endfacet
  facet normal 9.324722e-001 -3.612417e-001 -1.565106e-016
    outer loop
      vertex   4.886074e+001 -1.390208e+001 3.688839e-012
      vertex   4.547430e+001 -2.264351e+001 1.270000e+002
      vertex   4.547430e+001 -2.264351e+001 3.689253e-012
    endloop
  endfacet
  facet normal 8.502171e-001 -5.264322e-001 -1.427045e-016
    outer loop
      vertex   4.547430e+001 -2.264351e+001 3.689253e-012
      vertex   4.053928e+001 -3.061384e+001 1.270000e+002
      vertex   4.053928e+001 -3.061384e+001 3.689858e-012
    endloop
  endfacet
  facet normal 7.390089e-001 -6.736956e-001 -8.269251e-017
    outer loop
      vertex   4.053928e+001 -3.061384e+001 3.689858e-012
      vertex   3.422374e+001 -3.754165e+001 1.270000e+002
      vertex   3.422374e+001 -3.754165e+001 3.690631e-012
    endloop
  endfacet
  facet normal 6.026346e-001 -7.980172e-001 -8.429088e-017
    outer loop
      vertex   3.422374e+001 -3.754165e+001 3.690631e-012
      vertex   2.674275e+001 -4.319103e+001 1.270000e+002
      vertex   2.674275e+001 -4.319103e+001 3.691547e-012
    endloop
  endfacet
  facet normal 4.457384e-001 -8.951633e-001 -6.234570e-017
    outer loop
      vertex   2.674275e+001 -4.319103e+001 3.691547e-012
      vertex   1.835108e+001 -4.736959e+001 1.270000e+002
      vertex   1.835108e+001 -4.736959e+001 3.692575e-012
    endloop
  endfacet
  facet normal 2.736630e-001 -9.618256e-001 -3.444967e-017
    outer loop
      vertex   1.835108e+001 -4.736959e+001 3.692575e-012
      vertex   9.334476e+000 -4.993503e+001 1.270000e+002
      vertex   9.334476e+000 -4.993503e+001 3.693679e-012
    endloop
  endfacet
  facet normal 9.226836e-002 -9.957342e-001 -1.129962e-017
    outer loop
      vertex   9.334476e+000 -4.993503e+001 3.693679e-012
      vertex   2.119295e-014 -5.080000e+001 1.270000e+002
      vertex   5.639933e-015 -5.080000e+001 3.694822e-012
    endloop
  endfacet
  facet normal -9.226836e-002 -9.957342e-001 1.161507e-017
    outer loop
      vertex   5.639933e-015 -5.080000e+001 3.694822e-012
      vertex   -9.334476e+000 -4.993503e+001 1.270000e+002
      vertex   -9.334476e+000 -4.993503e+001 3.695965e-012
    endloop
  endfacet
  facet normal -2.736630e-001 -9.618256e-001 3.827741e-017
    outer loop
      vertex   -9.334476e+000 -4.993503e+001 3.695965e-012
      vertex   -1.835108e+001 -4.736959e+001 1.270000e+002
      vertex   -1.835108e+001 -4.736959e+001 3.697070e-012
    endloop
  endfacet
  facet normal -4.457384e-001 -8.951633e-001 6.234570e-017
    outer loop
      vertex   -1.835108e+001 -4.736959e+001 3.697070e-012
      vertex   -2.674275e+001 -4.319103e+001 1.270000e+002
      vertex   -2.674275e+001 -4.319103e+001 3.698097e-012
    endloop
  endfacet
  facet normal -6.026346e-001 -7.980172e-001 6.743270e-017
    outer loop
      vertex   -2.674275e+001 -4.319103e+001 3.698097e-012
      vertex   -3.422374e+001 -3.754165e+001 1.270000e+002
      vertex   -3.422374e+001 -3.754165e+001 3.699013e-012
    endloop
  endfacet
  facet normal -7.390089e-001 -6.736956e-001 1.240388e-016
    outer loop
      vertex   -3.422374e+001 -3.754165e+001 3.699013e-012
      vertex   -4.053928e+001 -3.061384e+001 1.270000e+002
      vertex   -4.053928e+001 -3.061384e+001 3.699787e-012
    endloop
  endfacet
  facet normal -8.502171e-001 -5.264322e-001 1.427045e-016
    outer loop
      vertex   -4.053928e+001 -3.061384e+001 3.699787e-012
      vertex   -4.547430e+001 -2.264351e+001 1.270000e+002
      vertex   -4.547430e+001 -2.264351e+001 3.700391e-012
    endloop
  endfacet
  facet normal -9.324722e-001 -3.612417e-001 1.043404e-016
    outer loop
      vertex   -4.547430e+001 -2.264351e+001 3.700391e-012
      vertex   -4.886074e+001 -1.390208e+001 1.270000e+002
      vertex   -4.886074e+001 -1.390208e+001 3.700806e-012
    endloop
  endfacet
  facet normal -9.829731e-001 -1.837495e-001 1.099912e-016
    outer loop
      vertex   -4.886074e+001 -1.390208e+001 3.700806e-012
      vertex   -5.058330e+001 -4.687233e+000 1.270000e+002
      vertex   -5.058330e+001 -4.687233e+000 3.701017e-012
    endloop
  endfacet
  facet normal -1.000000e+000 0.000000e+000 1.118965e-016
    outer loop
      vertex   -5.058330e+001 -4.687233e+000 3.701017e-012
      vertex   -5.058330e+001 4.687233e+000 1.270000e+002
      vertex   -5.058330e+001 4.687233e+000 3.701017e-012
    endloop
  endfacet
  facet normal -9.829731e-001 1.837495e-001 1.099912e-016
    outer loop
      vertex   -5.058330e+001 4.687233e+000 3.701017e-012
      vertex   -4.886074e+001 1.390208e+001 1.270000e+002
      vertex   -4.886074e+001 1.390208e+001 3.700806e-012
    endloop
  endfacet
  facet normal -9.324722e-001 3.612417e-001 1.043404e-016
    outer loop
      vertex   -4.886074e+001 1.390208e+001 3.700806e-012
      vertex   -4.547430e+001 2.264351e+001 1.270000e+002
      vertex   -4.547430e+001 2.264351e+001 3.700391e-012
    endloop
  endfacet
  facet normal -8.502171e-001 5.264322e-001 9.513632e-017
    outer loop
      vertex   -4.547430e+001 2.264351e+001 3.700391e-012
      vertex   -4.053928e+001 3.061384e+001 1.270000e+002
      vertex   -4.053928e+001 3.061384e+001 3.699787e-012
    endloop
  endfacet
  facet normal -7.390089e-001 6.736956e-001 1.240388e-016
    outer loop
      vertex   -4.053928e+001 3.061384e+001 3.699787e-012
      vertex   -3.422374e+001 3.754165e+001 1.270000e+002
      vertex   -3.422374e+001 3.754165e+001 3.699013e-012
    endloop
  endfacet
  facet normal -6.026346e-001 7.980172e-001 6.743270e-017
    outer loop
      vertex   -3.422374e+001 3.754165e+001 3.699013e-012
      vertex   -2.674275e+001 4.319103e+001 1.270000e+002
      vertex   -2.674275e+001 4.319103e+001 3.698097e-012
    endloop
  endfacet
  facet normal -4.457384e-001 8.951633e-001 4.987656e-017
    outer loop
      vertex   -2.674275e+001 4.319103e+001 3.698097e-012
      vertex   -1.835108e+001 4.736959e+001 1.270000e+002
      vertex   -1.835108e+001 4.736959e+001 3.697070e-012
    endloop
  endfacet
  facet normal -9.226836e-002 9.957342e-001 1.129962e-017
    outer loop
      vertex   -9.334476e+000 4.993503e+001 1.270000e+002
      vertex   3.691876e-015 5.080000e+001 1.270000e+002
      vertex   -1.186114e-014 5.080000e+001 3.694822e-012
    endloop
  endfacet
  facet normal 9.226836e-002 9.957342e-001 -1.129962e-017
    outer loop
      vertex   -1.186114e-014 5.080000e+001 3.694822e-012
      vertex   3.691876e-015 5.080000e+001 1.270000e+002
      vertex   9.334476e+000 4.993503e+001 3.693679e-012
    endloop
  endfacet
  facet normal -0.000000e+000 0.000000e+000 1.000000e+000
    outer loop
      vertex   -9.334476e+000 4.993503e+001 1.270000e+002
      vertex   -9.334476e+000 -4.993503e+001 1.270000e+002
      vertex   3.691876e-015 5.080000e+001 1.270000e+002
    endloop
  endfacet
  facet normal 0.000000e+000 0.000000e+000 1.000000e+000
    outer loop
      vertex   -9.334476e+000 4.993503e+001 1.270000e+002
      vertex   -1.835108e+001 -4.736959e+001 1.270000e+002
      vertex   -9.334476e+000 -4.993503e+001 1.270000e+002
    endloop
  endfacet
  facet normal 0.000000e+000 0.000000e+000 1.000000e+000
    outer loop
      vertex   -9.334476e+000 4.993503e+001 1.270000e+002
      vertex   -1.835108e+001 4.736959e+001 1.270000e+002
      vertex   -1.835108e+001 -4.736959e+001 1.270000e+002
    endloop
  endfacet
  facet normal 0.000000e+000 -0.000000e+000 1.000000e+000
    outer loop
      vertex   -1.835108e+001 -4.736959e+001 1.270000e+002
      vertex   -1.835108e+001 4.736959e+001 1.270000e+002
      vertex   -2.674275e+001 -4.319103e+001 1.270000e+002
    endloop
  endfacet
  facet normal 0.000000e+000 -0.000000e+000 1.000000e+000
    outer loop
      vertex   -2.674275e+001 -4.319103e+001 1.270000e+002
      vertex   -1.835108e+001 4.736959e+001 1.270000e+002
      vertex   -2.674275e+001 4.319103e+001 1.270000e+002
    endloop
  endfacet
  facet normal 0.000000e+000 -0.000000e+000 1.000000e+000
    outer loop
      vertex   -3.422374e+001 -3.754165e+001 1.270000e+002
      vertex   -2.674275e+001 4.319103e+001 1.270000e+002
      vertex   -3.422374e+001 3.754165e+001 1.270000e+002
    endloop
  endfacet
  facet normal 0.000000e+000 -0.000000e+000 1.000000e+000
    outer loop
      vertex   -4.053928e+001 -3.061384e+001 1.270000e+002
      vertex   -3.422374e+001 3.754165e+001 1.270000e+002
      vertex   -4.053928e+001 3.061384e+001 1.270000e+002
    endloop
  endfacet
  facet normal 0.000000e+000 -0.000000e+000 1.000000e+000
    outer loop
      vertex   -4.547430e+001 -2.264351e+001 1.270000e+002
      vertex   -4.053928e+001 3.061384e+001 1.270000e+002
      vertex   -4.547430e+001 2.264351e+001 1.270000e+002
    endloop
  endfacet
  facet normal 0.000000e+000 -0.000000e+000 1.000000e+000
    outer loop
      vertex   -4.886074e+001 -1.390208e+001 1.270000e+002
      vertex   -4.547430e+001 2.264351e+001 1.270000e+002
      vertex   -4.886074e+001 1.390208e+001 1.270000e+002
    endloop
  endfacet
  facet normal 0.000000e+000 -0.000000e+000 1.000000e+000
    outer loop
      vertex   -5.058330e+001 -4.687233e+000 1.270000e+002
      vertex   -4.886074e+001 1.390208e+001 1.270000e+002
      vertex   -5.058330e+001 4.687233e+000 1.270000e+002
    endloop
  endfacet
  facet normal -0.000000e+000 0.000000e+000 1.000000e+000
    outer loop
      vertex   -5.058330e+001 -4.687233e+000 1.270000e+002
      vertex   -4.886074e+001 -1.390208e+001 1.270000e+002
      vertex   -4.886074e+001 1.390208e+001 1.270000e+002
    endloop
  endfacet
  facet normal 0.000000e+000 0.000000e+000 1.000000e+000
    outer loop
      vertex   -2.674275e+001 -4.319103e+001 1.270000e+002
      vertex   -2.674275e+001 4.319103e+001 1.270000e+002
      vertex   -3.422374e+001 -3.754165e+001 1.270000e+002
    endloop
  endfacet
  facet normal 0.000000e+000 -0.000000e+000 1.000000e+000
    outer loop
      vertex   -3.422374e+001 -3.754165e+001 1.270000e+002
      vertex   -3.422374e+001 3.754165e+001 1.270000e+002
      vertex   -4.053928e+001 -3.061384e+001 1.270000e+002
    endloop
  endfacet
  facet normal 0.000000e+000 0.000000e+000 1.000000e+000
    outer loop
      vertex   -4.053928e+001 -3.061384e+001 1.270000e+002
      vertex   -4.053928e+001 3.061384e+001 1.270000e+002
      vertex   -4.547430e+001 -2.264351e+001 1.270000e+002
    endloop
  endfacet
  facet normal 0.000000e+000 -0.000000e+000 1.000000e+000
    outer loop
      vertex   -4.547430e+001 -2.264351e+001 1.270000e+002
      vertex   -4.547430e+001 2.264351e+001 1.270000e+002
      vertex   -4.886074e+001 -1.390208e+001 1.270000e+002
    endloop
  endfacet
  facet normal -0.000000e+000 -0.000000e+000 1.000000e+000
    outer loop
      vertex   -9.334476e+000 -4.993503e+001 1.270000e+002
      vertex   2.119295e-014 -5.080000e+001 1.270000e+002
      vertex   3.691876e-015 5.080000e+001 1.270000e+002
    endloop
  endfacet
  facet normal -0.000000e+000 0.000000e+000 1.000000e+000
    outer loop
      vertex   3.691876e-015 5.080000e+001 1.270000e+002
      vertex   2.119295e-014 -5.080000e+001 1.270000e+002
      vertex   9.334476e+000 4.993503e+001 1.270000e+002
    endloop
  endfacet
  facet normal -0.000000e+000 0.000000e+000 1.000000e+000
    outer loop
      vertex   9.334476e+000 4.993503e+001 1.270000e+002
      vertex   2.119295e-014 -5.080000e+001 1.270000e+002
      vertex   9.334476e+000 -4.993503e+001 1.270000e+002
    endloop
  endfacet
  facet normal -0.000000e+000 0.000000e+000 1.000000e+000
    outer loop
      vertex   1.835108e+001 4.736959e+001 1.270000e+002
      vertex   9.334476e+000 -4.993503e+001 1.270000e+002
      vertex   1.835108e+001 -4.736959e+001 1.270000e+002
    endloop
  endfacet
  facet normal -0.000000e+000 0.000000e+000 1.000000e+000
    outer loop
      vertex   2.674275e+001 4.319103e+001 1.270000e+002
      vertex   1.835108e+001 -4.736959e+001 1.270000e+002
      vertex   2.674275e+001 -4.319103e+001 1.270000e+002
    endloop
  endfacet
  facet normal -0.000000e+000 0.000000e+000 1.000000e+000
    outer loop
      vertex   3.422374e+001 3.754165e+001 1.270000e+002
      vertex   2.674275e+001 -4.319103e+001 1.270000e+002
      vertex   3.422374e+001 -3.754165e+001 1.270000e+002
    endloop
  endfacet
  facet normal -0.000000e+000 0.000000e+000 1.000000e+000
    outer loop
      vertex   4.053928e+001 3.061384e+001 1.270000e+002
      vertex   3.422374e+001 -3.754165e+001 1.270000e+002
      vertex   4.053928e+001 -3.061384e+001 1.270000e+002
    endloop
  endfacet
  facet normal -0.000000e+000 0.000000e+000 1.000000e+000
    outer loop
      vertex   4.547430e+001 2.264351e+001 1.270000e+002
      vertex   4.053928e+001 -3.061384e+001 1.270000e+002
      vertex   4.547430e+001 -2.264351e+001 1.270000e+002
    endloop
  endfacet
  facet normal -0.000000e+000 0.000000e+000 1.000000e+000
    outer loop
      vertex   4.886074e+001 1.390208e+001 1.270000e+002
      vertex   4.547430e+001 -2.264351e+001 1.270000e+002
      vertex   4.886074e+001 -1.390208e+001 1.270000e+002
    endloop
  endfacet
  facet normal -0.000000e+000 0.000000e+000 1.000000e+000
    outer loop
      vertex   5.058330e+001 4.687233e+000 1.270000e+002
      vertex   4.886074e+001 -1.390208e+001 1.270000e+002
      vertex   5.058330e+001 -4.687233e+000 1.270000e+002
    endloop
  endfacet
  facet normal 0.000000e+000 0.000000e+000 1.000000e+000
    outer loop
      vertex   5.058330e+001 4.687233e+000 1.270000e+002
      vertex   4.886074e+001 1.390208e+001 1.270000e+002
      vertex   4.886074e+001 -1.390208e+001 1.270000e+002
    endloop
  endfacet
  facet normal -0.000000e+000 0.000000e+000 1.000000e+000
    outer loop
      vertex   9.334476e+000 4.993503e+001 1.270000e+002
      vertex   9.334476e+000 -4.993503e+001 1.270000e+002
      vertex   1.835108e+001 4.736959e+001 1.270000e+002
    endloop
  endfacet
  facet normal -0.000000e+000 0.000000e+000 1.000000e+000
    outer loop
      vertex   1.835108e+001 4.736959e+001 1.270000e+002
      vertex   1.835108e+001 -4.736959e+001 1.270000e+002
      vertex   2.674275e+001 4.319103e+001 1.270000e+002
    endloop
  endfacet
  facet normal -0.000000e+000 0.000000e+000 1.000000e+000
    outer loop
      vertex   2.674275e+001 4.319103e+001 1.270000e+002
      vertex   2.674275e+001 -4.319103e+001 1.270000e+002
      vertex   3.422374e+001 3.754165e+001 1.270000e+002
    endloop
  endfacet
  facet normal -0.000000e+000 0.000000e+000 1.000000e+000
    outer loop
      vertex   3.422374e+001 3.754165e+001 1.270000e+002
      vertex   3.422374e+001 -3.754165e+001 1.270000e+002
      vertex   4.053928e+001 3.061384e+001 1.270000e+002
    endloop
  endfacet
  facet normal -0.000000e+000 0.000000e+000 1.000000e+000
    outer loop
      vertex   4.053928e+001 3.061384e+001 1.270000e+002
      vertex   4.053928e+001 -3.061384e+001 1.270000e+002
      vertex   4.547430e+001 2.264351e+001 1.270000e+002
    endloop
  endfacet
  facet normal -0.000000e+000 0.000000e+000 1.000000e+000
    outer loop
      vertex   4.547430e+001 2.264351e+001 1.270000e+002
      vertex   4.547430e+001 -2.264351e+001 1.270000e+002
      vertex   4.886074e+001 1.390208e+001 1.270000e+002
    endloop
  endfacet
  facet normal -8.106431e-017 -2.080886e-032 1.000000e+000
    outer loop
      vertex   -1.270000e+002 -1.270000e+002 3.694822e-012
      vertex   -5.058330e+001 4.687233e+000 3.701017e-012
      vertex   -1.270000e+002 1.270000e+002 3.694822e-012
    endloop
  endfacet
  facet normal -8.106431e-017 0.000000e+000 1.000000e+000
    outer loop
      vertex   -1.270000e+002 -1.270000e+002 3.694822e-012
      vertex   -5.058330e+001 -4.687233e+000 3.701017e-012
      vertex   -5.058330e+001 4.687233e+000 3.701017e-012
    endloop
  endfacet
  facet normal -3.419195e-017 -2.928420e-017 1.000000e+000
    outer loop
      vertex   -1.270000e+002 -1.270000e+002 3.694822e-012
      vertex   -4.886074e+001 -1.390208e+001 3.700806e-012
      vertex   -5.058330e+001 -4.687233e+000 3.701017e-012
    endloop
  endfacet
  facet normal -5.067522e-018 -4.940624e-017 1.000000e+000
    outer loop
      vertex   -1.270000e+002 -1.270000e+002 3.694822e-012
      vertex   -4.547430e+001 -2.264351e+001 3.700391e-012
      vertex   -4.886074e+001 -1.390208e+001 3.700806e-012
    endloop
  endfacet
  facet normal 1.603961e-017 -6.589562e-017 1.000000e+000
    outer loop
      vertex   -1.270000e+002 -1.270000e+002 3.694822e-012
      vertex   -4.053928e+001 -3.061384e+001 3.699787e-012
      vertex   -4.547430e+001 -2.264351e+001 3.700391e-012
    endloop
  endfacet
  facet normal 3.324788e-017 -8.133186e-017 1.000000e+000
    outer loop
      vertex   -1.270000e+002 -1.270000e+002 3.694822e-012
      vertex   -3.422374e+001 -3.754165e+001 3.699013e-012
      vertex   -4.053928e+001 -3.061384e+001 3.699787e-012
    endloop
  endfacet
  facet normal 4.883685e-017 -9.749900e-017 1.000000e+000
    outer loop
      vertex   -1.270000e+002 -1.270000e+002 3.694822e-012
      vertex   -2.674275e+001 -4.319103e+001 3.698097e-012
      vertex   -3.422374e+001 -3.754165e+001 3.699013e-012
    endloop
  endfacet
  facet normal 6.455386e-017 -1.163006e-016 1.000000e+000
    outer loop
      vertex   -1.270000e+002 -1.270000e+002 3.694822e-012
      vertex   -1.835108e+001 -4.736959e+001 3.697070e-012
      vertex   -2.674275e+001 -4.319103e+001 3.698097e-012
    endloop
  endfacet
  facet normal 8.243332e-017 -1.406956e-016 1.000000e+000
    outer loop
      vertex   -1.270000e+002 -1.270000e+002 3.694822e-012
      vertex   -9.334476e+000 -4.993503e+001 3.695965e-012
      vertex   -1.835108e+001 -4.736959e+001 3.697070e-012
    endloop
  endfacet
  facet normal 1.060815e-016 -1.768025e-016 1.000000e+000
    outer loop
      vertex   -1.270000e+002 -1.270000e+002 3.694822e-012
      vertex   5.639933e-015 -5.080000e+001 3.694822e-012
      vertex   -9.334476e+000 -4.993503e+001 3.695965e-012
    endloop
  endfacet
  facet normal 0.000000e+000 -0.000000e+000 1.000000e+000
    outer loop
      vertex   -1.270000e+002 -1.270000e+002 3.694822e-012
      vertex   1.270000e+002 -1.270000e+002 3.694822e-012
      vertex   5.639933e-015 -5.080000e+001 3.694822e-012
    endloop
  endfacet
  facet normal 1.060815e-016 1.768025e-016 1.000000e+000
    outer loop
      vertex   5.639933e-015 -5.080000e+001 3.694822e-012
      vertex   1.270000e+002 -1.270000e+002 3.694822e-012
      vertex   9.334476e+000 -4.993503e+001 3.693679e-012
    endloop
  endfacet
  facet normal 8.243332e-017 1.406956e-016 1.000000e+000
    outer loop
      vertex   9.334476e+000 -4.993503e+001 3.693679e-012
      vertex   1.270000e+002 -1.270000e+002 3.694822e-012
      vertex   1.835108e+001 -4.736959e+001 3.692575e-012
    endloop
  endfacet
  facet normal 6.455386e-017 1.163006e-016 1.000000e+000
    outer loop
      vertex   1.835108e+001 -4.736959e+001 3.692575e-012
      vertex   1.270000e+002 -1.270000e+002 3.694822e-012
      vertex   2.674275e+001 -4.319103e+001 3.691547e-012
    endloop
  endfacet
  facet normal 4.883685e-017 9.749900e-017 1.000000e+000
    outer loop
      vertex   2.674275e+001 -4.319103e+001 3.691547e-012
      vertex   1.270000e+002 -1.270000e+002 3.694822e-012
      vertex   3.422374e+001 -3.754165e+001 3.690631e-012
    endloop
  endfacet
  facet normal 3.324788e-017 8.133186e-017 1.000000e+000
    outer loop
      vertex   3.422374e+001 -3.754165e+001 3.690631e-012
      vertex   1.270000e+002 -1.270000e+002 3.694822e-012
      vertex   4.053928e+001 -3.061384e+001 3.689858e-012
    endloop
  endfacet
  facet normal 1.603961e-017 6.589562e-017 1.000000e+000
    outer loop
      vertex   4.053928e+001 -3.061384e+001 3.689858e-012
      vertex   1.270000e+002 -1.270000e+002 3.694822e-012
      vertex   4.547430e+001 -2.264351e+001 3.689253e-012
    endloop
  endfacet
  facet normal -5.067522e-018 4.940624e-017 1.000000e+000
    outer loop
      vertex   4.547430e+001 -2.264351e+001 3.689253e-012
      vertex   1.270000e+002 -1.270000e+002 3.694822e-012
      vertex   4.886074e+001 -1.390208e+001 3.688839e-012
    endloop
  endfacet
  facet normal -3.419195e-017 2.928420e-017 1.000000e+000
    outer loop
      vertex   4.886074e+001 -1.390208e+001 3.688839e-012
      vertex   1.270000e+002 -1.270000e+002 3.694822e-012
      vertex   5.058330e+001 -4.687233e+000 3.688628e-012
    endloop
  endfacet
  facet normal -8.106431e-017 -1.360622e-032 1.000000e+000
    outer loop
      vertex   5.058330e+001 -4.687233e+000 3.688628e-012
      vertex   1.270000e+002 -1.270000e+002 3.694822e-012
      vertex   1.270000e+002 1.270000e+002 3.694822e-012
    endloop
  endfacet
  facet normal -3.419195e-017 -2.928420e-017 1.000000e+000
    outer loop
      vertex   5.058330e+001 4.687233e+000 3.688628e-012
      vertex   1.270000e+002 1.270000e+002 3.694822e-012
      vertex   4.886074e+001 1.390208e+001 3.688839e-012
    endloop
  endfacet
  facet normal -8.106431e-017 6.144314e-032 1.000000e+000
    outer loop
      vertex   5.058330e+001 4.687233e+000 3.688628e-012
      vertex   5.058330e+001 -4.687233e+000 3.688628e-012
      vertex   1.270000e+002 1.270000e+002 3.694822e-012
    endloop
  endfacet
  facet normal -0.000000e+000 0.000000e+000 1.000000e+000
    outer loop
      vertex   -1.270000e+002 1.270000e+002 3.694822e-012
      vertex   -1.186114e-014 5.080000e+001 3.694822e-012
      vertex   1.270000e+002 1.270000e+002 3.694822e-012
    endloop
  endfacet
  facet normal 1.060815e-016 1.768025e-016 1.000000e+000
    outer loop
      vertex   -1.270000e+002 1.270000e+002 3.694822e-012
      vertex   -9.334476e+000 4.993503e+001 3.695965e-012
      vertex   -1.186114e-014 5.080000e+001 3.694822e-012
    endloop
  endfacet
  facet normal 8.243332e-017 1.406956e-016 1.000000e+000
    outer loop
      vertex   -1.270000e+002 1.270000e+002 3.694822e-012
      vertex   -1.835108e+001 4.736959e+001 3.697070e-012
      vertex   -9.334476e+000 4.993503e+001 3.695965e-012
    endloop
  endfacet
  facet normal 6.455386e-017 1.163006e-016 1.000000e+000
    outer loop
      vertex   -1.270000e+002 1.270000e+002 3.694822e-012
      vertex   -2.674275e+001 4.319103e+001 3.698097e-012
      vertex   -1.835108e+001 4.736959e+001 3.697070e-012
    endloop
  endfacet
  facet normal 4.883685e-017 9.749900e-017 1.000000e+000
    outer loop
      vertex   -1.270000e+002 1.270000e+002 3.694822e-012
      vertex   -3.422374e+001 3.754165e+001 3.699013e-012
      vertex   -2.674275e+001 4.319103e+001 3.698097e-012
    endloop
  endfacet
  facet normal 3.324788e-017 8.133186e-017 1.000000e+000
    outer loop
      vertex   -1.270000e+002 1.270000e+002 3.694822e-012
      vertex   -4.053928e+001 3.061384e+001 3.699787e-012
      vertex   -3.422374e+001 3.754165e+001 3.699013e-012
    endloop
  endfacet
  facet normal 1.603961e-017 6.589562e-017 1.000000e+000
    outer loop
      vertex   -1.270000e+002 1.270000e+002 3.694822e-012
      vertex   -4.547430e+001 2.264351e+001 3.700391e-012
      vertex   -4.053928e+001 3.061384e+001 3.699787e-012
    endloop
  endfacet
  facet normal -5.067522e-018 4.940624e-017 1.000000e+000
    outer loop
      vertex   -1.270000e+002 1.270000e+002 3.694822e-012
      vertex   -4.886074e+001 1.390208e+001 3.700806e-012
      vertex   -4.547430e+001 2.264351e+001 3.700391e-012
    endloop
  endfacet
  facet normal -3.419195e-017 2.928420e-017 1.000000e+000
    outer loop
      vertex   -1.270000e+002 1.270000e+002 3.694822e-012
      vertex   -5.058330e+001 4.687233e+000 3.701017e-012
      vertex   -4.886074e+001 1.390208e+001 3.700806e-012
    endloop
  endfacet
  facet normal 1.060815e-016 -1.768025e-016 1.000000e+000
    outer loop
      vertex   -1.186114e-014 5.080000e+001 3.694822e-012
      vertex   9.334476e+000 4.993503e+001 3.693679e-012
      vertex   1.270000e+002 1.270000e+002 3.694822e-012
    endloop
  endfacet
  facet normal 8.243332e-017 -1.406956e-016 1.000000e+000
    outer loop
      vertex   1.270000e+002 1.270000e+002 3.694822e-012
      vertex   9.334476e+000 4.993503e+001 3.693679e-012
      vertex   1.835108e+001 4.736959e+001 3.692575e-012
    endloop
  endfacet
  facet normal 6.455386e-017 -1.163006e-016 1.000000e+000
    outer loop
      vertex   2.674275e+001 4.319103e+001 3.691547e-012
      vertex   1.270000e+002 1.270000e+002 3.694822e-012
      vertex   1.835108e+001 4.736959e+001 3.692575e-012
    endloop
  endfacet
  facet normal 4.883685e-017 -9.749900e-017 1.000000e+000
    outer loop
      vertex   2.674275e+001 4.319103e+001 3.691547e-012
      vertex   3.422374e+001 3.754165e+001 3.690631e-012
      vertex   1.270000e+002 1.270000e+002 3.694822e-012
    endloop
  endfacet
  facet normal 3.324788e-017 -8.133186e-017 1.000000e+000
    outer loop
      vertex   1.270000e+002 1.270000e+002 3.694822e-012
      vertex   3.422374e+001 3.754165e+001 3.690631e-012
      vertex   4.053928e+001 3.061384e+001 3.689858e-012
    endloop
  endfacet
  facet normal 1.603961e-017 -6.589562e-017 1.000000e+000
    outer loop
      vertex   4.547430e+001 2.264351e+001 3.689253e-012
      vertex   1.270000e+002 1.270000e+002 3.694822e-012
      vertex   4.053928e+001 3.061384e+001 3.689858e-012
    endloop
  endfacet
  facet normal -5.067522e-018 -4.940624e-017 1.000000e+000
    outer loop
      vertex   4.547430e+001 2.264351e+001 3.689253e-012
      vertex   4.886074e+001 1.390208e+001 3.688839e-012
      vertex   1.270000e+002 1.270000e+002 3.694822e-012
    endloop
  endfacet
  facet normal 0.000000e+000 0.000000e+000 -1.000000e+000
    outer loop
      vertex   -1.270000e+002 -1.270000e+002 -1.270000e+003
      vertex   -1.270000e+002 1.270000e+002 -1.270000e+003
      vertex   1.270000e+002 -1.270000e+002 -1.270000e+003
    endloop
  endfacet
  facet normal 0.000000e+000 0.000000e+000 -1.000000e+000
    outer loop
      vertex   1.270000e+002 -1.270000e+002 -1.270000e+003
      vertex   -1.270000e+002 1.270000e+002 -1.270000e+003
      vertex   1.270000e+002 1.270000e+002 -1.270000e+003
    endloop
  endfacet
endsolid