solid ascii
  facet normal 6.156091e-002 1.765165e-017 -9.981033e-001
    outer loop
      vertex   -6.242725e+000 1.270000e+002 5.041496e+001
      vertex   -6.242725e+000 2.540000e+002 5.041496e+001
      vertex   -1.657421e-015 1.270000e+002 5.080000e+001
    endloop
  endfacet
  facet normal 1.837495e-001 5.367092e-017 -9.829731e-001
    outer loop
      vertex   -6.242725e+000 1.270000e+002 5.041496e+001
      vertex   -1.239082e+001 2.540000e+002 4.926568e+001
      vertex   -6.242725e+000 2.540000e+002 5.041496e+001
    endloop
  endfacet
  facet normal 1.837495e-001 1.799081e-017 -9.829731e-001
    outer loop
      vertex   -6.242725e+000 1.270000e+002 5.041496e+001
      vertex   -1.239082e+001 1.270000e+002 4.926568e+001
      vertex   -1.239082e+001 2.540000e+002 4.926568e+001
    endloop
  endfacet
  facet normal 3.031527e-001 2.968151e-017 -9.529420e-001
    outer loop
      vertex   -1.239082e+001 2.540000e+002 4.926568e+001
      vertex   -1.239082e+001 1.270000e+002 4.926568e+001
      vertex   -1.835108e+001 2.540000e+002 4.736959e+001
    endloop
  endfacet
  facet normal 3.031527e-001 3.354432e-017 -9.529420e-001
    outer loop
      vertex   -1.835108e+001 2.540000e+002 4.736959e+001
      vertex   -1.239082e+001 1.270000e+002 4.926568e+001
      vertex   -1.835108e+001 1.270000e+002 4.736959e+001
    endloop
  endfacet
  facet normal 4.179603e-001 7.827009e-017 -9.084653e-001
    outer loop
      vertex   -2.403315e+001 2.540000e+002 4.475542e+001
      vertex   -1.835108e+001 1.270000e+002 4.736959e+001
      vertex   -2.403315e+001 1.270000e+002 4.475542e+001
    endloop
  endfacet
  facet normal 5.264322e-001 6.261607e-017 -8.502171e-001
    outer loop
      vertex   -2.935091e+001 2.540000e+002 4.146280e+001
      vertex   -2.403315e+001 1.270000e+002 4.475542e+001
      vertex   -2.935091e+001 1.270000e+002 4.146280e+001
    endloop
  endfacet
  facet normal 6.269238e-001 8.497895e-017 -7.790806e-001
    outer loop
      vertex   -3.422374e+001 2.540000e+002 3.754165e+001
      vertex   -2.935091e+001 1.270000e+002 4.146280e+001
      vertex   -3.422374e+001 1.270000e+002 3.754165e+001
    endloop
  endfacet
  facet normal 7.179119e-001 8.050638e-017 -6.961339e-001
    outer loop
      vertex   -3.857777e+001 2.540000e+002 3.305141e+001
      vertex   -3.422374e+001 1.270000e+002 3.754165e+001
      vertex   -3.857777e+001 1.270000e+002 3.305141e+001
    endloop
  endfacet
  facet normal 7.980172e-001 4.472576e-017 -6.026346e-001
    outer loop
      vertex   -4.234700e+001 2.540000e+002 2.806014e+001
      vertex   -3.857777e+001 1.270000e+002 3.305141e+001
      vertex   -4.234700e+001 1.270000e+002 2.806014e+001
    endloop
  endfacet
  facet normal 8.660254e-001 8.497895e-017 -5.000000e-001
    outer loop
      vertex   -4.547430e+001 2.540000e+002 2.264351e+001
      vertex   -4.234700e+001 1.270000e+002 2.806014e+001
      vertex   -4.547430e+001 1.270000e+002 2.264351e+001
    endloop
  endfacet
  facet normal 9.209055e-001 1.028693e-016 -3.897859e-001
    outer loop
      vertex   -4.791225e+001 2.540000e+002 1.688362e+001
      vertex   -4.547430e+001 1.270000e+002 2.264351e+001
      vertex   -4.791225e+001 1.270000e+002 1.688362e+001
    endloop
  endfacet
  facet normal 9.618256e-001 8.497895e-017 -2.736630e-001
    outer loop
      vertex   -4.962389e+001 2.540000e+002 1.086780e+001
      vertex   -4.791225e+001 1.270000e+002 1.688362e+001
      vertex   -4.962389e+001 1.270000e+002 1.086780e+001
    endloop
  endfacet
  facet normal 9.881655e-001 1.241140e-016 -1.533917e-001
    outer loop
      vertex   -5.058330e+001 2.540000e+002 4.687233e+000
      vertex   -4.962389e+001 1.270000e+002 1.086780e+001
      vertex   -5.058330e+001 1.270000e+002 4.687233e+000
    endloop
  endfacet
  facet normal 9.995257e-001 1.118144e-016 -3.079506e-002
    outer loop
      vertex   -5.077591e+001 2.540000e+002 -1.564389e+000
      vertex   -5.058330e+001 1.270000e+002 4.687233e+000
      vertex   -5.077591e+001 1.270000e+002 -1.564389e+000
    endloop
  endfacet
  facet normal 9.957342e-001 9.671947e-017 9.226836e-002
    outer loop
      vertex   -5.019881e+001 2.540000e+002 -7.792296e+000
      vertex   -5.077591e+001 1.270000e+002 -1.564389e+000
      vertex   -5.019881e+001 1.270000e+002 -7.792296e+000
    endloop
  endfacet
  facet normal 9.768483e-001 9.168782e-017 2.139331e-001
    outer loop
      vertex   -4.886074e+001 2.540000e+002 -1.390208e+001
      vertex   -5.019881e+001 1.270000e+002 -7.792296e+000
      vertex   -4.886074e+001 1.270000e+002 -1.390208e+001
    endloop
  endfacet
  facet normal 9.431544e-001 8.050638e-017 3.323548e-001
    outer loop
      vertex   -4.678200e+001 2.540000e+002 -1.980112e+001
      vertex   -4.886074e+001 1.270000e+002 -1.390208e+001
      vertex   -4.678200e+001 1.270000e+002 -1.980112e+001
    endloop
  endfacet
  facet normal 8.951633e-001 1.140507e-016 4.457384e-001
    outer loop
      vertex   -4.399409e+001 2.540000e+002 -2.540000e+001
      vertex   -4.678200e+001 1.270000e+002 -1.980112e+001
      vertex   -4.399409e+001 1.270000e+002 -2.540000e+001
    endloop
  endfacet
  facet normal 8.336024e-001 4.919834e-017 5.523650e-001
    outer loop
      vertex   -4.053928e+001 2.540000e+002 -3.061384e+001
      vertex   -4.399409e+001 1.270000e+002 -2.540000e+001
      vertex   -4.053928e+001 1.270000e+002 -3.061384e+001
    endloop
  endfacet
  facet normal 7.594049e-001 8.497895e-017 6.506183e-001
    outer loop
      vertex   -3.646993e+001 2.540000e+002 -3.536360e+001
      vertex   -4.053928e+001 1.270000e+002 -3.061384e+001
      vertex   -3.646993e+001 1.270000e+002 -3.536360e+001
    endloop
  endfacet
  facet normal 6.736956e-001 7.603380e-017 7.390089e-001
    outer loop
      vertex   -3.184773e+001 2.540000e+002 -3.957729e+001
      vertex   -3.646993e+001 1.270000e+002 -3.536360e+001
      vertex   -3.184773e+001 1.270000e+002 -3.957729e+001
    endloop
  endfacet
  facet normal 5.777738e-001 8.497895e-017 8.161969e-001
    outer loop
      vertex   -2.674275e+001 2.540000e+002 -4.319103e+001
      vertex   -3.184773e+001 1.270000e+002 -3.957729e+001
      vertex   -2.674275e+001 1.270000e+002 -4.319103e+001
    endloop
  endfacet
  facet normal 4.730936e-001 5.367092e-017 8.810122e-001
    outer loop
      vertex   -2.123239e+001 2.540000e+002 -4.615004e+001
      vertex   -2.674275e+001 1.270000e+002 -4.319103e+001
      vertex   -2.123239e+001 1.270000e+002 -4.615004e+001
    endloop
  endfacet
  facet normal 3.612417e-001 4.025319e-017 9.324722e-001
    outer loop
      vertex   -1.540016e+001 2.540000e+002 -4.840945e+001
      vertex   -2.123239e+001 1.270000e+002 -4.615004e+001
      vertex   -1.540016e+001 1.270000e+002 -4.840945e+001
    endloop
  endfacet
  facet normal 2.439137e-001 2.907175e-017 9.697969e-001
    outer loop
      vertex   -9.334476e+000 2.540000e+002 -4.993503e+001
      vertex   -1.540016e+001 1.270000e+002 -4.840945e+001
      vertex   -9.334476e+000 1.270000e+002 -4.993503e+001
    endloop
  endfacet
  facet normal 1.228883e-001 1.453587e-017 9.924205e-001
    outer loop
      vertex   -3.127294e+000 2.540000e+002 -5.070365e+001
      vertex   -9.334476e+000 1.270000e+002 -4.993503e+001
      vertex   -3.127294e+000 1.270000e+002 -5.070365e+001
    endloop
  endfacet
  facet normal -0.000000e+000 0.000000e+000 1.000000e+000
    outer loop
      vertex   3.127294e+000 2.540000e+002 -5.070365e+001
      vertex   -3.127294e+000 1.270000e+002 -5.070365e+001
      vertex   3.127294e+000 1.270000e+002 -5.070365e+001
    endloop
  endfacet
  facet normal -1.228883e-001 -1.341773e-017 9.924205e-001
    outer loop
      vertex   9.334476e+000 2.540000e+002 -4.993503e+001
      vertex   3.127294e+000 1.270000e+002 -5.070365e+001
      vertex   9.334476e+000 1.270000e+002 -4.993503e+001
    endloop
  endfacet
  facet normal -2.439137e-001 -2.907175e-017 9.697969e-001
    outer loop
      vertex   1.540016e+001 2.540000e+002 -4.840945e+001
      vertex   9.334476e+000 1.270000e+002 -4.993503e+001
      vertex   1.540016e+001 1.270000e+002 -4.840945e+001
    endloop
  endfacet
  facet normal -3.612417e-001 -4.025319e-017 9.324722e-001
    outer loop
      vertex   2.123239e+001 2.540000e+002 -4.615004e+001
      vertex   1.540016e+001 1.270000e+002 -4.840945e+001
      vertex   2.123239e+001 1.270000e+002 -4.615004e+001
    endloop
  endfacet
  facet normal -4.730936e-001 -5.367092e-017 8.810122e-001
    outer loop
      vertex   2.674275e+001 2.540000e+002 -4.319103e+001
      vertex   2.123239e+001 1.270000e+002 -4.615004e+001
      vertex   2.674275e+001 1.270000e+002 -4.319103e+001
    endloop
  endfacet
  facet normal -5.777738e-001 -6.261607e-017 8.161969e-001
    outer loop
      vertex   3.184773e+001 2.540000e+002 -3.957729e+001
      vertex   2.674275e+001 1.270000e+002 -4.319103e+001
      vertex   3.184773e+001 1.270000e+002 -3.957729e+001
    endloop
  endfacet
  facet normal -6.736956e-001 -7.156122e-017 7.390089e-001
    outer loop
      vertex   3.646993e+001 2.540000e+002 -3.536360e+001
      vertex   3.184773e+001 1.270000e+002 -3.957729e+001
      vertex   3.646993e+001 1.270000e+002 -3.536360e+001
    endloop
  endfacet
  facet normal -7.594049e-001 -4.025319e-017 6.506183e-001
    outer loop
      vertex   4.053928e+001 2.540000e+002 -3.061384e+001
      vertex   3.646993e+001 1.270000e+002 -3.536360e+001
      vertex   4.053928e+001 1.270000e+002 -3.061384e+001
    endloop
  endfacet
  facet normal -8.336024e-001 -8.050638e-017 5.523650e-001
    outer loop
      vertex   4.399409e+001 2.540000e+002 -2.540000e+001
      vertex   4.053928e+001 1.270000e+002 -3.061384e+001
      vertex   4.399409e+001 1.270000e+002 -2.540000e+001
    endloop
  endfacet
  facet normal -8.951633e-001 -8.721524e-017 4.457384e-001
    outer loop
      vertex   4.678200e+001 2.540000e+002 -1.980112e+001
      vertex   4.399409e+001 1.270000e+002 -2.540000e+001
      vertex   4.678200e+001 1.270000e+002 -1.980112e+001
    endloop
  endfacet
  facet normal -9.431544e-001 -7.827009e-017 3.323548e-001
    outer loop
      vertex   4.886074e+001 2.540000e+002 -1.390208e+001
      vertex   4.678200e+001 1.270000e+002 -1.980112e+001
      vertex   4.886074e+001 1.270000e+002 -1.390208e+001
    endloop
  endfacet
  facet normal -9.768483e-001 -7.603380e-017 2.139331e-001
    outer loop
      vertex   5.019881e+001 2.540000e+002 -7.792296e+000
      vertex   4.886074e+001 1.270000e+002 -1.390208e+001
      vertex   5.019881e+001 1.270000e+002 -7.792296e+000
    endloop
  endfacet
  facet normal -9.957342e-001 -1.118144e-016 9.226836e-002
    outer loop
      vertex   5.077591e+001 2.540000e+002 -1.564389e+000
      vertex   5.019881e+001 1.270000e+002 -7.792296e+000
      vertex   5.077591e+001 1.270000e+002 -1.564389e+000
    endloop
  endfacet
  facet normal -9.995257e-001 -1.146098e-016 -3.079506e-002
    outer loop
      vertex   5.058330e+001 2.540000e+002 4.687233e+000
      vertex   5.077591e+001 1.270000e+002 -1.564389e+000
      vertex   5.058330e+001 1.270000e+002 4.687233e+000
    endloop
  endfacet
  facet normal -9.881655e-001 -9.727854e-017 -1.533917e-001
    outer loop
      vertex   4.962389e+001 2.540000e+002 1.086780e+001
      vertex   5.058330e+001 1.270000e+002 4.687233e+000
      vertex   4.962389e+001 1.270000e+002 1.086780e+001
    endloop
  endfacet
  facet normal -9.618256e-001 -1.073418e-016 -2.736630e-001
    outer loop
      vertex   4.791225e+001 2.540000e+002 1.688362e+001
      vertex   4.962389e+001 1.270000e+002 1.086780e+001
      vertex   4.791225e+001 1.270000e+002 1.688362e+001
    endloop
  endfacet
  facet normal -9.209055e-001 -6.485236e-017 -3.897859e-001
    outer loop
      vertex   4.547430e+001 2.540000e+002 2.264351e+001
      vertex   4.791225e+001 1.270000e+002 1.688362e+001
      vertex   4.547430e+001 1.270000e+002 2.264351e+001
    endloop
  endfacet
  facet normal -8.660254e-001 -4.919834e-017 -5.000000e-001
    outer loop
      vertex   4.234700e+001 2.540000e+002 2.806014e+001
      vertex   4.547430e+001 1.270000e+002 2.264351e+001
      vertex   4.234700e+001 1.270000e+002 2.806014e+001
    endloop
  endfacet
  facet normal -7.980172e-001 -8.945153e-017 -6.026346e-001
    outer loop
      vertex   3.857777e+001 2.540000e+002 3.305141e+001
      vertex   4.234700e+001 1.270000e+002 2.806014e+001
      vertex   3.857777e+001 1.270000e+002 3.305141e+001
    endloop
  endfacet
  facet normal -7.179119e-001 -1.207596e-016 -6.961339e-001
    outer loop
      vertex   3.422374e+001 2.540000e+002 3.754165e+001
      vertex   3.857777e+001 1.270000e+002 3.305141e+001
      vertex   3.422374e+001 1.270000e+002 3.754165e+001
    endloop
  endfacet
  facet normal -6.269238e-001 -7.156122e-017 -7.790806e-001
    outer loop
      vertex   2.935091e+001 2.540000e+002 4.146280e+001
      vertex   3.422374e+001 1.270000e+002 3.754165e+001
      vertex   2.935091e+001 1.270000e+002 4.146280e+001
    endloop
  endfacet
  facet normal -5.264322e-001 -6.708865e-017 -8.502171e-001
    outer loop
      vertex   2.403315e+001 2.540000e+002 4.475542e+001
      vertex   2.935091e+001 1.270000e+002 4.146280e+001
      vertex   2.403315e+001 1.270000e+002 4.475542e+001
    endloop
  endfacet
  facet normal -4.179603e-001 -4.696205e-017 -9.084653e-001
    outer loop
      vertex   1.835108e+001 2.540000e+002 4.736959e+001
      vertex   2.403315e+001 1.270000e+002 4.475542e+001
      vertex   1.835108e+001 1.270000e+002 4.736959e+001
    endloop
  endfacet
  facet normal -3.031527e-001 -2.907175e-017 -9.529420e-001
    outer loop
      vertex   1.239082e+001 2.540000e+002 4.926568e+001
      vertex   1.835108e+001 1.270000e+002 4.736959e+001
      vertex   1.239082e+001 1.270000e+002 4.926568e+001
    endloop
  endfacet
  facet normal -1.837495e-001 -5.367092e-017 -9.829731e-001
    outer loop
      vertex   6.242725e+000 2.540000e+002 5.041496e+001
      vertex   1.239082e+001 1.270000e+002 4.926568e+001
      vertex   6.242725e+000 1.270000e+002 5.041496e+001
    endloop
  endfacet
  facet normal -6.156091e-002 -6.708865e-018 -9.981033e-001
    outer loop
      vertex   -1.575725e-014 2.540000e+002 5.080000e+001
      vertex   6.242725e+000 1.270000e+002 5.041496e+001
      vertex   -1.657421e-015 1.270000e+002 5.080000e+001
    endloop
  endfacet
  facet normal 6.156091e-002 6.834634e-018 -9.981033e-001
    outer loop
      vertex   -6.242725e+000 2.540000e+002 5.041496e+001
      vertex   -1.575725e-014 2.540000e+002 5.080000e+001
      vertex   -1.657421e-015 1.270000e+002 5.080000e+001
    endloop
  endfacet
  facet normal 4.179603e-001 4.676830e-017 -9.084653e-001
    outer loop
      vertex   -1.835108e+001 2.540000e+002 4.736959e+001
      vertex   -1.835108e+001 1.270000e+002 4.736959e+001
      vertex   -2.403315e+001 2.540000e+002 4.475542e+001
    endloop
  endfacet
  facet normal 5.264322e-001 6.568336e-017 -8.502171e-001
    outer loop
      vertex   -2.403315e+001 2.540000e+002 4.475542e+001
      vertex   -2.403315e+001 1.270000e+002 4.475542e+001
      vertex   -2.935091e+001 2.540000e+002 4.146280e+001
    endloop
  endfacet
  facet normal 6.269238e-001 7.015058e-017 -7.790806e-001
    outer loop
      vertex   -2.935091e+001 2.540000e+002 4.146280e+001
      vertex   -2.935091e+001 1.270000e+002 4.146280e+001
      vertex   -3.422374e+001 2.540000e+002 3.754165e+001
    endloop
  endfacet
  facet normal 7.179119e-001 1.229346e-016 -6.961339e-001
    outer loop
      vertex   -3.422374e+001 2.540000e+002 3.754165e+001
      vertex   -3.422374e+001 1.270000e+002 3.754165e+001
      vertex   -3.857777e+001 2.540000e+002 3.305141e+001
    endloop
  endfacet
  facet normal 7.980172e-001 8.929533e-017 -6.026346e-001
    outer loop
      vertex   -3.857777e+001 2.540000e+002 3.305141e+001
      vertex   -3.857777e+001 1.270000e+002 3.305141e+001
      vertex   -4.234700e+001 2.540000e+002 2.806014e+001
    endloop
  endfacet
  facet normal 8.660254e-001 4.845260e-017 -5.000000e-001
    outer loop
      vertex   -4.234700e+001 2.540000e+002 2.806014e+001
      vertex   -4.234700e+001 1.270000e+002 2.806014e+001
      vertex   -4.547430e+001 2.540000e+002 2.264351e+001
    endloop
  endfacet
  facet normal 9.209055e-001 6.542351e-017 -3.897859e-001
    outer loop
      vertex   -4.547430e+001 2.540000e+002 2.264351e+001
      vertex   -4.547430e+001 1.270000e+002 2.264351e+001
      vertex   -4.791225e+001 2.540000e+002 1.688362e+001
    endloop
  endfacet
  facet normal 9.618256e-001 1.076249e-016 -2.736630e-001
    outer loop
      vertex   -4.791225e+001 2.540000e+002 1.688362e+001
      vertex   -4.791225e+001 1.270000e+002 1.688362e+001
      vertex   -4.962389e+001 2.540000e+002 1.086780e+001
    endloop
  endfacet
  facet normal 9.881655e-001 9.769926e-017 -1.533917e-001
    outer loop
      vertex   -4.962389e+001 2.540000e+002 1.086780e+001
      vertex   -4.962389e+001 1.270000e+002 1.086780e+001
      vertex   -5.058330e+001 2.540000e+002 4.687233e+000
    endloop
  endfacet
  facet normal 9.995257e-001 1.146432e-016 -3.079506e-002
    outer loop
      vertex   -5.058330e+001 2.540000e+002 4.687233e+000
      vertex   -5.058330e+001 1.270000e+002 4.687233e+000
      vertex   -5.077591e+001 2.540000e+002 -1.564389e+000
    endloop
  endfacet
  facet normal 9.957342e-001 1.114192e-016 9.226836e-002
    outer loop
      vertex   -5.077591e+001 2.540000e+002 -1.564389e+000
      vertex   -5.077591e+001 1.270000e+002 -1.564389e+000
      vertex   -5.019881e+001 2.540000e+002 -7.792296e+000
    endloop
  endfacet
  facet normal 9.768483e-001 7.489451e-017 2.139331e-001
    outer loop
      vertex   -5.019881e+001 2.540000e+002 -7.792296e+000
      vertex   -5.019881e+001 1.270000e+002 -7.792296e+000
      vertex   -4.886074e+001 2.540000e+002 -1.390208e+001
    endloop
  endfacet
  facet normal 9.431544e-001 7.764367e-017 3.323548e-001
    outer loop
      vertex   -4.886074e+001 2.540000e+002 -1.390208e+001
      vertex   -4.886074e+001 1.270000e+002 -1.390208e+001
      vertex   -4.678200e+001 2.540000e+002 -1.980112e+001
    endloop
  endfacet
  facet normal 8.951633e-001 8.749024e-017 4.457384e-001
    outer loop
      vertex   -4.678200e+001 2.540000e+002 -1.980112e+001
      vertex   -4.678200e+001 1.270000e+002 -1.980112e+001
      vertex   -4.399409e+001 2.540000e+002 -2.540000e+001
    endloop
  endfacet
  facet normal 8.336024e-001 7.839089e-017 5.523650e-001
    outer loop
      vertex   -4.399409e+001 2.540000e+002 -2.540000e+001
      vertex   -4.399409e+001 1.270000e+002 -2.540000e+001
      vertex   -4.053928e+001 2.540000e+002 -3.061384e+001
    endloop
  endfacet
  facet normal 7.594049e-001 4.248737e-017 6.506183e-001
    outer loop
      vertex   -4.053928e+001 2.540000e+002 -3.061384e+001
      vertex   -4.053928e+001 1.270000e+002 -3.061384e+001
      vertex   -3.646993e+001 2.540000e+002 -3.536360e+001
    endloop
  endfacet
  facet normal 6.736956e-001 7.538418e-017 7.390089e-001
    outer loop
      vertex   -3.646993e+001 2.540000e+002 -3.536360e+001
      vertex   -3.646993e+001 1.270000e+002 -3.536360e+001
      vertex   -3.184773e+001 2.540000e+002 -3.957729e+001
    endloop
  endfacet
  facet normal 5.777738e-001 6.465087e-017 8.161969e-001
    outer loop
      vertex   -3.184773e+001 2.540000e+002 -3.957729e+001
      vertex   -3.184773e+001 1.270000e+002 -3.957729e+001
      vertex   -2.674275e+001 2.540000e+002 -4.319103e+001
    endloop
  endfacet
  facet normal 4.730936e-001 5.658393e-017 8.810122e-001
    outer loop
      vertex   -2.674275e+001 2.540000e+002 -4.319103e+001
      vertex   -2.674275e+001 1.270000e+002 -4.319103e+001
      vertex   -2.123239e+001 2.540000e+002 -4.615004e+001
    endloop
  endfacet
  facet normal 3.612417e-001 4.042168e-017 9.324722e-001
    outer loop
      vertex   -2.123239e+001 2.540000e+002 -4.615004e+001
      vertex   -2.123239e+001 1.270000e+002 -4.615004e+001
      vertex   -1.540016e+001 2.540000e+002 -4.840945e+001
    endloop
  endfacet
  facet normal 2.439137e-001 2.729309e-017 9.697969e-001
    outer loop
      vertex   -1.540016e+001 2.540000e+002 -4.840945e+001
      vertex   -1.540016e+001 1.270000e+002 -4.840945e+001
      vertex   -9.334476e+000 2.540000e+002 -4.993503e+001
    endloop
  endfacet
  facet normal 1.228883e-001 1.375077e-017 9.924205e-001
    outer loop
      vertex   -9.334476e+000 2.540000e+002 -4.993503e+001
      vertex   -9.334476e+000 1.270000e+002 -4.993503e+001
      vertex   -3.127294e+000 2.540000e+002 -5.070365e+001
    endloop
  endfacet
  facet normal -0.000000e+000 0.000000e+000 1.000000e+000
    outer loop
      vertex   -3.127294e+000 2.540000e+002 -5.070365e+001
      vertex   -3.127294e+000 1.270000e+002 -5.070365e+001
      vertex   3.127294e+000 2.540000e+002 -5.070365e+001
    endloop
  endfacet
  facet normal -1.228883e-001 -1.332106e-017 9.924205e-001
    outer loop
      vertex   3.127294e+000 2.540000e+002 -5.070365e+001
      vertex   3.127294e+000 1.270000e+002 -5.070365e+001
      vertex   9.334476e+000 2.540000e+002 -4.993503e+001
    endloop
  endfacet
  facet normal -2.439137e-001 -2.729309e-017 9.697969e-001
    outer loop
      vertex   9.334476e+000 2.540000e+002 -4.993503e+001
      vertex   9.334476e+000 1.270000e+002 -4.993503e+001
      vertex   1.540016e+001 2.540000e+002 -4.840945e+001
    endloop
  endfacet
  facet normal -3.612417e-001 -4.042168e-017 9.324722e-001
    outer loop
      vertex   1.540016e+001 2.540000e+002 -4.840945e+001
      vertex   1.540016e+001 1.270000e+002 -4.840945e+001
      vertex   2.123239e+001 2.540000e+002 -4.615004e+001
    endloop
  endfacet
  facet normal -4.730936e-001 -5.293751e-017 8.810122e-001
    outer loop
      vertex   2.123239e+001 2.540000e+002 -4.615004e+001
      vertex   2.123239e+001 1.270000e+002 -4.615004e+001
      vertex   2.674275e+001 2.540000e+002 -4.319103e+001
    endloop
  endfacet
  facet normal -5.777738e-001 -8.363695e-017 8.161969e-001
    outer loop
      vertex   2.674275e+001 2.540000e+002 -4.319103e+001
      vertex   2.674275e+001 1.270000e+002 -4.319103e+001
      vertex   3.184773e+001 2.540000e+002 -3.957729e+001
    endloop
  endfacet
  facet normal -6.736956e-001 -7.538418e-017 7.390089e-001
    outer loop
      vertex   3.184773e+001 2.540000e+002 -3.957729e+001
      vertex   3.184773e+001 1.270000e+002 -3.957729e+001
      vertex   3.646993e+001 2.540000e+002 -3.536360e+001
    endloop
  endfacet
  facet normal -7.594049e-001 -8.497475e-017 6.506183e-001
    outer loop
      vertex   3.646993e+001 2.540000e+002 -3.536360e+001
      vertex   3.646993e+001 1.270000e+002 -3.536360e+001
      vertex   4.053928e+001 2.540000e+002 -3.061384e+001
    endloop
  endfacet
  facet normal -8.336024e-001 -4.663859e-017 5.523650e-001
    outer loop
      vertex   4.053928e+001 2.540000e+002 -3.061384e+001
      vertex   4.053928e+001 1.270000e+002 -3.061384e+001
      vertex   4.399409e+001 2.540000e+002 -2.540000e+001
    endloop
  endfacet
  facet normal -8.951633e-001 -1.130473e-016 4.457384e-001
    outer loop
      vertex   4.399409e+001 2.540000e+002 -2.540000e+001
      vertex   4.399409e+001 1.270000e+002 -2.540000e+001
      vertex   4.678200e+001 2.540000e+002 -1.980112e+001
    endloop
  endfacet
  facet normal -9.431544e-001 -8.065984e-017 3.323548e-001
    outer loop
      vertex   4.678200e+001 2.540000e+002 -1.980112e+001
      vertex   4.678200e+001 1.270000e+002 -1.980112e+001
      vertex   4.886074e+001 2.540000e+002 -1.390208e+001
    endloop
  endfacet
  facet normal -9.768483e-001 -9.135213e-017 2.139331e-001
    outer loop
      vertex   4.886074e+001 2.540000e+002 -1.390208e+001
      vertex   4.886074e+001 1.270000e+002 -1.390208e+001
      vertex   5.019881e+001 2.540000e+002 -7.792296e+000
    endloop
  endfacet
  facet normal -9.957342e-001 -9.657769e-017 9.226836e-002
    outer loop
      vertex   5.019881e+001 2.540000e+002 -7.792296e+000
      vertex   5.019881e+001 1.270000e+002 -7.792296e+000
      vertex   5.077591e+001 2.540000e+002 -1.564389e+000
    endloop
  endfacet
  facet normal -9.995257e-001 -1.118434e-016 -3.079506e-002
    outer loop
      vertex   5.077591e+001 2.540000e+002 -1.564389e+000
      vertex   5.077591e+001 1.270000e+002 -1.564389e+000
      vertex   5.058330e+001 2.540000e+002 4.687233e+000
    endloop
  endfacet
  facet normal -9.881655e-001 -1.245180e-016 -1.533917e-001
    outer loop
      vertex   5.058330e+001 2.540000e+002 4.687233e+000
      vertex   5.058330e+001 1.270000e+002 4.687233e+000
      vertex   4.962389e+001 2.540000e+002 1.086780e+001
    endloop
  endfacet
  facet normal -9.618256e-001 -8.465847e-017 -2.736630e-001
    outer loop
      vertex   4.962389e+001 2.540000e+002 1.086780e+001
      vertex   4.962389e+001 1.270000e+002 1.086780e+001
      vertex   4.791225e+001 2.540000e+002 1.688362e+001
    endloop
  endfacet
  facet normal -9.209055e-001 -1.030461e-016 -3.897859e-001
    outer loop
      vertex   4.791225e+001 2.540000e+002 1.688362e+001
      vertex   4.791225e+001 1.270000e+002 1.688362e+001
      vertex   4.547430e+001 2.540000e+002 2.264351e+001
    endloop
  endfacet
  facet normal -8.660254e-001 -8.392237e-017 -5.000000e-001
    outer loop
      vertex   4.547430e+001 2.540000e+002 2.264351e+001
      vertex   4.547430e+001 1.270000e+002 2.264351e+001
      vertex   4.234700e+001 2.540000e+002 2.806014e+001
    endloop
  endfacet
  facet normal -7.980172e-001 -4.464766e-017 -6.026346e-001
    outer loop
      vertex   4.234700e+001 2.540000e+002 2.806014e+001
      vertex   4.234700e+001 1.270000e+002 2.806014e+001
      vertex   3.857777e+001 2.540000e+002 3.305141e+001
    endloop
  endfacet
  facet normal -7.179119e-001 -8.033183e-017 -6.961339e-001
    outer loop
      vertex   3.857777e+001 2.540000e+002 3.305141e+001
      vertex   3.857777e+001 1.270000e+002 3.305141e+001
      vertex   3.422374e+001 2.540000e+002 3.754165e+001
    endloop
  endfacet
  facet normal -6.269238e-001 -8.820005e-017 -7.790806e-001
    outer loop
      vertex   3.422374e+001 2.540000e+002 3.754165e+001
      vertex   3.422374e+001 1.270000e+002 3.754165e+001
      vertex   2.935091e+001 2.540000e+002 4.146280e+001
    endloop
  endfacet
  facet normal -5.264322e-001 -5.890591e-017 -8.502171e-001
    outer loop
      vertex   2.935091e+001 2.540000e+002 4.146280e+001
      vertex   2.935091e+001 1.270000e+002 4.146280e+001
      vertex   2.403315e+001 2.540000e+002 4.475542e+001
    endloop
  endfacet
  facet normal -4.179603e-001 -7.826993e-017 -9.084653e-001
    outer loop
      vertex   2.403315e+001 2.540000e+002 4.475542e+001
      vertex   2.403315e+001 1.270000e+002 4.475542e+001
      vertex   1.835108e+001 2.540000e+002 4.736959e+001
    endloop
  endfacet
  facet normal -3.031527e-001 -3.392172e-017 -9.529420e-001
    outer loop
      vertex   1.835108e+001 2.540000e+002 4.736959e+001
      vertex   1.835108e+001 1.270000e+002 4.736959e+001
      vertex   1.239082e+001 2.540000e+002 4.926568e+001
    endloop
  endfacet
  facet normal -1.837495e-001 -1.799081e-017 -9.829731e-001
    outer loop
      vertex   1.239082e+001 2.540000e+002 4.926568e+001
      vertex   1.239082e+001 1.270000e+002 4.926568e+001
      vertex   6.242725e+000 2.540000e+002 5.041496e+001
    endloop
  endfacet
  facet normal -6.156091e-002 -1.765165e-017 -9.981033e-001
    outer loop
      vertex   6.242725e+000 2.540000e+002 5.041496e+001
      vertex   6.242725e+000 1.270000e+002 5.041496e+001
      vertex   -1.575725e-014 2.540000e+002 5.080000e+001
    endloop
  endfacet
  facet normal 0.000000e+000 1.000000e+000 0.000000e+000
    outer loop
      vertex   6.242725e+000 1.270000e+002 5.041496e+001
      vertex   3.127294e+000 1.270000e+002 -5.070365e+001
      vertex   -1.657421e-015 1.270000e+002 5.080000e+001
    endloop
  endfacet
  facet normal 0.000000e+000 1.000000e+000 0.000000e+000
    outer loop
      vertex   6.242725e+000 1.270000e+002 5.041496e+001
      vertex   9.334476e+000 1.270000e+002 -4.993503e+001
      vertex   3.127294e+000 1.270000e+002 -5.070365e+001
    endloop
  endfacet
  facet normal 0.000000e+000 1.000000e+000 0.000000e+000
    outer loop
      vertex   6.242725e+000 1.270000e+002 5.041496e+001
      vertex   1.239082e+001 1.270000e+002 4.926568e+001
      vertex   9.334476e+000 1.270000e+002 -4.993503e+001
    endloop
  endfacet
  facet normal -0.000000e+000 1.000000e+000 0.000000e+000
    outer loop
      vertex   9.334476e+000 1.270000e+002 -4.993503e+001
      vertex   1.239082e+001 1.270000e+002 4.926568e+001
      vertex   1.540016e+001 1.270000e+002 -4.840945e+001
    endloop
  endfacet
  facet normal -0.000000e+000 1.000000e+000 -0.000000e+000
    outer loop
      vertex   1.540016e+001 1.270000e+002 -4.840945e+001
      vertex   1.239082e+001 1.270000e+002 4.926568e+001
      vertex   2.123239e+001 1.270000e+002 -4.615004e+001
    endloop
  endfacet
  facet normal -0.000000e+000 1.000000e+000 -0.000000e+000
    outer loop
      vertex   2.123239e+001 1.270000e+002 -4.615004e+001
      vertex   1.239082e+001 1.270000e+002 4.926568e+001
      vertex   2.674275e+001 1.270000e+002 -4.319103e+001
    endloop
  endfacet
  facet normal -0.000000e+000 1.000000e+000 -0.000000e+000
    outer loop
      vertex   2.674275e+001 1.270000e+002 -4.319103e+001
      vertex   1.239082e+001 1.270000e+002 4.926568e+001
      vertex   3.184773e+001 1.270000e+002 -3.957729e+001
    endloop
  endfacet
  facet normal -0.000000e+000 1.000000e+000 -0.000000e+000
    outer loop
      vertex   3.184773e+001 1.270000e+002 -3.957729e+001
      vertex   1.239082e+001 1.270000e+002 4.926568e+001
      vertex   3.646993e+001 1.270000e+002 -3.536360e+001
    endloop
  endfacet
  facet normal -0.000000e+000 1.000000e+000 -0.000000e+000
    outer loop
      vertex   3.646993e+001 1.270000e+002 -3.536360e+001
      vertex   1.239082e+001 1.270000e+002 4.926568e+001
      vertex   4.053928e+001 1.270000e+002 -3.061384e+001
    endloop
  endfacet
  facet normal -0.000000e+000 1.000000e+000 -0.000000e+000
    outer loop
      vertex   4.053928e+001 1.270000e+002 -3.061384e+001
      vertex   1.239082e+001 1.270000e+002 4.926568e+001
      vertex   4.399409e+001 1.270000e+002 -2.540000e+001
    endloop
  endfacet
  facet normal -0.000000e+000 1.000000e+000 -0.000000e+000
    outer loop
      vertex   4.399409e+001 1.270000e+002 -2.540000e+001
      vertex   1.239082e+001 1.270000e+002 4.926568e+001
      vertex   4.678200e+001 1.270000e+002 -1.980112e+001
    endloop
  endfacet
  facet normal -0.000000e+000 1.000000e+000 -0.000000e+000
    outer loop
      vertex   4.678200e+001 1.270000e+002 -1.980112e+001
      vertex   1.239082e+001 1.270000e+002 4.926568e+001
      vertex   4.886074e+001 1.270000e+002 -1.390208e+001
    endloop
  endfacet
  facet normal -0.000000e+000 1.000000e+000 -0.000000e+000
    outer loop
      vertex   4.886074e+001 1.270000e+002 -1.390208e+001
      vertex   1.239082e+001 1.270000e+002 4.926568e+001
      vertex   5.019881e+001 1.270000e+002 -7.792296e+000
    endloop
  endfacet
  facet normal -0.000000e+000 1.000000e+000 -0.000000e+000
    outer loop
      vertex   5.019881e+001 1.270000e+002 -7.792296e+000
      vertex   1.239082e+001 1.270000e+002 4.926568e+001
      vertex   5.077591e+001 1.270000e+002 -1.564389e+000
    endloop
  endfacet
  facet normal -0.000000e+000 1.000000e+000 -0.000000e+000
    outer loop
      vertex   5.077591e+001 1.270000e+002 -1.564389e+000
      vertex   1.239082e+001 1.270000e+002 4.926568e+001
      vertex   5.058330e+001 1.270000e+002 4.687233e+000
    endloop
  endfacet
  facet normal -0.000000e+000 1.000000e+000 -0.000000e+000
    outer loop
      vertex   5.058330e+001 1.270000e+002 4.687233e+000
      vertex   1.239082e+001 1.270000e+002 4.926568e+001
      vertex   4.962389e+001 1.270000e+002 1.086780e+001
    endloop
  endfacet
  facet normal -0.000000e+000 1.000000e+000 -0.000000e+000
    outer loop
      vertex   4.962389e+001 1.270000e+002 1.086780e+001
      vertex   1.239082e+001 1.270000e+002 4.926568e+001
      vertex   4.791225e+001 1.270000e+002 1.688362e+001
    endloop
  endfacet
  facet normal -0.000000e+000 1.000000e+000 -0.000000e+000
    outer loop
      vertex   4.791225e+001 1.270000e+002 1.688362e+001
      vertex   1.239082e+001 1.270000e+002 4.926568e+001
      vertex   4.547430e+001 1.270000e+002 2.264351e+001
    endloop
  endfacet
  facet normal -0.000000e+000 1.000000e+000 -0.000000e+000
    outer loop
      vertex   4.547430e+001 1.270000e+002 2.264351e+001
      vertex   1.239082e+001 1.270000e+002 4.926568e+001
      vertex   4.234700e+001 1.270000e+002 2.806014e+001
    endloop
  endfacet
  facet normal -0.000000e+000 1.000000e+000 -0.000000e+000
    outer loop
      vertex   4.234700e+001 1.270000e+002 2.806014e+001
      vertex   1.239082e+001 1.270000e+002 4.926568e+001
      vertex   3.857777e+001 1.270000e+002 3.305141e+001
    endloop
  endfacet
  facet normal -0.000000e+000 1.000000e+000 -0.000000e+000
    outer loop
      vertex   3.857777e+001 1.270000e+002 3.305141e+001
      vertex   1.239082e+001 1.270000e+002 4.926568e+001
      vertex   3.422374e+001 1.270000e+002 3.754165e+001
    endloop
  endfacet
  facet normal -0.000000e+000 1.000000e+000 -0.000000e+000
    outer loop
      vertex   3.422374e+001 1.270000e+002 3.754165e+001
      vertex   1.239082e+001 1.270000e+002 4.926568e+001
      vertex   2.935091e+001 1.270000e+002 4.146280e+001
    endloop
  endfacet
  facet normal -0.000000e+000 1.000000e+000 -0.000000e+000
    outer loop
      vertex   2.935091e+001 1.270000e+002 4.146280e+001
      vertex   1.239082e+001 1.270000e+002 4.926568e+001
      vertex   2.403315e+001 1.270000e+002 4.475542e+001
    endloop
  endfacet
  facet normal -0.000000e+000 1.000000e+000 -0.000000e+000
    outer loop
      vertex   2.403315e+001 1.270000e+002 4.475542e+001
      vertex   1.239082e+001 1.270000e+002 4.926568e+001
      vertex   1.835108e+001 1.270000e+002 4.736959e+001
    endloop
  endfacet
  facet normal 0.000000e+000 1.000000e+000 -0.000000e+000
    outer loop
      vertex   3.127294e+000 1.270000e+002 -5.070365e+001
      vertex   -3.127294e+000 1.270000e+002 -5.070365e+001
      vertex   -1.657421e-015 1.270000e+002 5.080000e+001
    endloop
  endfacet
  facet normal 0.000000e+000 1.000000e+000 0.000000e+000
    outer loop
      vertex   -1.657421e-015 1.270000e+002 5.080000e+001
      vertex   -3.127294e+000 1.270000e+002 -5.070365e+001
      vertex   -6.242725e+000 1.270000e+002 5.041496e+001
    endloop
  endfacet
  facet normal 0.000000e+000 1.000000e+000 0.000000e+000
    outer loop
      vertex   -6.242725e+000 1.270000e+002 5.041496e+001
      vertex   -3.127294e+000 1.270000e+002 -5.070365e+001
      vertex   -9.334476e+000 1.270000e+002 -4.993503e+001
    endloop
  endfacet
  facet normal 0.000000e+000 1.000000e+000 0.000000e+000
    outer loop
      vertex   -1.239082e+001 1.270000e+002 4.926568e+001
      vertex   -9.334476e+000 1.270000e+002 -4.993503e+001
      vertex   -1.540016e+001 1.270000e+002 -4.840945e+001
    endloop
  endfacet
  facet normal 0.000000e+000 1.000000e+000 0.000000e+000
    outer loop
      vertex   -1.835108e+001 1.270000e+002 4.736959e+001
      vertex   -1.540016e+001 1.270000e+002 -4.840945e+001
      vertex   -2.123239e+001 1.270000e+002 -4.615004e+001
    endloop
  endfacet
  facet normal 0.000000e+000 1.000000e+000 0.000000e+000
    outer loop
      vertex   -2.403315e+001 1.270000e+002 4.475542e+001
      vertex   -2.123239e+001 1.270000e+002 -4.615004e+001
      vertex   -2.674275e+001 1.270000e+002 -4.319103e+001
    endloop
  endfacet
  facet normal 0.000000e+000 1.000000e+000 0.000000e+000
    outer loop
      vertex   -2.935091e+001 1.270000e+002 4.146280e+001
      vertex   -2.674275e+001 1.270000e+002 -4.319103e+001
      vertex   -3.184773e+001 1.270000e+002 -3.957729e+001
    endloop
  endfacet
  facet normal 0.000000e+000 1.000000e+000 0.000000e+000
    outer loop
      vertex   -3.422374e+001 1.270000e+002 3.754165e+001
      vertex   -3.184773e+001 1.270000e+002 -3.957729e+001
      vertex   -3.646993e+001 1.270000e+002 -3.536360e+001
    endloop
  endfacet
  facet normal 0.000000e+000 1.000000e+000 0.000000e+000
    outer loop
      vertex   -3.857777e+001 1.270000e+002 3.305141e+001
      vertex   -3.646993e+001 1.270000e+002 -3.536360e+001
      vertex   -4.053928e+001 1.270000e+002 -3.061384e+001
    endloop
  endfacet
  facet normal 0.000000e+000 1.000000e+000 0.000000e+000
    outer loop
      vertex   -4.234700e+001 1.270000e+002 2.806014e+001
      vertex   -4.053928e+001 1.270000e+002 -3.061384e+001
      vertex   -4.399409e+001 1.270000e+002 -2.540000e+001
    endloop
  endfacet
  facet normal 0.000000e+000 1.000000e+000 0.000000e+000
    outer loop
      vertex   -4.547430e+001 1.270000e+002 2.264351e+001
      vertex   -4.399409e+001 1.270000e+002 -2.540000e+001
      vertex   -4.678200e+001 1.270000e+002 -1.980112e+001
    endloop
  endfacet
  facet normal 0.000000e+000 1.000000e+000 0.000000e+000
    outer loop
      vertex   -4.791225e+001 1.270000e+002 1.688362e+001
      vertex   -4.678200e+001 1.270000e+002 -1.980112e+001
      vertex   -4.886074e+001 1.270000e+002 -1.390208e+001
    endloop
  endfacet
  facet normal 0.000000e+000 1.000000e+000 0.000000e+000
    outer loop
      vertex   -4.962389e+001 1.270000e+002 1.086780e+001
      vertex   -4.886074e+001 1.270000e+002 -1.390208e+001
      vertex   -5.019881e+001 1.270000e+002 -7.792296e+000
    endloop
  endfacet
  facet normal 0.000000e+000 1.000000e+000 0.000000e+000
    outer loop
      vertex   -5.058330e+001 1.270000e+002 4.687233e+000
      vertex   -5.019881e+001 1.270000e+002 -7.792296e+000
      vertex   -5.077591e+001 1.270000e+002 -1.564389e+000
    endloop
  endfacet
  facet normal -0.000000e+000 1.000000e+000 0.000000e+000
    outer loop
      vertex   -5.058330e+001 1.270000e+002 4.687233e+000
      vertex   -4.962389e+001 1.270000e+002 1.086780e+001
      vertex   -5.019881e+001 1.270000e+002 -7.792296e+000
    endloop
  endfacet
  facet normal 0.000000e+000 1.000000e+000 0.000000e+000
    outer loop
      vertex   -6.242725e+000 1.270000e+002 5.041496e+001
      vertex   -9.334476e+000 1.270000e+002 -4.993503e+001
      vertex   -1.239082e+001 1.270000e+002 4.926568e+001
    endloop
  endfacet
  facet normal 0.000000e+000 1.000000e+000 0.000000e+000
    outer loop
      vertex   -1.239082e+001 1.270000e+002 4.926568e+001
      vertex   -1.540016e+001 1.270000e+002 -4.840945e+001
      vertex   -1.835108e+001 1.270000e+002 4.736959e+001
    endloop
  endfacet
  facet normal 0.000000e+000 1.000000e+000 0.000000e+000
    outer loop
      vertex   -1.835108e+001 1.270000e+002 4.736959e+001
      vertex   -2.123239e+001 1.270000e+002 -4.615004e+001
      vertex   -2.403315e+001 1.270000e+002 4.475542e+001
    endloop
  endfacet
  facet normal 0.000000e+000 1.000000e+000 0.000000e+000
    outer loop
      vertex   -2.403315e+001 1.270000e+002 4.475542e+001
      vertex   -2.674275e+001 1.270000e+002 -4.319103e+001
      vertex   -2.935091e+001 1.270000e+002 4.146280e+001
    endloop
  endfacet
  facet normal 0.000000e+000 1.000000e+000 0.000000e+000
    outer loop
      vertex   -2.935091e+001 1.270000e+002 4.146280e+001
      vertex   -3.184773e+001 1.270000e+002 -3.957729e+001
      vertex   -3.422374e+001 1.270000e+002 3.754165e+001
    endloop
  endfacet
  facet normal 0.000000e+000 1.000000e+000 0.000000e+000
    outer loop
      vertex   -3.422374e+001 1.270000e+002 3.754165e+001
      vertex   -3.646993e+001 1.270000e+002 -3.536360e+001
      vertex   -3.857777e+001 1.270000e+002 3.305141e+001
    endloop
  endfacet
  facet normal 0.000000e+000 1.000000e+000 0.000000e+000
    outer loop
      vertex   -3.857777e+001 1.270000e+002 3.305141e+001
      vertex   -4.053928e+001 1.270000e+002 -3.061384e+001
      vertex   -4.234700e+001 1.270000e+002 2.806014e+001
    endloop
  endfacet
  facet normal 0.000000e+000 1.000000e+000 0.000000e+000
    outer loop
      vertex   -4.234700e+001 1.270000e+002 2.806014e+001
      vertex   -4.399409e+001 1.270000e+002 -2.540000e+001
      vertex   -4.547430e+001 1.270000e+002 2.264351e+001
    endloop
  endfacet
  facet normal 0.000000e+000 1.000000e+000 0.000000e+000
    outer loop
      vertex   -4.547430e+001 1.270000e+002 2.264351e+001
      vertex   -4.678200e+001 1.270000e+002 -1.980112e+001
      vertex   -4.791225e+001 1.270000e+002 1.688362e+001
    endloop
  endfacet
  facet normal 0.000000e+000 1.000000e+000 0.000000e+000
    outer loop
      vertex   -4.791225e+001 1.270000e+002 1.688362e+001
      vertex   -4.886074e+001 1.270000e+002 -1.390208e+001
      vertex   -4.962389e+001 1.270000e+002 1.086780e+001
    endloop
  endfacet
  facet normal 0.000000e+000 1.000000e+000 0.000000e+000
    outer loop
      vertex   1.016000e+002 -1.016000e+002 1.905000e+002
      vertex   1.016000e+002 -1.016000e+002 -1.905000e+002
      vertex   -1.016000e+002 -1.016000e+002 1.905000e+002
    endloop
  endfacet
  facet normal 0.000000e+000 1.000000e+000 0.000000e+000
    outer loop
      vertex   -1.016000e+002 -1.016000e+002 1.905000e+002
      vertex   1.016000e+002 -1.016000e+002 -1.905000e+002
      vertex   -1.016000e+002 -1.016000e+002 -1.905000e+002
    endloop
  endfacet
  facet normal 1.000000e+000 6.993531e-017 -1.491953e-016
    outer loop
      vertex   -1.016000e+002 -1.016000e+002 1.905000e+002
      vertex   -1.016000e+002 -1.016000e+002 -1.905000e+002
      vertex   -1.016000e+002 1.016000e+002 1.905000e+002
    endloop
  endfacet
  facet normal 1.000000e+000 6.993531e-017 -1.491953e-016
    outer loop
      vertex   -1.016000e+002 1.016000e+002 1.905000e+002
      vertex   -1.016000e+002 -1.016000e+002 -1.905000e+002
      vertex   -1.016000e+002 1.016000e+002 -1.905000e+002
    endloop
  endfacet
  facet normal 2.098059e-016 -1.000000e+000 -3.130206e-032
    outer loop
      vertex   -1.016000e+002 1.016000e+002 1.905000e+002
      vertex   -1.016000e+002 1.016000e+002 -1.905000e+002
      vertex   1.016000e+002 1.016000e+002 1.905000e+002
    endloop
  endfacet
  facet normal 2.098059e-016 -1.000000e+000 -4.173608e-032
    outer loop
      vertex   1.016000e+002 1.016000e+002 1.905000e+002
      vertex   -1.016000e+002 1.016000e+002 -1.905000e+002
      vertex   1.016000e+002 1.016000e+002 -1.905000e+002
    endloop
  endfacet
  facet normal -1.000000e+000 -6.993531e-017 1.491953e-016
    outer loop
      vertex   1.016000e+002 1.016000e+002 1.905000e+002
      vertex   1.016000e+002 1.016000e+002 -1.905000e+002
      vertex   1.016000e+002 -1.016000e+002 1.905000e+002
    endloop
  endfacet
  facet normal -1.000000e+000 -6.993531e-017 1.491953e-016
    outer loop
      vertex   1.016000e+002 -1.016000e+002 1.905000e+002
      vertex   1.016000e+002 1.016000e+002 -1.905000e+002
      vertex   1.016000e+002 -1.016000e+002 -1.905000e+002
    endloop
  endfacet
  facet normal 1.000000e+000 7.459766e-017 -1.491953e-016
    outer loop
      vertex   1.524000e+002 -1.270000e+002 1.905000e+002
      vertex   1.524000e+002 -1.270000e+002 -1.905000e+002
      vertex   1.524000e+002 2.540000e+002 1.905000e+002
    endloop
  endfacet
  facet normal 1.000000e+000 7.459766e-017 -1.491953e-016
    outer loop
      vertex   1.524000e+002 2.540000e+002 1.905000e+002
      vertex   1.524000e+002 -1.270000e+002 -1.905000e+002
      vertex   1.524000e+002 2.540000e+002 -1.905000e+002
    endloop
  endfacet
  facet normal 0.000000e+000 -1.000000e+000 -0.000000e+000
    outer loop
      vertex   -1.524000e+002 -1.270000e+002 1.905000e+002
      vertex   -1.524000e+002 -1.270000e+002 -1.905000e+002
      vertex   1.524000e+002 -1.270000e+002 1.905000e+002
    endloop
  endfacet
  facet normal 0.000000e+000 -1.000000e+000 -0.000000e+000
    outer loop
      vertex   1.524000e+002 -1.270000e+002 1.905000e+002
      vertex   -1.524000e+002 -1.270000e+002 -1.905000e+002
      vertex   1.524000e+002 -1.270000e+002 -1.905000e+002
    endloop
  endfacet
  facet normal -1.000000e+000 -7.459766e-017 1.491953e-016
    outer loop
      vertex   -1.524000e+002 2.540000e+002 1.905000e+002
      vertex   -1.524000e+002 2.540000e+002 -1.905000e+002
      vertex   -1.524000e+002 -1.270000e+002 1.905000e+002
    endloop
  endfacet
  facet normal -1.000000e+000 -7.459766e-017 1.491953e-016
    outer loop
      vertex   -1.524000e+002 -1.270000e+002 1.905000e+002
      vertex   -1.524000e+002 2.540000e+002 -1.905000e+002
      vertex   -1.524000e+002 -1.270000e+002 -1.905000e+002
    endloop
  endfacet
  facet normal -0.000000e+000 1.000000e+000 -0.000000e+000
    outer loop
      vertex   -6.242725e+000 2.540000e+002 5.041496e+001
      vertex   -1.524000e+002 2.540000e+002 1.905000e+002
      vertex   -1.575725e-014 2.540000e+002 5.080000e+001
    endloop
  endfacet
  facet normal 0.000000e+000 1.000000e+000 0.000000e+000
    outer loop
      vertex   -6.242725e+000 2.540000e+002 5.041496e+001
      vertex   -1.239082e+001 2.540000e+002 4.926568e+001
      vertex   -1.524000e+002 2.540000e+002 1.905000e+002
    endloop
  endfacet
  facet normal 0.000000e+000 1.000000e+000 0.000000e+000
    outer loop
      vertex   -1.524000e+002 2.540000e+002 1.905000e+002
      vertex   -1.239082e+001 2.540000e+002 4.926568e+001
      vertex   -1.835108e+001 2.540000e+002 4.736959e+001
    endloop
  endfacet
  facet normal -0.000000e+000 1.000000e+000 -0.000000e+000
    outer loop
      vertex   -2.403315e+001 2.540000e+002 4.475542e+001
      vertex   -1.524000e+002 2.540000e+002 1.905000e+002
      vertex   -1.835108e+001 2.540000e+002 4.736959e+001
    endloop
  endfacet
  facet normal 0.000000e+000 1.000000e+000 0.000000e+000
    outer loop
      vertex   -2.403315e+001 2.540000e+002 4.475542e+001
      vertex   -2.935091e+001 2.540000e+002 4.146280e+001
      vertex   -1.524000e+002 2.540000e+002 1.905000e+002
    endloop
  endfacet
  facet normal 0.000000e+000 1.000000e+000 0.000000e+000
    outer loop
      vertex   -1.524000e+002 2.540000e+002 1.905000e+002
      vertex   -2.935091e+001 2.540000e+002 4.146280e+001
      vertex   -3.422374e+001 2.540000e+002 3.754165e+001
    endloop
  endfacet
  facet normal -0.000000e+000 1.000000e+000 -0.000000e+000
    outer loop
      vertex   -3.857777e+001 2.540000e+002 3.305141e+001
      vertex   -1.524000e+002 2.540000e+002 1.905000e+002
      vertex   -3.422374e+001 2.540000e+002 3.754165e+001
    endloop
  endfacet
  facet normal 0.000000e+000 1.000000e+000 0.000000e+000
    outer loop
      vertex   -3.857777e+001 2.540000e+002 3.305141e+001
      vertex   -4.234700e+001 2.540000e+002 2.806014e+001
      vertex   -1.524000e+002 2.540000e+002 1.905000e+002
    endloop
  endfacet
  facet normal 0.000000e+000 1.000000e+000 0.000000e+000
    outer loop
      vertex   -1.524000e+002 2.540000e+002 1.905000e+002
      vertex   -4.234700e+001 2.540000e+002 2.806014e+001
      vertex   -4.547430e+001 2.540000e+002 2.264351e+001
    endloop
  endfacet
  facet normal -0.000000e+000 1.000000e+000 -0.000000e+000
    outer loop
      vertex   -4.791225e+001 2.540000e+002 1.688362e+001
      vertex   -1.524000e+002 2.540000e+002 1.905000e+002
      vertex   -4.547430e+001 2.540000e+002 2.264351e+001
    endloop
  endfacet
  facet normal 0.000000e+000 1.000000e+000 0.000000e+000
    outer loop
      vertex   -4.791225e+001 2.540000e+002 1.688362e+001
      vertex   -4.962389e+001 2.540000e+002 1.086780e+001
      vertex   -1.524000e+002 2.540000e+002 1.905000e+002
    endloop
  endfacet
  facet normal 0.000000e+000 1.000000e+000 0.000000e+000
    outer loop
      vertex   -1.524000e+002 2.540000e+002 1.905000e+002
      vertex   -4.962389e+001 2.540000e+002 1.086780e+001
      vertex   -5.058330e+001 2.540000e+002 4.687233e+000
    endloop
  endfacet
  facet normal -0.000000e+000 1.000000e+000 -0.000000e+000
    outer loop
      vertex   -5.077591e+001 2.540000e+002 -1.564389e+000
      vertex   -1.524000e+002 2.540000e+002 1.905000e+002
      vertex   -5.058330e+001 2.540000e+002 4.687233e+000
    endloop
  endfacet
  facet normal 0.000000e+000 1.000000e+000 -0.000000e+000
    outer loop
      vertex   -5.077591e+001 2.540000e+002 -1.564389e+000
      vertex   -1.524000e+002 2.540000e+002 -1.905000e+002
      vertex   -1.524000e+002 2.540000e+002 1.905000e+002
    endloop
  endfacet
  facet normal 0.000000e+000 1.000000e+000 0.000000e+000
    outer loop
      vertex   -5.077591e+001 2.540000e+002 -1.564389e+000
      vertex   -5.019881e+001 2.540000e+002 -7.792296e+000
      vertex   -1.524000e+002 2.540000e+002 -1.905000e+002
    endloop
  endfacet
  facet normal -0.000000e+000 1.000000e+000 0.000000e+000
    outer loop
      vertex   -1.524000e+002 2.540000e+002 -1.905000e+002
      vertex   -5.019881e+001 2.540000e+002 -7.792296e+000
      vertex   -4.886074e+001 2.540000e+002 -1.390208e+001
    endloop
  endfacet
  facet normal 0.000000e+000 1.000000e+000 -0.000000e+000
    outer loop
      vertex   -4.678200e+001 2.540000e+002 -1.980112e+001
      vertex   -1.524000e+002 2.540000e+002 -1.905000e+002
      vertex   -4.886074e+001 2.540000e+002 -1.390208e+001
    endloop
  endfacet
  facet normal 0.000000e+000 1.000000e+000 0.000000e+000
    outer loop
      vertex   -4.678200e+001 2.540000e+002 -1.980112e+001
      vertex   -4.399409e+001 2.540000e+002 -2.540000e+001
      vertex   -1.524000e+002 2.540000e+002 -1.905000e+002
    endloop
  endfacet
  facet normal -0.000000e+000 1.000000e+000 0.000000e+000
    outer loop
      vertex   -1.524000e+002 2.540000e+002 -1.905000e+002
      vertex   -4.399409e+001 2.540000e+002 -2.540000e+001
      vertex   -4.053928e+001 2.540000e+002 -3.061384e+001
    endloop
  endfacet
  facet normal 0.000000e+000 1.000000e+000 -0.000000e+000
    outer loop
      vertex   -3.646993e+001 2.540000e+002 -3.536360e+001
      vertex   -1.524000e+002 2.540000e+002 -1.905000e+002
      vertex   -4.053928e+001 2.540000e+002 -3.061384e+001
    endloop
  endfacet
  facet normal 0.000000e+000 1.000000e+000 0.000000e+000
    outer loop
      vertex   -3.646993e+001 2.540000e+002 -3.536360e+001
      vertex   -3.184773e+001 2.540000e+002 -3.957729e+001
      vertex   -1.524000e+002 2.540000e+002 -1.905000e+002
    endloop
  endfacet
  facet normal -0.000000e+000 1.000000e+000 0.000000e+000
    outer loop
      vertex   -1.524000e+002 2.540000e+002 -1.905000e+002
      vertex   -3.184773e+001 2.540000e+002 -3.957729e+001
      vertex   -2.674275e+001 2.540000e+002 -4.319103e+001
    endloop
  endfacet
  facet normal 0.000000e+000 1.000000e+000 -0.000000e+000
    outer loop
      vertex   -2.123239e+001 2.540000e+002 -4.615004e+001
      vertex   -1.524000e+002 2.540000e+002 -1.905000e+002
      vertex   -2.674275e+001 2.540000e+002 -4.319103e+001
    endloop
  endfacet
  facet normal 0.000000e+000 1.000000e+000 0.000000e+000
    outer loop
      vertex   -2.123239e+001 2.540000e+002 -4.615004e+001
      vertex   -1.540016e+001 2.540000e+002 -4.840945e+001
      vertex   -1.524000e+002 2.540000e+002 -1.905000e+002
    endloop
  endfacet
  facet normal -0.000000e+000 1.000000e+000 0.000000e+000
    outer loop
      vertex   -1.524000e+002 2.540000e+002 -1.905000e+002
      vertex   -1.540016e+001 2.540000e+002 -4.840945e+001
      vertex   -9.334476e+000 2.540000e+002 -4.993503e+001
    endloop
  endfacet
  facet normal 0.000000e+000 1.000000e+000 -0.000000e+000
    outer loop
      vertex   -3.127294e+000 2.540000e+002 -5.070365e+001
      vertex   -1.524000e+002 2.540000e+002 -1.905000e+002
      vertex   -9.334476e+000 2.540000e+002 -4.993503e+001
    endloop
  endfacet
  facet normal -0.000000e+000 1.000000e+000 0.000000e+000
    outer loop
      vertex   -3.127294e+000 2.540000e+002 -5.070365e+001
      vertex   3.127294e+000 2.540000e+002 -5.070365e+001
      vertex   -1.524000e+002 2.540000e+002 -1.905000e+002
    endloop
  endfacet
  facet normal -0.000000e+000 1.000000e+000 0.000000e+000
    outer loop
      vertex   -1.524000e+002 2.540000e+002 -1.905000e+002
      vertex   3.127294e+000 2.540000e+002 -5.070365e+001
      vertex   1.524000e+002 2.540000e+002 -1.905000e+002
    endloop
  endfacet
  facet normal 0.000000e+000 1.000000e+000 -0.000000e+000
    outer loop
      vertex   1.524000e+002 2.540000e+002 -1.905000e+002
      vertex   3.127294e+000 2.540000e+002 -5.070365e+001
      vertex   9.334476e+000 2.540000e+002 -4.993503e+001
    endloop
  endfacet
  facet normal 0.000000e+000 1.000000e+000 0.000000e+000
    outer loop
      vertex   1.540016e+001 2.540000e+002 -4.840945e+001
      vertex   1.524000e+002 2.540000e+002 -1.905000e+002
      vertex   9.334476e+000 2.540000e+002 -4.993503e+001
    endloop
  endfacet
  facet normal -0.000000e+000 1.000000e+000 0.000000e+000
    outer loop
      vertex   1.540016e+001 2.540000e+002 -4.840945e+001
      vertex   2.123239e+001 2.540000e+002 -4.615004e+001
      vertex   1.524000e+002 2.540000e+002 -1.905000e+002
    endloop
  endfacet
  facet normal 0.000000e+000 1.000000e+000 -0.000000e+000
    outer loop
      vertex   1.524000e+002 2.540000e+002 -1.905000e+002
      vertex   2.123239e+001 2.540000e+002 -4.615004e+001
      vertex   2.674275e+001 2.540000e+002 -4.319103e+001
    endloop
  endfacet
  facet normal 0.000000e+000 1.000000e+000 0.000000e+000
    outer loop
      vertex   3.184773e+001 2.540000e+002 -3.957729e+001
      vertex   1.524000e+002 2.540000e+002 -1.905000e+002
      vertex   2.674275e+001 2.540000e+002 -4.319103e+001
    endloop
  endfacet
  facet normal -0.000000e+000 1.000000e+000 0.000000e+000
    outer loop
      vertex   3.184773e+001 2.540000e+002 -3.957729e+001
      vertex   3.646993e+001 2.540000e+002 -3.536360e+001
      vertex   1.524000e+002 2.540000e+002 -1.905000e+002
    endloop
  endfacet
  facet normal 0.000000e+000 1.000000e+000 -0.000000e+000
    outer loop
      vertex   1.524000e+002 2.540000e+002 -1.905000e+002
      vertex   3.646993e+001 2.540000e+002 -3.536360e+001
      vertex   4.053928e+001 2.540000e+002 -3.061384e+001
    endloop
  endfacet
  facet normal 0.000000e+000 1.000000e+000 0.000000e+000
    outer loop
      vertex   4.399409e+001 2.540000e+002 -2.540000e+001
      vertex   1.524000e+002 2.540000e+002 -1.905000e+002
      vertex   4.053928e+001 2.540000e+002 -3.061384e+001
    endloop
  endfacet
  facet normal -0.000000e+000 1.000000e+000 0.000000e+000
    outer loop
      vertex   4.399409e+001 2.540000e+002 -2.540000e+001
      vertex   4.678200e+001 2.540000e+002 -1.980112e+001
      vertex   1.524000e+002 2.540000e+002 -1.905000e+002
    endloop
  endfacet
  facet normal 0.000000e+000 1.000000e+000 -0.000000e+000
    outer loop
      vertex   1.524000e+002 2.540000e+002 -1.905000e+002
      vertex   4.678200e+001 2.540000e+002 -1.980112e+001
      vertex   4.886074e+001 2.540000e+002 -1.390208e+001
    endloop
  endfacet
  facet normal 0.000000e+000 1.000000e+000 0.000000e+000
    outer loop
      vertex   5.019881e+001 2.540000e+002 -7.792296e+000
      vertex   1.524000e+002 2.540000e+002 -1.905000e+002
      vertex   4.886074e+001 2.540000e+002 -1.390208e+001
    endloop
  endfacet
  facet normal -0.000000e+000 1.000000e+000 0.000000e+000
    outer loop
      vertex   5.019881e+001 2.540000e+002 -7.792296e+000
      vertex   5.077591e+001 2.540000e+002 -1.564389e+000
      vertex   1.524000e+002 2.540000e+002 -1.905000e+002
    endloop
  endfacet
  facet normal 0.000000e+000 1.000000e+000 -0.000000e+000
    outer loop
      vertex   1.524000e+002 2.540000e+002 -1.905000e+002
      vertex   5.077591e+001 2.540000e+002 -1.564389e+000
      vertex   1.524000e+002 2.540000e+002 1.905000e+002
    endloop
  endfacet
  facet normal 0.000000e+000 1.000000e+000 0.000000e+000
    outer loop
      vertex   1.524000e+002 2.540000e+002 1.905000e+002
      vertex   5.077591e+001 2.540000e+002 -1.564389e+000
      vertex   5.058330e+001 2.540000e+002 4.687233e+000
    endloop
  endfacet
  facet normal -0.000000e+000 1.000000e+000 0.000000e+000
    outer loop
      vertex   4.962389e+001 2.540000e+002 1.086780e+001
      vertex   1.524000e+002 2.540000e+002 1.905000e+002
      vertex   5.058330e+001 2.540000e+002 4.687233e+000
    endloop
  endfacet
  facet normal 0.000000e+000 1.000000e+000 -0.000000e+000
    outer loop
      vertex   4.962389e+001 2.540000e+002 1.086780e+001
      vertex   4.791225e+001 2.540000e+002 1.688362e+001
      vertex   1.524000e+002 2.540000e+002 1.905000e+002
    endloop
  endfacet
  facet normal 0.000000e+000 1.000000e+000 0.000000e+000
    outer loop
      vertex   1.524000e+002 2.540000e+002 1.905000e+002
      vertex   4.791225e+001 2.540000e+002 1.688362e+001
      vertex   4.547430e+001 2.540000e+002 2.264351e+001
    endloop
  endfacet
  facet normal -0.000000e+000 1.000000e+000 0.000000e+000
    outer loop
      vertex   4.234700e+001 2.540000e+002 2.806014e+001
      vertex   1.524000e+002 2.540000e+002 1.905000e+002
      vertex   4.547430e+001 2.540000e+002 2.264351e+001
    endloop
  endfacet
  facet normal 0.000000e+000 1.000000e+000 -0.000000e+000
    outer loop
      vertex   4.234700e+001 2.540000e+002 2.806014e+001
      vertex   3.857777e+001 2.540000e+002 3.305141e+001
      vertex   1.524000e+002 2.540000e+002 1.905000e+002
    endloop
  endfacet
  facet normal 0.000000e+000 1.000000e+000 0.000000e+000
    outer loop
      vertex   1.524000e+002 2.540000e+002 1.905000e+002
      vertex   3.857777e+001 2.540000e+002 3.305141e+001
      vertex   3.422374e+001 2.540000e+002 3.754165e+001
    endloop
  endfacet
  facet normal -0.000000e+000 1.000000e+000 0.000000e+000
    outer loop
      vertex   2.935091e+001 2.540000e+002 4.146280e+001
      vertex   1.524000e+002 2.540000e+002 1.905000e+002
      vertex   3.422374e+001 2.540000e+002 3.754165e+001
    endloop
  endfacet
  facet normal 0.000000e+000 1.000000e+000 -0.000000e+000
    outer loop
      vertex   2.935091e+001 2.540000e+002 4.146280e+001
      vertex   2.403315e+001 2.540000e+002 4.475542e+001
      vertex   1.524000e+002 2.540000e+002 1.905000e+002
    endloop
  endfacet
  facet normal 0.000000e+000 1.000000e+000 0.000000e+000
    outer loop
      vertex   1.524000e+002 2.540000e+002 1.905000e+002
      vertex   2.403315e+001 2.540000e+002 4.475542e+001
      vertex   1.835108e+001 2.540000e+002 4.736959e+001
    endloop
  endfacet
  facet normal -0.000000e+000 1.000000e+000 0.000000e+000
    outer loop
      vertex   1.239082e+001 2.540000e+002 4.926568e+001
      vertex   1.524000e+002 2.540000e+002 1.905000e+002
      vertex   1.835108e+001 2.540000e+002 4.736959e+001
    endloop
  endfacet
  facet normal 0.000000e+000 1.000000e+000 -0.000000e+000
    outer loop
      vertex   1.239082e+001 2.540000e+002 4.926568e+001
      vertex   6.242725e+000 2.540000e+002 5.041496e+001
      vertex   1.524000e+002 2.540000e+002 1.905000e+002
    endloop
  endfacet
  facet normal 0.000000e+000 1.000000e+000 0.000000e+000
    outer loop
      vertex   1.524000e+002 2.540000e+002 1.905000e+002
      vertex   6.242725e+000 2.540000e+002 5.041496e+001
      vertex   -1.575725e-014 2.540000e+002 5.080000e+001
    endloop
  endfacet
  facet normal -0.000000e+000 1.000000e+000 0.000000e+000
    outer loop
      vertex   -1.524000e+002 2.540000e+002 1.905000e+002
      vertex   1.524000e+002 2.540000e+002 1.905000e+002
      vertex   -1.575725e-014 2.540000e+002 5.080000e+001
    endloop
  endfacet
  facet normal -5.594825e-016 -3.912758e-032 -1.000000e+000
    outer loop
      vertex   -1.016000e+002 1.016000e+002 -1.905000e+002
      vertex   -1.016000e+002 -1.016000e+002 -1.905000e+002
      vertex   -1.524000e+002 -1.270000e+002 -1.905000e+002
    endloop
  endfacet
  facet normal -5.594825e-016 -4.173608e-032 -1.000000e+000
    outer loop
      vertex   -1.524000e+002 2.540000e+002 -1.905000e+002
      vertex   -1.016000e+002 1.016000e+002 -1.905000e+002
      vertex   -1.524000e+002 -1.270000e+002 -1.905000e+002
    endloop
  endfacet
  facet normal -3.912758e-032 1.864942e-016 -1.000000e+000
    outer loop
      vertex   -1.524000e+002 2.540000e+002 -1.905000e+002
      vertex   1.016000e+002 1.016000e+002 -1.905000e+002
      vertex   -1.016000e+002 1.016000e+002 -1.905000e+002
    endloop
  endfacet
  facet normal -2.797412e-016 -2.797412e-016 -1.000000e+000
    outer loop
      vertex   -1.524000e+002 2.540000e+002 -1.905000e+002
      vertex   1.524000e+002 2.540000e+002 -1.905000e+002
      vertex   1.016000e+002 1.016000e+002 -1.905000e+002
    endloop
  endfacet
  facet normal -1.118965e-015 -8.347217e-032 -1.000000e+000
    outer loop
      vertex   1.016000e+002 1.016000e+002 -1.905000e+002
      vertex   1.524000e+002 2.540000e+002 -1.905000e+002
      vertex   1.524000e+002 -1.270000e+002 -1.905000e+002
    endloop
  endfacet
  facet normal -2.797412e-016 1.678447e-015 -1.000000e+000
    outer loop
      vertex   1.016000e+002 -1.016000e+002 -1.905000e+002
      vertex   1.524000e+002 -1.270000e+002 -1.905000e+002
      vertex   -1.524000e+002 -1.270000e+002 -1.905000e+002
    endloop
  endfacet
  facet normal 0.000000e+000 -1.118965e-015 -1.000000e+000
    outer loop
      vertex   -1.016000e+002 -1.016000e+002 -1.905000e+002
      vertex   1.016000e+002 -1.016000e+002 -1.905000e+002
      vertex   -1.524000e+002 -1.270000e+002 -1.905000e+002
    endloop
  endfacet
  facet normal -1.118965e-015 -7.825516e-032 -1.000000e+000
    outer loop
      vertex   1.016000e+002 -1.016000e+002 -1.905000e+002
      vertex   1.016000e+002 1.016000e+002 -1.905000e+002
      vertex   1.524000e+002 -1.270000e+002 -1.905000e+002
    endloop
  endfacet
  facet normal -0.000000e+000 0.000000e+000 1.000000e+000
    outer loop
      vertex   -1.016000e+002 -1.016000e+002 1.905000e+002
      vertex   -1.524000e+002 -1.270000e+002 1.905000e+002
      vertex   1.016000e+002 -1.016000e+002 1.905000e+002
    endloop
  endfacet
  facet normal 0.000000e+000 0.000000e+000 1.000000e+000
    outer loop
      vertex   -1.016000e+002 -1.016000e+002 1.905000e+002
      vertex   -1.016000e+002 1.016000e+002 1.905000e+002
      vertex   -1.524000e+002 -1.270000e+002 1.905000e+002
    endloop
  endfacet
  facet normal 0.000000e+000 -0.000000e+000 1.000000e+000
    outer loop
      vertex   -1.524000e+002 -1.270000e+002 1.905000e+002
      vertex   -1.016000e+002 1.016000e+002 1.905000e+002
      vertex   -1.524000e+002 2.540000e+002 1.905000e+002
    endloop
  endfacet
  facet normal -0.000000e+000 0.000000e+000 1.000000e+000
    outer loop
      vertex   -1.524000e+002 2.540000e+002 1.905000e+002
      vertex   -1.016000e+002 1.016000e+002 1.905000e+002
      vertex   1.016000e+002 1.016000e+002 1.905000e+002
    endloop
  endfacet
  facet normal 0.000000e+000 0.000000e+000 1.000000e+000
    outer loop
      vertex   1.524000e+002 2.540000e+002 1.905000e+002
      vertex   1.016000e+002 1.016000e+002 1.905000e+002
      vertex   1.524000e+002 -1.270000e+002 1.905000e+002
    endloop
  endfacet
  facet normal 0.000000e+000 0.000000e+000 1.000000e+000
    outer loop
      vertex   1.524000e+002 2.540000e+002 1.905000e+002
      vertex   -1.524000e+002 2.540000e+002 1.905000e+002
      vertex   1.016000e+002 1.016000e+002 1.905000e+002
    endloop
  endfacet
  facet normal 0.000000e+000 0.000000e+000 1.000000e+000
    outer loop
      vertex   1.016000e+002 1.016000e+002 1.905000e+002
      vertex   1.016000e+002 -1.016000e+002 1.905000e+002
      vertex   1.524000e+002 -1.270000e+002 1.905000e+002
    endloop
  endfacet
  facet normal 0.000000e+000 0.000000e+000 1.000000e+000
    outer loop
      vertex   1.524000e+002 -1.270000e+002 1.905000e+002
      vertex   1.016000e+002 -1.016000e+002 1.905000e+002
      vertex   -1.524000e+002 -1.270000e+002 1.905000e+002
    endloop
  endfacet
endsolid